<?xml version="1.0" encoding="UTF-8" standalone="no"?>
<svg
   version="1.0"
   width="935.000000pt"
   height="838.000000pt"
   viewBox="0 0 935.000000 838.000000"
   preserveAspectRatio="xMidYMid meet"
   id="svg71"
   sodipodi:docname="06_passage_pieton_clous_color_5sur7.svg"
   inkscape:version="1.1.1 (3bf5ae0d25, 2021-09-20)"
   xmlns:inkscape="http://www.inkscape.org/namespaces/inkscape"
   xmlns:sodipodi="http://sodipodi.sourceforge.net/DTD/sodipodi-0.dtd"
   xmlns="http://www.w3.org/2000/svg"
   xmlns:svg="http://www.w3.org/2000/svg">
  <defs
     id="defs75">
    <clipPath
       clipPathUnits="userSpaceOnUse"
       id="clipPath46924">
      <g
         inkscape:label="Clip"
         id="use46926"
         style="fill:#008080">
        <path
           d="m 3675.9194,2168.6959 c 191.1415,375.5024 185.89,375.748 278.1227,624.9808 0,0 1.1493,4.2041 -176.0421,4.3233 -28.2842,0.019 -41,13 -85,-29 -28.8208,-48.8325 -30.6987,-51.0941 -43,-74 l -29,-54 -36,-54 -29,-55 -41,-63 c -53,-103 -137,-249 -146,-255 -6,-4 -22,-30 -35,-58 -14,-28 -38,-71 -54,-96 -16,-25 -41,-65 -55,-90 -36,-64 -70,-111 -102,-143 -27,-26 -27,-28 -13,-55 10,-17 24,-27 38,-26 12,0 85,1 162,2 137,2 140,2 169,30 19,17 59,91 110,203 45,97 86.9194,181.6959 86.9194,187.6959"
           id="path89116"
           sodipodi:nodetypes="ccscsccccscscccccccc"
           style="fill:#008080" />
      </g>
    </clipPath>
    <clipPath
       clipPathUnits="userSpaceOnUse"
       id="clipPath46924-0">
      <g
         inkscape:label="Clip"
         id="use46926-0"
         style="fill:#008080;fill-opacity:1;stroke-width:0.997659;stroke-miterlimit:4;stroke-dasharray:none">
        <path
           d="m 3675.9194,2168.6959 c 191.1415,375.5024 185.89,375.748 278.1227,624.9808 0,0 1.1493,4.2041 -176.0421,4.3233 -28.2842,0.019 -41,13 -85,-29 -28.8208,-48.8325 -30.6987,-51.0941 -43,-74 l -29,-54 -36,-54 -29,-55 -41,-63 c -53,-103 -137,-249 -146,-255 -6,-4 -22,-30 -35,-58 -14,-28 -38,-71 -54,-96 -16,-25 -41,-65 -55,-90 -36,-64 -70,-111 -102,-143 -27,-26 -27,-28 -13,-55 10,-17 24,-27 38,-26 12,0 85,1 162,2 137,2 140,2 169,30 19,17 59,91 110,203 45,97 86.9194,181.6959 86.9194,187.6959"
           id="path89120"
           sodipodi:nodetypes="ccscsccccscscccccccc"
           style="fill:#ff3b00;fill-opacity:1;stroke-width:0.997659;stroke-miterlimit:4;stroke-dasharray:none" />
      </g>
    </clipPath>
  </defs>
  <sodipodi:namedview
     id="namedview73"
     pagecolor="#505050"
     bordercolor="#eeeeee"
     borderopacity="1"
     inkscape:pageshadow="0"
     inkscape:pageopacity="0"
     inkscape:pagecheckerboard="0"
     inkscape:document-units="pt"
     showgrid="false"
     inkscape:zoom="1"
     inkscape:cx="623.5"
     inkscape:cy="521.5"
     inkscape:window-width="1920"
     inkscape:window-height="1017"
     inkscape:window-x="-8"
     inkscape:window-y="-8"
     inkscape:window-maximized="1"
     inkscape:current-layer="svg71"
     inkscape:snap-object-midpoints="false"
     inkscape:snap-center="false"
     inkscape:snap-midpoints="false"
     inkscape:snap-others="false" />
  <path
     style="fill:#ffffff;fill-opacity:1;stroke:#ffffff;stroke-width:0.12666667;stroke-miterlimit:4;stroke-dasharray:none;stroke-opacity:1"
     d="m 288.5,977.04937 c -29.39331,-0.5209 -31.1814,-0.6602 -34.5,-2.68776 -1.925,-1.17611 -5.8318,-2.88958 -8.68177,-3.8077 -2.84998,-0.91813 -7.21048,-3.21835 -9.69001,-5.11161 -2.47953,-1.89327 -5.00454,-3.4423 -5.61113,-3.4423 -1.64381,0 -17.46061,-16.03329 -19.23669,-19.5 -0.84534,-1.65 -2.90995,-5.475 -4.58802,-8.5 -3.75852,-6.77536 -7.07149,-19.03796 -7.83488,-29 -0.4795,-6.25733 -0.0498,-9.73681 2.59336,-21 1.74245,-7.425 4.31871,-15.72941 5.72503,-18.45424 1.40632,-2.72484 3.16213,-6.66951 3.90179,-8.76594 0.73967,-2.09643 2.48543,-5.30708 3.87948,-7.13477 1.39405,-1.8277 3.05786,-4.85802 3.69735,-6.73407 0.63948,-1.87604 2.55383,-5.43598 4.2541,-7.91098 1.70026,-2.475 4.48501,-7.2 6.18833,-10.5 8.00561,-15.51007 37.51382,-69.17942 41.51102,-75.5 1.56521,-2.475 4.58903,-7.875 6.7196,-12 6.31817,-12.23264 16.81343,-30.2716 19.5377,-33.58087 1.39494,-1.69448 3.47677,-5.59463 4.62629,-8.66701 1.14953,-3.07237 2.91101,-6.63598 3.91441,-7.91913 1.0034,-1.28314 4.98517,-8.18299 8.84838,-15.33299 21.20857,-39.25264 27.34836,-50.42028 29.91187,-54.40662 1.55859,-2.42363 4.40879,-7.47718 6.33379,-11.23009 4.2229,-8.23283 9.103,-16.82288 17.61387,-31.00433 C 371.12624,569.00639 374,563.87079 374,563.44651 c 0,-0.42428 1.4625,-3.03341 3.25,-5.79807 3.27323,-5.06259 6.2714,-10.51831 11.34723,-20.64844 1.51572,-3.025 8.83927,-16.3 16.27456,-29.5 13.93182,-24.73341 20.00216,-35.68108 26.22244,-47.29131 5.02707,-9.38309 16.20191,-28.84931 19.57988,-34.10752 1.55424,-2.41936 3.73198,-6.46936 4.83943,-9 1.10745,-2.53065 3.94177,-7.97617 6.2985,-12.10117 10.04567,-17.58304 18.39087,-32.59231 27.24342,-48.9987 5.19307,-9.62429 10.28502,-18.34178 11.31544,-19.3722 1.03042,-1.03042 2.89442,-4.47859 4.14222,-7.66259 1.24781,-3.184 3.6089,-7.74151 5.24687,-10.1278 1.63798,-2.38629 4.89315,-8.16371 7.23371,-12.83871 2.34056,-4.675 5.21198,-9.84315 6.38093,-11.48478 1.16895,-1.64162 6.08256,-10.41662 10.91912,-19.5 4.83657,-9.08337 11.28564,-20.79022 14.33127,-26.01522 3.04564,-5.225 9.32632,-16.20051 13.95707,-24.39002 9.22143,-16.30819 15.69151,-24.37665 27.91345,-34.80929 16.69017,-14.24673 32.74807,-19.61023 52.77891,-17.62871 5.07405,0.50194 10.87641,1.35106 12.89414,1.88694 4.97366,1.32093 20.02793,10.77809 27.10941,17.03026 6.45456,5.69867 20.44713,22.52639 23.20838,27.91082 0.98718,1.925 3.08159,5.38108 4.65425,7.68017 1.57265,2.2991 2.86044,4.7741 2.86175,5.5 10e-4,0.72591 1.80131,3.96807 4,7.2048 2.19869,3.23673 3.99762,6.44874 3.99762,7.13779 0,0.68905 1.55392,3.51181 3.45315,6.27281 1.89923,2.76099 4.51953,7.19899 5.82289,9.86221 1.30336,2.66322 6.21337,11.59222 10.91113,19.84222 4.69777,8.25 12.2493,21.975 16.78118,30.5 4.53189,8.525 8.81251,16.175 9.5125,17 0.69999,0.825 2.19621,3.6225 3.32495,6.21666 1.12874,2.59417 3.43419,6.72525 5.12322,9.18018 1.68904,2.45493 3.07098,4.84407 3.07098,5.3092 0,0.46513 2.00967,4.07502 4.46594,8.02198 2.45626,3.94696 6.47445,11.17549 8.9293,16.0634 2.45486,4.88791 5.5398,10.19694 6.85544,11.79784 1.31563,1.60091 3.41753,5.48056 4.67089,8.62145 1.25335,3.14089 2.89125,6.21898 3.63977,6.84019 0.74851,0.62122 3.79965,5.7014 6.78029,11.28929 2.98065,5.5879 9.61132,17.80981 14.73483,27.15981 5.1235,9.35 11.15934,20.69707 13.41298,25.21571 2.25363,4.51864 5.03502,9.24364 6.18086,10.5 1.14585,1.25636 2.61354,3.94107 3.26155,5.96602 0.64801,2.02495 2.55031,5.39995 4.22735,7.5 1.67704,2.10005 5.01333,7.71901 7.41398,12.48657 2.40066,4.76757 6.17878,11.47484 8.39583,14.90504 2.21704,3.4302 4.03099,6.75386 4.03099,7.38592 0,0.63205 1.41682,3.37478 3.14848,6.09496 3.3819,5.31244 29.7445,53.324 34.96661,63.68117 1.73725,3.44554 4.89704,8.82742 7.02177,11.95974 2.12473,3.13232 3.86314,6.34433 3.86314,7.13779 0,0.79346 1.66532,3.85565 3.70071,6.80487 2.0354,2.94921 4.78968,7.61003 6.12064,10.35737 1.33096,2.74734 3.64437,6.79734 5.14092,9 1.49656,2.20266 4.88802,8.05484 7.5366,13.00484 2.64858,4.95 12.56447,22.95 22.03532,40 9.47086,17.05 20.4598,37.075 24.41989,44.5 3.96008,7.425 8.02972,14.4 9.04362,15.5 1.0139,1.1 2.7333,4.3555 3.8209,7.23444 1.0876,2.87894 3.1801,6.66378 4.6501,8.41074 1.47,1.74696 4.7142,7.26646 7.2095,12.26556 2.4952,4.99909 5.549,10.43926 6.7861,12.08926 1.2371,1.65 3.8351,6.375 5.7733,10.5 1.9382,4.125 4.7026,9.04993 6.1432,10.94428 1.4406,1.89435 2.6192,3.8428 2.6192,4.32988 0,0.48709 3.7685,7.71216 8.3744,16.05572 12.0485,21.82552 14.4289,26.81008 18.9449,39.66937 l 4.0388,11.50075 0.071,17 0.071,17 -3.8203,8.5 c -5.7146,12.71506 -5.6242,12.563 -11.9031,20.02228 -10.3631,12.31141 -20.3818,19.08725 -39.6592,26.82243 L 1010.5,977.5 665,977.54937 c -190.025,0.0272 -359.45,-0.19785 -376.5,-0.5 z m 66.90685,-92.70099 7.7086,-0.65161 7.56421,-8.59839 c 4.16031,-4.72911 10.466,-13.0552 14.01265,-18.50243 3.54664,-5.44723 8.16286,-11.97223 10.25827,-14.5 2.0954,-2.52777 5.76274,-7.74595 8.14963,-11.59595 2.3869,-3.85 6.8283,-10.41521 9.8698,-14.58936 5.82768,-7.99791 14.93279,-20.94957 29.02999,-41.29405 4.675,-6.74676 11.08445,-15.29254 14.24323,-18.99063 6.04361,-7.07548 7.80263,-10.97907 5.83509,-12.94918 -0.75612,-0.75711 -6.25584,-1.29782 -15.42158,-1.51618 l -14.24633,-0.33939 -8.4989,9.33939 c -4.67439,5.13667 -13.70535,15.8644 -20.0688,23.8394 -6.36344,7.975 -15.57507,19 -20.47028,24.5 -4.8952,5.5 -11.45897,13.375 -14.58614,17.5 -3.12717,4.125 -10.004,12.45 -15.28185,18.5 -5.27786,6.05 -12.38798,14.31784 -15.80027,18.37298 -3.41229,4.05515 -9.7204,11.13968 -14.01802,15.74342 -6.8658,7.35486 -7.77577,8.76502 -7.5,11.62264 0.26079,2.70238 0.82104,3.35975 3.31385,3.88827 4.13021,0.87569 26.53119,1.01361 35.90685,0.22107 z m 96.85695,-0.2581 c 7.24026,-0.63414 9.21755,-1.18678 11.37388,-3.17893 2.68751,-2.4829 10.18558,-17.40258 36.13991,-71.91135 13.64249,-28.65169 28.34158,-64.21416 27.06811,-65.48763 -0.28133,-0.28133 -6.55869,-0.80153 -13.94969,-1.15599 -16.8594,-0.80856 -18.09871,-0.29789 -24.01893,9.89735 -2.31428,3.98545 -7.90805,13.54627 -12.4306,21.24627 -4.52254,7.7 -11.71738,20.3 -15.98854,28 -4.27115,7.7 -8.5659,15.15151 -9.54387,16.55892 -0.97798,1.40741 -6.14894,10.18241 -11.49102,19.5 -11.51664,20.08716 -16.94929,28.48522 -22.52327,34.81759 -3.89511,4.42509 -4.05168,4.84257 -2.87834,7.67526 0.68246,1.64759 1.96932,3.42128 2.8597,3.94152 1.92314,1.12368 23.00079,1.18146 35.38266,0.097 z m 108.096,-0.46725 c 4.55593,-1.90359 6.06206,-5.6039 10.74079,-26.38837 2.19571,-9.75406 7.82316,-33.70966 12.50544,-53.23466 11.4477,-47.73667 12.98794,-55.40689 11.80412,-58.78319 -0.92203,-2.62964 -1.22464,-2.72689 -9.43137,-3.03089 -12.57234,-0.46573 -18.80194,0.52022 -21.46883,3.39784 -1.27177,1.37227 -4.50395,9.18196 -7.51662,18.16188 -2.90698,8.6649 -8.35252,23.62936 -12.10121,33.25436 -3.74868,9.625 -10.4893,27.4 -14.97916,39.5 -4.48987,12.1 -9.90598,26.05 -12.03581,31 -4.74899,11.03725 -5.01666,14.91715 -1.12715,16.33772 4.40964,1.61054 39.6567,1.43702 43.6098,-0.21469 z m 94.43565,0.39062 c 4.3612,-0.0112 5.75491,-0.4731 7.89965,-2.61785 l 2.6042,-2.60419 -0.70816,-20.64581 c -0.38949,-11.35519 -1.31135,-40.46389 -2.04857,-64.686 -1.46285,-48.06287 -1.82517,-50.73967 -7.04527,-52.04983 -3.99748,-1.00331 -23.6948,0.0703 -26.21334,1.42875 -3.01239,1.62484 -3.90339,5.81932 -5.2386,24.66128 -0.6236,8.8 -1.76591,20.275 -2.53848,25.5 -0.77257,5.225 -2.55761,20.3 -3.96675,33.5 -1.40914,13.2 -3.51122,30.45841 -4.6713,38.35202 l -2.10924,14.35202 2.14519,2.14798 c 1.94655,1.94909 3.55491,2.20171 17.3702,2.72821 8.37376,0.31913 16.12502,0.43778 17.22502,0.26366 1.1,-0.17412 4.38295,-0.32273 7.29545,-0.33024 z m 115.01447,-0.0972 c 4.31158,-1.50303 4.68232,-3.80717 1.7381,-10.80232 -2.95188,-7.01337 -11.25504,-29.56559 -19.55527,-53.1141 -3.19869,-9.075 -7.80844,-21.69087 -10.24388,-28.03527 -2.43544,-6.3444 -6.09702,-16.9194 -8.13685,-23.5 -5.32078,-17.16517 -7.56266,-22.38628 -10.41483,-24.2551 -2.98859,-1.95819 -26.66596,-3.00541 -29.19719,-1.29135 -2.79928,1.89558 -1.42911,12.60901 5.82957,45.58172 3.8745,17.6 9.55307,44.15 12.61904,59 3.06597,14.85 6.34071,28.74977 7.27721,30.88837 2.62696,5.99898 4.82814,6.52746 27.37496,6.57249 11.60336,0.0232 20.86903,-0.40298 22.70914,-1.04444 z m 190.28053,-1.7772 C 961.1407,880.84078 962,879.38418 962,878.90233 c 0,-0.48186 -3.28749,-4.59451 -7.30554,-9.13922 -7.88297,-8.91623 -17.5027,-21.3279 -24.69189,-31.85822 -2.47641,-3.62732 -7.47851,-10.37732 -11.11578,-15 -3.63726,-4.62269 -8.81226,-11.58186 -11.5,-15.46481 -2.68773,-3.88296 -8.14431,-11.30796 -12.12573,-16.5 -3.98142,-5.19205 -9.60642,-12.69165 -12.5,-16.66579 -13.22247,-18.16016 -22.86685,-30.00856 -25.44862,-31.26437 -3.9816,-1.9367 -24.02491,-2.5059 -27.31244,-0.77563 -3.87757,2.0408 -3.66221,5.23054 0.78359,11.60621 2.17053,3.11272 4.73354,7.2345 5.69557,9.1595 0.96204,1.925 2.79892,4.625 4.08195,6 1.28304,1.375 3.08091,4.3 3.99527,6.5 0.91435,2.2 3.18823,6.08529 5.05304,8.63398 1.86482,2.54868 3.39058,4.94261 3.39058,5.31982 0,0.37722 1.38,2.69162 3.06667,5.14311 1.68667,2.45149 3.99667,6.69507 5.13333,9.43017 1.13666,2.73511 2.41332,4.97292 2.83703,4.97292 0.97693,0 10.38428,14.61786 13.03206,20.2502 1.09881,2.33739 4.79528,8.6264 8.21437,13.97558 3.4191,5.34918 9.11524,14.45545 12.6581,20.23616 3.54285,5.7807 8.39513,12.74359 10.78282,15.47309 5.1232,5.85658 4.86618,5.81128 32.11607,5.66076 16.96334,-0.0937 17.38199,-0.14713 19.25,-2.45657 z m -97.16303,-0.77408 c 2.80571,-3.56689 2.66687,-4.34936 -1.77162,-9.98451 -6.01633,-7.63839 -10.00369,-14.84019 -33.70721,-60.88063 -23.43649,-45.52178 -34.90796,-66.67548 -36.66849,-67.61769 -1.75134,-0.93729 -27.61023,-1.38551 -28.50171,-0.49403 -0.98181,0.98181 14.38928,42.40328 23.18333,62.4736 5.69652,13.00096 13.81257,31.94037 18.03566,42.08757 12.01049,28.85863 15.5726,35.02112 21.00262,36.33472 1.1,0.2661 9.72984,0.53603 19.17742,0.59983 l 17.17742,0.116 z"
     id="path83368"
     transform="scale(0.75)" />
  <path
     style="fill:#ffffff;fill-opacity:1;stroke:#190000;stroke-width:7.46000074;stroke-miterlimit:4;stroke-dasharray:none;stroke-opacity:1"
     d="m 235,1080.0023 c -18.5755,-0.4127 -28.46701,-1.0193 -30.47975,-1.8692 -1.63887,-0.6921 -6.71025,-2.1281 -11.26976,-3.1913 -4.5595,-1.0631 -10.86861,-3.2291 -14.02024,-4.8133 -3.15164,-1.5842 -7.10481,-3.1776 -8.78484,-3.5409 -1.68002,-0.3634 -5.24673,-2.2192 -7.92602,-4.1241 -2.67929,-1.9049 -5.37556,-3.4635 -5.99171,-3.4635 -5.17172,0 -33.65371,-25.2726 -45.64311,-40.5 -6.19369,-7.8664 -13.328986,-19.10026 -14.385957,-22.6493 -0.385045,-1.29289 -1.978706,-4.66023 -3.541469,-7.483 -1.562764,-2.82276 -3.562882,-7.91663 -4.444708,-11.31971 -0.881826,-3.40308 -2.820371,-8.74354 -4.307878,-11.8677 L 81.5,959.5 V 928 896.5 l 2.727539,-7.24733 c 1.500146,-3.98603 3.414352,-10.20881 4.253791,-13.8284 0.839438,-3.61959 2.611087,-8.45829 3.936998,-10.75267 1.32591,-2.29438 3.127653,-6.62739 4.003873,-9.62891 0.87622,-3.00152 2.650354,-7.05152 3.942519,-9 1.29217,-1.94848 8.54362,-15.24269 16.11433,-29.54269 7.57072,-14.3 15.44494,-28.475 17.49828,-31.5 2.05334,-3.025 4.07862,-6.625 4.50063,-8 0.422,-1.375 2.33597,-4.975 4.25325,-8 3.53915,-5.58389 8.51859,-14.29732 17.40296,-30.45312 2.70792,-4.92421 5.52326,-9.64921 6.25632,-10.5 0.73306,-0.85078 6.41048,-10.99688 12.61648,-22.54688 18.5615,-34.54482 27.0662,-49.91415 28.4989,-51.50201 0.74538,-0.8261 2.75041,-4.4261 4.45561,-8 1.70521,-3.57389 4.54896,-8.84586 6.31945,-11.71547 1.77049,-2.86961 5.91907,-10.27152 9.21907,-16.44868 3.3,-6.17717 8.08155,-14.4043 10.62567,-18.28252 2.54412,-3.87823 4.93635,-8.06195 5.31607,-9.29716 0.37971,-1.23521 5.32267,-10.46021 10.98435,-20.5 5.66167,-10.03979 14.57779,-26.12916 19.81359,-35.75416 5.23581,-9.625 11.54206,-20.65 14.0139,-24.5 2.47183,-3.85 4.83502,-8.125 5.25153,-9.5 0.4165,-1.375 1.5645,-3.64707 2.55109,-5.04905 0.9866,-1.40198 4.80154,-8.15198 8.47765,-15 3.67611,-6.84802 7.48734,-13.35095 8.46938,-14.45095 0.98205,-1.1 3.91681,-6.275 6.52171,-11.5 2.60489,-5.225 6.92742,-12.91995 9.60561,-17.09989 2.6782,-4.17994 4.86945,-8.15874 4.86945,-8.84177 0,-0.68303 2.4362,-5.58807 5.41377,-10.9001 2.97757,-5.31203 8.26507,-14.75473 11.75,-20.98378 3.48493,-6.22905 7.85464,-13.61199 9.71048,-16.40652 1.85584,-2.79454 4.46635,-7.55042 5.80114,-10.56862 1.3348,-3.0182 3.69418,-7.33527 5.24308,-9.59348 1.5489,-2.25821 4.97226,-8.15584 7.60745,-13.10584 2.6352,-4.95 5.57544,-9.9 6.53387,-11 0.95842,-1.1 3.15368,-4.925 4.87834,-8.5 1.72467,-3.575 5.16161,-10.1 7.63765,-14.5 2.47604,-4.4 6.08259,-11.15 8.01455,-15 1.93196,-3.85 4.78179,-9.025 6.33295,-11.5 1.55117,-2.475 6.11486,-10.575 10.14152,-18 4.02667,-7.425 9.22533,-16.31511 11.55257,-19.7558 2.32725,-3.4407 4.77109,-7.9407 5.43076,-10 0.65967,-2.05931 2.20486,-5.0942 3.43376,-6.7442 1.2289,-1.65 3.44391,-5.38841 4.92226,-8.30758 1.47835,-2.91918 4.4543,-8.19355 6.61324,-11.72083 2.15894,-3.52729 9.3783,-16.63394 16.04303,-29.12589 6.66473,-12.49196 13.15228,-24.09259 14.41678,-25.77918 1.26449,-1.68659 3.52836,-5.54152 5.0308,-8.56652 1.50245,-3.025 4.85696,-8.425 7.45448,-12 2.59752,-3.575 6.3448,-8.975 8.3273,-12 8.64157,-13.18576 29.32537,-33.594933 39.21022,-38.689602 1.65,-0.850413 5.25,-3.232421 8,-5.293351 8.47337,-6.350188 19.71001,-11.586917 42.5,-19.806711 6.53264,-2.356162 72.15988,-2.268094 79,0.106014 22.02824,7.64569 31.669,12.370337 48.5,23.768386 13.53591,9.166599 37.93205,33.846774 45.38684,45.915264 2.88778,4.675 6.95645,10.975 9.04149,14 4.44004,6.44166 11.80639,19.2072 17.60002,30.5 2.25736,4.4 7.16436,13.175 10.90445,19.5 3.74008,6.325 10.50824,18.475 15.04035,27 4.53212,8.525 9.65471,17.7256 11.38353,20.44578 1.72883,2.72018 3.14332,5.48218 3.14332,6.13779 0,0.6556 1.64749,3.58704 3.66109,6.5143 2.0136,2.92726 4.27214,7.35264 5.01897,9.83418 0.74684,2.48153 2.65083,5.8745 4.23111,7.53992 1.58028,1.66541 3.87446,5.05303 5.09818,7.52803 1.22372,2.475 4.43212,8.17886 7.12977,12.67525 2.69766,4.49639 5.98859,10.57139 7.31319,13.5 1.32461,2.92861 4.01472,7.54146 5.97803,10.25077 1.96331,2.70931 3.56966,5.35955 3.56966,5.8894 0,0.52986 1.35758,3.16974 3.01685,5.8664 1.65927,2.69665 7.78812,13.77142 13.61966,24.6106 5.83153,10.83917 11.38991,20.83258 12.35195,22.20758 0.96203,1.375 2.08542,3.625 2.49641,5 0.41099,1.375 1.80194,3.90875 3.09098,5.63055 1.28905,1.72181 3.51127,5.77181 4.93827,9 1.42701,3.2282 3.65325,6.99445 4.9472,8.36945 1.29396,1.375 3.08187,4.27205 3.97315,6.4379 0.89127,2.16584 3.12664,6.21584 4.96749,9 1.84085,2.78415 5.24242,8.84205 7.55904,13.46199 2.31663,4.61994 5.74811,10.63294 7.62553,13.36221 1.87741,2.72928 3.41347,5.42772 3.41347,5.99654 0,0.56882 3.08341,6.25582 6.85202,12.63779 3.76861,6.38196 11.49976,20.37857 17.18034,31.10357 5.68058,10.725 11.62242,21.41778 13.20409,23.76172 1.58167,2.34395 3.36266,5.71895 3.95776,7.5 0.5951,1.78106 2.08101,4.58828 3.30202,6.23828 1.22101,1.65 3.4592,5.475 4.97375,8.5 1.51452,3.025 3.75802,6.85 4.98562,8.5 1.2275,1.65 4.6323,7.5 7.5663,13 2.934,5.5 6.362,11.25147 7.6179,12.78105 1.2558,1.52958 2.7197,4.3614 3.253,6.29293 0.5333,1.93153 3.174,6.98005 5.8681,11.21895 2.6941,4.23889 7.5142,12.65707 10.7112,18.70707 8.5901,16.25587 22.251,41.03393 26.9288,48.8432 2.2545,3.76376 4.598,7.81376 5.2079,9 0.6098,1.18624 1.9598,3.81732 3,5.84685 1.696,3.30913 7.3196,12.89848 16.8984,28.81502 1.8221,3.02779 4.1132,7.52779 5.0913,10 0.9781,2.47221 3.4423,6.96993 5.476,9.99493 2.0337,3.025 5.0861,8.27438 6.7832,11.66528 5.2923,10.57461 30.2772,55.31106 33.1217,59.30584 1.0353,1.45384 2.7971,5.05093 3.9152,7.99355 1.1181,2.94262 3.0898,6.51687 4.3815,7.94277 2.8591,3.15604 15.8399,25.83563 19.3539,33.81464 1.3996,3.17785 3.1621,6.46808 3.9166,7.3116 1.2886,1.44067 2.39,4.29323 9.4883,24.57519 4.0355,11.53072 5.9265,25.75908 6.6306,49.89113 0.6953,23.82857 -0.1967,30.75536 -6.3739,49.5 -5.4351,16.49264 -12.0809,29.098 -21.8796,41.5 -9.8699,12.4921 -27.0986,29.7763 -33.3925,33.5 -2.324,1.375 -5.6417,3.681 -7.3725,5.1244 -3.8055,3.1736 -27.1798,14.9297 -34.147,17.1743 -2.75,0.8859 -10.519,3.2062 -17.2644,5.156 L 1056.9712,1081 659.73558,1080.8066 C 441.25601,1080.7003 250.125,1080.3383 235,1080.0023 Z m 791,-39.8081 c 18.0661,-4.6422 23.4891,-6.5489 35.5,-12.4817 27.4042,-13.5365 47.2834,-33.8054 61.0161,-62.2125 5.7017,-11.79418 8.1401,-19.51767 10.5765,-33.5 5.1539,-29.57687 2.5808,-60.53832 -7.2613,-87.37613 -4.6106,-12.57225 -12.1531,-29.21698 -14.3293,-31.62167 -0.7971,-0.88082 -2.145,-3.57325 -2.9953,-5.98318 -0.8503,-2.40992 -2.6907,-5.88258 -4.0899,-7.71701 -1.3992,-1.83444 -3.4816,-5.45495 -4.6276,-8.04558 -1.1459,-2.59064 -3.766,-7.19564 -5.8224,-10.23334 -2.0564,-3.0377 -5.1898,-8.44809 -6.9631,-12.02309 -1.7733,-3.575 -4.2938,-7.92491 -5.6011,-9.66647 -1.3073,-1.74157 -3.9065,-6.46657 -5.7759,-10.5 -1.8694,-4.03344 -4.5752,-8.88346 -6.0128,-10.77781 -1.4377,-1.89435 -2.6139,-3.87764 -2.6139,-4.40729 0,-0.52966 -2.6442,-5.50473 -5.876,-11.05572 -3.2317,-5.55099 -9.1577,-16.39271 -13.1688,-24.09271 -4.0112,-7.7 -8.1652,-15.26215 -9.2312,-16.80478 -1.066,-1.54263 -3.5775,-5.97271 -5.5811,-9.84462 -7.1529,-13.82285 -12.8825,-23.84637 -19.7068,-34.47539 -1.8096,-2.81864 -5.3965,-9.34364 -7.9707,-14.5 -2.5742,-5.15637 -5.73892,-10.78396 -7.03268,-12.50576 -1.29376,-1.72181 -3.42314,-5.54681 -4.73195,-8.5 C 992.39196,598.91625 987.93543,590.65 983.79738,583.5 979.65932,576.35 970.73049,560.375 963.95553,548 957.18057,535.625 949.919,522.60341 947.81871,519.06314 945.71842,515.52286 944,512.06989 944,511.38986 c 0,-0.68002 -1.09777,-2.54104 -2.4395,-4.13559 -1.34172,-1.59455 -5.10934,-7.852 -8.37247,-13.90546 -3.26314,-6.05346 -7.09786,-12.77085 -8.52161,-14.92755 -1.42375,-2.15669 -3.29299,-5.92392 -4.15386,-8.37161 -0.86087,-2.4477 -2.18905,-5.1477 -2.95151,-6 C 916.79859,463.19734 908.29293,448.1 898.65959,430.5 c -9.63333,-17.6 -19.23515,-34.69628 -21.33737,-37.99172 -2.10222,-3.29545 -4.83978,-8.44684 -6.08347,-11.44753 -1.24369,-3.00069 -3.11642,-6.37941 -4.16162,-7.50827 -1.04521,-1.12887 -4.10432,-6.10248 -6.79802,-11.05248 -19.53966,-35.90641 -36.3634,-66.37322 -40.8627,-74 -2.92017,-4.95 -5.63425,-9.9 -6.03127,-11 -0.39702,-1.1 -1.93678,-3.8 -3.42169,-6 -1.48492,-2.2 -4.3945,-7.375 -6.46575,-11.5 -2.07125,-4.125 -5.35134,-9.975 -7.28909,-13 -1.93775,-3.025 -4.61495,-7.975 -5.94932,-11 -1.33438,-3.025 -3.22185,-6.4 -4.19439,-7.5 -0.97254,-1.1 -7.09489,-11.9 -13.60521,-24 C 757.53173,176.75509 755.95885,174.28149 744.59491,160.67823 729.11194,142.14427 716.00893,130.6804 700.59792,122.18508 686.66137,114.50256 685.62426,114 683.70679,114 c -1.02868,0 -6.67104,-1.6875 -12.53856,-3.75 L 660.5,106.5 H 635 c -25.41027,0 -25.52111,0.009 -31.5,2.65049 -3.3,1.45777 -8.025,3.17947 -10.5,3.826 -6.91528,1.80645 -21.92854,8.94805 -27.5,13.08137 -2.75,2.04015 -6.56768,4.50269 -8.48374,5.4723 -6.58033,3.32997 -26.32079,23.88159 -35.68892,37.15544 -9.09765,12.89059 -10.25575,14.70717 -12.63198,19.8144 -0.76769,1.65 -4.91965,9.075 -9.22658,16.5 -4.30692,7.425 -9.75642,17.03232 -12.11,21.34961 -2.35357,4.31728 -4.69583,8.36728 -5.20502,9 -0.50918,0.63271 -3.51971,6.10039 -6.69005,12.15039 -3.17034,6.05 -7.41384,13.72222 -9.43,17.04937 -2.01617,3.32716 -3.98983,6.89389 -4.38592,7.92609 -1.16594,3.03839 -16.44074,30.13671 -20.71629,36.75182 -2.16233,3.34554 -3.9315,6.8256 -3.9315,7.73348 0,0.90787 -1.17597,3.20061 -2.61326,5.09496 -1.4373,1.89435 -3.75885,5.91928 -5.159,8.94428 -1.40016,3.025 -3.75251,7.3 -5.22745,9.5 -1.47495,2.2 -5.9635,10.075 -9.97457,17.5 -4.01108,7.425 -9.8739,18 -13.02851,23.5 -3.1546,5.5 -11.45839,20.56016 -18.45286,33.46702 -6.99447,12.90686 -13.57216,24.66767 -14.61708,26.13513 -1.04493,1.46745 -2.83496,4.85729 -3.97786,7.53298 -1.1429,2.67568 -3.13963,5.98987 -4.43718,7.36487 -1.29754,1.375 -3.22371,4.79233 -4.28038,7.59407 -1.05666,2.80174 -3.28179,7.07674 -4.94473,9.5 -1.66293,2.42326 -4.70859,7.78093 -6.76813,11.90593 -2.05954,4.125 -5.41259,9.975 -7.45124,13 -2.03864,3.025 -7.82815,13.41243 -12.86557,23.08318 -5.03742,9.67075 -10.9676,20.24575 -13.17818,23.5 -2.21058,3.25425 -4.02031,6.51716 -4.02162,7.2509 -0.003,1.52723 -15.67858,29.22066 -20.67673,36.52813 -1.82911,2.67422 -3.32565,5.47154 -3.32565,6.21626 0,0.74473 -1.78392,4.11413 -3.96428,7.48755 -2.18035,3.37343 -4.267,7.10112 -4.63699,8.28375 -0.37,1.18262 -1.88981,3.95023 -3.37737,6.15023 -1.48755,2.2 -4.8746,8.05 -7.52677,13 -2.65218,4.95 -8.57344,15.82655 -13.15837,24.17012 C 244.7513,662.01368 241,669.27108 241,669.79767 c 0,0.52659 -0.68514,1.52606 -1.52254,2.22103 -0.83739,0.69498 -3.69498,5.36258 -6.35019,10.37245 -10.88804,20.5436 -17.95692,33.38091 -20.95484,38.05463 -1.74484,2.72018 -3.17243,5.51702 -3.17243,6.2152 0,0.69819 -1.35258,2.80994 -3.00574,4.69278 -1.65316,1.88284 -4.16341,6.04104 -5.57834,9.24043 -1.41492,3.1994 -3.38225,6.96205 -4.37185,8.36145 -0.9896,1.3994 -4.26497,7.26936 -7.27861,13.04436 -3.01365,5.775 -10.12797,18.825 -15.8096,29 -5.68164,10.175 -11.42523,20.75 -12.76353,23.5 -1.3383,2.75 -3.6993,6.8 -5.24666,9 -1.54736,2.2 -3.33875,6.01746 -3.98088,8.48325 -0.64212,2.46579 -2.22237,6.56495 -3.51165,9.10923 -1.28929,2.54429 -3.03025,7.58433 -3.8688,11.20009 -0.83855,3.61577 -2.72845,9.86662 -4.19977,13.89078 -2.58105,7.05933 -2.69144,8.22267 -3.13901,33.07824 l -0.46389,25.76159 4.67179,15.23841 c 9.62949,31.40941 21.97897,50.69828 46.04654,71.92091 7.19645,6.3458 11.75811,9.3221 22.76342,14.8521 14.11366,7.092 18.80195,8.7375 38.73658,13.5957 8.77784,2.1392 15.05065,2.9478 26.5,3.416 8.25,0.3373 177,0.5625 375,0.5004 l 360,-0.1128 z"
     id="path83407"
     transform="scale(0.75)" />
  <path
     style="fill:#ff0000;fill-opacity:1;stroke:#ff0000;stroke-width:1.73333333;stroke-miterlimit:4;stroke-dasharray:none;stroke-dashoffset:0;stroke-opacity:1"
     d="m 272.60284,1039.68 c -11.84739,-0.5305 -15.6682,-1.1049 -28.52821,-4.2889 -13.53069,-3.35 -21.05268,-6.1094 -32.72798,-12.0061 -12.63315,-6.3804 -17.55368,-9.8882 -28.25664,-20.1442 -20.00947,-19.17389 -29.49848,-35.07711 -39.08461,-65.50433 l -3.82978,-12.15609 0.0421,-16.37663 c 0.0603,-23.49994 0.88815,-35.83044 2.75457,-41.03064 0.83429,-2.32452 2.56724,-7.87167 3.85098,-12.327 1.28374,-4.45533 3.20773,-10.16097 4.27554,-12.6792 1.06781,-2.51823 2.69789,-6.79047 3.6224,-9.49385 0.92452,-2.70339 2.53299,-6.19017 3.57438,-7.74841 1.0414,-1.55823 4.45986,-7.58784 7.59658,-13.39914 11.06579,-20.50124 28.01446,-51.4894 31.20644,-57.05641 1.77709,-3.09936 4.70323,-8.5381 6.50254,-12.08608 1.7993,-3.54798 4.27663,-7.72001 5.50517,-9.27118 1.22855,-1.55116 2.71075,-3.96199 3.29378,-5.35739 0.58304,-1.3954 2.27031,-4.5144 3.7495,-6.9311 2.71006,-4.42772 12.19057,-21.64614 19.09547,-34.68106 2.05227,-3.8742 4.73531,-8.47041 5.96234,-10.2138 1.22703,-1.74339 4.55361,-7.60752 7.3924,-13.0314 7.03076,-13.43321 20.93286,-38.82407 23.11018,-42.20854 2.03122,-3.15739 8.94547,-15.68492 13.24897,-24.00507 1.60311,-3.09936 5.1426,-9.28047 7.86554,-13.7358 6.30198,-10.31145 14.8056,-25.49628 16.52694,-29.51199 0.7306,-1.70443 3.17197,-6.14259 5.42527,-9.86259 2.25329,-3.71999 7.79725,-13.65293 12.31989,-22.07319 4.52264,-8.42026 10.45575,-19.00659 13.18469,-23.52518 2.72894,-4.51858 6.09055,-10.45722 7.47027,-13.19696 1.37971,-2.73973 3.7369,-6.92627 5.2382,-9.30342 1.5013,-2.37714 3.88158,-6.82463 5.28951,-9.88329 1.40792,-3.05866 3.42114,-6.67063 4.47384,-8.0266 1.05268,-1.35597 3.49771,-5.47671 5.43339,-9.1572 1.93568,-3.68049 6.53844,-12.08046 10.22835,-18.6666 3.68992,-6.58614 15.19253,-27.34834 25.56137,-46.13821 16.16239,-29.28865 21.30066,-38.40405 26.90108,-47.72311 l 0.95248,-1.5849 h 34.60853 c 32.90816,0 34.55473,0.0606 33.51327,1.2327 -1.5193,1.70995 -4.13281,6.25068 -15.5075,26.94285 -5.43084,9.87946 -13.27574,23.98528 -17.43313,31.34626 -4.15737,7.36098 -9.06586,16.39491 -10.90774,20.0754 -1.84188,3.6805 -5.79755,10.81255 -8.79039,15.84901 -2.99283,5.03646 -8.86284,15.33831 -13.04449,22.893 -4.18163,7.55469 -15.28254,27.52443 -24.66865,44.37721 -9.38613,16.85277 -19.91114,36.03006 -23.38891,42.6162 -3.47778,6.58614 -7.43787,13.71819 -8.80021,15.849 -1.36235,2.13081 -3.35364,5.61759 -4.42511,7.7484 -1.07148,2.13081 -5.03253,9.10438 -8.80236,15.49681 -3.76982,6.39243 -9.00033,15.58485 -11.62334,20.4276 -2.62301,4.84275 -7.0675,12.76725 -9.87664,17.61 -2.80913,4.84275 -11.37709,20.37477 -19.0399,34.51561 -7.66282,14.14083 -15.35095,28.05708 -17.08474,30.92501 -1.73379,2.86793 -4.35462,7.81671 -5.82405,10.9973 -1.46944,3.18059 -4.51716,8.60404 -6.77272,12.05209 -2.25556,3.44806 -6.79535,11.10557 -10.08842,17.01669 -3.29307,5.91112 -9.43002,16.84303 -13.63766,24.29311 -9.12364,16.1544 -32.89866,59.40958 -39.19325,71.30642 -2.4598,4.64904 -6.17009,11.21131 -8.2451,14.58284 -2.075,3.37152 -4.27087,7.33377 -4.87971,8.805 -0.60884,1.47123 -2.50084,4.92043 -4.20444,7.66488 -1.7036,2.74446 -3.09745,5.19907 -3.09745,5.45469 0,0.25562 -1.45576,3.70383 -3.23502,7.66271 -4.56635,10.16017 -8.81645,26.93194 -9.24526,36.48369 -0.54492,12.13812 2.52542,24.68355 9.2154,37.65428 3.21067,6.22493 4.6064,8.00571 12.42208,15.84901 9.57246,9.60629 16.44116,14.40412 26.08896,18.22333 2.92005,1.15594 6.66602,2.80892 8.32439,3.67332 2.74059,1.42848 4.47045,1.62369 18.99264,2.14341 8.78758,0.31448 178.47208,0.58827 377.07666,0.60842 l 361.09918,0.0366 6.9498,-2.87854 c 16.7652,-6.94397 25.9346,-12.87791 35.4771,-22.95882 7.37,-7.78597 9.5451,-11.10539 14.774,-22.54731 l 4.2457,-9.29047 V 902.80984 885.5875 l -2.8679,-8.35499 c -4.5532,-13.26481 -7.8148,-20.32885 -18.6611,-40.41638 -5.5929,-10.35835 -10.169,-19.02118 -10.169,-19.25073 0,-0.22955 -1.3867,-2.56687 -3.0816,-5.19404 -1.695,-2.62716 -4.587,-7.78797 -6.4269,-11.46846 -1.8399,-3.68049 -3.9324,-7.5226 -4.65,-8.53802 -0.7176,-1.01542 -3.5671,-6.0871 -6.3322,-11.2704 -2.765,-5.1833 -6.1042,-10.89764 -7.4203,-12.69853 -1.3162,-1.80089 -3.4569,-5.60859 -4.757,-8.46156 -1.3001,-2.85297 -3.7831,-7.40213 -5.5178,-10.10925 -1.7346,-2.70713 -6.42892,-10.94467 -10.43168,-18.30565 -14.70266,-27.0375 -47.74945,-86.77504 -50.46273,-91.21981 -1.53721,-2.51823 -4.18589,-7.11444 -5.88589,-10.2138 -1.7,-3.09936 -4.61192,-8.01256 -6.4709,-10.91821 -1.85899,-2.90565 -3.38007,-5.75847 -3.38014,-6.3396 -7e-5,-0.58113 -1.62766,-3.59244 -3.61688,-6.6918 -1.98916,-3.09936 -7.26568,-12.45027 -11.72566,-20.7798 -9.61626,-17.95946 -25.0243,-45.89002 -29.83599,-54.08432 -1.88378,-3.2081 -3.42507,-6.0686 -3.42507,-6.35665 0,-0.28807 -1.45846,-3.05191 -3.24102,-6.14189 -1.78255,-3.08999 -5.76375,-10.18039 -8.84705,-15.75647 -3.08337,-5.57608 -6.82515,-11.93343 -8.31509,-14.12746 -1.48995,-2.19402 -3.22503,-5.22421 -3.85575,-6.73374 -0.63072,-1.50954 -2.67961,-5.13706 -4.55317,-8.06115 -1.87349,-2.9241 -4.83817,-8.16936 -6.58809,-11.65614 -5.58014,-11.11861 -29.44513,-54.76997 -32.54165,-59.5218 -1.64099,-2.51823 -3.96415,-6.71174 -5.16256,-9.31891 -1.19842,-2.60716 -3.10765,-6.09394 -4.24274,-7.7484 -1.13509,-1.65445 -4.50538,-7.5431 -7.48954,-13.08587 -2.98414,-5.54278 -6.98771,-12.67483 -8.89679,-15.84901 -1.90909,-3.17417 -3.47168,-5.99057 -3.47242,-6.25867 -7.1e-4,-0.2681 -1.69036,-3.27941 -3.75473,-6.6918 -2.06436,-3.41239 -3.95629,-6.75906 -4.20429,-7.43705 -0.42553,-1.1633 1.48198,-1.2327 33.88558,-1.2327 h 34.3365 l 9.02764,16.56356 c 4.96518,9.10996 10.63222,19.01559 12.59341,22.0125 1.96112,2.99692 4.32058,7.14836 5.24313,9.22543 0.92255,2.07706 4.63474,8.89213 8.24923,15.1446 3.61449,6.25247 12.35975,21.82847 19.4339,34.61333 7.07415,12.78486 14.1595,25.46406 15.74518,28.176 1.58574,2.71194 4.8002,8.73456 7.14332,13.3836 4.95644,9.83424 13.28808,24.66273 17.77201,31.63036 1.72135,2.67473 4.78992,8.06339 6.81909,11.9748 2.02916,3.9114 12.19986,22.32669 22.60152,40.92285 10.4016,18.59617 21.15764,38.09156 23.90234,43.32309 2.74462,5.23154 5.65182,10.46171 6.46033,11.6226 0.80858,1.1609 3.63464,6.23146 6.28005,11.26792 2.6454,5.03646 6.0708,11.21757 7.6118,13.7358 6.9268,11.31914 11.5725,19.37954 16.8364,29.21119 3.1176,5.82308 7.1675,13.12326 8.9995,16.22262 1.832,3.09936 5.9443,10.54839 9.1383,16.5534 8.2988,15.60243 18.0028,33.24423 21.8916,39.79861 1.8388,3.09936 4.687,8.32953 6.3292,11.6226 1.6421,3.29307 3.8462,7.25532 4.8979,8.805 1.0517,1.54968 3.8186,6.30438 6.1486,10.566 2.33,4.26162 5.7865,10.33327 7.681,13.49255 4.1413,6.90569 7.7665,13.38041 12.9541,23.137 2.1309,4.00742 4.8868,9.16863 6.1242,11.46935 1.2376,2.30071 3.9835,8.26867 6.1021,13.26211 10.7251,25.27827 14.5409,43.4028 14.5409,69.06626 0,26.30329 -4.3889,46.36036 -14.2328,65.04376 -14.2931,27.1274 -34.1266,46.18827 -60.9604,58.58547 -9.2258,4.2624 -13.8573,5.8655 -29.685,10.2752 l -14.5176,4.0447 -364.17477,0.061 c -200.29617,0.034 -369.08804,-0.1589 -375.09305,-0.4278 z"
     id="path90224"
     transform="scale(0.75)" />
  <path
     style="fill:#ff0000;fill-opacity:1;stroke:#ff0000;stroke-width:1.86666667;stroke-miterlimit:4;stroke-dasharray:none;stroke-dashoffset:0;stroke-opacity:1"
     d="m 466.12829,335.46384 -34.34797,-0.18281 1.86581,-3.69139 c 1.0262,-2.03027 2.87503,-5.2763 4.10852,-7.2134 1.23348,-1.9371 2.62297,-4.61793 3.08775,-5.9574 0.46477,-1.33948 4.12809,-7.99606 8.14071,-14.79241 4.01262,-6.79634 10.5433,-18.37961 14.51263,-25.74059 3.96933,-7.36098 8.39717,-15.44398 9.83965,-17.96221 1.44247,-2.51823 4.30232,-7.7484 6.35522,-11.6226 2.05289,-3.8742 5.22038,-9.57984 7.03886,-12.6792 1.81848,-3.09936 8.47496,-14.82762 14.79219,-26.0628 16.12482,-28.67801 16.14848,-28.71745 22.39725,-37.34718 8.67718,-11.98346 24.62469,-29.326 31.90022,-34.69076 12.71145,-9.37305 25.05696,-15.94454 39.39895,-20.972 5.23017,-1.83339 10.46034,-3.84478 11.6226,-4.46975 1.80719,-0.97178 5.76172,-1.16875 27.3092,-1.36028 l 25.19601,-0.22395 9.6718,3.2236 c 5.31949,1.77299 11.26415,3.63134 13.21036,4.12969 4.74679,1.21545 21.81344,10.71529 29.61415,16.48416 12.21575,9.03393 34.84507,33.60084 42.39282,46.02263 1.53975,2.53406 8.11651,14.26232 14.61502,26.0628 6.49851,11.8005 12.67843,22.72336 13.73313,24.27304 1.05471,1.54968 3.34357,5.67042 5.08635,9.1572 1.74278,3.48678 4.42253,8.39997 5.955,10.9182 1.53247,2.51823 4.64222,8.06538 6.91058,12.327 2.26834,4.26163 5.33943,9.68454 6.82463,12.05092 1.48521,2.36639 2.70038,4.51157 2.70038,4.76709 0,0.2555 3.28283,6.24387 7.29518,13.30747 9.42992,16.60104 22.99402,41.18757 22.99402,41.67937 0,0.21045 -15.29429,0.46492 -33.9873,0.5655 l -33.98731,0.18286 -3.54685,-5.9874 c -1.95077,-3.29307 -5.08502,-8.84022 -6.965,-12.327 -11.17883,-20.73319 -31.45056,-57.24012 -34.63566,-62.37463 -2.05482,-3.31244 -4.08898,-6.95772 -4.52037,-8.1006 -0.43137,-1.14289 -2.19429,-4.3452 -3.91759,-7.11626 -1.72331,-2.77106 -3.60231,-6.16083 -4.17558,-7.53284 -1.77193,-4.24086 -10.09353,-17.36193 -14.98016,-23.61995 -8.50167,-10.88763 -17.37392,-19.46885 -26.29364,-25.43115 -11.01686,-7.36412 -15.76803,-9.51526 -23.53076,-10.65378 -13.82176,-2.02718 -27.20438,-0.86269 -37.79821,3.289 -13.1082,5.13706 -29.83571,18.93025 -39.95232,32.94391 -4.56994,6.33034 -23.69579,39.3699 -37.66646,65.06813 -4.88746,8.99022 -10.14952,18.40969 -11.69345,20.93217 -1.54392,2.52248 -3.75928,6.47252 -4.92302,8.77787 -1.16374,2.30535 -3.93812,7.30847 -6.16529,11.11804 -2.22718,3.80957 -5.64346,10.09629 -7.59174,13.97049 l -3.54233,7.044 z"
     id="path90263"
     transform="scale(0.75)" />
  <path
     style="fill:#000000;fill-opacity:1;stroke:#000000;stroke-width:1.46666667;stroke-miterlimit:4;stroke-dasharray:none;stroke-dashoffset:0;stroke-opacity:1"
     d="m 915.29418,883.27589 c -2.8216,-0.83838 -7.36863,-5.73361 -12.71992,-13.69398 -6.52324,-9.70371 -21.37335,-33.75507 -25.22536,-40.8552 -4.19029,-7.72364 -8.92473,-15.24198 -11.97653,-19.0188 -1.25219,-1.54968 -3.27121,-4.82584 -4.48671,-7.28036 -2.52018,-5.0891 -6.02277,-11.08914 -10.34768,-17.72585 -1.64104,-2.51823 -4.16,-6.79746 -5.59768,-9.5094 -1.43768,-2.71194 -3.18934,-5.56476 -3.89257,-6.3396 -1.14711,-1.26393 -3.62981,-5.13932 -11.02932,-17.21636 -2.72492,-4.44746 -2.92541,-6.34404 -0.86776,-8.20897 1.24383,-1.12733 2.817,-1.37938 9.83974,-1.57647 4.59756,-0.12902 10.50865,0.0912 13.13576,0.4894 4.67864,0.70915 4.86886,0.82226 9.27876,5.5176 4.24693,4.52182 27.45723,35.17242 57.48501,75.91242 23.16542,31.42956 25.35426,34.30244 34.08511,44.73757 4.6921,5.608 8.52952,10.3627 8.5276,10.566 -0.002,0.2033 -0.76395,1.32057 -1.69338,2.48283 l -1.68989,2.1132 -20.31912,0.12788 c -11.17551,0.0704 -21.30324,-0.16452 -22.50606,-0.52191 z"
     id="path90302"
     transform="scale(0.75)" />
  <path
     style="fill:#ff9100;fill-opacity:1;stroke:#ff9100;stroke-width:1.46666667;stroke-miterlimit:4;stroke-dasharray:none;stroke-dashoffset:0;stroke-opacity:1"
     d="m 734.55245,884.57572 c -5.90426,-0.23306 -8.60932,-0.66596 -10.75168,-1.72064 -3.23716,-1.59365 -4.03196,-3.55289 -7.41931,-18.28921 -0.88322,-3.84239 -2.94959,-13.37411 -4.59193,-21.18161 -4.37805,-20.81278 -5.79677,-27.45239 -10.11069,-47.31818 -7.31502,-33.68598 -8.64888,-41.00399 -8.69284,-47.69174 -0.0359,-5.45624 0.0769,-5.5707 5.92087,-6.00797 5.73645,-0.42922 18.21784,0.36601 22.45678,1.4308 1.32753,0.33346 1.82416,0.61234 2.73405,1.53526 2.17441,2.20558 4.24632,7.24752 8.66971,21.09753 3.48016,10.89667 5.83303,17.67208 10.2484,29.5116 2.01774,5.41046 6.3923,17.45792 9.72123,26.77213 9.8103,27.44883 13.52385,37.54863 17.85037,48.54794 2.97182,7.55524 3.23572,9.12042 1.82121,10.80147 -0.89597,1.0648 -2.516,1.7332 -4.92697,2.0328 -5.24614,0.65191 -22.28093,0.90012 -32.9292,0.47982 z"
     id="path91613"
     transform="scale(0.75)" />
  <path
     style="fill:#000000;fill-opacity:1;stroke:#000000;stroke-width:1.46666667;stroke-miterlimit:4;stroke-dasharray:none;stroke-dashoffset:0;stroke-opacity:1"
     d="m 838.27509,883.52554 c -14.7641,-0.25803 -14.85946,-0.27307 -17.45773,-2.75292 -1.98727,-1.89671 -4.49259,-5.85912 -7.12336,-11.26633 -2.14987,-4.41878 -4.02637,-8.74465 -16.00152,-36.88806 -2.52361,-5.93086 -7.09272,-16.59049 -10.15357,-23.68808 -8.02043,-18.59798 -15.75292,-38.34708 -21.66414,-55.3311 -2.74165,-7.87726 -3.52185,-10.63968 -3.11869,-11.04224 0.364,-0.36347 19.61669,-0.33054 24.0593,0.0411 3.19453,0.26726 3.60141,0.38377 4.42709,1.26766 0.50008,0.53534 2.52346,3.81941 4.49639,7.29794 7.17269,12.64636 11.71597,21.26291 38.4746,72.96894 16.6286,32.13166 20.38461,38.83176 26.16244,46.66951 1.79184,2.43068 3.43885,4.76693 3.66002,5.19167 0.80493,1.54585 0.47173,2.77592 -1.45404,5.36777 l -1.85615,2.49816 -4.5962,-0.0512 c -2.5279,-0.0281 -10.56241,-0.15544 -17.85444,-0.28289 z"
     id="path93979"
     transform="scale(0.75)" />
  <path
     style="fill:#ffff00;fill-opacity:1;stroke:#ffff00;stroke-width:1.46666667;stroke-miterlimit:4;stroke-dasharray:none;stroke-dashoffset:0;stroke-opacity:1"
     d="m 624,883.52141 c -8.05338,-0.54287 -9.10399,-0.82003 -11.14919,-2.94123 -1.74514,-1.80999 -1.75953,-1.86053 -1.30403,-4.58018 1.15822,-6.91527 4.11123,-30.04607 6.19179,-48.5 1.25568,-11.1375 2.94967,-25.5375 3.76441,-32 0.81474,-6.4625 2.0485,-18.5 2.7417,-26.75 1.71925,-20.46164 2.45773,-24.05332 5.2416,-25.49291 3.05218,-1.57834 24.33669,-2.46454 26.98635,-1.1236 0.67244,0.34031 1.61589,1.29324 2.09655,2.11763 2.03097,3.48332 2.47844,10.90895 4.41398,73.24888 0.8154,26.2625 1.62564,50.7969 1.80052,54.5209 l 0.31797,6.77089 -2.07696,1.87642 c -1.14233,1.03203 -2.68396,2.11973 -3.42583,2.41711 -1.66627,0.66793 -27.47026,0.98403 -35.59886,0.43609 z"
     id="path94395"
     transform="scale(0.75)" />
  <path
     style="fill:#00ff00;fill-opacity:1;stroke:#00ff00;stroke-width:1.46666667;stroke-miterlimit:4;stroke-dasharray:none;stroke-dashoffset:0;stroke-opacity:1"
     d="m 521.25,884.19389 c -3.97078,-0.55049 -4.8765,-0.82039 -5.77789,-1.72178 -1.96546,-1.96546 -1.20475,-5.31697 4.2031,-18.51789 2.52692,-6.16837 13.74632,-35.60101 27.80935,-72.95422 2.95072,-7.8375 7.00835,-18.975 9.01696,-24.75 4.23669,-12.18105 7.06868,-18.97805 8.57557,-20.58207 2.26057,-2.40626 5.24081,-2.91793 16.99541,-2.91793 9.9054,0 10.91087,0.08 11.86522,0.94364 2.81972,2.55181 2.20748,6.04479 -10.26366,58.55636 -3.98396,16.775 -9.03256,38.2625 -11.21913,47.75 -6.71521,29.13721 -7.91157,32.16351 -13.2816,33.59689 -1.8708,0.49936 -34.87947,1.01899 -37.92333,0.597 z"
     id="path94952"
     transform="scale(0.75)" />
  <path
     style="fill:#00d0ff;fill-opacity:1;stroke:#00d0ff;stroke-width:1.46666667;stroke-miterlimit:4;stroke-dasharray:none;stroke-dashoffset:0;stroke-opacity:1"
     d="m 419.00201,884.16356 c -0.9614,-0.1349 -2.06596,-0.50813 -2.45457,-0.82941 -1.11384,-0.92085 -3.00064,-5.37404 -2.65732,-6.27177 0.17087,-0.44681 2.30865,-3.28738 4.75062,-6.31238 5.42678,-6.72244 8.96317,-12.26699 21.36676,-33.5 5.30131,-9.075 10.48392,-17.85 11.51692,-19.5 1.033,-1.65 5.75083,-9.8625 10.48405,-18.25 11.13353,-19.72916 25.95867,-45.21999 29.08196,-50.0045 3.94493,-6.04315 5.98148,-6.99823 14.90627,-6.99056 6.09645,0.005 20.0534,0.87849 20.45471,1.2798 0.59259,0.5926 -4.96706,15.33756 -11.95838,31.71526 -11.22022,26.2842 -44.13137,94.75607 -49.36331,102.70066 -2.25813,3.42894 -4.33472,4.5423 -9.87972,5.29698 -4.14778,0.56453 -33.17069,1.09771 -36.24799,0.66592 z"
     id="path95990"
     transform="scale(0.75)" />
  <path
     style="fill:#0000cb;fill-opacity:1;stroke:#0000cb;stroke-width:1.46666667;stroke-miterlimit:4;stroke-dasharray:none;stroke-dashoffset:0;stroke-opacity:1"
     d="m 321.27453,884.02273 c -3.40865,-0.47171 -4.77609,-1.67614 -4.77197,-4.20312 0.004,-2.35542 1.48823,-4.39232 10.31235,-14.15076 11.23686,-12.42666 32.34478,-37.08553 41.44641,-48.41885 4.19612,-5.225 9.4759,-11.6375 11.73285,-14.25 7.69556,-8.9079 19.28505,-22.7362 25.77156,-30.75 7.96573,-9.84132 13.70196,-16.57908 21.16103,-24.85569 l 5.72789,-6.35569 9.04768,0.26448 c 11.82919,0.3458 19.17826,0.97535 20.07519,1.71974 1.7301,1.43585 0.15199,5.01324 -5.01486,11.36808 -6.01256,7.395 -10.67285,13.7507 -22.26066,30.35908 -6.13984,8.8 -14.68829,20.95 -18.99655,27 -4.30826,6.05 -10.0364,14.375 -12.72919,18.5 -2.6928,4.125 -6.29826,9.3 -8.01214,11.5 -1.71388,2.2 -5.65542,7.7125 -8.75898,12.25 -6.93896,10.14496 -10.58532,14.92439 -17.60581,23.0766 -5.2974,6.15136 -5.51342,6.33455 -7.79882,6.61366 -4.04086,0.4935 -36.1978,0.76536 -39.32598,0.33247 z"
     id="path96177"
     transform="scale(0.75)" />
</svg>
