<?xml version="1.0" standalone="no"?>
<!DOCTYPE svg PUBLIC "-//W3C//DTD SVG 20010904//EN"
 "http://www.w3.org/TR/2001/REC-SVG-20010904/DTD/svg10.dtd">
<svg version="1.0" xmlns="http://www.w3.org/2000/svg"
 width="138.000000pt" height="149.000000pt" viewBox="0 0 138.000000 149.000000"
 preserveAspectRatio="xMidYMid meet">

<g transform="translate(0.000000,149.000000) scale(0.100000,-0.100000)"
fill="#000000" stroke="none">
<path d="M1187 1419 c-9 -5 -22 -7 -27 -4 -11 7 -70 -34 -71 -49 0 -6 -13 -22
-30 -34 -24 -20 -36 -23 -69 -17 -22 4 -38 12 -37 18 1 6 -11 15 -28 20 -16 5
-38 13 -48 18 -11 6 -25 5 -38 -1 -11 -6 -28 -8 -39 -5 -14 4 -31 -6 -63 -39
-36 -36 -46 -53 -49 -87 -3 -33 13 -168 22 -189 1 -3 3 -9 4 -15 4 -26 39 -75
85 -118 28 -26 55 -55 60 -65 13 -26 -3 -54 -48 -82 -23 -14 -41 -31 -41 -38
0 -7 -58 -71 -129 -140 -106 -105 -132 -136 -146 -177 -26 -76 -47 -113 -83
-147 -31 -31 -34 -32 -116 -29 -115 3 -152 -14 -224 -106 -19 -25 -28 -44 -22
-48 5 -3 10 0 10 7 0 20 69 82 114 102 31 15 53 17 111 11 56 -5 80 -3 102 8
49 26 91 80 117 150 37 97 62 131 174 242 55 54 105 107 111 119 14 24 81 71
81 56 0 -5 7 -10 15 -10 8 0 15 5 15 10 0 6 -4 10 -10 10 -5 0 -10 7 -10 15 0
17 102 67 137 67 14 0 36 17 58 44 19 23 44 46 55 49 11 4 20 11 20 17 0 6 15
29 33 52 84 105 117 184 117 279 0 51 -4 62 -29 88 -31 30 -54 35 -84 18z"/>
</g>
</svg>
