<?xml version="1.0" encoding="UTF-8" standalone="no"?>
<svg
   version="1.0"
   width="487.000000pt"
   height="236.000000pt"
   viewBox="0 0 487.000000 236.000000"
   preserveAspectRatio="xMidYMid meet"
   id="svg4439"
   sodipodi:docname="basket.svg"
   inkscape:version="1.1.1 (3bf5ae0d25, 2021-09-20)"
   xmlns:inkscape="http://www.inkscape.org/namespaces/inkscape"
   xmlns:sodipodi="http://sodipodi.sourceforge.net/DTD/sodipodi-0.dtd"
   xmlns="http://www.w3.org/2000/svg"
   xmlns:svg="http://www.w3.org/2000/svg">
  <defs
     id="defs4443" />
  <sodipodi:namedview
     id="namedview4441"
     pagecolor="#505050"
     bordercolor="#eeeeee"
     borderopacity="1"
     inkscape:pageshadow="0"
     inkscape:pageopacity="0"
     inkscape:pagecheckerboard="0"
     inkscape:document-units="pt"
     showgrid="false"
     inkscape:zoom="2.0220739"
     inkscape:cx="324.66667"
     inkscape:cy="157.51155"
     inkscape:window-width="1920"
     inkscape:window-height="1017"
     inkscape:window-x="-8"
     inkscape:window-y="-8"
     inkscape:window-maximized="1"
     inkscape:current-layer="svg4439" />
  <g
     transform="translate(0.000000,236.000000) scale(0.100000,-0.100000)"
     fill="#000000"
     stroke="none"
     id="g4437">
    <path
       d="M1654 2316 c-35 -15 -86 -89 -115 -167 -47 -122 -13 -280 80 -382 25 -27 25 -27 7 -60 -58 -103 -161 -242 -231 -312 -171 -172 -350 -214 -600 -140 -171 50 -373 163 -461 258 -67 72 -143 67 -163 -11 -5 -20 -19 -75 -31 -122 -12 -47 -36 -134 -53 -195 -30 -105 -31 -119 -33 -316 -1 -130 -6 -213 -13 -227 -32 -60 -29 -366 4 -445 23 -57 88 -122 148 -148 l52 -24 1500 0 c1578 0 1598 0 1920 46 417 60 810 170 1069 299 118 59 130 76 128 179 -6 223 -115 419 -275 495 -40 19 -107 42 -149 50 -89 18 -263 21 -387 6 l-86 -11 -160 65 -160 64 -5 38 c-4 30 -13 44 -39 61 -70 47 -147 52 -176 10 -15 -21 -15 -21 -99 22 -100 51 -110 60 -97 93 15 39 -11 85 -61 108 -51 23 -115 26 -144 6 -18 -13 -27 -10 -101 37 -76 48 -81 53 -80 84 1 43 -26 70 -93 93 -38 13 -61 15 -83 9 -27 -8 -40 -3 -99 32 -79 48 -83 53 -79 94 5 64 -118 131 -192 104 -35 -12 -51 -4 -427 231 -154 97 -162 99 -216 76z m171 -141 c61 -37 176 -108 258 -158 81 -49 147 -94 147 -98 0 -5 -11 -33 -24 -64 l-25 -55 -53 21 c-193 77 -235 87 -307 69 -30 -7 -66 -26 -91 -47 -38 -33 -42 -34 -59 -19 -10 9 -30 41 -46 72 -39 77 -39 166 -1 250 29 64 64 107 81 101 5 -3 60 -35 120 -72z m552 -247 c18 -7 33 -15 33 -19 0 -4 -44 -103 -99 -220 l-98 -214 -34 0 c-54 0 -49 30 34 210 41 88 84 181 95 208 23 52 22 52 69 35z m-343 -154 c54 -21 100 -42 102 -49 3 -6 -14 -51 -37 -100 -34 -76 -40 -97 -36 -135 7 -62 52 -100 118 -100 65 0 86 21 143 139 27 56 53 101 59 101 24 0 147 -56 147 -67 0 -7 -16 -46 -35 -89 -20 -44 -35 -92 -35 -114 0 -75 82 -134 154 -110 45 15 67 42 106 130 19 41 38 80 44 87 8 9 32 3 98 -24 l87 -35 -20 -44 c-10 -24 -28 -65 -39 -90 -34 -78 -22 -136 36 -175 37 -24 90 -24 129 0 23 13 42 43 74 115 24 53 50 96 57 96 21 0 194 -71 194 -80 0 -4 -11 -33 -25 -64 -14 -31 -25 -70 -25 -87 0 -42 42 -93 89 -109 74 -24 127 9 161 100 12 33 27 63 32 66 9 6 293 -101 314 -118 7 -4 14 -21 17 -36 3 -15 9 -35 12 -44 5 -13 0 -20 -21 -28 -16 -6 -38 -14 -49 -19 -11 -5 -42 -17 -68 -27 -26 -9 -50 -20 -52 -24 -6 -9 -179 -3 -315 10 -410 41 -888 173 -1385 382 -110 46 -483 222 -493 233 -3 3 22 46 55 97 33 51 71 111 83 133 77 134 140 149 324 79z m475 -19 c31 -19 62 -38 69 -43 16 -11 6 -62 -12 -62 -16 0 -138 48 -149 59 -7 7 21 81 31 81 2 0 30 -16 61 -35z m250 -84 c-1 -29 -144 -334 -161 -345 -23 -14 -52 2 -56 31 -3 18 118 310 140 339 13 17 78 -5 77 -25z m86 -121 c34 -23 31 -25 -14 -9 -17 6 -31 15 -31 20 0 14 12 11 45 -11z m302 -86 c4 -12 -30 -94 -102 -246 -28 -60 -55 -74 -83 -46 -19 19 -15 39 34 148 81 183 79 181 115 168 17 -6 33 -16 36 -24z m-2856 -20 c95 -99 339 -229 514 -275 128 -33 293 -33 387 -1 86 30 176 88 259 168 l66 64 184 -89 c416 -200 839 -356 1212 -446 277 -67 444 -92 675 -102 140 -6 143 -7 148 -30 4 -13 4 -26 2 -29 -7 -6 -106 -22 -183 -28 -33 -3 -130 -12 -215 -20 -412 -39 -479 -41 -1765 -41 -1362 0 -1417 2 -1435 49 -14 39 -21 220 -11 316 6 52 26 151 46 220 19 69 43 160 52 203 10 42 20 77 23 77 3 0 22 -16 41 -36z m3238 -175 c17 -6 31 -17 31 -25 0 -8 -16 -54 -36 -104 -29 -72 -41 -91 -60 -96 -28 -7 -54 10 -54 36 0 16 59 164 76 191 6 11 5 11 43 -2z m821 -243 c41 -3 102 -15 134 -26 66 -23 146 -66 146 -80 0 -19 -245 -100 -429 -140 -112 -25 -106 -29 -151 108 -43 133 -45 129 48 137 42 3 88 7 102 9 14 1 36 1 50 0 14 -2 59 -5 100 -8z m363 -206 c48 -80 90 -288 67 -330 -21 -40 -326 -161 -574 -229 -201 -55 -581 -127 -590 -112 -2 3 -7 42 -10 86 -4 44 -18 141 -30 215 -13 74 -21 138 -17 141 3 3 80 16 170 28 210 28 278 40 536 97 120 26 338 94 385 120 36 19 44 17 63 -16z m-726 8 c6 -7 13 -22 15 -33 3 -11 9 -27 12 -36 6 -13 -6 -18 -71 -28 -43 -7 -86 -14 -96 -16 -16 -3 -37 27 -37 54 0 8 133 68 156 70 6 0 16 -5 21 -11z m-507 -295 c23 -110 38 -218 32 -225 -21 -20 -770 -33 -1997 -33 -1207 0 -1304 1 -1356 17 l-56 18 -7 50 c-8 57 3 198 15 205 4 3 49 -3 101 -12 86 -17 192 -18 1363 -18 1135 0 1294 2 1495 18 187 15 293 25 387 36 6 0 17 -24 23 -56z m50 -357 l0 -44 -52 -6 c-167 -21 -503 -25 -1778 -26 -904 0 -1428 4 -1451 10 -39 11 -119 74 -119 95 0 10 8 11 38 2 92 -27 2565 -18 3207 12 77 3 143 5 148 3 4 -2 7 -23 7 -46z"
       id="path4433" />
    <path
       d="M1855 1636 c-11 -8 -18 -26 -18 -46 0 -37 23 -60 60 -60 28 0 63 33 63 60 0 47 -65 76 -105 46z"
       id="path4435" />
  </g>
  <path
     style="fill:#000000;stroke:#000000;stroke-width:11.2148"
     d="m 67.752221,231.93493 c -36.668635,-0.59786 -46.255826,-1.58644 -48.380597,-4.98874 -1.512665,-2.42216 -2.22366,-10.81626 -2.257876,-26.65678 -0.03251,-15.05228 0.01369,-15.83678 1.368797,-23.24346 0.771345,-4.21597 2.605114,-12.33882 4.075042,-18.05077 1.469929,-5.71196 4.318873,-16.83915 6.330987,-24.72709 2.012114,-7.88794 3.864826,-14.87957 4.117137,-15.53696 0.44462,-1.15844 0.61738,-1.04635 5.609991,3.63978 12.899721,12.10786 33.577569,24.16981 55.550677,32.40424 15.188211,5.69178 27.565921,7.73414 44.058041,7.26971 13.51892,-0.38071 19.09648,-1.59877 28.77327,-6.28369 9.78199,-4.73586 19.83139,-12.23457 30.66551,-22.88216 l 4.54464,-4.4664 4.35711,2.0253 c 2.39641,1.11391 10.81088,5.12632 18.69882,8.91648 59.6152,28.64508 114.83657,48.8084 168.1442,61.39554 33.34926,7.87452 53.9559,10.88337 84.81391,12.38401 11.96986,0.5821 16.07594,0.93914 17.6498,1.5347 1.28091,0.48471 1.9229,1.56016 2.37733,3.9825 0.39243,2.09184 0.31175,2.14104 -5.19087,3.1652 -6.61793,1.23174 -15.0638,2.14362 -45.49785,4.91227 -33.35983,3.03482 -46.73604,3.96539 -68.49403,4.76506 -17.78611,0.6537 -275.85044,1.01948 -311.314039,0.44126 z"
     id="path4562"
     transform="scale(0.75)" />
  <path
     style="fill:#000000;stroke:#000000;stroke-width:11.2148"
     d="m 281.39426,70.675374 c -16.18664,-6.450012 -25.87502,-9.352196 -31.22048,-9.352196 -3.40112,0 -9.45485,1.495962 -13.04101,3.222618 -1.90398,0.916727 -5.13087,3.010889 -7.17085,4.653692 -5.0178,4.040846 -5.87613,3.997243 -8.89752,-0.451952 -3.07113,-4.522441 -5.90434,-10.56184 -7.01478,-14.95301 -1.34803,-5.330763 -1.08503,-14.14899 0.57932,-19.423874 2.72017,-8.62114 9.33284,-19.039857 12.08444,-19.039857 1.61655,0 69.15372,41.731369 70.15245,43.347364 0.15027,0.243134 -0.78924,2.996257 -2.08779,6.118053 -3.44296,8.277071 -3.96131,9.388153 -4.36503,9.356413 -0.20035,-0.01573 -4.25878,-1.580516 -9.01875,-3.477251 z"
     id="path4601"
     transform="scale(0.75)" />
  <path
     style="fill:#000000;stroke:#000000;stroke-width:11.2148"
     d="m 337.52475,93.035505 c -6.31451,-2.238391 -14.01519,-5.552051 -14.63328,-6.296811 -1.09855,-1.323661 2.12592,-10.084721 3.71163,-10.084721 1.01393,0 16.21326,9.249705 17.27253,10.51137 1.03872,1.23719 0.81898,4.236173 -0.45277,6.179415 -0.91638,1.40022 -1.10333,1.390418 -5.89811,-0.309253 z"
     id="path4679"
     transform="scale(0.75)" />
</svg>
