<?xml version="1.0" encoding="UTF-8" standalone="no"?>
<svg
   version="1.0"
   width="139.000000pt"
   height="312.000000pt"
   viewBox="0 0 139.000000 312.000000"
   preserveAspectRatio="xMidYMid meet"
   id="svg936"
   sodipodi:docname="bombe_sans_spray.svg"
   inkscape:version="1.1.1 (3bf5ae0d25, 2021-09-20)"
   xmlns:inkscape="http://www.inkscape.org/namespaces/inkscape"
   xmlns:sodipodi="http://sodipodi.sourceforge.net/DTD/sodipodi-0.dtd"
   xmlns="http://www.w3.org/2000/svg"
   xmlns:svg="http://www.w3.org/2000/svg">
  <defs
     id="defs940" />
  <sodipodi:namedview
     id="namedview938"
     pagecolor="#505050"
     bordercolor="#eeeeee"
     borderopacity="1"
     inkscape:pageshadow="0"
     inkscape:pageopacity="0"
     inkscape:pagecheckerboard="0"
     inkscape:document-units="pt"
     showgrid="false"
     inkscape:zoom="2"
     inkscape:cx="145.25"
     inkscape:cy="103.75"
     inkscape:window-width="1920"
     inkscape:window-height="1017"
     inkscape:window-x="-8"
     inkscape:window-y="-8"
     inkscape:window-maximized="1"
     inkscape:current-layer="svg936" />
  <g
     transform="translate(0.000000,312.000000) scale(0.100000,-0.100000)"
     fill="#000000"
     stroke="none"
     id="g934">
    <path
       d="M540 2970 l0 -100 -28 0 c-38 0 -52 -17 -52 -62 l0 -38 235 0 235 0 0 38 c0 45 -14 62 -52 62 l-28 0 0 84 0 83 -142 17 c-79 9 -149 16 -155 16 -10 0 -13 -27 -13 -100z"
       id="path928" />
    <path
       d="M334 2706 c-3 -8 -6 -21 -8 -29 -1 -8 -23 -37 -48 -66 -51 -57 -93 -123 -103 -164 l-7 -27 526 0 c379 0 526 3 526 11 0 24 -64 130 -111 182 -27 30 -49 64 -49 75 0 11 -7 23 -16 26 -9 3 -171 6 -360 6 -289 0 -346 -2 -350 -14z m316 -136 l0 -109 -201 -3 c-111 -2 -205 0 -211 3 -15 10 15 61 77 127 30 33 55 67 55 76 0 14 18 16 140 16 l140 0 0 -110z"
       id="path930" />
    <path
       d="M52 2354 c-31 -22 -30 -69 3 -90 l25 -16 0 -1042 0 -1043 -25 -23 c-28 -26 -32 -57 -11 -86 14 -18 34 -19 639 -22 620 -2 624 -2 650 19 34 26 35 61 2 87 l-25 20 0 1042 0 1043 25 23 c30 28 32 57 5 84 -20 20 -33 20 -643 20 -547 0 -625 -2 -645 -16z m598 -1154 l0 -1050 -259 0 c-221 0 -260 2 -265 15 -8 21 -8 1995 0 2045 l7 40 258 0 259 0 0 -1050z"
       id="path932" />
  </g>
  <path
     style="fill:#00db8c;fill-opacity:0;stroke:#000000;stroke-width:1.06772"
     d="m 33.75,395.5225 c -9.812042,-0.19427 -14.840114,-0.47986 -15.551982,-0.88331 -0.971062,-0.55036 -1.078848,-1.1844 -1.401244,-8.24271 -0.432643,-9.47195 -0.468518,-245.52616 -0.03904,-256.89648 0.171389,-4.5375 0.536965,-9.43125 0.812391,-10.875 L 18.070898,116 H 52.285449 86.5 v 140 140 l -19.125,-0.0952 c -10.51875,-0.0524 -25.65,-0.22439 -33.625,-0.3823 z"
     id="path1036"
     transform="scale(0.75)" />
  <path
     style="fill:#ffffff;fill-opacity:1;stroke:#000000;stroke-width:1.06772"
     d="m 26.383507,394.52411 c -4.911095,-0.20474 -7.577653,-0.51817 -8,-0.94034 -0.502309,-0.50211 -0.696809,-15.0473 -0.939168,-70.23351 -0.313854,-71.46583 0.21163,-201.82584 0.825252,-204.72526 L 18.613499,117 H 52.05675 85.5 v 139 139 l -25.875,-0.0844 c -14.23125,-0.0464 -29.189922,-0.22259 -33.241493,-0.3915 z"
     id="path2345"
     transform="scale(0.75)" />
  <path
     style="fill:#ffffff;fill-opacity:1;stroke:#000000;stroke-width:1.06772"
     d="m 32.057326,87.54601 c -1.648465,-1.043988 1.7273,-6.897938 8.244001,-14.29601 5.743335,-6.520111 7.569718,-8.848758 8.871217,-11.310845 0.844995,-1.598503 1.551175,-2.274372 2.61734,-2.504998 0.803063,-0.173713 8.941366,-0.342463 18.085116,-0.375 L 86.5,59 v 14.173606 14.173605 l -5.625,0.324121 C 72.491178,88.15442 32.857352,88.052674 32.057326,87.54601 Z"
     id="path3050"
     transform="scale(0.75)" />
</svg>
