<?xml version="1.0" encoding="UTF-8" standalone="no"?>
<svg
   version="1.0"
   width="191.000000pt"
   height="300.000000pt"
   viewBox="0 0 191.000000 300.000000"
   preserveAspectRatio="xMidYMid meet"
   id="svg10690"
   sodipodi:docname="bombe.svg"
   inkscape:version="1.1.1 (3bf5ae0d25, 2021-09-20)"
   xmlns:inkscape="http://www.inkscape.org/namespaces/inkscape"
   xmlns:sodipodi="http://sodipodi.sourceforge.net/DTD/sodipodi-0.dtd"
   xmlns="http://www.w3.org/2000/svg"
   xmlns:svg="http://www.w3.org/2000/svg">
  <defs
     id="defs10694" />
  <sodipodi:namedview
     id="namedview10692"
     pagecolor="#505050"
     bordercolor="#eeeeee"
     borderopacity="1"
     inkscape:pageshadow="0"
     inkscape:pageopacity="0"
     inkscape:pagecheckerboard="0"
     inkscape:document-units="pt"
     showgrid="false"
     inkscape:zoom="1.4301235"
     inkscape:cx="40.206319"
     inkscape:cy="207.32476"
     inkscape:window-width="1920"
     inkscape:window-height="1017"
     inkscape:window-x="-8"
     inkscape:window-y="-8"
     inkscape:window-maximized="1"
     inkscape:current-layer="svg10690" />
  <metadata
     id="metadata10652">
Created by potrace 1.10, written by Peter Selinger 2001-2011
</metadata>
  <g
     transform="translate(0.000000,300.000000) scale(0.100000,-0.100000)"
     fill="#000000"
     stroke="none"
     id="g10688">
    <path
       d="M411 2969 c-48 -14 -134 -104 -149 -155 -7 -23 -12 -49 -12 -58 0 -10 -8 -16 -22 -16 -28 0 -106 -35 -132 -58 -87 -78 -105 -223 -40 -322 32 -49 105 -98 156 -106 30 -5 38 -11 38 -28 1 -31 37 -107 68 -139 63 -66 163 -91 250 -63 61 21 135 95 151 152 15 53 14 54 -12 54 -19 0 -26 -8 -35 -38 -21 -70 -109 -132 -186 -132 -101 1 -196 107 -184 206 l4 34 -48 0 c-164 0 -253 194 -148 322 37 45 86 68 144 68 l46 0 0 45 c0 62 19 103 68 147 97 87 251 51 297 -70 16 -42 24 -52 44 -52 21 0 23 3 17 33 -11 53 -58 119 -108 150 -53 33 -147 44 -207 26z"
       id="path10654" />
    <path
       d="M517 2711 c-4 -17 5 -23 53 -40 61 -20 70 -19 70 9 0 11 -17 22 -53 33 -66 21 -64 21 -70 -2z"
       id="path10656" />
    <path
       d="M699 2661 c-1 -6 -2 -16 -3 -22 -1 -8 105 -52 110 -46 1 1 4 11 8 22 5 18 0 23 -36 32 -24 7 -51 15 -60 18 -10 4 -19 2 -19 -4z"
       id="path10658" />
    <path
       d="M851 2634 c0 -11 3 -14 6 -6 3 7 2 16 -1 19 -3 4 -6 -2 -5 -13z"
       id="path10660" />
    <path
       d="M867 2591 c-4 -17 5 -23 54 -40 58 -19 58 -19 64 1 8 24 11 21 -49 42 -62 20 -63 20 -69 -3z"
       id="path10662" />
    <path
       d="M1190 2498 c0 -86 -1 -88 -24 -88 -30 0 -44 -17 -42 -53 l1 -28 198 -2 198 -2 -3 40 c-3 36 -6 40 -33 43 l-30 3 3 69 c2 39 0 70 -5 71 -16 1 -99 11 -180 23 l-83 12 0 -88z m45 52 c-4 -6 8 -10 27 -11 44 0 108 -7 136 -14 18 -4 22 -12 22 -46 0 -51 24 -99 50 -99 11 0 20 -4 20 -10 0 -6 -64 -10 -172 -10 l-173 0 35 21 c48 30 51 36 44 101 -5 52 -1 78 12 78 3 0 2 -4 -1 -10z"
       id="path10664" />
    <path
       d="M1037 2543 c-10 -10 -8 -91 2 -97 5 -3 30 2 55 11 35 13 46 22 46 39 0 17 -10 26 -47 38 -54 19 -48 18 -56 9z m51 -51 c2 -7 -3 -12 -10 -12 -8 0 -15 7 -15 15 0 18 19 15 25 -3z"
       id="path10666" />
    <path
       d="M490 2495 c0 -24 2 -25 65 -25 63 0 65 1 65 25 0 24 -2 25 -65 25 -63 0 -65 -1 -65 -25z"
       id="path10668" />
    <path
       d="M675 2498 c1 -21 7 -23 63 -26 61 -3 62 -2 62 23 0 24 -2 25 -63 25 -60 0 -64 -1 -62 -22z"
       id="path10670" />
    <path
       d="M852 2498 c3 -21 9 -23 66 -26 61 -3 62 -2 62 23 0 24 -2 25 -66 25 -62 0 -65 -1 -62 -22z"
       id="path10672" />
    <path
       d="M920 2439 c-44 -13 -54 -21 -52 -35 2 -11 5 -20 6 -21 1 -1 27 6 59 14 42 12 57 21 57 34 0 26 -9 28 -70 8z"
       id="path10674" />
    <path
       d="M746 2381 c-51 -18 -61 -28 -48 -48 6 -9 20 -8 59 5 28 9 52 20 52 25 4 42 5 42 -63 18z"
       id="path10676" />
    <path
       d="M147 2379 c7 -7 15 -10 18 -7 3 3 -2 9 -12 12 -14 6 -15 5 -6 -5z"
       id="path10678" />
    <path
       d="M570 2322 c-29 -12 -45 -24 -45 -35 0 -21 4 -22 65 -6 42 11 50 17 50 36 0 27 -10 28 -70 5z"
       id="path10680" />
    <path
       d="M1022 2278 c-7 -7 -12 -20 -12 -29 0 -9 -16 -34 -36 -55 -38 -42 -78 -105 -89 -141 l-6 -23 446 0 446 0 -7 23 c-11 34 -68 119 -103 151 -17 17 -31 40 -31 52 0 12 -7 25 -16 28 -9 3 -143 6 -298 6 -206 0 -285 -3 -294 -12z m266 -120 l3 -98 -186 0 -186 0 41 59 c23 32 52 69 66 82 13 12 24 31 24 41 0 17 9 18 118 16 l117 -3 3 -97z m327 62 c9 -16 18 -30 21 -30 3 0 2 5 -2 12 -4 7 -3 8 5 4 6 -4 9 -11 6 -16 -3 -5 7 -18 21 -29 15 -12 24 -21 20 -21 -4 0 2 -9 13 -21 10 -11 21 -29 24 -39 4 -18 -6 -19 -203 -20 l-207 -1 -2 79 c-3 119 -12 112 150 112 l138 0 16 -30z"
       id="path10682"
       style="fill:#000000;stroke:#000000;stroke-opacity:1" />
    <path
       d="M905 2179 c-4 -6 -5 -12 -2 -15 2 -3 7 2 10 11 7 17 1 20 -8 4z"
       id="path10684" />
    <path
       d="M775 1966 c-18 -26 -11 -52 16 -67 18 -9 19 -38 19 -889 0 -859 0 -880 -19 -890 -29 -15 -36 -48 -15 -71 16 -18 36 -19 550 -19 l534 0 15 24 c18 26 11 52 -16 67 -18 9 -19 38 -19 889 0 850 1 880 19 889 25 14 32 45 14 70 -14 21 -20 21 -548 21 l-535 0 -15 -24z m1075 -21 c0 -8 -9 -24 -20 -35 -20 -20 -20 -29 -18 -908 2 -716 6 -891 16 -907 11 -15 12 -16 8 -2 -3 9 -2 17 3 17 5 0 11 -11 13 -25 l5 -24 -515 -1 c-283 0 -518 -3 -523 -5 -15 -10 -21 35 -5 50 8 8 16 10 18 5 4 -13 425 -22 453 -10 11 5 16 9 10 9 -5 1 -3 6 5 11 13 8 15 117 18 862 1 469 0 867 -3 885 -6 32 -47 69 -66 58 -5 -4 -96 -6 -200 -5 -132 0 -195 -3 -205 -11 -11 -9 -14 -9 -14 0 0 7 -4 10 -9 6 -13 -7 -24 13 -17 31 8 22 1046 21 1046 -1z m-560 -935 l0 -880 -222 0 -223 0 0 880 0 880 223 0 222 0 0 -880z"
       id="path10686" />
  </g>
  <path
     style="fill:#00db8c;stroke:#000000;stroke-width:1.30812"
     d="M 112.73177,265.26576 V 148.33127 h 29.41903 29.41904 V 265.26576 382.20025 H 142.1508 112.73177 Z"
     id="path10891"
     transform="scale(0.75)" />
  <path
     style="fill:#00db8c;stroke:#000000;stroke-width:1.30812"
     d="m 124.66312,122.74413 c 3.02903,-4.45824 8.19065,-11.26032 11.37955,-14.99616 2.85683,-3.34683 3.66488,-4.67026 4.53453,-7.42668 0.3816,-1.209491 3.89642,-1.423538 17.85199,-1.087157 l 12.54935,0.302485 0.29616,7.710062 c 0.16289,4.24053 0.38321,9.99065 0.48961,12.77804 l 0.19345,5.06799 H 147.5126 123.06745 Z"
     id="path10930"
     transform="scale(0.75)" />
  <path
     style="fill:#00db8c;stroke:#000000;stroke-width:0.654059"
     d="m 62.546354,131.35176 c -7.914638,-0.81875 -16.444678,-5.20801 -20.945424,-10.77779 -3.73891,-4.62699 -7.559145,-12.64971 -8.089911,-16.9893 -0.34846,-2.84903 -0.877874,-3.30529 -4.83364,-4.165743 C 23.753934,98.347988 19.739924,96.435466 15.138427,92.968134 8.2295876,87.762166 4.2463472,81.207251 2.8352365,72.721708 2.3143682,69.58953 2.4465935,62.993046 3.0887541,60.074166 3.9773046,56.035345 5.997336,51.134129 7.9690512,48.233066 11.352191,43.255318 14.651281,40.63092 21.190039,37.715886 c 3.85999,-1.720816 6.443622,-2.555216 8.847044,-2.857211 2.885426,-0.362556 3.099083,-0.583634 3.601538,-3.72665 0.472318,-2.954492 1.252724,-5.994987 1.984365,-7.731176 C 38.050863,17.639497 46.49977,8.5686245 52.426895,5.3599238 55.602136,3.6409795 59.00843,3.089585 65.232129,3.2870741 76.576816,3.6470613 84.147093,7.2373164 90.359617,15.203956 c 3.685038,4.725513 6.076148,9.902236 6.648067,14.392976 0.222321,1.745691 -0.289019,2.294455 -2.137474,2.293909 -2.486643,-7.42e-4 -3.780131,-1.233343 -5.364376,-5.111886 C 87.328769,21.449071 85.972757,19.221075 83.210366,16.435189 75.43865,8.5973676 62.805028,6.9705085 53.213271,12.572397 47.886645,15.683314 43.049436,21.262165 41.271548,26.345028 40.351298,28.975963 40.0416,31.18781 39.884351,36.252373 l -0.154601,4.979197 -5.217162,0.116845 c -5.94243,0.133088 -7.68549,0.467338 -11.201273,2.147958 -2.820249,1.348141 -4.827318,2.765474 -7.004049,4.946047 -8.2170042,8.231508 -10.0941802,20.515795 -4.743512,31.041657 3.270583,6.433908 9.324461,11.30577 16.34258,13.151698 2.061352,0.542185 3.064032,0.642094 7.530729,0.750373 l 5.152759,0.124913 -0.208383,2.008375 c -0.390507,3.763615 -0.232856,7.978944 0.380054,10.162114 2.433602,8.66842 9.453666,15.97589 18.076579,18.81666 1.945137,0.64081 2.395424,0.69257 6.05686,0.6962 3.633634,0.004 4.13644,-0.052 6.17911,-0.68337 4.883689,-1.50949 9.197938,-4.06922 12.72936,-7.55259 3.066694,-3.02496 4.75951,-5.67527 5.936724,-9.29467 0.730129,-2.24481 1.281444,-3.31725 2.096475,-4.07813 0.564855,-0.52733 0.942635,-0.62986 2.597664,-0.70502 1.811715,-0.0823 1.961424,-0.0502 2.320131,0.49727 0.339802,0.5186 0.343797,0.77473 0.03508,2.25021 -1.393995,6.6626 -3.632153,10.70473 -8.838042,15.96156 -6.905009,6.97258 -13.82669,10.04154 -22.308366,9.89116 -1.227298,-0.0218 -2.620823,-0.0798 -3.096719,-0.12907 z"
     id="path11807"
     transform="scale(0.75)" />
  <path
     style="fill:#00db8c;stroke:#000000;stroke-width:0.654059"
     d="m 67.063603,70.247298 c -1.248096,-0.364346 -1.550624,-0.904854 -1.550624,-2.770402 0,-2.073175 0.213958,-2.559429 1.291458,-2.935048 1.148946,-0.400524 8.716254,-0.605613 11.918811,-0.323023 2.484069,0.219192 2.749907,0.292536 3.275649,0.903748 0.465506,0.541182 0.572178,0.951954 0.572178,2.203325 0,1.843405 -0.39285,2.516883 -1.676015,2.873252 -0.996313,0.276702 -12.9065,0.318163 -13.831457,0.04815 z"
     id="path11846"
     transform="scale(0.75)" />
  <path
     style="fill:#00db8c;stroke:#000000;stroke-width:0.654059"
     d="m 80.840544,45.207997 c -5.407796,-1.472889 -10.813922,-3.712545 -11.504137,-4.765946 -0.477527,-0.728798 -0.405155,-2.076853 0.175466,-3.268355 0.315792,-0.648042 0.450843,-0.70578 1.572541,-0.672312 1.318321,0.03933 7.486969,1.871553 10.460595,3.107016 1.030207,0.428024 2.249358,1.166236 2.81558,1.704869 0.961147,0.914318 0.992653,0.993582 0.839387,2.111781 -0.225039,1.641839 -0.691881,2.068219 -2.234584,2.040911 -0.69277,-0.01226 -1.648952,-0.128347 -2.124848,-0.257964 z"
     id="path11885"
     transform="scale(0.75)" />
  <path
     style="fill:#00db8c;stroke:#000000;stroke-width:0.654059"
     d="m 103.58467,53.178234 c -3.1676,-1.143577 -5.19321,-2.000915 -7.787389,-3.296004 -2.832064,-1.413847 -2.900193,-1.493202 -2.700099,-3.144961 0.205954,-1.700134 0.473679,-2.237887 1.114152,-2.237887 0.27391,0 2.578401,0.617912 5.121092,1.373139 2.542694,0.755226 5.356194,1.587382 6.252224,1.849236 3.06238,0.894937 3.47237,1.72346 2.38898,4.827708 -0.67768,1.941761 -0.73096,1.949393 -4.38896,0.628769 z"
     id="path11924"
     transform="scale(0.75)" />
  <path
     style="fill:#00db8c;stroke:#000000;stroke-width:0.654059"
     d="m 125.46354,60.588058 c -6.29992,-2.027051 -8.98585,-3.227968 -9.54145,-4.26613 -0.35952,-0.671769 -0.15555,-2.488936 0.36928,-3.289931 0.31941,-0.487475 0.61459,-0.621614 1.3679,-0.621614 1.8371,0 12.44586,3.454403 13.68145,4.454923 0.51283,0.415265 0.52526,0.505726 0.22503,1.638779 -0.17477,0.659589 -0.50678,1.588622 -0.7378,2.064518 -0.36649,0.754956 -0.54611,0.872197 -1.40891,0.919628 -0.60245,0.03312 -2.14816,-0.318645 -3.9555,-0.900173 z"
     id="path11963"
     transform="scale(0.75)" />
  <path
     style="fill:#00db8c;stroke:#000000;stroke-width:0.654059"
     d="m 122.24969,70.28926 c -2.99522,-0.150647 -6.42495,-0.623369 -7.11621,-0.980834 -0.90573,-0.46837 -1.45877,-1.790295 -1.36367,-3.25955 0.11829,-1.827503 0.34909,-1.881946 7.98544,-1.883714 7.03974,-0.0016 8.124,0.158836 8.54438,1.264534 0.30457,0.801065 0.29791,3.453492 -0.0101,4.029033 -0.49913,0.93263 -2.30362,1.119038 -8.03983,0.830531 z"
     id="path12002"
     transform="scale(0.75)" />
  <path
     style="fill:#00db8c;stroke:#000000;stroke-width:0.65385827;stroke-miterlimit:4;stroke-dasharray:none"
     d="m 142.52636,68.630416 c -0.71676,-0.716762 -0.82739,-1.888627 -0.23429,-2.481732 0.47336,-0.473358 0.46136,-0.47308 1.31723,-0.03049 0.38076,0.196897 0.87054,0.725327 1.08841,1.174289 0.33267,0.685526 0.34402,0.895502 0.0709,1.310732 -0.49306,0.749493 -1.50761,0.761801 -2.24221,0.0272 z"
     id="path12041"
     transform="scale(0.75)" />
  <path
     style="fill:#00db8c;stroke:#000000;stroke-width:0.654059"
     d="m 116.22218,80.978289 c -0.4927,-1.956704 -0.372,-2.722142 0.55803,-3.538723 1.32016,-1.159112 9.58457,-3.949927 12.42208,-4.19482 1.31582,-0.113563 1.58254,-0.06189 2.03956,0.395121 0.64885,0.64885 0.7266,2.601212 0.13711,3.442829 -0.49063,0.700469 -2.6186,1.770256 -5.17377,2.60099 -2.13681,0.694718 -8.77403,2.392952 -9.35239,2.392952 -0.21263,0 -0.46452,-0.438718 -0.63062,-1.098349 z"
     id="path12080"
     transform="scale(0.75)" />
  <path
     style="fill:#00db8c;stroke:#000000;stroke-width:0.654059"
     d="m 96.662546,70.174459 c -5.355875,-0.367212 -6.231869,-0.810678 -6.549586,-3.31568 -0.128637,-1.014216 -0.0707,-1.358473 0.307127,-1.825074 0.405579,-0.50087 0.798505,-0.605361 3.04504,-0.809767 3.040601,-0.276655 10.654343,-0.07962 11.755423,0.304212 0.9593,0.334414 1.33075,1.12561 1.33075,2.834508 0,1.807154 -0.30196,2.484792 -1.25533,2.81714 -0.89447,0.311814 -4.03601,0.309872 -8.633424,-0.0053 z"
     id="path12119"
     transform="scale(0.75)" />
  <path
     style="fill:#00db8c;stroke:#000000;stroke-width:0.654059"
     d="m 93.23652,88.863545 c -0.726953,-0.92417 -0.896665,-1.993437 -0.429547,-2.706349 0.751698,-1.147236 3.514516,-2.446397 9.421297,-4.430182 3.98645,-1.338841 5.20547,-1.445808 5.56937,-0.488699 0.13822,0.363562 0.17367,1.343312 0.0812,2.245442 -0.15286,1.491946 -0.22471,1.640648 -1.05989,2.193341 -2.05161,1.357691 -9.636075,3.816104 -11.773088,3.816104 -1.113719,0 -1.38963,-0.09602 -1.809392,-0.629657 z"
     id="path12158"
     transform="scale(0.75)" />
  <path
     style="fill:#00db8c;stroke:#000000;stroke-width:0.654059"
     d="m 70.506799,96.860321 c -0.163165,-0.163164 -0.296663,-0.8212 -0.296663,-1.462302 0,-1.080252 0.08579,-1.241152 1.171067,-2.196455 2.539712,-2.235543 11.014641,-5.374811 12.739604,-4.718981 1.164411,0.442708 1.483644,3.172029 0.542128,4.634985 -0.560965,0.871644 -2.852299,1.779241 -7.430557,2.94324 -4.389244,1.115944 -6.194542,1.330551 -6.725579,0.799513 z"
     id="path12197"
     transform="scale(0.75)" />
  <path
     style="fill:#00db8c;stroke:#000000;stroke-width:0.77480315;stroke-miterlimit:4;stroke-dasharray:none;stroke-opacity:1"
     d="m 138.90299,73.949406 c -0.23956,-0.02934 -0.41899,-0.113019 -0.51115,-0.238373 -0.52252,-0.710699 -0.87802,-2.899575 -0.96831,-5.962014 -0.0846,-2.868368 0.17422,-5.506981 0.633,-6.45421 0.11845,-0.244562 0.66403,-0.901506 0.86498,-1.041542 0.43204,-0.301079 0.99483,-0.160064 4.95983,1.242769 0.8753,0.309689 1.91131,0.671235 2.30222,0.803436 2.54193,0.859643 3.93162,1.549826 4.78478,2.376337 0.702,0.680076 1.01001,1.445284 1.00867,2.505897 -0.001,0.808245 -0.15735,1.381861 -0.53132,1.949525 -0.69916,1.061274 -2.19333,1.958736 -5.12307,3.077146 -2.85365,1.089362 -6.24434,1.884992 -7.41963,1.741029 z m 5.2424,-5.18354 c 0.16173,-0.08376 0.37365,-0.314799 0.45274,-0.493581 0.0789,-0.178323 0.0625,-0.291435 -0.0948,-0.656443 -0.18053,-0.418743 -0.48889,-0.822476 -0.81935,-1.072792 -0.1909,-0.1446 -0.76555,-0.441663 -0.85596,-0.442482 -0.027,-2.47e-4 -0.13947,0.09342 -0.25004,0.208147 -0.27024,0.280406 -0.34489,0.469582 -0.3445,0.872991 4.4e-4,0.443849 0.14892,0.823839 0.45489,1.164148 0.17387,0.193396 0.41498,0.361195 0.63674,0.443144 0.22754,0.08408 0.6355,0.07258 0.8203,-0.02313 z"
     id="path12898"
     transform="scale(0.75)" />
  <path
     style="fill:#000000;fill-opacity:1;stroke:#000000;stroke-width:0.095773;stroke-miterlimit:4;stroke-dasharray:none;stroke-opacity:1"
     d="m 175.81377,243.17058 c 0.0901,-20.61907 -0.10639,-82.16772 -0.2818,-88.28801 -0.12083,-4.21605 -0.16976,-4.541 -0.90271,-5.99505 -0.64865,-1.28683 -1.32792,-2.18888 -2.55974,-3.39926 -2.10404,-2.06743 -4.00174,-2.87156 -5.39898,-2.28775 -1.23416,0.51566 -5.85463,0.68182 -20.74965,0.7462 -23.32655,0.10082 -27.84971,0.22567 -31.45859,0.86833 -1.26525,0.22531 -1.65749,0.36668 -2.22497,0.80195 -1.0704,0.82101 -1.48331,0.83504 -1.48331,0.0504 0,-1.04134 -0.49078,-1.49162 -1.21664,-1.11626 -1.30109,0.67282 -2.54048,-0.52336 -2.53639,-2.44794 8.9e-4,-0.41572 0.07,-0.96068 0.15362,-1.21103 0.14447,-0.43261 0.19303,-0.46435 0.97954,-0.64012 3.20304,-0.71583 13.64955,-1.18891 35.00553,-1.58526 10.72176,-0.19898 53.00699,-0.1992 64.15327,-3.3e-4 23.95533,0.4274 35.84427,0.96834 38.85902,1.76803 0.45988,0.122 0.47561,0.14335 0.40878,0.55514 -0.16595,1.0227 -1.09499,2.58466 -2.3955,4.02747 -0.44806,0.49709 -0.95027,1.19726 -1.11604,1.55592 -0.83666,1.81031 -1.13881,5.31287 -1.42058,16.46778 -0.11765,4.65797 -0.15383,17.98341 -0.14251,52.50309 l 0.0152,46.26082 H 208.61686 175.7324 l 0.0814,-18.63412 z"
     id="path23461"
     transform="scale(0.75)" />
  <path
     style="fill:#000000;fill-opacity:1;stroke:#000000;stroke-width:1.13385827;stroke-miterlimit:4;stroke-dasharray:none;stroke-opacity:1"
     d="m 175.15483,124.44376 c 1.7e-4,-0.49289 -0.0889,-4.09456 -0.19793,-8.00371 -0.21477,-7.70004 -0.17946,-10.96139 0.13238,-12.22662 0.53115,-2.155 1.71943,-3.14294 4.38949,-3.64944 2.05041,-0.38896 4.94535,-0.45082 19.39494,-0.41446 l 14.26308,0.0359 1.12905,2.10326 c 1.94369,3.62082 3.11696,5.45664 3.67985,5.75789 0.22101,0.11828 0.29558,0.10404 0.432,-0.0825 0.19044,-0.26044 0.14866,-0.44814 -0.33509,-1.50545 -0.19441,-0.42491 -0.32636,-0.77256 -0.29323,-0.77256 0.23622,0 1.06557,0.55503 1.28062,0.85704 0.28337,0.39796 0.32744,0.76789 0.18797,1.57796 -0.0746,0.43333 -0.037,0.60836 0.22755,1.05983 0.47946,0.81814 1.34092,1.71974 2.92035,3.05642 1.95677,1.65603 2.43609,2.16502 2.24998,2.38926 -0.26181,0.31546 0.15563,1.00948 1.65884,2.75785 1.77207,2.0611 3.23201,4.52409 3.36123,5.67056 0.0521,0.46232 0.0156,0.5799 -0.259,0.8344 -1.09796,1.01756 -4.46873,1.17023 -29.31511,1.32778 -10.0618,0.0638 -19.78213,0.11753 -21.60074,0.1194 l -3.30655,0.003 3.2e-4,-0.89617 z"
     id="path24201"
     transform="scale(0.75)" />
  <path
     style="fill:#000000;fill-opacity:1;stroke:#000000;stroke-width:0.51779528;stroke-miterlimit:4;stroke-dasharray:none;stroke-opacity:1"
     d="m 175.8945,213.56613 c -0.003,-17.54023 -0.24938,-57.70724 -0.36851,-60.16687 -0.13317,-2.74949 -0.24691,-3.35161 -0.86391,-4.57355 -0.5952,-1.17875 -1.04554,-1.78914 -2.2226,-3.01248 -2.30785,-2.39858 -4.09739,-3.18413 -5.9636,-2.6178 -1.45605,0.44185 -8.39955,0.67635 -20.30777,0.68585 -9.26746,0.007 -23.6216,0.20699 -26.57602,0.36955 -4.07035,0.22396 -6.17722,0.57308 -7.16549,1.18735 -1.01136,0.62862 -1.35323,0.7897 -1.45662,0.68631 -0.0554,-0.0554 -0.14584,-0.38589 -0.20093,-0.73438 -0.13553,-0.85741 -0.31751,-1.05673 -0.87343,-0.95666 -1.25077,0.22513 -1.547,0.21585 -1.89694,-0.0594 -0.61853,-0.48653 -0.8866,-1.17723 -0.889,-2.29048 -0.003,-1.29268 0.17494,-1.588 1.07137,-1.78025 3.68804,-0.79094 17.4693,-1.34263 40.64466,-1.62709 12.91049,-0.15847 55.21089,-0.0724 63.53523,0.12932 21.77283,0.52753 29.66459,0.89829 33.09583,1.55488 0.52721,0.10088 0.97979,0.18343 1.00574,0.18344 0.0259,1e-5 0.0169,0.22599 -0.0202,0.50218 -0.0959,0.71536 -0.61144,1.7012 -1.49074,2.8509 -0.41867,0.54742 -1.02458,1.33801 -1.34647,1.75685 -0.3235,0.42094 -0.69542,1.09324 -0.83157,1.50319 -1.10332,3.32212 -1.35172,12.89063 -1.35977,52.37948 l -0.005,22.71323 h -32.75649 -32.75649 l -0.002,-8.68356 z"
     id="path24573"
     transform="scale(0.75)" />
  <path
     style="fill:#000000;fill-opacity:1;stroke:#000000;stroke-width:0.44220472;stroke-miterlimit:4;stroke-dasharray:none;stroke-opacity:1"
     d="m 153.09024,85.19632 c 0.068,-0.06442 1.0414,-0.66231 2.16316,-1.328651 2.62998,-1.562247 4.91719,-3.074042 5.94543,-3.929781 1.0005,-0.832667 1.7552,-1.935428 2.1214,-3.099811 0.24551,-0.780595 0.2747,-1.117695 0.25818,-2.981464 -0.0102,-1.155748 -0.11115,-2.880099 -0.22424,-3.831891 -0.1131,-0.951792 -0.23723,-3.123564 -0.27587,-4.826158 -0.0594,-2.618366 -0.0379,-3.255163 0.13944,-4.130416 0.26989,-1.331995 0.57924,-1.934843 1.12686,-2.195982 0.63343,-0.302062 0.76113,-0.09719 0.42559,0.682791 -0.31558,0.733588 -0.29265,0.968649 0.12474,1.279088 0.55331,0.411526 1.90534,0.600504 5.1916,0.725651 5.93933,0.22618 11.8946,0.871048 15.57478,1.686518 1.54664,0.342711 1.97895,0.517051 2.51413,1.01388 0.788,0.731543 0.92747,1.353982 1.07009,4.775753 0.2085,5.002342 1.05545,8.226463 2.88228,10.972008 1.22494,1.840982 2.18217,2.506157 3.87268,2.69112 0.60208,0.06588 1.33049,0.20748 1.6187,0.314677 0.48234,0.179402 1.02111,0.673716 1.02111,0.936856 0,0.445079 -2.91172,0.80648 -8.89988,1.104649 -3.45897,0.172232 -36.81858,0.300722 -36.65018,0.141163 z"
     id="path24686"
     transform="scale(0.75)" />
  <path
     style="fill:#000000;fill-opacity:1;stroke:#000000;stroke-width:0.97511811;stroke-miterlimit:4;stroke-dasharray:none;stroke-opacity:1"
     d="m 108.03005,392.08161 c -0.20763,-0.33594 -0.3775,-1.49317 -0.3775,-2.57163 0,-2.56015 1.93354,-4.73834 3.4742,-3.9138 1.88864,1.01077 17.28148,1.71327 38.44062,1.75437 16.74401,0.0325 21.50354,-0.0971 22.40334,-0.61023 0.6284,-0.35834 1.0468,-0.91458 0.92978,-1.23609 -0.117,-0.32152 0.11653,-0.96298 0.51898,-1.42548 0.40244,-0.46249 0.92985,-2.46496 1.172,-4.44993 0.44112,-3.61584 1.36854,-70.25459 1.40755,-101.13685 l 0.0208,-16.44005 h 32.63288 32.63288 l 0.0189,14.4623 c 0.041,31.44638 0.97315,99.82251 1.43355,105.15907 0.41058,4.75899 0.65608,5.81512 1.55164,6.6749 l 1.06388,1.0214 -0.32584,-1.85414 c -0.65433,-3.72328 1.17887,-1.45696 1.93462,2.3917 l 0.29974,1.52644 -67.63594,0.32072 c -37.19977,0.17639 -68.44203,0.45963 -69.42723,0.62942 -1.1833,0.20392 -1.91941,0.10138 -2.16878,-0.30212 z"
     id="path24725"
     transform="scale(0.75)" />
  <path
     style="fill:#000000;fill-opacity:1;stroke:#000000;stroke-width:0.120534;stroke-miterlimit:4;stroke-dasharray:none;stroke-opacity:1"
     d="m 170.95179,237.33004 v -81.95303 l 37.48455,-6e-5 37.48455,-7e-5 -0.0876,2.13233 c -0.40015,9.74158 -0.6252,56.98965 -0.56877,119.40674 l 0.0383,42.36713 H 208.1273 l -37.17553,-10e-6 z m 70.59896,-5.1916 c -0.0966,-9.27116 -0.10198,-8.83302 -0.12134,9.83725 -0.0111,10.74732 0.0215,19.58231 0.0724,19.63331 0.13559,0.1356 0.16605,-18.22479 0.0489,-29.47056 z m -65.67179,4.27483 c 0.009,-7.67666 -0.003,-13.93439 -0.0278,-13.90606 -0.0247,0.0283 -0.071,8.84013 -0.10279,19.58179 -0.0318,10.74166 -0.0193,16.99938 0.0278,13.90606 0.0471,-3.09333 0.0933,-11.90513 0.10278,-19.58179 z"
     id="path24764"
     transform="scale(0.75)" />
</svg>
