<?xml version="1.0" encoding="UTF-8" standalone="no"?>
<svg
   version="1.0"
   width="2733.000000pt"
   height="848.000000pt"
   viewBox="0 0 2733.000000 848.000000"
   preserveAspectRatio="xMidYMid meet"
   id="svg1892"
   sodipodi:docname="bootstrap.svg"
   inkscape:version="1.1.1 (3bf5ae0d25, 2021-09-20)"
   xmlns:inkscape="http://www.inkscape.org/namespaces/inkscape"
   xmlns:sodipodi="http://sodipodi.sourceforge.net/DTD/sodipodi-0.dtd"
   xmlns="http://www.w3.org/2000/svg"
   xmlns:svg="http://www.w3.org/2000/svg">
  <defs
     id="defs1896" />
  <sodipodi:namedview
     id="namedview1894"
     pagecolor="#505050"
     bordercolor="#eeeeee"
     borderopacity="1"
     inkscape:pageshadow="0"
     inkscape:pageopacity="0"
     inkscape:pagecheckerboard="0"
     inkscape:document-units="pt"
     showgrid="false"
     inkscape:zoom="0.29335895"
     inkscape:cx="1822"
     inkscape:cy="291.45182"
     inkscape:window-width="1920"
     inkscape:window-height="1017"
     inkscape:window-x="-8"
     inkscape:window-y="-8"
     inkscape:window-maximized="1"
     inkscape:current-layer="svg1892" />
  <g
     transform="translate(0.000000,848.000000) scale(0.100000,-0.100000)"
     fill="#000000"
     stroke="none"
     id="g1890">
    <path
       d="M21575 6725 c-72 -48 -146 -100 -165 -115 -19 -15 -138 -90 -265 -167 -384 -233 -568 -354 -604 -397 -8 -9 -5 -29 9 -70 10 -31 24 -94 30 -139 27 -197 47 -268 98 -342 26 -38 64 -87 85 -110 l39 -40 -42 -155 c-66 -241 -55 -223 -168 -261 -99 -32 -166 -62 -176 -77 -9 -16 35 -181 58 -214 12 -18 36 -63 53 -100 18 -38 44 -79 59 -93 l28 -26 -99 -99 c-110 -110 -91 -102 -291 -125 -115 -12 -207 -40 -248 -74 -21 -18 -42 -91 -66 -226 -11 -60 -37 -156 -58 -211 l-38 -102 -49 91 c-85 155 -275 437 -295 437 -4 0 -40 -49 -80 -110 -40 -60 -76 -110 -80 -110 -15 0 -51 162 -57 250 -7 107 -9 103 129 250 111 117 141 173 217 398 67 198 85 304 78 456 -8 191 -31 262 -132 410 -39 59 -92 118 -155 175 -146 132 -175 154 -315 232 -200 111 -318 184 -460 282 -71 50 -174 121 -228 159 -54 37 -103 68 -110 68 -17 0 -321 -335 -466 -513 -18 -21 -31 -61 -48 -147 -25 -127 -66 -268 -107 -369 l-26 -65 36 -115 c20 -64 38 -124 41 -134 5 -15 0 -13 -20 7 -14 14 -37 26 -50 26 -13 0 -80 26 -148 59 -68 32 -134 62 -146 66 -40 12 -68 -31 -114 -175 l-42 -132 23 -81 c32 -118 105 -311 148 -392 30 -56 42 -71 63 -73 23 -3 29 3 43 38 16 40 18 41 39 28 12 -8 32 -20 44 -27 l23 -12 -33 -48 c-28 -40 -74 -137 -127 -268 -12 -28 -39 -29 -73 -3 -14 11 -33 20 -44 20 -24 -1 -53 -23 -53 -42 0 -31 -31 -88 -69 -128 -37 -39 -42 -52 -86 -226 -25 -102 -59 -222 -75 -268 -17 -47 -30 -93 -30 -103 0 -26 342 -361 446 -437 86 -63 253 -163 371 -223 l73 -37 57 21 c32 12 101 40 153 62 126 52 230 73 352 70 54 -2 101 0 104 4 17 16 21 4 13 -35 -11 -60 5 -86 66 -108 28 -10 101 -37 163 -59 162 -59 244 -71 447 -65 144 4 184 9 260 30 120 35 180 62 237 107 59 46 78 82 78 144 0 47 22 385 25 391 2 3 59 -46 133 -113 68 -62 152 -171 152 -197 0 -11 16 -36 35 -55 28 -28 41 -34 62 -30 14 3 38 1 53 -4 21 -8 43 -4 95 15 53 19 72 22 83 14 10 -9 22 -9 45 0 30 10 49 12 132 11 17 -1 41 0 55 2 14 1 84 -3 155 -10 92 -9 146 -10 185 -3 43 8 61 7 82 -4 15 -8 40 -14 56 -14 40 0 252 37 338 59 58 14 83 16 141 8 84 -11 196 9 542 95 113 28 217 51 231 51 14 -1 68 -16 122 -34 89 -29 99 -31 120 -17 22 15 167 293 210 403 10 28 35 86 54 131 18 45 34 94 34 111 0 33 -64 128 -140 208 -26 28 -51 64 -55 80 -8 38 -54 113 -115 190 -47 58 -50 61 -88 57 l-41 -4 20 62 c10 34 19 69 19 78 0 10 4 23 9 31 7 11 12 10 29 -7 30 -30 72 -35 147 -17 42 9 72 12 78 6 5 -5 10 -35 11 -67 1 -47 11 -78 48 -154 25 -52 60 -108 77 -124 l31 -29 177 11 c98 7 194 12 214 12 l36 0 7 -132 c18 -318 23 -394 30 -409 4 -8 22 -21 41 -28 76 -27 121 -99 318 -511 92 -192 99 -196 238 -131 46 22 113 45 149 51 36 7 92 21 125 31 33 11 110 33 170 49 169 45 267 87 377 161 31 22 61 39 66 39 30 0 92 119 92 178 0 15 -16 90 -35 167 -34 133 -75 354 -90 477 -13 106 -56 142 -208 175 -110 23 -175 14 -287 -41 -52 -25 -97 -45 -101 -44 -3 2 -27 29 -53 61 l-46 57 58 38 c32 21 129 78 215 127 156 90 156 90 205 165 102 156 164 309 142 350 -7 14 -8 25 -2 33 19 23 32 93 43 217 6 78 6 132 1 145 -6 11 -15 38 -21 61 -33 125 -257 359 -453 475 -83 50 -333 158 -427 185 -196 57 -477 83 -616 58 -127 -24 -148 -31 -191 -68 -58 -49 -101 -138 -140 -288 -19 -72 -54 -197 -78 -277 -24 -80 -46 -170 -50 -200 -4 -30 -14 -70 -22 -89 -8 -19 -14 -60 -14 -91 l0 -56 96 -96 96 -96 -52 -6 c-29 -4 -63 -13 -76 -22 -29 -19 -33 -12 -43 77 -5 52 -13 75 -27 87 -12 10 -31 56 -49 121 -44 159 -96 264 -183 368 -38 45 -49 53 -71 49 -19 -4 -35 4 -65 29 -40 34 -90 51 -123 40 -10 -3 -62 -30 -116 -60 l-97 -54 -19 27 c-10 14 -37 56 -59 93 l-41 67 129 128 c72 70 130 134 130 142 0 9 -27 72 -59 141 -33 69 -86 181 -118 250 -64 134 -132 249 -218 364 -68 92 -85 107 -132 113 -35 5 -49 -2 -168 -82z m165 -162 c23 -60 58 -146 78 -193 46 -109 91 -250 85 -266 -2 -7 -15 -15 -28 -18 -13 -3 -27 -16 -30 -29 -4 -12 -43 -56 -88 -97 l-80 -75 13 -40 c7 -22 37 -89 66 -148 30 -60 74 -156 100 -215 25 -59 60 -133 77 -165 l31 -59 43 7 c33 5 54 17 92 53 66 64 253 176 279 168 33 -11 78 -64 116 -135 57 -110 170 -402 191 -495 l6 -29 -61 7 c-68 8 -259 62 -275 77 -7 7 2 8 25 4 67 -12 94 57 38 98 -25 19 -32 19 -105 8 -153 -24 -198 -33 -228 -48 -39 -20 -95 -73 -95 -91 0 -22 50 -65 126 -110 76 -44 190 -157 200 -198 4 -15 -3 -40 -21 -71 -15 -26 -44 -100 -65 -163 -35 -106 -37 -116 -24 -142 13 -26 19 -28 72 -28 31 0 88 5 126 10 38 6 71 9 73 7 2 -2 -14 -107 -35 -233 l-39 -229 -159 -7 c-155 -6 -313 -25 -444 -53 -428 -91 -389 -86 -574 -83 -165 3 -171 4 -168 23 2 11 32 81 67 155 35 74 69 153 75 175 7 22 21 61 32 87 l20 46 106 7 c59 3 118 7 132 8 20 2 38 22 88 102 34 55 81 137 104 183 l42 83 -33 137 c-45 185 -68 257 -86 272 -27 23 -367 -35 -447 -76 -15 -8 -29 -24 -33 -36 -4 -13 -40 -96 -81 -184 -41 -89 -74 -166 -74 -172 0 -6 -34 -52 -74 -104 -41 -51 -87 -114 -101 -140 l-25 -46 24 -28 c21 -26 26 -27 50 -16 33 15 286 17 286 2 0 -15 -42 -118 -114 -285 -36 -82 -66 -156 -66 -163 0 -9 -5 -10 -16 -4 -11 6 -33 4 -62 -4 -25 -8 -77 -14 -116 -14 -39 0 -89 -5 -111 -10 -22 -6 -157 -12 -301 -14 -239 -4 -312 -8 -401 -22 l-32 -5 24 58 c27 68 67 214 90 333 10 47 21 93 26 102 15 28 112 58 191 58 39 0 94 7 122 15 28 8 64 17 80 20 18 4 68 44 140 115 l112 109 16 105 c9 58 27 128 39 156 22 50 22 53 5 106 -20 63 -22 63 -136 38 -70 -16 -74 -16 -87 1 -7 11 -13 24 -13 30 0 6 43 24 95 39 52 16 118 39 146 52 46 22 50 27 45 49 -4 15 7 72 29 147 68 237 110 507 91 582 -9 38 -39 50 -76 31 -36 -19 -115 -35 -128 -26 -13 8 -74 343 -65 351 16 14 396 252 558 350 175 106 347 218 424 277 24 18 47 33 52 33 4 0 26 -48 49 -107z m408 -612 c-5 -26 -23 -22 -24 7 0 15 -4 43 -8 62 -6 34 -6 34 14 -9 11 -25 19 -51 18 -60z m1530 44 c203 -24 350 -72 580 -191 164 -84 199 -109 322 -227 62 -60 96 -102 125 -157 37 -70 40 -81 43 -176 5 -116 -13 -201 -54 -264 -20 -31 -56 -56 -159 -115 -275 -156 -428 -217 -551 -221 -45 -1 -91 -7 -103 -13 -30 -17 -28 -71 4 -101 13 -13 48 -63 76 -111 29 -49 82 -125 118 -170 36 -45 91 -123 121 -174 101 -168 114 -179 126 -103 9 56 51 99 131 136 67 30 70 30 157 21 60 -6 102 -16 129 -31 l40 -23 28 -165 c44 -252 43 -245 28 -256 -19 -15 -268 -108 -354 -133 -38 -11 -124 -31 -190 -46 -88 -19 -148 -40 -224 -77 -129 -63 -175 -70 -218 -34 -18 15 -37 43 -44 64 -23 70 -77 179 -144 293 -79 133 -155 285 -155 310 0 10 10 30 23 45 l24 27 64 -17 c63 -18 66 -21 189 -152 68 -74 135 -137 148 -141 17 -4 30 1 45 15 l20 21 -31 63 c-53 108 -194 289 -250 322 -41 24 -214 183 -238 219 -39 60 -61 65 -127 27 l-56 -31 -185 3 c-179 3 -185 4 -210 27 -33 31 -33 44 6 174 l32 107 38 0 c21 0 41 0 46 0 4 0 5 -25 3 -56 -6 -96 46 -122 170 -84 93 28 147 62 154 98 15 73 40 138 91 237 43 84 52 110 42 117 -31 20 -299 78 -327 71 -10 -3 -36 4 -57 15 -22 11 -65 25 -98 32 l-59 12 7 53 c3 29 17 90 31 136 14 46 39 138 56 204 55 219 116 372 158 395 77 40 249 50 459 25z m-5376 -108 c57 -35 159 -91 228 -125 226 -110 430 -254 603 -424 93 -91 127 -143 163 -248 49 -141 69 -386 39 -486 -8 -27 -42 -87 -75 -133 -33 -46 -60 -91 -60 -99 0 -67 -205 -184 -365 -208 -25 -3 -45 -8 -45 -11 0 -3 23 -25 50 -50 106 -95 134 -161 155 -355 24 -233 31 -256 83 -305 62 -57 133 -93 196 -100 l54 -6 97 83 c53 45 98 80 99 78 5 -5 121 -353 151 -452 l27 -90 -45 -42 c-25 -24 -58 -46 -73 -49 -16 -3 -43 -12 -59 -19 -70 -31 -153 -40 -345 -41 l-195 0 -132 43 c-73 23 -148 42 -167 42 -49 0 -51 14 -37 244 25 434 25 473 2 570 -54 225 -227 509 -391 643 -88 72 -162 114 -181 103 -12 -8 -15 -65 -17 -327 -3 -309 3 -400 30 -459 9 -19 19 -24 47 -24 20 1 47 7 61 14 l24 14 46 -127 c61 -165 122 -309 170 -397 l39 -71 -87 -6 c-131 -9 -230 -33 -379 -93 -153 -62 -148 -62 -261 15 -33 22 -84 51 -113 64 -81 36 -196 126 -376 295 -89 84 -165 156 -168 162 -3 5 5 38 19 72 13 35 32 99 40 143 24 117 35 155 47 155 6 0 35 -20 66 -45 116 -95 149 -71 174 124 20 152 118 406 202 520 37 49 47 72 47 101 0 38 -1 39 -120 115 -66 42 -127 75 -137 73 -10 -2 -22 -13 -28 -26 -5 -12 -12 -22 -16 -22 -8 0 -91 281 -85 288 3 2 45 -18 93 -46 185 -105 330 -167 370 -157 14 3 25 16 30 33 3 15 26 64 50 110 24 45 43 92 43 103 0 11 -28 65 -61 121 -34 56 -68 116 -75 135 l-15 34 109 132 c141 170 272 346 314 419 18 31 34 58 35 58 1 0 49 -28 105 -63z m3267 -1509 c-12 -24 -42 -73 -66 -110 l-45 -66 -66 -11 c-154 -24 -165 -19 -119 43 13 17 31 52 40 77 27 71 45 82 155 95 54 6 103 12 110 13 8 1 6 -13 -9 -41z m111 -1089 c0 -6 -4 -7 -10 -4 -5 3 -10 11 -10 16 0 6 5 7 10 4 6 -3 10 -11 10 -16z"
       id="path1870" />
    <path
       d="M21200 5492 c-20 -21 -30 -43 -35 -78 -3 -27 -15 -87 -25 -134 -33 -147 -35 -182 -12 -210 l20 -25 88 23 c130 34 158 50 162 90 2 20 -3 41 -11 50 -8 10 -29 62 -47 117 -41 124 -76 195 -96 195 -9 0 -28 -13 -44 -28z"
       id="path1872" />
    <path
       d="M23943 5070 c-31 -13 -68 -73 -94 -153 -18 -56 -20 -72 -10 -94 11 -23 16 -25 52 -20 58 8 130 48 157 87 24 36 30 107 11 142 -6 11 -26 26 -44 34 -39 16 -42 16 -72 4z"
       id="path1874" />
    <path
       d="M18248 4893 c-11 -3 -22 -21 -28 -46 -6 -23 -19 -61 -30 -85 -11 -23 -20 -48 -20 -55 0 -17 53 -43 160 -78 l85 -28 32 37 c36 42 40 69 17 115 -55 108 -137 161 -216 140z"
       id="path1876" />
    <path
       d="M4123 6685 c-230 -30 -621 -120 -745 -170 -34 -14 -76 -25 -94 -25 -19 0 -118 -17 -221 -37 -133 -26 -209 -36 -260 -35 -78 3 -134 -13 -154 -46 -10 -16 -16 -18 -41 -8 -26 10 -32 8 -48 -11 -17 -21 -50 -169 -50 -223 0 -14 -11 -70 -25 -123 -14 -54 -30 -149 -36 -210 -6 -62 -20 -139 -30 -172 -24 -78 -49 -205 -49 -247 0 -18 -11 -68 -25 -111 -26 -79 -32 -132 -17 -141 5 -3 5 -27 1 -53 -4 -26 -8 -74 -8 -106 -1 -31 -8 -84 -18 -117 -19 -71 -11 -113 30 -144 l28 -20 157 32 c159 32 368 59 378 49 3 -3 0 -32 -7 -66 -11 -57 -10 -68 24 -198 42 -160 62 -296 53 -346 l-7 -35 -58 5 c-33 3 -74 0 -94 -6 -31 -11 -37 -18 -42 -49 -4 -20 -17 -57 -29 -82 -22 -43 -22 -51 -14 -155 5 -60 10 -219 11 -351 2 -222 0 -243 -16 -262 -27 -29 -19 -74 15 -90 53 -25 164 -42 278 -42 88 0 129 -5 170 -19 71 -25 151 -39 275 -50 55 -5 145 -20 200 -34 55 -15 163 -38 240 -51 77 -14 180 -37 230 -51 49 -14 102 -25 118 -25 15 0 36 -5 46 -12 24 -15 88 2 142 37 20 13 150 78 290 145 140 67 282 135 316 151 110 53 182 108 221 168 20 31 76 153 125 271 145 351 132 306 134 470 0 80 2 150 2 155 1 6 34 -53 74 -130 72 -139 122 -219 202 -325 23 -30 51 -75 62 -100 53 -120 323 -414 428 -465 58 -29 64 -30 210 -30 l150 0 70 36 c108 56 233 151 293 221 74 88 240 335 300 449 59 112 114 254 144 376 l21 89 82 -166 c92 -185 142 -270 223 -380 31 -41 71 -103 89 -138 39 -75 92 -144 205 -268 103 -114 158 -160 228 -193 49 -23 70 -26 185 -29 112 -3 137 -1 185 17 67 25 222 124 285 182 59 54 159 187 265 353 125 195 186 335 241 551 13 50 35 102 59 140 56 87 80 144 80 195 0 64 -80 225 -156 313 -33 38 -78 97 -102 130 -63 90 -199 243 -260 293 -109 89 -406 254 -457 254 -12 0 -34 10 -49 21 -67 52 -228 67 -328 29 -31 -11 -76 -36 -100 -54 -23 -18 -63 -42 -88 -53 -88 -39 -244 -156 -351 -264 -130 -131 -155 -177 -171 -312 -14 -122 -26 -128 -95 -48 -76 87 -119 143 -136 176 -8 17 -67 84 -130 150 -91 96 -136 133 -218 185 -137 85 -278 157 -325 166 -20 4 -53 17 -72 30 -101 69 -294 59 -404 -21 -18 -13 -64 -41 -102 -61 -38 -20 -106 -61 -150 -92 -97 -66 -305 -271 -333 -327 -26 -51 -43 -131 -43 -199 0 -48 -3 -54 -23 -60 -38 -9 -50 -50 -53 -176 -4 -162 -14 -214 -40 -218 -11 -2 -52 15 -91 37 -65 37 -199 97 -303 135 -73 27 -73 26 -46 82 13 27 44 104 70 172 26 68 60 142 76 164 35 48 70 153 70 208 0 44 -58 279 -89 362 -12 31 -32 72 -45 91 -13 19 -43 78 -66 131 -23 53 -67 131 -96 174 -53 76 -66 101 -146 277 -64 140 -135 260 -188 317 l-48 53 -143 2 c-79 1 -190 -5 -246 -12z m359 -139 c50 -52 119 -175 187 -334 41 -96 78 -165 114 -212 28 -38 62 -88 74 -112 85 -169 146 -309 178 -408 33 -101 36 -124 33 -191 -5 -90 -31 -141 -101 -206 -108 -100 -295 -149 -436 -115 l-64 16 -24 -28 c-17 -20 -21 -34 -17 -54 4 -15 7 -28 8 -28 1 -1 54 -34 120 -73 65 -40 178 -110 250 -155 91 -59 170 -99 261 -135 72 -28 167 -73 211 -100 45 -27 91 -52 102 -55 41 -13 33 -120 -18 -251 -15 -38 -33 -88 -40 -110 -17 -51 -67 -133 -90 -145 -9 -5 -39 -14 -66 -20 -26 -6 -125 -53 -219 -104 -251 -138 -363 -191 -430 -205 -56 -12 -65 -18 -148 -101 -74 -75 -93 -89 -118 -88 -17 1 -34 -5 -39 -12 -6 -9 -23 -11 -66 -5 -122 14 -595 96 -754 129 -91 19 -217 42 -280 50 -63 9 -130 19 -149 22 l-34 5 7 117 c5 82 2 154 -8 241 -9 69 -14 126 -12 128 2 2 25 -6 50 -19 l47 -22 43 23 c48 27 61 24 70 -16 16 -67 27 -83 60 -83 61 0 78 31 59 108 -7 32 -16 102 -20 157 -5 86 -3 102 11 114 20 16 21 60 2 86 -12 16 -12 22 2 43 14 22 14 27 -3 59 -18 32 -18 44 -7 193 7 87 10 165 6 173 -27 72 115 724 197 899 51 108 51 152 1 181 l-33 19 -58 -26 c-32 -14 -63 -26 -68 -26 -6 0 -80 -34 -165 -75 l-156 -74 -33 -57 c-26 -46 -30 -61 -23 -83 6 -16 18 -27 32 -29 25 -4 123 47 274 143 56 36 103 63 105 61 9 -9 -29 -67 -57 -87 -19 -15 -32 -37 -40 -68 -10 -39 -20 -52 -68 -87 -93 -68 -417 -179 -500 -172 -48 4 -50 18 -23 186 13 79 21 175 21 249 0 66 7 157 15 201 17 91 73 294 83 304 4 3 52 12 107 18 55 6 152 23 215 36 80 17 129 23 162 19 40 -6 56 -2 110 24 87 43 535 154 703 175 72 8 144 17 160 19 17 2 80 5 142 6 l112 1 33 -34z m2038 -1000 c41 -19 99 -43 128 -55 30 -11 115 -55 190 -97 115 -65 153 -92 236 -173 54 -53 120 -128 147 -167 26 -40 73 -101 103 -136 29 -35 73 -93 96 -128 l42 -65 -5 -85 c-5 -83 -7 -86 -45 -127 -24 -25 -50 -69 -67 -110 -22 -58 -46 -90 -140 -194 -226 -249 -442 -406 -603 -440 -30 -6 -109 -9 -176 -7 -119 3 -123 4 -180 38 -76 46 -149 125 -232 252 -36 57 -84 128 -105 158 -128 182 -207 305 -242 377 -37 77 -40 90 -45 193 -5 107 10 224 29 236 5 3 9 17 9 32 0 51 56 128 151 209 118 101 245 192 278 199 14 4 44 20 65 37 85 67 135 87 216 87 63 0 85 -5 150 -34z m2030 -10 c152 -66 193 -87 305 -149 147 -82 290 -212 386 -351 39 -56 95 -130 125 -166 30 -36 74 -105 99 -153 l44 -88 -21 -44 c-13 -27 -30 -46 -44 -49 -25 -7 -73 -78 -99 -148 -20 -54 -142 -196 -281 -328 -157 -149 -282 -233 -408 -275 -63 -21 -93 -25 -195 -25 -140 0 -180 11 -256 74 -81 67 -171 179 -241 301 -19 33 -77 119 -129 190 -52 72 -119 177 -147 233 l-53 104 -3 134 c-3 116 0 145 19 212 12 42 30 93 40 113 35 71 281 278 389 327 30 14 71 38 91 53 89 69 117 80 209 76 72 -3 98 -9 170 -41z m-5453 -1223 c-2 -16 -4 -3 -4 27 0 30 2 43 4 28 2 -16 2 -40 0 -55z m4 -170 c-8 -15 -10 -15 -11 -2 0 17 10 32 18 25 2 -3 -1 -13 -7 -23z"
       id="path1878" />
    <path
       d="M3953 5750 c-12 -5 -26 -17 -31 -27 -10 -18 -27 -124 -36 -228 -3 -27 -8 -67 -12 -88 -4 -22 -2 -43 5 -50 8 -10 7 -22 -2 -46 -10 -26 -9 -37 3 -59 17 -29 52 -40 72 -22 7 6 54 35 103 66 153 94 214 169 215 262 0 78 -43 122 -122 122 -9 0 -52 18 -94 40 -43 22 -78 40 -78 39 -1 0 -11 -4 -23 -9z"
       id="path1880" />
    <path
       d="M3946 4625 c-28 -28 -36 -80 -19 -132 8 -26 21 -81 29 -122 13 -69 13 -76 -6 -118 -33 -74 -24 -136 24 -175 28 -23 62 -23 78 0 7 11 71 40 142 67 260 96 326 134 326 189 0 41 -6 47 -165 138 -84 49 -165 87 -230 108 -55 18 -105 39 -111 46 -15 19 -49 18 -68 -1z m140 -163 c8 -5 8 -15 2 -32 -7 -20 -11 -22 -18 -10 -12 18 -13 50 -2 50 4 0 12 -4 18 -8z"
       id="path1882" />
    <path
       d="M6353 4938 c-30 -14 -60 -79 -79 -168 -19 -95 -5 -158 49 -217 44 -48 202 -17 235 47 31 59 -15 228 -84 309 -38 44 -73 52 -121 29z"
       id="path1884" />
    <path
       d="M8363 4940 c-13 -5 -32 -24 -43 -42 -23 -37 -50 -150 -50 -205 0 -47 41 -138 69 -152 47 -26 167 -6 207 34 73 73 -34 377 -132 374 -16 0 -39 -4 -51 -9z"
       id="path1886" />
    <path
       d="M11220 6573 c-8 -4 -56 -45 -106 -92 -149 -141 -327 -259 -628 -416 -92 -48 -154 -75 -175 -75 -33 0 -109 46 -199 119 l-44 35 -44 -23 c-47 -26 -161 -134 -257 -245 -41 -48 -87 -87 -146 -124 -47 -29 -90 -58 -95 -63 -6 -5 -10 -86 -11 -181 -1 -95 -5 -189 -9 -209 -8 -34 -6 -38 35 -75 91 -81 307 -297 333 -332 58 -81 156 -235 152 -239 -8 -9 23 -98 39 -109 14 -10 11 -15 -19 -34 -54 -33 -77 -67 -71 -104 3 -17 1 -60 -5 -96 -6 -36 -14 -102 -19 -148 -5 -46 -19 -101 -30 -125 -12 -24 -21 -48 -21 -53 0 -22 68 -88 148 -144 130 -89 196 -155 235 -230 27 -55 49 -79 142 -156 61 -50 121 -107 135 -127 52 -72 204 -184 310 -228 36 -14 103 -49 149 -77 74 -45 87 -49 107 -39 50 27 167 206 284 435 34 68 77 143 95 166 28 37 34 55 44 142 7 54 26 166 42 247 35 177 35 200 6 251 -18 31 -33 43 -82 61 -33 12 -82 34 -109 48 -27 15 -57 27 -66 27 -24 0 -109 30 -116 41 -3 5 6 38 20 73 14 35 31 96 38 136 l13 73 110 -7 c60 -4 148 -9 195 -12 105 -8 108 -6 216 146 44 60 84 108 89 107 27 -9 86 -208 124 -417 27 -146 22 -300 -13 -484 -38 -191 -65 -401 -73 -549 -5 -116 -4 -134 11 -146 9 -7 25 -33 36 -58 25 -56 115 -196 194 -298 33 -44 83 -113 109 -152 27 -40 65 -87 85 -104 l36 -32 150 7 c268 13 650 69 806 118 202 64 274 115 376 262 234 336 302 416 434 506 90 61 134 79 245 100 129 25 242 63 268 89 19 19 19 25 9 133 -7 63 -12 196 -12 297 0 145 -3 188 -15 212 -15 29 -15 32 26 109 l43 80 -11 297 c-6 164 -10 299 -8 301 2 2 66 -59 142 -135 106 -105 156 -163 207 -243 38 -58 75 -113 83 -122 9 -9 17 -36 18 -59 2 -23 12 -54 23 -68 l20 -26 -50 -45 -50 -45 -2 -80 c-3 -120 -26 -274 -49 -325 -11 -25 -19 -51 -18 -59 6 -32 57 -83 134 -135 119 -78 211 -167 241 -229 30 -65 51 -88 148 -166 42 -34 101 -89 130 -122 83 -96 251 -214 346 -243 12 -4 63 -32 112 -63 87 -53 91 -55 115 -39 50 33 171 219 267 410 28 55 72 135 98 176 44 70 48 82 59 180 7 58 23 159 37 225 41 204 29 269 -55 301 -25 9 -71 30 -102 45 -32 16 -87 36 -123 45 -99 25 -101 27 -71 99 13 33 32 95 41 138 l17 77 36 0 c20 0 105 -5 189 -11 109 -8 160 -9 177 -1 12 6 59 62 104 124 44 62 111 151 148 197 37 46 72 90 78 97 13 18 -76 144 -233 329 -93 109 -142 177 -181 250 -29 55 -66 119 -83 143 -63 91 -215 534 -224 652 -8 101 -11 108 -43 115 -40 9 -60 -4 -166 -104 -103 -98 -201 -170 -360 -266 -161 -96 -399 -215 -433 -215 -26 0 -67 25 -219 135 -19 14 -25 14 -56 2 -42 -18 -152 -120 -247 -232 -56 -65 -95 -98 -176 -150 l-105 -67 7 -47 c4 -25 4 -44 2 -41 -3 3 -24 50 -48 105 -101 239 -214 431 -270 460 -16 8 -64 50 -107 92 -43 43 -91 85 -106 92 -26 14 -33 13 -110 -26 -45 -22 -103 -56 -128 -75 -25 -19 -71 -51 -102 -71 l-56 -36 -3 -111 -3 -110 -50 36 c-78 56 -171 105 -238 126 -33 10 -84 32 -112 48 -65 37 -178 80 -211 80 -13 0 -53 14 -87 32 -79 40 -129 40 -291 -1 -169 -43 -293 -105 -377 -190 -38 -38 -75 -86 -87 -114 -18 -41 -20 -55 -11 -110 14 -90 35 -185 74 -328 19 -69 35 -129 35 -132 0 -3 -37 -18 -81 -32 -45 -15 -135 -49 -200 -76 l-119 -48 -18 27 c-9 14 -77 96 -150 181 -102 119 -145 179 -187 259 -31 57 -69 124 -86 148 -45 66 -178 430 -214 587 -9 38 -13 83 -9 102 9 52 -35 87 -86 68z m56 -372 c62 -198 118 -331 213 -510 90 -170 120 -216 189 -292 27 -30 81 -94 120 -142 l72 -88 -28 -23 c-24 -20 -42 -24 -149 -30 -67 -3 -156 -15 -199 -26 -42 -11 -78 -20 -79 -20 -1 0 -10 28 -20 63 -41 148 -165 335 -270 407 -77 53 -82 39 -29 -76 45 -97 104 -254 148 -395 l33 -106 -33 -103 c-19 -56 -34 -112 -34 -123 0 -37 -32 -150 -72 -254 -24 -63 -36 -108 -31 -116 20 -33 82 -76 134 -91 81 -23 229 -86 229 -97 0 -6 -22 -43 -49 -83 -27 -40 -75 -131 -107 -202 -31 -71 -90 -195 -130 -276 l-74 -147 -29 10 c-17 6 -50 28 -74 50 -25 21 -89 64 -143 95 -100 58 -272 170 -309 202 -11 9 -46 63 -78 120 -77 136 -199 319 -278 416 -41 51 -59 81 -50 84 19 6 191 137 311 236 58 47 109 86 115 86 5 0 24 -21 40 -45 44 -66 132 -135 173 -135 40 0 43 8 67 145 15 88 15 118 5 250 -12 141 -16 159 -62 285 -58 158 -110 274 -127 285 -7 4 -23 4 -37 1 -33 -9 -32 -33 15 -295 l37 -213 -20 -32 c-19 -28 -43 -39 -231 -103 -116 -39 -213 -72 -216 -72 -4 -1 -10 14 -13 33 -8 44 -43 129 -121 296 -34 74 -68 153 -75 175 -24 75 -108 170 -245 278 l-61 47 172 176 172 176 80 -56 c104 -73 143 -89 196 -81 58 10 390 181 536 276 123 80 242 168 315 232 l40 35 7 -41 c4 -22 28 -106 54 -186z m5094 192 c0 -35 56 -220 112 -372 47 -128 187 -410 254 -511 24 -36 87 -114 140 -175 121 -138 161 -195 145 -205 -7 -4 -74 -10 -149 -13 -146 -6 -240 -20 -283 -42 l-25 -14 -23 72 c-53 166 -169 342 -268 405 -80 51 -89 43 -47 -40 34 -67 100 -240 153 -401 l43 -127 -27 -88 c-14 -48 -35 -130 -46 -182 -11 -52 -38 -142 -60 -199 -21 -58 -39 -112 -39 -121 0 -30 72 -85 135 -104 53 -16 225 -83 233 -91 2 -2 -22 -42 -53 -90 -30 -48 -81 -144 -112 -213 -47 -108 -189 -400 -198 -410 -7 -8 -107 53 -124 74 -9 12 -32 29 -51 39 -71 37 -268 159 -331 206 -59 44 -74 62 -140 176 -94 164 -191 309 -268 400 -65 78 -68 83 -48 83 15 0 160 108 309 232 59 48 112 88 118 88 5 0 21 -17 34 -38 13 -22 50 -62 82 -90 60 -54 109 -68 132 -39 15 19 42 185 42 263 0 162 -18 273 -67 404 -25 69 -63 162 -84 208 -32 70 -41 82 -62 82 -53 0 -53 -12 -8 -271 l42 -241 -23 -34 c-21 -31 -39 -39 -232 -104 -115 -38 -210 -69 -211 -67 -1 1 -14 37 -29 80 -15 43 -60 149 -100 235 -40 86 -76 170 -80 185 -16 66 -120 184 -245 277 -33 25 -60 47 -61 50 0 3 78 83 173 178 l174 173 79 -57 c102 -73 135 -87 188 -78 48 8 360 161 486 239 111 69 256 173 338 242 35 29 67 53 73 53 5 0 9 -12 9 -27z m-2191 -218 c116 -110 214 -271 288 -475 28 -76 39 -127 54 -260 33 -294 21 -620 -23 -620 -15 0 -125 90 -223 182 -86 81 -113 96 -360 208 -88 40 -279 131 -425 204 -250 124 -268 131 -322 130 -37 -1 -68 -8 -90 -21 -30 -18 -33 -23 -31 -65 0 -25 12 -68 25 -95 19 -39 33 -53 78 -75 86 -42 208 -77 295 -83 183 -14 402 -65 448 -104 10 -8 33 -20 53 -27 70 -24 150 -83 317 -235 187 -170 259 -251 312 -354 29 -56 35 -77 35 -131 0 -137 -35 -198 -147 -256 -175 -92 -367 -126 -498 -89 -57 16 -148 14 -211 -5 -122 -35 -201 -102 -597 -511 -231 -238 -275 -252 -657 -213 -294 31 -380 41 -427 52 -50 12 -53 14 -53 45 0 86 24 301 45 408 42 212 58 354 59 515 1 135 -3 171 -28 285 -33 149 -72 275 -111 357 l-27 57 36 44 c20 24 36 53 36 65 0 17 16 26 98 53 53 18 129 45 167 61 86 34 95 35 126 2 47 -52 294 -194 336 -194 33 0 113 -53 169 -111 33 -35 86 -101 118 -147 32 -45 72 -93 90 -107 45 -34 116 -65 152 -65 24 0 40 -9 63 -35 37 -43 39 -58 7 -90 -27 -27 -70 -41 -177 -57 -145 -22 -333 36 -390 119 -41 59 -92 109 -147 144 -73 46 -83 34 -28 -34 19 -23 61 -83 94 -133 119 -181 165 -209 358 -221 128 -7 216 8 283 51 173 108 222 153 235 212 9 39 -2 48 -134 114 -73 36 -125 71 -169 112 -159 149 -365 284 -561 368 -109 47 -199 101 -239 144 -18 19 -36 76 -78 243 -29 120 -56 247 -60 281 l-6 64 74 72 c106 102 238 164 431 202 l86 17 55 -31 c29 -17 76 -33 103 -37 67 -10 130 -32 173 -61 20 -13 61 -32 92 -42 87 -31 204 -87 266 -130 32 -21 92 -58 133 -81 93 -53 105 -62 161 -136 77 -100 235 -235 258 -221 8 5 -12 119 -55 314 -18 82 -34 86 -35 9 -1 -29 -4 -63 -8 -77 -7 -23 -12 -19 -63 60 -72 111 -181 317 -174 329 21 34 230 169 263 171 7 0 44 -29 82 -65z"
       id="path1888" />
  </g>
  <path
     style="fill:#7c0af8;stroke:#000000;stroke-width:12.0462;stroke-opacity:0;fill-opacity:1"
     d="m 509.61459,679.97596 c -24.37287,-4.40164 -60.80435,-10.72172 -80.95884,-14.04464 l -36.64452,-6.04161 0.0153,-29.11887 0.0153,-29.11883 11.58727,-0.58699 c 8.85509,-0.4486 11.9913,0.958 13.30076,5.96539 1.91031,7.30501 14.36183,9.00173 16.8157,2.29139 0.857,-2.34355 0.56006,-13.05159 -0.65987,-23.79568 -1.21993,-10.74408 -0.90699,-21.87741 0.69541,-24.74075 1.6024,-2.86333 1.86972,-6.89486 0.59405,-8.95895 -1.27579,-2.06409 -2.09626,-21.4223 -1.82339,-43.01824 0.53634,-42.44594 7.67468,-82.69088 22.92504,-129.248 9.30352,-28.40228 9.15552,-38.68085 -0.55699,-38.68085 -10.04884,0 -63.11103,24.6879 -66.44283,30.91342 -5.1768,9.67293 -3.97457,20.21848 2.30497,20.21848 3.07361,0 13.06737,-4.60188 22.20836,-10.22638 9.141,-5.62451 17.24635,-10.22638 18.01191,-10.22638 5.21363,0 -10.88904,21.61036 -19.37097,25.99654 -15.96924,8.25801 -46.92772,18.31777 -56.37217,18.31777 -7.68428,0 -8.21832,-0.96134 -6.15439,-11.07858 1.24302,-6.09322 3.06585,-23.35023 4.05074,-38.34892 0.98489,-14.99869 4.10927,-37.41857 6.94306,-49.82196 l 5.15235,-22.55161 31.27632,-4.05234 c 17.20198,-2.22878 44.31496,-7.78707 60.25107,-12.35174 48.40606,-13.86523 71.88814,-18.55305 103.96819,-20.75561 36.67291,-2.5179 35.42709,-3.43192 59.63672,43.75389 8.94295,17.43029 23.32744,45.49705 31.96552,62.37057 8.63808,16.87353 17.59907,38.06192 19.91331,47.08531 3.7659,14.68351 3.50109,17.72587 -2.52202,28.97474 -9.82699,18.35308 -31.50384,28.55467 -57.86163,27.23093 -19.60784,-0.98475 -20.49189,-0.67513 -21.40001,7.4948 -0.82608,7.43187 3.09835,10.97712 30.67914,27.71494 17.39451,10.55613 46.58247,26.30529 64.86212,34.99815 20.45484,9.72727 33.23574,17.79053 33.23574,20.9679 0,8.20611 -13.73175,47.16046 -18.14739,51.48067 -5.8964,5.769 -80.33417,43.72742 -95.68783,48.79459 -7.24969,2.3926 -18.73309,9.33038 -25.51866,15.41729 -6.78558,6.08688 -15.40534,11.90316 -19.15501,12.92509 -3.74967,1.02192 -26.75903,-1.7433 -51.1319,-6.14493 z m 57.79385,-103.07617 c 30.8287,-13.11429 38.61912,-19.61518 34.95347,-29.1677 -2.28838,-5.96344 -62.25143,-36.4131 -71.70655,-36.4131 -8.61225,0 -10.71635,8.95702 -6.70461,28.54106 2.27395,11.10067 2.38699,20.56544 0.31658,26.50465 -3.57526,10.25598 1.28666,23.35653 8.66816,23.35653 2.38296,0 17.89579,-5.76965 34.47295,-12.82144 z M 544.48849,424.37945 c 20.4077,-13.74335 25.61393,-21.60553 24.13201,-36.44295 -1.10499,-11.0636 -2.0784,-11.87616 -26.16076,-21.83782 -14.26067,-5.89893 -15.0621,-5.90242 -19.31646,-0.0842 -4.91394,6.72021 -10.50329,60.76642 -6.88911,66.61428 3.73411,6.04191 9.5259,4.34971 28.23432,-8.24927 z"
     id="path2011"
     transform="scale(0.75)" />
  <path
     style="fill:#7c0af8;fill-opacity:1;stroke:#000000;stroke-width:12.0462;stroke-opacity:0"
     d="m 827.24505,616.60823 c -18.0908,-14.91197 -72.68539,-98.22788 -75.57556,-115.33462 -1.27568,-7.5507 -0.4009,-21.96221 1.97848,-32.59441 3.68679,-16.47433 6.91833,-21.51542 23.82786,-37.17066 22.81119,-21.11914 59.91469,-42.90611 73.06967,-42.90611 11.27485,0 59.60094,22.58218 78.99605,36.91387 7.85431,5.8038 25.11132,24.56642 38.34893,41.69469 32.30912,41.8051 32.23552,44.82501 -2.26988,93.13739 -12.71146,17.79783 -53.35218,52.59702 -70.54617,60.40615 -8.50551,3.86302 -21.86949,6.34276 -34.42966,6.38857 -18.00202,0.0657 -22.11228,-1.2308 -33.39972,-10.53487 z m 40.07092,-91.5697 c 7.25622,-2.7588 8.743,-5.51366 8.7386,-16.19176 -0.003,-7.07704 -2.68734,-18.2362 -5.96539,-24.79813 -4.80567,-9.61989 -7.92134,-11.93077 -16.0858,-11.93077 -12.22337,0 -18.72399,10.51603 -18.79878,30.41072 -0.0823,21.89331 11.80884,30.22895 32.11137,22.50994 z"
     id="path2272"
     transform="scale(0.75)" />
  <path
     style="fill:#7c0af8;fill-opacity:1;stroke:#000000;stroke-width:12.0462;stroke-opacity:0"
     d="m 1099.2236,620.47669 c -11.1573,-7.15111 -15.6671,-12.71073 -43.6702,-53.83585 -32.2493,-47.36119 -36.3242,-55.85093 -36.3242,-75.67861 0,-28.96427 5.974,-43.13909 25.3376,-60.12021 23.9001,-20.95935 60.6535,-42.23959 72.9526,-42.23959 5.5957,0 25.4606,7.65275 44.1443,17.00611 26.9237,13.4785 38.1571,21.48192 54.1546,38.58329 21.2307,22.69562 48.844,61.54689 48.844,68.72224 0,2.32484 -3.4514,8.14988 -7.6698,12.94452 -4.2184,4.79465 -11.5047,15.1409 -16.1918,22.99167 -12.3232,20.64112 -55.7457,60.6097 -76.1879,70.12785 -22.3522,10.4074 -50.4837,11.05212 -65.3892,1.49858 z m 39.3134,-98.93132 c 7.9372,-7.93727 7.9173,-7.77008 3.0509,-25.56595 -4.7054,-17.20735 -12.0621,-25.56595 -22.5016,-25.56595 -14.965,0 -23.7346,34.67584 -12.7396,50.37342 6.7532,9.64147 22.9262,10.02255 32.1903,0.75848 z"
     id="path2311"
     transform="scale(0.75)" />
  <path
     style="fill:#7c0af8;fill-opacity:1;stroke:#000000;stroke-width:12.0462;stroke-opacity:0"
     d="m 1465.7406,656.54763 c -6.5396,-4.49187 -23.0115,-15.36821 -36.604,-24.16961 -13.5926,-8.8014 -24.7138,-17.16135 -24.7138,-18.57767 0,-1.41632 -10.8731,-19.03842 -24.1625,-39.16022 -13.2894,-20.12181 -23.6436,-36.96016 -23.0094,-37.41857 0.6343,-0.4584 12.4531,-9.55901 26.264,-20.22357 l 25.1108,-19.39011 13.2479,11.96875 c 15.3781,13.89311 18.4376,14.52578 23.5998,4.88012 4.8234,-9.01267 4.6154,-57.04347 -0.3266,-75.39655 -6.5588,-24.35772 -19.5923,-50.45777 -25.1968,-50.45777 -6.4998,0 -6.8486,11.4713 -1.3597,44.70805 4.7359,28.67711 4.4771,29.03711 -29.79,41.43564 l -24.1446,8.73598 -16.3573,-38.87092 c -13.6087,-32.33925 -19.1998,-41.52977 -33.2736,-54.69415 l -16.9163,-15.82324 21.2968,-21.48781 21.2968,-21.4878 12.1989,8.28937 c 6.7094,4.55915 15.9336,8.28936 20.4982,8.28936 10.9777,0 67.6927,-30.42706 96.7839,-51.92358 12.7326,-9.40864 23.5342,-16.5309 24.0035,-15.82725 0.4692,0.70365 4.3929,12.78404 8.7192,26.84531 11.6379,37.82542 36.0328,84.93447 57.1679,110.3972 10.2567,12.35686 17.8295,23.79227 16.8285,25.412 -1.0011,1.61973 -11.5997,3.8582 -23.5525,4.97437 -11.9529,1.11618 -23.6744,2.49308 -26.0479,3.05978 -2.3734,0.5667 -6.3619,-4.70264 -8.8632,-11.70965 -8.7392,-24.48186 -38.2661,-59.03272 -44.835,-52.46378 -0.9969,0.99682 3.5651,15.30849 10.1377,31.80371 18.3833,46.13685 18.9757,48.7889 14.3128,64.07923 -23.2419,76.21403 -23.7026,71.45183 8.0313,83.02259 l 19.7417,7.19817 -22.3532,46.07217 c -12.2943,25.3397 -23.1384,46.07338 -24.0981,46.07485 -0.9597,10e-4 -7.0955,-3.67253 -13.6352,-8.1644 z"
     id="path2350"
     transform="scale(0.75)" />
  <path
     style="fill:#7c0af8;fill-opacity:1;stroke:#000000;stroke-width:12.0462;stroke-opacity:0"
     d="m 1669.8234,691.90445 c -14.3282,-1.34804 -34.6531,-3.52572 -45.1665,-4.83926 l -19.1153,-2.3883 V 670.0291 c 0,-8.05628 2.2219,-27.50385 4.9375,-43.21682 11.5619,-66.89973 10.5553,-91.72411 -5.7505,-141.82242 -6.3119,-19.39263 -6.4521,-21.90764 -1.6317,-29.26447 3.1041,-4.73739 13.7995,-11.15723 25.9979,-15.605 l 20.7244,-7.55647 14.8665,10.22845 c 8.1766,5.62565 23.427,14.01431 33.8899,18.64147 14.5315,6.42651 22.741,13.20039 34.7682,28.688 14.9173,19.20917 26.7246,28.01474 37.5648,28.01474 2.658,0 6.4403,3.0035 8.4049,6.67446 4.2455,7.93279 -1.2062,11.71701 -21.339,14.81216 -20.2965,3.12031 -41.2426,-5.05583 -58.5354,-22.84883 -14.7886,-15.21638 -22.3128,-19.33689 -22.3128,-12.21924 0,5.96369 30.4213,45.57943 38.4088,50.01728 4.1854,2.32546 18.4308,4.28246 31.6563,4.34889 20.7323,0.10414 26.135,-1.21752 39.2011,-9.58977 18.9842,-12.16435 28.4594,-22.69781 26.0546,-28.96461 -1.0217,-2.66265 -10.2318,-9.63233 -20.4667,-15.48818 -10.235,-5.85586 -20.6444,-13.0995 -23.1321,-16.097 -7.0962,-8.55038 -39.6134,-29.53671 -70.6754,-45.61336 -15.6096,-8.07895 -30.4085,-17.90897 -32.8866,-21.8445 -2.4782,-3.93552 -7.8237,-21.54709 -11.8791,-39.13681 l -7.3734,-31.98132 9.5809,-10.08859 c 11.4766,-12.08488 28.7787,-21.39774 49.4023,-26.59082 12.9039,-3.24924 18.1952,-2.80098 35.3983,2.99883 50.8191,17.13311 97.6125,43.44062 116.6962,65.60732 11.9399,13.86876 30.7486,28.67029 33.2516,26.16734 1.447,-1.44703 -3.8598,-35.62683 -7.4246,-47.81994 -2.4945,-8.53212 -8.0823,-7.37217 -8.2106,1.70439 -0.1073,7.58832 -0.1645,7.59738 -5.3851,0.8522 -2.9022,-3.74967 -9.0765,-14.22507 -13.7207,-23.27865 -9.5417,-18.60118 -8.787,-20.65099 11.8803,-32.26665 l 13.507,-7.59135 14.0774,15.99276 c 17.5334,19.91901 32.5775,51.12124 37.4134,77.59689 4.4912,24.58919 4.8946,86.00623 0.5824,88.67134 -1.7116,1.05782 -11.8308,-5.51673 -22.4871,-14.61012 -13.6349,-11.63509 -38.951,-25.87001 -85.4496,-48.04728 -57.1479,-27.2564 -67.3499,-31.09155 -75.5157,-28.38794 -12.5941,4.1698 -14.2426,17.43464 -3.6629,29.47473 7.9249,9.01888 20.3978,12.80957 74.1126,22.52382 33.5884,6.07443 52.8609,17.76468 89.4427,54.25389 34.9789,34.89039 39.9247,44.07794 34.8287,64.6985 -2.6156,10.5838 -5.9191,13.75301 -23.4963,22.54162 -18.8454,9.42272 -23.2771,10.22638 -56.3919,10.22638 -43.5463,0 -41.1214,-1.32721 -97.2962,53.2549 -38.4486,37.35847 -44.8999,41.7839 -66.1791,45.39776 -2.8122,0.47761 -16.8362,-0.23452 -31.1644,-1.58263 z"
     id="path2389"
     transform="scale(0.75)" />
  <path
     style="fill:#7c0af8;fill-opacity:1;stroke:#000000;stroke-width:12.0462;stroke-opacity:0"
     d="m 2129.8794,642.5246 c -18.1499,-12.05649 -35.5165,-25.41807 -38.5924,-29.69236 -3.0758,-4.27429 -13.099,-19.27611 -22.2738,-33.33738 -9.1748,-14.06128 -19.1249,-28.8695 -22.1114,-32.90717 -5.2654,-7.11885 -4.6299,-7.96498 20.9806,-27.93476 l 26.4105,-20.59355 12.9981,11.74299 c 14.6357,13.22248 17.1508,13.92437 23.3087,6.50455 6.9815,-8.41211 6.0189,-61.05124 -1.5249,-83.39018 -9.2747,-27.46484 -18.4816,-44.31431 -24.2142,-44.31431 -6.1888,0 -6.2561,9.97557 -0.2921,43.28364 2.4162,13.4944 3.3006,26.303 1.9653,28.46355 -1.3353,2.16055 -14.4218,8.16175 -29.0811,13.33599 l -26.6532,9.40772 -16.3816,-37.87127 c -13.2669,-30.67045 -19.6816,-41.04966 -33.7372,-54.5874 l -17.3555,-16.71615 21.6446,-21.64465 21.6447,-21.64465 12.5587,8.53385 c 6.9072,4.69362 15.4358,8.53385 18.9523,8.53385 10.7921,0 65.7632,-28.70191 94.0926,-49.12827 14.7595,-10.64206 27.2059,-18.89786 27.6586,-18.3462 0.4528,0.55165 5.0608,14.04164 10.2401,29.97775 13.0203,40.0621 35.5298,82.68799 57.8885,109.62255 10.3632,12.48408 18.8422,23.60527 18.8422,24.71375 0,1.10848 -7.2863,2.05202 -16.1917,2.09675 -8.9055,0.0447 -21.8091,1.38668 -28.6746,2.98211 -12.3945,2.88027 -12.5224,2.79713 -18.0794,-11.75352 -6.9782,-18.27229 -22.7929,-40.39107 -34.2436,-47.89384 -12.1746,-7.97711 -13.4421,-4.58441 -5.4151,14.49522 3.8232,9.08752 10.6684,26.9487 15.2115,39.6915 9.0998,25.52352 8.5546,30.87991 -8.4748,83.27533 -3.794,11.67334 -6.0401,22.61262 -4.9914,24.30953 1.0488,1.6969 11.9442,7.35122 24.2121,12.56516 12.268,5.21394 21.8504,10.3812 21.2943,11.48281 -32.7586,64.89931 -45.4223,88.9011 -46.8479,88.79257 -0.9722,-0.074 -16.6175,-9.99898 -34.7675,-22.05551 z"
     id="path2428"
     transform="scale(0.75)" />
  <path
     style="fill:#7c0af8;fill-opacity:1;stroke:#000000;stroke-width:12.0462;stroke-opacity:0"
     d="m 2510.9376,748.81889 -23.5001,-7.24447 2.0085,-46.96186 c 2.2099,-51.67115 -0.9058,-69.49619 -17.1425,-98.07374 -18.6061,-32.74762 -52.7051,-65.57562 -62.0899,-59.77548 -4.699,2.90416 -4.823,90.21757 -0.1455,102.52017 2.7559,7.24861 5.0517,8.70109 11.2814,7.13752 6.6405,-1.66665 8.4966,-0.0478 12.2934,10.7219 2.4596,6.97672 9.4982,23.68369 15.6414,37.12661 l 11.1694,24.44169 -17.5486,2.37252 c -9.6518,1.30489 -27.0849,5.94122 -38.7402,10.30298 l -21.1914,7.93045 -24.4581,-14.16023 c -13.452,-7.7881 -36.3441,-25.34168 -50.8714,-39.00794 l -26.4133,-24.84772 4.9809,-17.89387 c 8.1967,-29.44634 6.9668,-27.81546 16.343,-21.67194 13.4572,8.81745 18.2299,6.87438 22.1189,-9.00489 7.7103,-31.48226 14.5191,-51.03301 24.1474,-69.33676 5.5352,-10.52258 10.0613,-21.66062 10.0579,-24.7512 -0.01,-6.97375 -28.9671,-25.75162 -35.7189,-23.16072 -3.4728,1.33263 -5.9881,-1.86162 -8.4521,-10.7334 -1.9294,-6.94685 -3.5165,-13.80039 -3.527,-15.23009 -0.01,-1.4297 10.8565,2.87732 24.1486,9.57116 30.8025,15.51185 36.7855,14.69199 45.4359,-6.22605 l 6.74,-16.2983 -9.991,-18.46975 -9.9911,-18.46975 7.5712,-9.54626 c 20.4577,-25.79454 48.2818,-63.25958 49.3412,-66.43774 1.4619,-4.38577 53.4741,23.08457 86.7998,45.84346 48.9671,33.44087 65.8123,60.53293 65.8123,105.84579 0,16.36455 -2.0089,23.78257 -10.4239,38.49037 -12.308,21.51209 -22.9041,30.59563 -42.0217,36.02322 -20.1271,5.71415 -21.7011,8.27217 -11.6929,19.00199 12.7452,13.664 15.641,20.82179 18.3495,45.35595 1.3352,12.09461 3.6787,25.36137 5.2078,29.4817 3.2339,8.71421 14.8784,17.04465 29.8122,21.32759 9.0251,2.58837 12.3408,1.5703 23.3309,-7.16351 l 12.8107,-10.18068 11.1416,33.23251 c 10.3048,30.73705 10.7291,33.68822 5.6498,39.30076 -7.7592,8.5738 -22.438,12.31263 -55.7992,14.21245 -23.2575,1.32449 -33.6117,0.22055 -52.4749,-5.59444 z M 2460.467,514.04602 c 11.2937,-11.29369 -5.1054,-38.20566 -22.0497,-36.18501 -6.9264,0.82597 -10.0116,3.9822 -13.3411,13.64823 -4.8497,14.07898 -3.4171,16.39459 13.9154,22.49172 13.747,4.83585 16.6784,4.842 21.4754,0.0451 z"
     id="path2467"
     transform="scale(0.75)" />
  <path
     style="fill:#7c0af8;fill-opacity:1;stroke:#000000;stroke-width:12.0462;stroke-opacity:0"
     d="m 2660.4267,649.37512 c 1.0567,-3.74968 4.4077,-16.78831 7.4468,-28.97475 3.0391,-12.18643 7.3747,-24.15515 9.6348,-26.59714 2.26,-2.44199 14.7069,-5.94081 27.6598,-7.77518 21.3447,-3.02279 24.9923,-4.75512 38.9407,-18.49376 12.3591,-12.17319 16.5162,-19.4525 21.1084,-36.96124 3.1451,-11.99146 4.8288,-25.20466 3.7414,-29.36268 -1.6911,-6.46693 -3.8792,-7.37862 -15.1329,-6.30541 -17.7149,1.68939 -16.5651,-1.22769 3.2592,-8.26864 l 16.4151,-5.83013 9.1508,-38.85553 c 5.033,-21.37054 9.1509,-46.14733 9.1509,-55.05953 v -16.20401 l -13.4294,2.14745 c -7.3862,1.1811 -14.2989,0.74067 -15.3616,-0.97873 -1.0626,-1.71941 -2.8351,-12.07694 -3.9387,-23.01674 l -2.0067,-19.89055 38.6731,-23.59912 c 21.2703,-12.97951 51.4546,-32.04022 67.0763,-42.35714 18.3068,-12.0902 29.2317,-17.41739 30.734,-14.98655 1.282,2.0743 7.5514,17.75066 13.9319,34.83635 l 11.601,31.06488 -15.8136,16.05503 -15.8136,16.05503 19.1235,41.74546 c 14.7168,32.12576 20.6227,41.74546 25.6293,41.74546 3.5781,0 15.5079,-6.34852 26.5106,-14.10783 21.5933,-15.22805 26.9398,-15.39597 36.281,-1.13949 6.5419,9.98431 28.794,67.32231 26.8725,69.24381 -0.6716,0.67159 -7.4602,0.16696 -15.086,-1.12138 -12.6791,-2.14213 -13.8648,-3.23355 -13.8648,-12.76214 v -10.41969 l -22.6267,2.11291 c -23.5019,2.19465 -38.7316,9.11102 -38.7316,17.58947 0,2.7083 8.3053,11.19472 18.4562,18.85871 10.1509,7.664 19.3815,16.34609 20.5126,19.29353 1.131,2.94745 -1.2254,15.07463 -5.2364,26.94929 -9.3301,27.62161 -7.6372,32.08092 12.1793,32.08092 17.7747,0 17.9353,0.48955 11.7747,35.86661 l -3.6719,21.08546 -34.677,2.16837 c -19.0724,1.1926 -47.7157,5.21252 -63.6518,8.93319 -15.9361,3.72063 -40.0766,6.80419 -53.6455,6.85232 l -24.6708,0.0875 8.8726,-19.60056 c 4.88,-10.78031 10.4869,-24.58592 12.4598,-30.67914 3.3238,-10.26551 4.6823,-11.07858 18.5097,-11.07858 17.8752,0 26.7082,-7.50534 40.2248,-34.17904 9.717,-19.17574 9.7053,-22.10536 -0.2249,-56.26427 -5.1034,-17.55505 -6.0479,-18.63497 -16.2549,-18.58482 -16.1471,0.0794 -50.1738,8.78849 -54.9806,14.0723 -2.313,2.54255 -7.6374,13.05958 -11.8319,23.37118 -4.1946,10.3116 -14.6813,29.13598 -23.3038,41.83196 -18.8117,27.69879 -17.2704,31.33274 12.7694,30.10677 l 20.5835,-0.84007 -6.5789,16.43475 c -16.7775,41.9121 -16.2891,41.21807 -30.7237,43.65679 -7.436,1.25631 -37.4661,3.31509 -66.7336,4.57504 -52.1165,2.24367 -53.1739,2.15034 -51.2924,-4.5267 z m 176.7865,-194.62165 c 18.4617,-6.29057 19.2557,-9.44412 9.1135,-36.19622 -10.3346,-27.25932 -12.1822,-29.44086 -19.0875,-22.53738 -7.8335,7.83133 -16.3645,53.28425 -11.1746,59.53768 4.6448,5.59661 2.077,5.69423 21.1486,-0.80408 z"
     id="path2506"
     transform="scale(0.75)" />
  <path
     style="fill:#7c0af8;fill-opacity:1;stroke:#000000;stroke-width:12.0462;stroke-opacity:0"
     d="m 3158.8336,637.58258 c -12.6258,-24.61812 -22.0507,-46.22495 -20.9443,-48.01518 4.3432,-7.02751 13.3144,-2.40167 34.1572,17.61264 14.1971,13.63277 23.5495,20.16996 26.9753,18.85535 2.8841,-1.10674 5.2373,-3.97784 5.2293,-6.38023 -0.03,-8.96616 -21.1802,-35.88354 -48.4896,-61.71137 -27.2525,-25.77415 -28.5431,-26.54225 -38.6621,-23.00936 -14.6983,5.13173 -54.3041,4.69616 -58.7377,-0.64598 -2.4937,-3.0047 -2.4072,-8.65497 0.2869,-18.74836 4.0984,-15.3549 11.4764,-19.31103 13.2892,-7.12583 1.7625,11.84639 10.0039,14.74158 26.653,9.36317 8.094,-2.61473 15.8641,-7.05498 17.267,-9.86723 9.7989,-19.64314 20.295,-48.27213 18.6648,-50.90984 -1.0768,-1.74237 -10.7519,-4.94632 -21.5003,-7.1199 -33.2653,-6.72708 -48.517,-11.48965 -48.5206,-15.15131 -0.01,-9.18243 21.7096,-80.47206 27.3331,-89.71903 5.0962,-8.38017 9.476,-10.93819 21.9238,-12.80485 57.619,-8.64051 147.8844,29.57282 177.8369,75.28622 6.6392,10.13256 7.5787,37.53464 1.7679,51.56297 -6.8464,16.52878 -63.6147,46.59705 -96.1136,50.90818 -12.3294,1.63555 -16.8509,3.71624 -16.8651,7.7609 -0.025,7.23854 55.1079,88.77902 60.1279,88.92744 2.1249,0.0628 4.6249,-2.79746 5.5555,-6.35619 2.5221,-9.64452 18.3989,-18.53929 32.168,-18.02166 21.9946,0.82686 23.9367,2.61506 27.9653,25.74908 6.4733,37.17253 8.165,34.64462 -31.2033,46.62882 -19.217,5.84992 -43.3769,13.74495 -53.6885,17.54453 -39.4402,14.53277 -36.4098,16.21167 -62.476,-34.61298 z m 43.268,-153.78135 c 14.5113,-11.41459 10.3548,-30.43173 -6.6513,-30.43173 -8.0279,0 -18.455,17.14334 -18.455,30.34211 0,9.53745 13.0362,9.58398 25.1063,0.0896 z"
     id="path2545"
     transform="scale(0.75)" />
</svg>
