<?xml version="1.0" encoding="UTF-8" standalone="no"?>
<svg
   version="1.0"
   width="741.000000pt"
   height="305.000000pt"
   viewBox="0 0 741.000000 305.000000"
   preserveAspectRatio="xMidYMid meet"
   id="svg6606"
   sodipodi:docname="bus_JS.svg"
   inkscape:version="1.1.1 (3bf5ae0d25, 2021-09-20)"
   xmlns:inkscape="http://www.inkscape.org/namespaces/inkscape"
   xmlns:sodipodi="http://sodipodi.sourceforge.net/DTD/sodipodi-0.dtd"
   xmlns="http://www.w3.org/2000/svg"
   xmlns:svg="http://www.w3.org/2000/svg">
  <defs
     id="defs6610" />
  <sodipodi:namedview
     id="namedview6608"
     pagecolor="#505050"
     bordercolor="#eeeeee"
     borderopacity="1"
     inkscape:pageshadow="0"
     inkscape:pageopacity="0"
     inkscape:pagecheckerboard="0"
     inkscape:document-units="pt"
     showgrid="false"
     inkscape:zoom="1.0819838"
     inkscape:cx="372.00187"
     inkscape:cy="259.24603"
     inkscape:window-width="1920"
     inkscape:window-height="1017"
     inkscape:window-x="-8"
     inkscape:window-y="-8"
     inkscape:window-maximized="1"
     inkscape:current-layer="svg6606" />
  <g
     transform="translate(0.000000,305.000000) scale(0.100000,-0.100000)"
     fill="#000000"
     stroke="none"
     id="g6604"
     style="fill:#ffc141;fill-opacity:1;stroke:#000000;stroke-opacity:1;stroke-width:24.99999998;stroke-miterlimit:4;stroke-dasharray:none">
    <path
       d="M392 3003 c-6 -16 -13 -77 -17 -138 -3 -60 -8 -129 -11 -152 l-6 -41 48 -14 c42 -12 49 -17 48 -38 -1 -14 -48 -179 -105 -367 l-103 -341 -59 -28 c-37 -18 -73 -46 -97 -74 l-37 -45 -7 -440 c-3 -242 -9 -516 -12 -610 l-5 -170 80 -57 81 -58 467 0 468 0 1 78 c3 167 59 297 179 417 91 92 165 136 281 165 205 53 419 -2 573 -145 113 -105 171 -222 192 -384 l12 -91 1243 0 1244 0 0 58 c0 200 142 422 330 514 109 54 194 71 315 65 162 -9 294 -67 407 -179 104 -105 177 -275 178 -415 l0 -43 655 0 655 0 0 1260 c0 1247 0 1260 -20 1280 -20 20 -33 20 -3494 20 l-3474 0 -10 -27z m618 -793 l0 -340 -319 0 -320 0 24 88 c13 48 51 195 84 327 34 132 64 246 66 253 3 9 59 12 235 12 l230 0 0 -340z m1440 -5 l0 -345 -685 0 -685 0 0 345 0 345 685 0 685 0 0 -345z m1580 0 l0 -345 -755 0 -755 0 0 345 0 345 755 0 755 0 0 -345z m1620 0 l0 -345 -775 0 -775 0 0 345 0 345 775 0 775 0 0 -345z m1490 0 l0 -345 -710 0 -710 0 0 345 0 345 710 0 710 0 0 -345z"
       id="path6598"
       style="fill:#ffc141;fill-opacity:1;stroke:#000000;stroke-opacity:1;stroke-width:24.99999998;stroke-miterlimit:4;stroke-dasharray:none" />
    <path
       d="M1660 959 c-90 -15 -189 -70 -257 -143 -64 -68 -97 -125 -119 -209 -68 -257 119 -534 389 -575 321 -49 606 264 523 575 -22 84 -55 141 -119 209 -71 76 -168 128 -267 144 -73 11 -74 11 -150 -1z"
       id="path6600"
       style="fill:#ffc141;fill-opacity:1;stroke:#000000;stroke-opacity:1;stroke-width:170.07874013;stroke-miterlimit:4;stroke-dasharray:none" />
    <path
       d="M5381 959 c-185 -31 -347 -196 -382 -388 -30 -169 52 -362 196 -461 262 -181 623 -53 717 253 16 54 20 87 16 161 -3 84 -8 102 -42 170 -71 144 -201 241 -356 266 -73 11 -74 11 -149 -1z"
       id="path6602"
       style="fill:#ffc141;fill-opacity:1;stroke:#000000;stroke-opacity:1;stroke-width:170.07874013;stroke-miterlimit:4;stroke-dasharray:none" />
  </g>
  <path
     style="fill:#393b0e;fill-opacity:0.36965;stroke:#000000;stroke-width:1.97363"
     d="m 52.916161,153.19083 c 0.355343,-1.63976 15.315328,-59.45472 20.507103,-79.25257 l 1.090661,-4.159027 8.261279,-0.595307 c 4.543703,-0.327419 17.515116,-0.639346 28.825356,-0.693171 l 20.56408,-0.09786 v 43.438725 43.43873 H 92.315082 52.465523 Z"
     id="path3730"
     transform="scale(0.75)" />
  <path
     style="fill:#393b0e;fill-opacity:0.36965;stroke:#000000;stroke-width:1.97363"
     d="M 146.02806,112.29373 V 68.392891 h 89.18803 89.18803 v 43.900839 43.90085 h -89.18803 -89.18803 z"
     id="path3769"
     transform="scale(0.75)" />
  <path
     style="fill:#393b0e;fill-opacity:0.36965;stroke:#000000;stroke-width:1.97363"
     d="M 338.26754,112.29373 V 68.392891 h 98.43031 98.43031 v 43.900839 43.90085 h -98.43031 -98.43031 z"
     id="path3808"
     transform="scale(0.75)" />
  <path
     style="fill:#393b0e;fill-opacity:0.36965;stroke:#000000;stroke-width:1.97363"
     d="M 548.99158,112.29373 V 68.392891 h 101.203 101.20299 v 43.900839 43.90085 h -101.20299 -101.203 z"
     id="path3847"
     transform="scale(0.75)" />
  <path
     style="fill:#393b0e;fill-opacity:0.36965;stroke:#000000;stroke-width:1.97363"
     d="M 764.33677,112.29373 V 68.392891 h 92.88494 92.88494 v 43.900839 43.90085 h -92.88494 -92.88494 z"
     id="path3886"
     transform="scale(0.75)" />
  <path
     style="fill:#f7e018;stroke:#000000;stroke-width:1.97363;fill-opacity:1"
     d="m 18.434251,341.68824 c -4.34844,-3.1522 -8.8743446,-6.3733 -10.0575651,-7.158 L 6.2253757,333.1035 7.2718279,277.6902 C 7.8473766,247.21288 8.575718,210.86074 8.8903643,196.90765 l 0.5720842,-25.36924 5.0948145,-5.34138 c 3.462339,-3.6299 7.505294,-6.57568 12.617707,-9.19351 l 7.522891,-3.85213 12.18347,-40.76185 c 6.700908,-22.419017 13.126666,-44.370474 14.279463,-48.781014 2.051602,-7.849322 2.059319,-8.059687 0.364401,-9.93255 -0.952376,-1.052365 -3.959343,-2.615626 -6.68215,-3.473915 -3.668559,-1.156411 -4.839176,-1.935013 -4.520447,-3.006644 0.236561,-0.795365 0.893423,-8.303029 1.459693,-16.683698 C 52.847339,14.749246 53.989996,6.6393779 55.335396,5.293978 56.257525,4.3718482 971.91085,5.0848436 977.51796,6.0120575 c 2.76502,0.4572444 4.04147,1.1940687 4.54942,2.6260707 0.38827,1.0947733 0.86952,76.5410588 1.06952,167.6584118 l 0.3635,165.66791 h -85.42596 -85.42593 l -0.48675,-8.54911 c -1.63138,-28.65386 -21.47284,-56.99506 -48.47253,-69.2373 -14.5341,-6.59008 -36.40251,-9.07275 -52.06784,-5.91114 -16.1312,3.25562 -30.74252,10.99069 -41.97055,22.21872 -14.98388,14.98387 -23.29673,32.72939 -25.01131,53.39184 l -0.67106,8.08699 H 480.53126 317.09405 l -0.51978,-3.46585 c -4.00416,-26.69926 -8.72612,-38.75982 -20.64485,-52.72994 -9.68862,-11.35619 -27.48508,-22.47218 -42.69088,-26.66549 -9.47805,-2.61377 -33.06019,-2.39531 -43.28773,0.40101 -15.69975,4.29249 -26.75016,11.03543 -38.69821,23.61363 -8.02828,8.45168 -11.52188,13.50336 -15.97787,23.10369 -4.37838,9.43308 -6.46287,18.58039 -7.14473,31.35287 l -0.5304,9.93545 -60.629547,-0.0451 -60.629548,-0.0452 z M 329.02526,112.75585 V 64.695978 h -93.34705 -93.34706 v 48.059872 48.05987 h 93.34706 93.34705 z m 210.72404,0 V 64.695978 H 436.69785 333.6464 v 48.059872 48.05987 H 436.69785 539.7493 Z m 215.34518,0 V 64.695978 H 649.73246 544.37044 v 48.059872 48.05987 h 105.36202 105.36202 z m 198.70908,0 V 64.695978 h -96.58185 -96.58186 v 48.059872 48.05987 h 96.58186 96.58185 z M 136.78578,112.24861 V 64.605733 l -31.85406,0.276179 c -26.857271,0.232857 -32.061991,0.493649 -33.179571,1.662522 -0.729027,0.762489 -4.30988,13.031619 -7.957451,27.264734 -3.64757,14.233112 -8.888046,34.457802 -11.645501,44.943732 -2.757456,10.48593 -5.013556,19.53182 -5.013556,20.10196 0,0.75177 12.317742,1.03663 44.82507,1.03663 h 44.825069 z"
     id="path997"
     transform="scale(0.75)" />
  <path
     style="fill:#f7e018;fill-opacity:1;stroke:#000000;stroke-width:1.97363"
     d="m 713.03064,388.76551 c -19.54007,-6.33244 -33.40437,-24.2145 -35.21086,-45.41471 -2.49711,-29.30499 27.31835,-57.65875 55.95844,-53.21509 17.94474,2.78423 32.39774,13.32797 40.36083,29.44401 7.24222,14.65713 5.95452,33.79999 -3.22734,47.97702 -6.70339,10.3502 -18.48736,18.93079 -30.18117,21.97664 -8.0694,2.10181 -19.85282,1.77516 -27.6999,-0.76787 z"
     id="path1147"
     transform="scale(0.75)" />
  <path
     style="fill:#f7e018;fill-opacity:1;stroke:#000000;stroke-width:1.97363"
     d="m 220.87358,390.03946 c -28.58213,-7.22093 -46.34018,-38.50572 -36.99401,-65.17323 6.96021,-19.85963 27.7995,-35.04024 48.10172,-35.04024 26.53853,0 50.83256,24.25558 50.83256,50.75212 0,20.04766 -14.91586,40.59766 -34.65856,47.75011 -6.13509,2.22264 -21.45409,3.18352 -27.28171,1.71124 z"
     id="path1186"
     transform="scale(0.75)" />
</svg>
