<?xml version="1.0" encoding="UTF-8" standalone="no"?>
<svg
   version="1.0"
   width="741.000000pt"
   height="305.000000pt"
   viewBox="0 0 741.000000 305.000000"
   preserveAspectRatio="xMidYMid meet"
   id="svg6606"
   sodipodi:docname="bus_scolaire_pneus.svg"
   inkscape:version="1.1.1 (3bf5ae0d25, 2021-09-20)"
   xmlns:inkscape="http://www.inkscape.org/namespaces/inkscape"
   xmlns:sodipodi="http://sodipodi.sourceforge.net/DTD/sodipodi-0.dtd"
   xmlns="http://www.w3.org/2000/svg"
   xmlns:svg="http://www.w3.org/2000/svg">
  <defs
     id="defs6610" />
  <sodipodi:namedview
     id="namedview6608"
     pagecolor="#505050"
     bordercolor="#eeeeee"
     borderopacity="1"
     inkscape:pageshadow="0"
     inkscape:pageopacity="0"
     inkscape:pagecheckerboard="0"
     inkscape:document-units="pt"
     showgrid="false"
     inkscape:zoom="1.0819838"
     inkscape:cx="494"
     inkscape:cy="202.8681"
     inkscape:window-width="1920"
     inkscape:window-height="1017"
     inkscape:window-x="-8"
     inkscape:window-y="-8"
     inkscape:window-maximized="1"
     inkscape:current-layer="svg6606" />
  <g
     transform="translate(0.000000,305.000000) scale(0.100000,-0.100000)"
     fill="#000000"
     stroke="none"
     id="g6604"
     style="fill:#ffc141;fill-opacity:1;stroke:#000000;stroke-opacity:1;stroke-width:24.99999998;stroke-miterlimit:4;stroke-dasharray:none">
    <path
       d="M392 3003 c-6 -16 -13 -77 -17 -138 -3 -60 -8 -129 -11 -152 l-6 -41 48 -14 c42 -12 49 -17 48 -38 -1 -14 -48 -179 -105 -367 l-103 -341 -59 -28 c-37 -18 -73 -46 -97 -74 l-37 -45 -7 -440 c-3 -242 -9 -516 -12 -610 l-5 -170 80 -57 81 -58 467 0 468 0 1 78 c3 167 59 297 179 417 91 92 165 136 281 165 205 53 419 -2 573 -145 113 -105 171 -222 192 -384 l12 -91 1243 0 1244 0 0 58 c0 200 142 422 330 514 109 54 194 71 315 65 162 -9 294 -67 407 -179 104 -105 177 -275 178 -415 l0 -43 655 0 655 0 0 1260 c0 1247 0 1260 -20 1280 -20 20 -33 20 -3494 20 l-3474 0 -10 -27z m618 -793 l0 -340 -319 0 -320 0 24 88 c13 48 51 195 84 327 34 132 64 246 66 253 3 9 59 12 235 12 l230 0 0 -340z m1440 -5 l0 -345 -685 0 -685 0 0 345 0 345 685 0 685 0 0 -345z m1580 0 l0 -345 -755 0 -755 0 0 345 0 345 755 0 755 0 0 -345z m1620 0 l0 -345 -775 0 -775 0 0 345 0 345 775 0 775 0 0 -345z m1490 0 l0 -345 -710 0 -710 0 0 345 0 345 710 0 710 0 0 -345z"
       id="path6598"
       style="fill:#ffc141;fill-opacity:1;stroke:#000000;stroke-opacity:1;stroke-width:24.99999998;stroke-miterlimit:4;stroke-dasharray:none" />
    <path
       d="M1660 959 c-90 -15 -189 -70 -257 -143 -64 -68 -97 -125 -119 -209 -68 -257 119 -534 389 -575 321 -49 606 264 523 575 -22 84 -55 141 -119 209 -71 76 -168 128 -267 144 -73 11 -74 11 -150 -1z"
       id="path6600"
       style="fill:#ffc141;fill-opacity:1;stroke:#000000;stroke-opacity:1;stroke-width:170.07874013;stroke-miterlimit:4;stroke-dasharray:none" />
    <path
       d="M5381 959 c-185 -31 -347 -196 -382 -388 -30 -169 52 -362 196 -461 262 -181 623 -53 717 253 16 54 20 87 16 161 -3 84 -8 102 -42 170 -71 144 -201 241 -356 266 -73 11 -74 11 -149 -1z"
       id="path6602"
       style="fill:#ffc141;fill-opacity:1;stroke:#000000;stroke-opacity:1;stroke-width:170.07874013;stroke-miterlimit:4;stroke-dasharray:none" />
  </g>
</svg>
