<?xml version="1.0" encoding="UTF-8" standalone="no"?>
<svg
   version="1.0"
   width="141.000000pt"
   height="62.000000pt"
   viewBox="0 0 141.000000 62.000000"
   preserveAspectRatio="xMidYMid meet"
   id="svg5708"
   sodipodi:docname="chaussures_bis.svg"
   inkscape:version="1.1.1 (3bf5ae0d25, 2021-09-20)"
   xmlns:inkscape="http://www.inkscape.org/namespaces/inkscape"
   xmlns:sodipodi="http://sodipodi.sourceforge.net/DTD/sodipodi-0.dtd"
   xmlns="http://www.w3.org/2000/svg"
   xmlns:svg="http://www.w3.org/2000/svg">
  <defs
     id="defs5712" />
  <sodipodi:namedview
     id="namedview5710"
     pagecolor="#505050"
     bordercolor="#eeeeee"
     borderopacity="1"
     inkscape:pageshadow="0"
     inkscape:pageopacity="0"
     inkscape:pagecheckerboard="0"
     inkscape:document-units="pt"
     showgrid="false"
     inkscape:zoom="6.9840426"
     inkscape:cx="94"
     inkscape:cy="41.308454"
     inkscape:window-width="1920"
     inkscape:window-height="1017"
     inkscape:window-x="-8"
     inkscape:window-y="-8"
     inkscape:window-maximized="1"
     inkscape:current-layer="svg5708" />
  <metadata
     id="metadata5702">
Created by potrace 1.10, written by Peter Selinger 2001-2011
</metadata>
  <g
     transform="translate(0.000000,62.000000) scale(0.100000,-0.100000)"
     fill="#000000"
     stroke="none"
     id="g5706">
    <path
       d="M616 510 c-145 -109 -229 -145 -431 -190 -58 -13 -142 -70 -155 -106 -18 -45 -10 -141 10 -129 4 3 7 -2 6 -11 -3 -45 190 -69 484 -60 163 6 243 13 330 30 100 20 116 21 124 8 8 -15 35 -14 309 4 l87 6 0 215 c0 206 -7 262 -31 248 -5 -4 -8 -1 -7 7 5 23 -40 20 -139 -12 -117 -38 -186 -41 -262 -12 -30 12 -59 18 -65 15 -6 -3 -8 -3 -4 2 10 10 -91 74 -117 75 -11 0 -74 -41 -139 -90z m200 45 c20 -14 32 -25 27 -25 -6 0 -22 9 -36 20 -30 24 -70 26 -94 4 -10 -8 -47 -37 -83 -64 -36 -27 -72 -56 -80 -64 -8 -7 -26 -17 -40 -21 -14 -4 2 11 35 34 33 22 87 63 120 90 69 58 97 62 151 26z m-19 -35 c14 -11 35 -20 47 -20 11 0 35 -9 53 -19 44 -27 158 -54 200 -48 20 4 56 17 82 30 57 30 128 42 147 26 11 -9 14 -52 14 -204 l0 -193 -135 -7 c-135 -7 -152 -6 -234 15 -24 6 -51 8 -60 4 -9 -3 -33 -8 -54 -10 -21 -2 -52 -12 -70 -21 -28 -15 -67 -17 -327 -16 -279 1 -297 2 -335 22 -21 12 -46 21 -53 21 -12 0 -13 11 -8 58 9 80 21 88 166 121 19 5 52 16 72 25 21 9 46 16 57 16 11 0 44 11 73 24 29 14 67 28 83 32 17 4 62 32 100 63 142 113 142 113 182 81z m526 13 c-7 -2 -19 -2 -25 0 -7 3 -2 5 12 5 14 0 19 -2 13 -5z m-148 -42 c-13 -11 -81 -34 -71 -24 4 5 22 13 39 20 40 15 43 15 32 4z m-97 -28 c-10 -2 -26 -2 -35 0 -10 3 -2 5 17 5 19 0 27 -2 18 -5z m-633 -83 c-3 -5 -12 -10 -18 -10 -7 0 -6 4 3 10 19 12 23 12 15 0z m-192 -67 c-7 -2 -19 -2 -25 0 -7 3 -2 5 12 5 14 0 19 -2 13 -5z m-63 -13 c-8 -5 -22 -9 -30 -9 -10 0 -8 3 5 9 27 12 43 12 25 0z m-150 -150 c-6 -42 -8 -47 -9 -20 -1 34 8 84 14 78 2 -2 0 -28 -5 -58z m913 -77 c-7 -2 -21 -2 -30 0 -10 3 -4 5 12 5 17 0 24 -2 18 -5z m-866 -9 c-3 -3 -12 -4 -19 -1 -8 3 -5 6 6 6 11 1 17 -2 13 -5z m806 -1 c-7 -2 -19 -2 -25 0 -7 3 -2 5 12 5 14 0 19 -2 13 -5z m364 1 c-3 -3 -12 -4 -19 -1 -8 3 -5 6 6 6 11 1 17 -2 13 -5z m-420 -10 c-3 -3 -12 -4 -19 -1 -8 3 -5 6 6 6 11 1 17 -2 13 -5z m-630 -20 c-3 -3 -12 -4 -19 -1 -8 3 -5 6 6 6 11 1 17 -2 13 -5z m520 0 c-3 -3 -12 -4 -19 -1 -8 3 -5 6 6 6 11 1 17 -2 13 -5z m-219 -11 c-43 -2 -113 -2 -155 0 -43 1 -8 3 77 3 85 0 120 -2 78 -3z"
       id="path5704" />
  </g>
  <path
     style="fill:#000000;stroke:#000000;stroke-width:3.247;fill-opacity:1"
     d="M 42.167555,74.882561 C 29.784582,74.738829 25.291308,74.515697 21.863932,73.874305 19.847209,73.496899 18.662575,73.065118 16.394516,71.880781 13.591356,70.417024 11.227459,69.519488 9.4132349,69.230094 8.7492004,69.124171 8.4309556,68.683416 8.288625,67.672559 8.0783107,66.178869 8.7134768,59.690765 9.3250282,57.085892 10.692128,51.2628 13.513787,49.577414 27.348058,46.320674 c 4.462949,-1.050628 9.071384,-2.493637 12.456969,-3.900572 3.553989,-1.476916 5.307645,-1.969887 8.805788,-2.475397 2.102682,-0.303854 5.646886,-1.592673 11.583571,-4.212268 2.450237,-1.081182 5.528547,-2.240787 7.621023,-2.870853 2.694441,-0.811327 4.764809,-1.893889 8.573014,-4.482696 2.508543,-1.705301 3.250091,-2.267445 8.762235,-6.642396 11.291279,-8.96181 13.983666,-10.711359 16.483752,-10.711359 1.22926,0 1.92057,0.331112 4.00898,1.920143 2.50496,1.905988 4.52603,2.827828 6.80818,3.10531 2.10025,0.255365 4.45281,1.130121 7.53624,2.802214 3.69584,2.004186 9.64954,3.958418 15.82179,5.193311 3.51073,0.702399 4.87751,0.877655 7.53915,0.966709 2.30676,0.07718 2.6447,0.05628 3.86595,-0.239092 2.86578,-0.693118 6.38973,-2.050804 11.07471,-4.266793 5.43853,-2.572414 10.05674,-3.803971 14.31836,-3.818331 4.08892,-0.01378 4.7493,0.523751 5.29102,4.306756 0.49583,3.462582 0.54358,5.617543 0.60926,27.496292 l 0.0654,21.787918 -0.76351,0.08057 c -0.41992,0.04431 -2.79313,0.180505 -5.27378,0.30265 -2.48066,0.122142 -7.57083,0.384138 -11.3115,0.582212 -3.74067,0.198075 -9.1913,0.398688 -12.11251,0.445808 -7.75543,0.125098 -9.97445,-0.113938 -17.3833,-1.872557 -4.53945,-1.077516 -5.22891,-1.200942 -7.37396,-1.320067 -1.47658,-0.082 -1.70478,-0.05571 -3.65118,0.420674 -2.47644,0.606111 -3.14801,0.728964 -5.97282,1.092629 -3.40792,0.438733 -6.26311,1.255945 -9.59219,2.745476 -1.04004,0.465345 -2.40232,0.973347 -3.02729,1.128893 -1.45604,0.362388 -4.086475,0.662216 -7.610288,0.867452 -3.451405,0.201018 -38.65916,0.287971 -52.333587,0.129248 z"
     id="path5831"
     transform="scale(0.75)" />
</svg>
