<?xml version="1.0" standalone="no"?>
<!DOCTYPE svg PUBLIC "-//W3C//DTD SVG 20010904//EN"
 "http://www.w3.org/TR/2001/REC-SVG-20010904/DTD/svg10.dtd">
<svg version="1.0" xmlns="http://www.w3.org/2000/svg"
 width="679.000000pt" height="632.000000pt" viewBox="0 0 679.000000 632.000000"
 preserveAspectRatio="xMidYMid meet">

<g transform="translate(0.000000,632.000000) scale(0.100000,-0.100000)"
fill="#000000" stroke="none">
<path d="M735 6293 c-16 -2 -77 -10 -134 -19 -92 -15 -123 -15 -255 -4 -186
16 -259 11 -289 -18 -21 -21 -21 -31 -26 -344 -2 -178 -4 -375 -3 -438 7 -465
0 -941 -14 -1105 -19 -208 -14 -327 17 -447 26 -102 28 -208 4 -402 -14 -119
-15 -157 -5 -250 9 -84 9 -239 1 -631 -6 -286 -8 -585 -4 -665 4 -114 2 -162
-11 -224 -24 -117 -21 -217 10 -322 35 -118 41 -232 19 -409 -28 -230 -30
-336 -10 -411 17 -62 17 -72 0 -207 -19 -156 -16 -264 10 -303 27 -41 53 -48
146 -35 156 21 843 7 1149 -24 143 -14 198 -10 313 20 65 17 75 17 185 1 147
-20 219 -20 340 0 81 14 114 15 207 6 107 -11 419 -17 641 -13 61 2 169 -5
240 -14 143 -19 222 -15 319 16 90 29 216 33 437 15 109 -9 253 -16 320 -16
68 0 180 -5 249 -12 120 -11 132 -10 223 12 89 21 103 22 218 12 124 -11 579
-17 1353 -17 235 0 264 2 288 18 46 30 51 52 33 164 -21 132 -20 200 5 390 16
120 19 186 15 273 -4 63 -9 167 -12 230 -4 82 -1 146 10 223 23 152 20 237 -9
359 -30 124 -32 229 -9 479 15 164 19 525 12 934 -1 83 -1 812 1 1622 3 1351
2 1474 -13 1497 -9 14 -24 29 -33 35 -28 14 -1069 17 -1183 3 -94 -11 -174 -9
-571 18 -96 6 -164 6 -235 -3 -54 -7 -164 -10 -244 -8 -250 7 -382 6 -460 -2
-55 -6 -99 -4 -165 7 -120 21 -203 20 -320 -4 -119 -24 -189 -25 -372 -3 -132
16 -146 16 -220 0 -63 -13 -96 -15 -168 -8 -127 13 -735 18 -887 7 -87 -6
-184 -5 -310 4 -141 9 -213 9 -313 1 -107 -10 -158 -9 -290 3 -88 9 -162 15
-165 14 -3 0 -18 -3 -35 -5z m195 -189 c130 -13 178 -14 298 -4 111 9 178 9
304 0 112 -9 207 -10 307 -4 179 11 750 6 886 -7 82 -8 115 -6 183 7 76 15 92
15 210 0 169 -21 269 -20 399 5 114 22 171 22 321 -1 69 -11 104 -11 194 0 79
9 142 10 226 4 152 -12 313 -10 432 3 64 8 139 9 230 2 412 -27 477 -29 586
-17 116 13 182 14 704 11 l335 -3 -2 -1047 c-1 -577 -2 -1293 -1 -1593 0
-1014 -1 -1090 -18 -1290 -20 -230 -15 -399 15 -510 25 -91 26 -160 5 -310
-16 -114 -16 -176 2 -460 5 -70 0 -140 -16 -265 -17 -133 -21 -196 -16 -289
l6 -119 -292 7 c-161 4 -300 7 -308 7 -82 -7 -795 1 -891 10 -119 11 -133 11
-225 -11 -74 -17 -113 -21 -159 -16 -33 4 -168 11 -300 16 -132 5 -303 14
-380 20 -167 14 -321 7 -407 -20 -99 -30 -153 -33 -278 -16 -108 14 -419 22
-659 16 -52 -1 -153 4 -225 11 -115 10 -143 10 -227 -4 -120 -21 -176 -21
-315 -1 -120 17 -171 14 -288 -16 -75 -19 -85 -19 -210 -6 -176 19 -736 39
-969 35 -147 -3 -187 -1 -187 9 0 7 7 69 16 138 15 118 15 132 -1 219 -20 102
-18 150 11 390 22 184 15 329 -20 444 -30 99 -33 167 -10 277 13 62 15 112 11
234 -3 85 -1 391 4 680 8 395 8 551 -1 630 -10 88 -9 125 5 235 23 184 22 341
-4 435 -31 112 -36 222 -18 420 12 127 16 290 16 595 0 231 1 521 3 645 2 124
3 287 3 364 l0 138 60 -6 c191 -21 271 -17 495 23 3 1 75 -6 160 -15z"/>
<path d="M825 5528 c-3 -7 -4 -251 -3 -543 l3 -530 615 0 615 0 0 540 0 540
-613 3 c-485 2 -614 0 -617 -10z m1175 -533 l0 -485 -560 0 -560 0 0 485 0
485 560 0 560 0 0 -485z"/>
<path d="M1425 5213 c-214 -107 -393 -200 -397 -206 -3 -6 -4 -15 -2 -21 2 -6
184 -101 403 -211 343 -171 401 -197 415 -186 14 12 16 59 16 405 0 393 -2
417 -34 415 -6 0 -186 -88 -401 -196z m375 -218 c0 -184 -2 -335 -5 -335 -10
0 -665 330 -665 335 0 5 650 334 663 334 4 1 7 -150 7 -334z"/>
<path d="M2385 5528 c-3 -7 -4 -251 -3 -543 l3 -530 615 0 615 0 0 540 0 540
-613 3 c-485 2 -614 0 -617 -10z m1175 -533 l0 -485 -560 0 -560 0 0 485 0
485 560 0 560 0 0 -485z"/>
<path d="M2592 5398 c-9 -9 -12 -112 -12 -404 0 -346 2 -393 16 -405 14 -11
72 15 415 186 219 110 401 205 403 211 2 6 1 15 -2 21 -7 11 -785 403 -800
403 -4 0 -13 -5 -20 -12z m388 -233 c182 -91 330 -167 330 -170 0 -5 -655
-335 -665 -335 -3 0 -5 151 -5 335 0 184 2 335 5 335 3 0 154 -74 335 -165z"/>
<path d="M4220 5125 c0 -8 7 -15 15 -15 12 0 15 -17 15 -90 0 -73 -3 -90 -15
-90 -8 0 -15 -7 -15 -15 0 -12 14 -15 70 -15 62 0 74 3 95 25 22 21 25 33 25
95 0 62 -3 74 -25 95 -21 22 -33 25 -95 25 -56 0 -70 -3 -70 -15z m133 -30
c20 -20 30 -68 22 -105 -9 -39 -30 -60 -61 -60 -24 0 -24 1 -24 90 0 89 0 90
24 90 14 0 31 -7 39 -15z"/>
<path d="M4480 5120 c0 -16 5 -21 23 -18 12 2 22 10 22 18 0 8 -10 16 -22 18
-18 3 -23 -2 -23 -18z"/>
<path d="M5200 5115 c0 -14 -7 -28 -15 -31 -8 -4 -15 -12 -15 -19 0 -7 7 -15
15 -19 11 -4 15 -21 15 -65 0 -67 12 -81 68 -81 29 0 62 26 62 48 0 17 -37 15
-44 -3 -14 -38 -56 -2 -56 49 0 44 10 56 46 56 49 0 46 28 -3 32 -33 3 -38 6
-38 28 0 15 -7 26 -17 28 -14 3 -18 -3 -18 -23z"/>
<path d="M5390 5120 c0 -16 5 -21 23 -18 12 2 22 10 22 18 0 8 -10 16 -22 18
-18 3 -23 -2 -23 -18z"/>
<path d="M4450 5065 c0 -8 9 -15 20 -15 18 0 20 -7 20 -60 0 -57 -1 -60 -25
-60 -16 0 -25 -6 -25 -15 0 -12 14 -15 65 -15 50 0 65 3 65 14 0 8 -10 16 -22
18 -21 3 -23 9 -26 76 l-3 72 -34 0 c-24 0 -35 -5 -35 -15z"/>
<path d="M4590 5065 c0 -7 7 -15 15 -19 11 -4 15 -20 15 -56 0 -36 -4 -52 -15
-56 -8 -4 -15 -12 -15 -20 0 -10 15 -14 60 -14 47 0 60 3 60 15 0 10 -10 15
-30 15 -28 0 -30 2 -30 39 0 31 6 44 26 60 28 22 44 20 44 -5 0 -21 34 -14 38
7 6 33 -24 47 -98 47 -51 0 -70 -3 -70 -13z"/>
<path d="M4805 5055 c-19 -18 -25 -35 -25 -65 0 -56 34 -90 88 -90 40 0 94 31
80 46 -5 4 -26 1 -49 -6 -41 -14 -68 -8 -77 18 -2 8 16 12 62 12 64 0 66 1 66
26 0 15 -12 38 -29 55 -38 37 -82 39 -116 4z m87 -22 c28 -25 22 -33 -27 -33
-46 0 -58 13 -33 38 17 17 38 15 60 -5z"/>
<path d="M5007 5060 c-23 -18 -27 -29 -27 -70 0 -41 4 -52 26 -69 46 -36 144
-19 144 25 0 18 -15 18 -45 -2 -34 -22 -67 -14 -84 20 -12 26 -12 33 0 55 21
37 65 41 81 6 17 -37 42 -28 42 15 l0 35 -55 3 c-44 2 -61 -1 -82 -18z"/>
<path d="M5360 5065 c0 -8 9 -15 20 -15 18 0 20 -7 20 -60 0 -57 -1 -60 -25
-60 -16 0 -25 -6 -25 -15 0 -13 12 -15 68 -13 63 3 89 19 42 26 -18 3 -20 11
-20 78 l0 74 -40 0 c-29 0 -40 -4 -40 -15z"/>
<path d="M5529 5051 c-20 -20 -29 -39 -29 -61 0 -46 47 -90 95 -90 48 0 95 44
95 90 0 46 -47 90 -95 90 -27 0 -44 -8 -66 -29z m103 -18 c36 -32 12 -103 -35
-103 -49 0 -75 64 -40 102 20 22 51 23 75 1z"/>
<path d="M5710 5065 c0 -8 5 -15 10 -15 6 0 10 -27 10 -60 0 -33 -4 -60 -10
-60 -5 0 -10 -7 -10 -15 0 -11 11 -15 40 -15 29 0 40 4 40 15 0 8 -5 15 -11
15 -17 0 -7 101 12 113 33 21 49 1 49 -58 0 -30 -4 -55 -10 -55 -5 0 -10 -7
-10 -15 0 -11 11 -15 40 -15 29 0 40 4 40 15 0 8 -4 15 -10 15 -6 0 -10 26
-10 59 0 80 -12 91 -101 91 -55 0 -69 -3 -69 -15z"/>
<path d="M820 3735 l0 -535 1400 0 1400 0 0 535 0 535 -1400 0 -1400 0 0 -535z
m2740 0 l0 -475 -1340 0 -1340 0 0 475 0 475 1340 0 1340 0 0 -475z"/>
<path d="M2000 4015 l0 -125 174 0 c207 0 206 1 206 -110 0 -57 -3 -70 -23
-88 -22 -20 -33 -22 -160 -22 l-136 0 -3 65 -3 65 -128 -127 -127 -128 130
-130 130 -130 0 67 0 66 168 4 c154 3 171 5 217 28 64 32 125 92 156 155 22
45 24 63 24 175 0 107 -3 132 -21 171 -32 69 -91 128 -159 161 -59 28 -62 28
-252 28 l-193 0 0 -125z m416 46 c51 -23 105 -76 129 -127 27 -58 33 -206 10
-274 -24 -72 -82 -134 -151 -160 -47 -17 -78 -20 -229 -20 l-175 0 0 -27 c0
-26 -2 -26 -55 27 -30 30 -55 59 -55 65 0 6 25 35 55 65 53 53 55 53 55 27 l0
-27 173 0 c191 0 220 8 252 69 19 38 20 162 1 199 -32 62 -45 67 -210 72
l-151 5 -3 63 -3 62 158 0 c132 0 165 -3 199 -19z"/>
<path d="M4520 3875 c0 -8 8 -15 19 -15 18 0 18 -4 -6 -82 -14 -46 -31 -88
-39 -94 -27 -21 -15 -34 31 -34 33 0 45 4 45 15 0 8 -5 15 -11 15 -6 0 -9 10
-7 23 6 42 77 33 78 -10 0 -7 -7 -13 -16 -13 -9 0 -14 -6 -12 -12 3 -7 25 -14
51 -16 37 -2 47 0 47 12 0 9 -6 16 -13 16 -8 0 -26 42 -45 105 l-32 105 -45 0
c-33 0 -45 -4 -45 -15z m84 -87 c5 -24 3 -28 -15 -28 -17 0 -20 4 -15 23 3 12
6 31 6 42 1 16 2 17 9 5 5 -8 11 -27 15 -42z"/>
<path d="M4930 3861 c0 -16 -6 -31 -15 -35 -8 -3 -15 -10 -15 -16 0 -5 7 -10
15 -10 12 0 15 -13 15 -58 0 -68 18 -92 68 -92 31 0 72 29 72 50 0 16 -31 12
-51 -6 -32 -29 -49 -11 -49 50 l0 55 38 3 c20 2 37 8 37 13 0 6 -17 11 -37 13
-35 3 -38 6 -38 33 0 22 -5 29 -20 29 -15 0 -20 -7 -20 -29z"/>
<path d="M5125 3880 c-9 -15 4 -30 26 -30 12 0 19 7 19 20 0 21 -33 29 -45 10z"/>
<path d="M4735 3805 c-19 -18 -25 -35 -25 -65 0 -83 92 -121 157 -66 25 22 26
25 10 31 -11 5 -25 1 -36 -9 -37 -34 -91 -6 -91 47 0 54 64 76 85 30 5 -13 18
-23 27 -23 14 0 18 8 18 40 l0 40 -60 0 c-51 0 -65 -4 -85 -25z"/>
<path d="M5100 3816 c0 -7 9 -16 21 -19 18 -5 20 -12 17 -59 -3 -50 -5 -53
-31 -56 -54 -6 -22 -27 46 -30 55 -2 67 0 67 13 0 9 -9 15 -25 15 -24 0 -25 2
-25 75 l0 75 -35 0 c-23 0 -35 -5 -35 -14z"/>
<path d="M5266 3807 c-20 -20 -26 -36 -26 -67 0 -31 6 -47 26 -67 22 -22 32
-25 72 -20 56 6 82 33 82 87 0 54 -26 81 -82 87 -40 5 -50 2 -72 -20z m99 -21
c39 -29 14 -106 -35 -106 -29 0 -53 26 -53 58 0 56 44 80 88 48z"/>
<path d="M5440 3820 c0 -6 7 -13 15 -16 11 -5 15 -22 15 -65 0 -46 -3 -59 -15
-59 -8 0 -15 -7 -15 -15 0 -11 12 -15 45 -15 33 0 45 4 45 15 0 8 -4 15 -10
15 -5 0 -10 24 -10 54 0 46 3 56 20 61 11 3 24 3 30 0 13 -8 13 -115 0 -115
-5 0 -10 -7 -10 -15 0 -11 12 -15 45 -15 33 0 45 4 45 15 0 8 -7 15 -15 15
-12 0 -15 14 -15 63 0 36 -5 68 -12 75 -15 15 -158 17 -158 2z"/>
<path d="M820 2465 l0 -535 1400 0 1400 0 0 535 0 535 -1400 0 -1400 0 0 -535z
m2740 0 l0 -475 -1340 0 -1340 0 0 475 0 475 1340 0 1340 0 0 -475z"/>
<path d="M1640 2546 c0 -8 7 -16 15 -20 12 -4 15 -24 15 -86 0 -62 -3 -82 -15
-86 -8 -4 -15 -12 -15 -20 0 -11 20 -14 90 -14 l90 0 0 35 c0 28 -4 35 -20 35
-13 0 -20 -7 -20 -20 0 -17 -7 -20 -40 -20 l-40 0 0 40 c0 33 3 40 20 40 11 0
20 -7 20 -15 0 -8 7 -15 15 -15 11 0 15 12 15 45 0 33 -4 45 -15 45 -8 0 -15
-7 -15 -15 0 -8 -9 -15 -20 -15 -16 0 -20 7 -20 35 0 34 1 35 40 35 36 0 40
-2 40 -25 0 -18 5 -25 20 -25 17 0 20 7 20 40 l0 40 -90 0 c-70 0 -90 -3 -90
-14z"/>
<path d="M1876 2485 c-39 -40 -3 -95 62 -95 26 0 33 -4 30 -17 -5 -28 -53 -29
-71 -2 -22 30 -45 19 -39 -19 4 -28 6 -29 59 -31 69 -1 93 11 93 49 0 34 -11
42 -65 50 -31 4 -40 9 -40 25 0 29 35 32 55 4 22 -29 46 -20 45 17 -2 28 -4
29 -57 32 -41 2 -60 -1 -72 -13z"/>
<path d="M2040 2485 c0 -8 5 -15 10 -15 6 0 10 -35 10 -85 0 -50 -4 -85 -10
-85 -5 0 -10 -7 -10 -15 0 -12 13 -15 55 -15 42 0 55 3 55 15 0 9 -9 15 -25
15 -14 0 -25 6 -25 13 0 9 11 12 33 9 22 -2 41 3 60 18 23 18 27 29 27 70 0
68 -29 90 -116 90 -50 0 -64 -3 -64 -15z m140 -47 c13 -25 13 -31 0 -55 -28
-51 -80 -35 -80 25 0 63 50 82 80 30z"/>
<path d="M2271 2484 c-34 -24 -12 -39 33 -23 32 12 38 11 53 -4 16 -16 15 -17
-23 -17 -52 0 -84 -23 -84 -60 0 -47 21 -59 105 -59 58 0 75 4 75 15 0 8 -4
14 -10 14 -5 0 -10 25 -10 55 0 42 -5 60 -20 75 -25 25 -86 27 -119 4z m99
-94 c0 -23 -40 -46 -64 -37 -19 8 -21 43 -3 50 6 3 24 6 40 6 21 1 27 -4 27
-19z"/>
<path d="M2477 2480 c-23 -18 -27 -29 -27 -70 0 -41 4 -52 26 -69 46 -36 144
-19 144 25 0 18 -15 18 -45 -2 -34 -22 -67 -14 -84 20 -12 26 -12 33 0 55 21
37 65 41 81 6 17 -37 42 -28 42 15 l0 35 -55 3 c-44 2 -61 -1 -82 -18z"/>
<path d="M2670 2480 c-58 -58 -23 -160 55 -160 43 0 85 19 85 38 0 10 -6 12
-22 7 -55 -17 -75 -17 -93 2 -18 17 -17 18 48 21 l67 3 0 30 c0 66 -93 106
-140 59z m88 -22 c25 -25 13 -38 -33 -38 -49 0 -53 4 -28 32 19 21 44 23 61 6z"/>
<path d="M4685 2596 c-28 -28 -40 -81 -30 -132 9 -52 45 -84 93 -84 42 0 92
30 92 56 0 20 -17 18 -47 -6 -35 -27 -57 -25 -82 6 -37 47 -21 139 26 150 28
7 51 -9 55 -39 3 -20 38 -33 38 -14 0 4 0 25 0 47 l0 40 -60 0 c-51 0 -65 -4
-85 -24z"/>
<path d="M4895 2535 c-35 -34 -35 -96 0 -130 33 -34 93 -34 132 -1 22 19 28
32 28 66 0 34 -6 47 -28 66 -39 33 -99 33 -132 -1z m105 -25 c11 -11 20 -29
20 -40 0 -24 -34 -60 -57 -60 -46 0 -69 66 -36 102 21 24 48 23 73 -2z"/>
<path d="M5075 2550 c-3 -6 1 -13 9 -16 12 -5 16 -21 16 -64 0 -79 12 -90 101
-90 55 0 69 3 69 15 0 8 -7 15 -15 15 -12 0 -15 15 -15 75 l0 75 -30 0 c-20 0
-30 -5 -30 -15 0 -8 5 -15 10 -15 6 0 10 -24 10 -54 0 -46 -3 -56 -20 -61 -33
-10 -40 3 -40 76 l0 69 -29 0 c-17 0 -33 -5 -36 -10z"/>
<path d="M5287 2553 c-12 -11 -8 -23 8 -23 12 0 15 -16 15 -84 0 -65 -3 -85
-15 -90 -8 -3 -15 -10 -15 -16 0 -14 109 -9 113 5 1 6 -8 11 -20 13 -39 6 -27
28 11 24 76 -9 118 97 61 153 -20 21 -33 25 -88 25 -35 0 -67 -3 -70 -7z m132
-37 c7 -8 11 -31 9 -52 -6 -72 -70 -72 -76 0 -4 41 11 66 38 66 10 0 23 -6 29
-14z"/>
<path d="M4400 1476 c0 -8 7 -16 15 -20 11 -4 15 -23 15 -80 0 -53 -4 -79 -15
-90 -29 -29 -17 -36 60 -36 62 0 79 4 95 20 24 24 26 67 3 92 -13 14 -14 21
-5 30 18 18 14 56 -8 78 -16 16 -33 20 -90 20 -53 0 -70 -3 -70 -14z m135 -36
c9 -28 -11 -50 -46 -50 -26 0 -29 3 -29 35 0 33 2 35 34 35 26 0 36 -5 41 -20z
m9 -102 c17 -27 -5 -52 -48 -56 l-36 -3 0 41 0 41 36 -3 c22 -2 42 -10 48 -20z"/>
<path d="M5060 1465 c0 -14 -7 -28 -15 -31 -8 -4 -15 -12 -15 -19 0 -7 7 -15
15 -19 11 -4 15 -21 15 -65 0 -67 12 -81 68 -81 29 0 62 26 62 48 0 17 -37 15
-44 -3 -14 -38 -56 -2 -56 49 0 44 10 56 46 56 49 0 46 28 -3 32 -33 3 -38 6
-38 28 0 15 -7 26 -17 28 -14 3 -18 -3 -18 -23z"/>
<path d="M4639 1401 c-20 -20 -29 -39 -29 -61 0 -46 47 -90 95 -90 48 0 95 44
95 90 0 46 -47 90 -95 90 -27 0 -44 -8 -66 -29z m103 -18 c36 -32 12 -103 -35
-103 -49 0 -75 64 -40 102 20 22 51 23 75 1z"/>
<path d="M4820 1415 c0 -8 5 -15 10 -15 6 0 10 -24 10 -53 0 -82 16 -97 101
-97 55 0 69 3 69 15 0 8 -4 15 -10 15 -6 0 -10 32 -10 75 l0 75 -35 0 c-24 0
-35 -5 -35 -15 0 -8 7 -15 16 -15 22 0 16 -99 -7 -113 -35 -22 -49 -2 -49 73
l0 70 -30 0 c-20 0 -30 -5 -30 -15z"/>
<path d="M5239 1401 c-20 -20 -29 -39 -29 -61 0 -46 47 -90 95 -90 48 0 95 44
95 90 0 46 -47 90 -95 90 -27 0 -44 -8 -66 -29z m103 -18 c36 -32 12 -103 -35
-103 -49 0 -75 64 -40 102 20 22 51 23 75 1z"/>
<path d="M5420 1415 c0 -8 5 -15 10 -15 6 0 10 -27 10 -60 0 -33 -4 -60 -10
-60 -5 0 -10 -7 -10 -15 0 -11 11 -15 40 -15 29 0 40 4 40 15 0 8 -5 15 -11
15 -17 0 -7 101 12 113 33 21 49 1 49 -58 0 -30 -4 -55 -10 -55 -5 0 -10 -7
-10 -15 0 -11 11 -15 40 -15 29 0 40 4 40 15 0 8 -4 15 -10 15 -6 0 -10 26
-10 59 0 80 -12 91 -101 91 -55 0 -69 -3 -69 -15z"/>
<path d="M4500 1136 c0 -8 5 -18 10 -21 6 -4 8 -11 5 -16 -4 -5 0 -9 8 -9 20
0 40 27 33 45 -7 19 -56 20 -56 1z"/>
<path d="M4360 1115 c0 -9 9 -15 25 -15 17 0 25 -5 25 -18 0 -15 -6 -17 -36
-14 -52 6 -84 -27 -84 -88 0 -69 26 -90 113 -90 53 0 67 3 67 15 0 8 -4 15
-10 15 -6 0 -10 42 -10 105 l0 105 -45 0 c-33 0 -45 -4 -45 -15z m32 -92 c38
-35 2 -123 -40 -97 -29 19 -38 59 -18 88 19 30 32 32 58 9z"/>
<path d="M5019 1128 c0 -2 -2 -14 -3 -27 -2 -14 -8 -27 -14 -29 -16 -5 -15
-21 3 -38 10 -10 15 -35 15 -68 0 -61 12 -76 57 -76 32 0 73 28 73 50 0 15
-36 12 -50 -5 -30 -36 -50 -11 -50 61 l0 44 40 0 c29 0 40 4 40 15 0 11 -11
15 -40 15 -38 0 -40 2 -40 30 0 20 -5 30 -15 30 -8 0 -15 -1 -16 -2z"/>
<path d="M5210 1110 c0 -16 5 -21 23 -18 12 2 22 10 22 18 0 8 -10 16 -22 18
-18 3 -23 -2 -23 -18z"/>
<path d="M4623 1058 c-34 -17 -30 -42 5 -33 42 12 75 11 79 -2 3 -9 -6 -13
-29 -13 -49 0 -78 -24 -78 -65 0 -45 20 -55 109 -55 54 0 71 3 71 14 0 8 -7
16 -15 20 -11 4 -15 21 -15 60 0 36 -5 60 -16 70 -18 18 -78 20 -111 4z m92
-98 c0 -8 -12 -21 -27 -29 -22 -12 -29 -13 -42 -2 -12 10 -13 18 -5 33 13 23
74 22 74 -2z"/>
<path d="M4827 1050 c-23 -18 -27 -29 -27 -70 0 -41 4 -52 26 -69 46 -36 144
-19 144 25 0 18 -15 18 -45 -2 -34 -22 -67 -14 -84 20 -12 26 -12 33 0 55 21
37 65 41 81 6 17 -37 42 -28 42 15 l0 35 -55 3 c-44 2 -61 -1 -82 -18z"/>
<path d="M5180 1055 c0 -8 9 -15 20 -15 18 0 20 -7 20 -60 0 -57 -1 -60 -25
-60 -16 0 -25 -6 -25 -15 0 -13 12 -15 68 -13 63 3 89 19 42 26 -18 3 -20 11
-20 78 l0 74 -40 0 c-29 0 -40 -4 -40 -15z"/>
<path d="M5349 1041 c-20 -20 -29 -39 -29 -61 0 -46 47 -90 95 -90 48 0 95 44
95 90 0 22 -9 41 -29 61 -41 40 -91 40 -132 0z m103 -18 c36 -32 12 -103 -35
-103 -49 0 -75 64 -40 102 20 22 51 23 75 1z"/>
<path d="M5530 1055 c0 -8 5 -15 10 -15 6 0 10 -27 10 -60 0 -33 -4 -60 -10
-60 -5 0 -10 -7 -10 -15 0 -11 11 -15 40 -15 29 0 40 4 40 15 0 8 -4 15 -10
15 -14 0 -12 94 2 108 17 17 45 15 52 -4 13 -33 6 -102 -10 -108 -27 -10 -5
-26 37 -26 28 0 39 4 39 15 0 8 -7 15 -15 15 -12 0 -15 14 -15 63 0 36 -5 68
-12 75 -7 7 -40 12 -80 12 -54 0 -68 -3 -68 -15z"/>
</g>
</svg>
