<?xml version="1.0" encoding="UTF-8" standalone="no"?>
<svg
   version="1.0"
   width="300.000000pt"
   height="235.000000pt"
   viewBox="0 0 300.000000 235.000000"
   preserveAspectRatio="xMidYMid meet"
   id="svg3483"
   sodipodi:docname="ferme.svg"
   inkscape:version="1.1.1 (3bf5ae0d25, 2021-09-20)"
   xmlns:inkscape="http://www.inkscape.org/namespaces/inkscape"
   xmlns:sodipodi="http://sodipodi.sourceforge.net/DTD/sodipodi-0.dtd"
   xmlns="http://www.w3.org/2000/svg"
   xmlns:svg="http://www.w3.org/2000/svg">
  <defs
     id="defs3487" />
  <sodipodi:namedview
     id="namedview3485"
     pagecolor="#505050"
     bordercolor="#eeeeee"
     borderopacity="1"
     inkscape:pageshadow="0"
     inkscape:pageopacity="0"
     inkscape:pagecheckerboard="0"
     inkscape:document-units="pt"
     showgrid="false"
     inkscape:zoom="1.8256895"
     inkscape:cx="225.39429"
     inkscape:cy="171.16821"
     inkscape:window-width="1920"
     inkscape:window-height="1017"
     inkscape:window-x="-8"
     inkscape:window-y="-8"
     inkscape:window-maximized="1"
     inkscape:current-layer="svg3483" />
  <metadata
     id="metadata3471">
Created by potrace 1.10, written by Peter Selinger 2001-2011
</metadata>
  <g
     transform="translate(0.000000,235.000000) scale(0.100000,-0.100000)"
     fill="#000000"
     stroke="none"
     id="g3481">
    <path
       d="M871 2284 c-24 -131 -95 -317 -207 -544 -131 -266 -179 -333 -363 -512 -72 -71 -129 -128 -126 -128 2 0 46 20 97 43 156 73 275 157 421 296 l78 75 -42 -80 c-160 -302 -228 -401 -339 -491 -67 -54 -217 -137 -305 -168 -88 -32 -78 -38 55 -32 95 4 146 11 215 31 216 65 385 199 446 355 10 25 18 38 19 28 0 -35 -51 -223 -75 -272 -33 -69 -148 -241 -177 -265 -12 -11 -68 -43 -123 -72 -55 -28 -111 -59 -125 -68 -14 -10 -59 -37 -100 -59 -41 -22 -70 -41 -65 -41 6 0 76 5 157 10 260 17 416 71 537 187 36 34 66 61 68 59 2 -2 4 -63 4 -137 0 -154 -9 -192 -90 -379 -28 -65 -45 -117 -40 -119 17 -5 23 6 82 149 70 169 75 191 76 347 1 112 -1 131 -18 153 l-19 24 -66 -61 c-128 -121 -235 -161 -490 -187 -81 -9 -65 7 79 79 138 69 173 101 265 250 80 129 112 207 131 318 12 69 11 79 -3 94 -15 14 -20 10 -63 -58 -55 -86 -101 -137 -170 -188 -92 -68 -239 -125 -348 -136 l-62 -6 75 41 c152 85 235 163 330 310 76 119 192 346 188 368 -7 35 -38 23 -101 -36 -110 -104 -309 -252 -340 -252 -6 0 23 35 64 78 127 133 152 169 251 364 117 228 160 332 235 568 4 11 8 8 16 -10 89 -206 164 -331 279 -468 78 -91 141 -145 238 -202 69 -41 215 -101 296 -122 l49 -12 -40 -8 c-59 -10 -181 -9 -255 2 -131 21 -199 52 -315 144 -33 26 -38 28 -52 14 -14 -15 -14 -21 2 -69 39 -120 82 -193 148 -254 36 -33 71 -65 78 -71 34 -26 108 -63 158 -79 l54 -18 56 59 c87 90 201 223 201 233 0 6 -4 13 -10 16 -19 12 -10 21 18 17 25 -3 36 5 83 59 30 35 75 86 100 114 25 27 94 104 153 170 59 66 110 120 114 120 4 0 136 -144 292 -320 156 -176 293 -329 303 -340 10 -11 32 -37 49 -57 l30 -38 -31 0 c-18 0 -40 -9 -51 -20 -19 -19 -20 -34 -20 -550 0 -461 2 -530 15 -530 13 0 15 69 15 535 l0 534 69 3 69 3 -152 171 c-83 94 -225 253 -315 355 -90 101 -188 212 -218 245 l-55 62 -76 -87 c-63 -71 -307 -345 -346 -388 -9 -9 -26 -8 -76 7 -264 74 -426 169 -559 325 -127 150 -223 317 -286 500 -15 44 -28 81 -29 82 -2 2 -8 -27 -15 -63z m413 -860 c107 -52 192 -67 354 -62 l139 3 -110 -125 c-61 -69 -113 -129 -117 -133 -10 -12 -133 37 -188 75 -115 79 -163 139 -213 266 -17 42 -33 84 -37 92 -3 8 19 -7 49 -34 30 -27 85 -64 123 -82z"
       id="path3473" />
    <path
       d="M1100 1195 c-30 -36 38 -207 116 -294 82 -91 208 -170 348 -217 78 -27 106 -30 124 -12 15 15 17 261 2 289 -10 17 -22 19 -133 19 -169 0 -194 10 -324 133 -57 53 -108 97 -112 97 -5 0 -14 -7 -21 -15z m268 -222 c54 -27 63 -28 180 -26 l122 3 0 -130 c0 -72 -4 -130 -9 -130 -18 0 -164 51 -203 71 -127 65 -220 142 -272 226 -21 34 -76 179 -76 200 0 3 45 -38 100 -90 63 -60 122 -107 158 -124z"
       id="path3475" />
    <path
       d="M2053 728 c-29 -36 -25 -728 4 -728 11 0 13 60 11 355 l-3 355 188 0 187 0 0 -355 c0 -309 2 -355 15 -355 13 0 15 46 15 353 0 330 -1 355 -18 370 -16 15 -45 17 -204 17 -137 0 -188 -3 -195 -12z"
       id="path3477" />
    <path
       d="M1088 683 c-14 -16 -15 -35 -7 -153 5 -74 14 -162 20 -195 19 -106 125 -335 155 -335 9 0 -2 31 -34 93 -75 145 -92 209 -108 401 -7 94 -11 172 -9 174 2 2 16 -5 32 -16 49 -34 146 -79 211 -97 49 -14 83 -16 160 -11 53 3 112 9 130 12 l32 6 0 -281 c0 -243 2 -281 15 -281 13 0 15 38 15 278 0 341 11 318 -139 301 -142 -17 -208 -4 -340 63 -58 29 -108 54 -111 56 -4 1 -14 -5 -22 -15z"
       id="path3479" />
  </g>
  <path
     style="fill:none;stroke:#000000;stroke-width:0.75px;stroke-linecap:butt;stroke-linejoin:miter;stroke-opacity:1"
     d="m 245.55791,234.50672 39.0777,0.1027"
     id="path3958" />
  <path
     style="fill:none;stroke:#000000;stroke-width:0.731947px;stroke-linecap:butt;stroke-linejoin:miter;stroke-opacity:1"
     d="m 168.60966,234.97964 37.17689,0.10282"
     id="path3958-0" />
  <path
     style="fill:none;stroke:#000000;stroke-width:0.816985px;stroke-linecap:butt;stroke-linejoin:miter;stroke-opacity:1"
     d="m 79.097625,234.90029 46.578765,0.10224"
     id="path3958-0-7" />
  <path
     style="fill:#000000;stroke:#000000;stroke-width:1.82579"
     d="m 126.65711,312.34799 -18.21966,-0.15197 1.12025,-2.19587 c 1.88765,-3.70008 10.85663,-25.51716 12.90939,-31.4021 3.44699,-9.88198 3.61024,-11.12149 3.90158,-29.62313 0.1796,-11.40626 0.0715,-17.60417 -0.33035,-18.94552 -0.64741,-2.16085 -3.59242,-6.55219 -4.39417,-6.55219 -0.27203,0 -3.33338,2.60866 -6.803,5.79702 -8.21498,7.54906 -12.48032,10.91707 -17.720414,13.99247 -6.019408,3.53276 -12.559792,6.18604 -19.889642,8.06875 -10.435636,2.68044 -28.157621,5.26244 -33.685903,4.90785 l -2.738691,-0.17567 3.012561,-1.97879 c 1.656908,-1.08834 8.134938,-4.64704 14.395622,-7.90823 18.008216,-9.38045 22.822108,-13.70027 32.976622,-29.59212 12.731125,-19.92427 17.752145,-32.14161 20.297855,-49.38963 0.95467,-6.4682 0.95284,-6.6177 -0.10364,-8.42665 -1.27826,-2.18866 -2.60952,-2.58191 -4.11827,-1.21651 -0.60689,0.54922 -3.18131,4.14111 -5.72095,7.98197 -10.96872,16.58875 -20.228821,24.99485 -36.091578,32.76311 -7.170283,3.5114 -18.901077,7.62779 -25.624925,8.99191 -4.504245,0.91381 -12.906743,1.75673 -12.442884,1.24825 0.150628,-0.16512 3.231656,-1.95311 6.846728,-3.97333 19.784452,-11.05615 32.018284,-22.32989 43.699887,-40.27037 7.822384,-12.01353 23.261862,-41.17164 25.417282,-48.00163 0.8402,-2.66236 0.83619,-2.92793 -0.065,-4.30328 -0.81301,-1.2408 -1.2245,-1.41299 -2.68079,-1.12173 -2.427487,0.48549 -4.646742,2.09235 -12.145312,8.79384 -15.95101,14.25546 -40.876754,32.71912 -42.278336,31.31754 -0.396017,-0.39602 2.626972,-3.94466 10.800086,-12.67807 12.624168,-13.4896 16.823488,-19.53385 26.936054,-38.770174 15.069047,-28.664631 23.167558,-47.291225 31.368148,-72.146823 1.73939,-5.271981 3.34247,-9.783815 3.56241,-10.026298 0.21995,-0.242484 1.70635,2.468821 3.30311,6.02512 10.82608,24.111824 20.41783,39.980441 34.19987,56.580337 13.27728,15.991919 26.40093,26.024818 44.98108,34.387538 8.47247,3.81337 18.43132,7.53859 25.86838,9.67634 6.98607,2.00814 6.9504,2.16002 -0.71076,3.02652 -14.51746,1.64196 -34.35056,-0.28059 -46.27282,-4.48553 -8.32612,-2.93658 -14.21701,-6.34027 -24.50371,-14.15793 -3.14287,-2.38851 -6.03248,-4.34274 -6.42137,-4.34274 -0.38889,0 -1.38695,0.5348 -2.21793,1.18844 -1.4051,1.10525 -1.49103,1.40239 -1.22758,4.24497 0.63797,6.88381 8.07122,23.69454 13.92723,31.49722 3.7025,4.9333 15.69021,16.22839 20.60206,19.41173 4.04461,2.62128 12.83374,6.7088 19.54881,9.09149 l 5.75126,2.04069 6.2008,-6.48729 c 12.34164,-12.91184 28.58057,-31.71894 28.58057,-33.10054 0,-0.30228 -0.63837,-1.18797 -1.4186,-1.9682 -1.64256,-1.64255 -0.99789,-2.49303 1.50959,-1.99154 3.72358,0.74472 4.96514,-0.23514 15.65556,-12.35565 12.05512,-13.66776 31.31232,-35.07334 38.44032,-42.728837 l 6.31579,-6.783164 3.79443,4.044472 c 17.97542,19.159951 84.49743,94.030949 85.14417,95.830379 0.10042,0.27939 -1.04027,0.50799 -2.53486,0.50799 -3.18867,0 -5.92132,1.02428 -7.64697,2.86633 -2.36711,2.52676 -2.50439,6.40039 -2.51894,71.07833 -0.007,33.2888 0.1778,63.07522 0.41174,66.19205 l 0.42534,5.66697 -24.37662,-0.18958 c -13.40714,-0.10428 -24.47233,-0.31283 -24.58931,-0.46346 -0.11698,-0.15063 -0.0379,-4.46407 0.17573,-9.58542 0.53143,-12.73945 0.53151,-62.55225 1.3e-4,-73.77508 -0.47052,-9.93731 -0.92085,-11.43746 -3.77978,-12.59113 -3.47559,-1.40252 -47.927,-1.57631 -51.16403,-0.20004 -0.51573,0.21927 -1.06934,0.81346 -1.23024,1.32043 -2.84129,8.95211 -2.81243,83.24849 0.0367,94.60051 l 0.33286,1.3262 h -23.79241 -23.79239 l 0.4788,-3.57372 c 0.26335,-1.96555 0.39499,-17.92527 0.29254,-35.46605 -0.19834,-33.95946 -0.26396,-34.80785 -2.89579,-37.43967 -1.11542,-1.11543 -1.82633,-1.29777 -5.02151,-1.28792 -2.04717,0.006 -6.67992,0.36833 -10.29499,0.80451 -7.79686,0.94075 -17.23544,1.04378 -22.1834,0.24215 -6.20503,-1.00529 -13.61282,-3.84692 -25.98501,-9.96787 -8.66487,-4.28681 -12.36866,-5.85747 -13.27572,-5.62981 -1.61327,0.40491 -2.95422,2.46585 -3.50522,5.38727 -0.82435,4.37074 1.49682,34.34603 3.39806,43.88213 2.27619,11.41676 11.33604,32.68467 17.81331,41.81657 l 0.87414,1.23241 -10.3369,-0.12929 c -5.68529,-0.0711 -18.53574,-0.19768 -28.55656,-0.28126 z m 97.07129,-87.45666 c 1.62718,-0.67988 1.9155,-1.10711 2.31029,-3.42336 0.57848,-3.39403 0.59059,-32.11419 0.0147,-34.83031 -0.79742,-3.76079 -1.3526,-3.89038 -18.41364,-4.2981 -16.03174,-0.38312 -19.08809,-0.78568 -24.42128,-3.2166 -4.42747,-2.01808 -8.4205,-5.07676 -17.52763,-13.42623 -10.12765,-9.2851 -15.63442,-13.97323 -16.41325,-13.97323 -0.34955,0 -1.33036,0.72522 -2.17957,1.61161 -1.48413,1.5491 -1.53371,1.77754 -1.27798,5.88819 0.30648,4.92638 2.11444,10.69335 5.63292,17.96776 7.24667,14.98236 18.19171,25.86786 36.28459,36.08716 8.0764,4.56175 21.42992,9.90962 28.89295,11.57117 4.30591,0.95866 4.89557,0.96214 7.09792,0.042 z"
     id="path4121"
     transform="scale(0.75)" />
</svg>
