<?xml version="1.0" encoding="UTF-8" standalone="no"?>
<svg
   version="1.0"
   width="378.000000pt"
   height="358.000000pt"
   viewBox="0 0 378.000000 358.000000"
   preserveAspectRatio="xMidYMid meet"
   id="svg842"
   sodipodi:docname="feu.svg"
   inkscape:version="1.1.1 (3bf5ae0d25, 2021-09-20)"
   xmlns:inkscape="http://www.inkscape.org/namespaces/inkscape"
   xmlns:sodipodi="http://sodipodi.sourceforge.net/DTD/sodipodi-0.dtd"
   xmlns="http://www.w3.org/2000/svg"
   xmlns:svg="http://www.w3.org/2000/svg">
  <defs
     id="defs846" />
  <sodipodi:namedview
     id="namedview844"
     pagecolor="#505050"
     bordercolor="#eeeeee"
     borderopacity="1"
     inkscape:pageshadow="0"
     inkscape:pageopacity="0"
     inkscape:pagecheckerboard="0"
     inkscape:document-units="pt"
     showgrid="false"
     inkscape:zoom="1.6948324"
     inkscape:cx="252.23733"
     inkscape:cy="238.66667"
     inkscape:window-width="1920"
     inkscape:window-height="1017"
     inkscape:window-x="-8"
     inkscape:window-y="-8"
     inkscape:window-maximized="1"
     inkscape:current-layer="svg842" />
  <g
     transform="translate(0.000000,358.000000) scale(0.100000,-0.100000)"
     fill="#000000"
     stroke="none"
     id="g840">
    <path
       d="M1696 3162 c-88 -218 -164 -403 -169 -409 -23 -31 -44 -9 -136 144 -52 87 -96 153 -97 148 -1 -6 -8 -118 -14 -250 -9 -177 -15 -244 -25 -254 -12 -12 -30 -7 -131 43 -64 31 -119 55 -121 53 -2 -3 1 -26 7 -52 12 -54 8 -75 -15 -75 -8 0 -115 40 -238 89 -122 49 -246 99 -274 110 l-53 21 215 -430 c118 -237 215 -437 215 -445 0 -9 -7 -18 -15 -21 -8 -4 -150 24 -316 61 -165 36 -303 64 -306 61 -3 -3 112 -127 256 -275 143 -148 261 -274 261 -279 0 -22 -30 -31 -123 -38 -54 -4 -100 -11 -103 -15 -3 -5 15 -56 40 -113 25 -58 44 -111 41 -118 -3 -7 -40 -34 -83 -60 -130 -79 -126 -63 -39 -157 90 -96 102 -114 84 -130 -8 -6 -126 -36 -263 -67 -229 -52 -302 -74 -247 -74 12 0 143 -14 290 -31 236 -27 487 -68 514 -84 5 -4 9 -53 9 -111 l0 -104 38 0 c20 0 163 9 316 20 154 10 283 17 287 14 4 -2 38 -53 75 -112 36 -59 69 -109 71 -112 2 -2 25 17 49 43 25 26 52 47 60 47 7 0 44 -41 81 -90 l68 -90 22 44 23 45 -69 146 c-38 80 -71 148 -74 151 -2 3 -31 -22 -63 -56 -45 -48 -60 -58 -66 -46 -5 8 -27 68 -49 133 -22 65 -44 123 -47 129 -5 7 -50 -5 -137 -36 l-130 -47 -17 21 c-25 30 -22 41 14 75 l32 30 -25 5 c-13 3 -89 10 -169 17 -80 6 -160 14 -178 18 l-33 6 116 84 c63 46 115 88 115 91 0 4 -74 52 -165 106 -136 81 -161 100 -143 105 13 3 119 16 236 29 116 13 212 27 212 31 0 4 -100 101 -222 216 -123 114 -249 232 -280 262 -32 30 -56 56 -54 58 2 2 117 -17 255 -43 139 -25 254 -44 256 -42 3 2 -42 114 -100 248 -58 134 -103 245 -101 247 2 2 139 -42 306 -97 166 -56 305 -98 309 -95 3 4 51 194 107 423 l100 417 36 3 35 3 102 -408 c56 -224 106 -425 112 -446 9 -34 12 -37 37 -30 15 3 117 32 227 63 110 31 201 53 203 49 3 -7 -51 -319 -65 -376 l-5 -23 203 -2 202 -3 -182 -154 -182 -153 135 -76 c75 -43 136 -79 136 -82 0 -3 -50 -63 -111 -134 -86 -98 -109 -130 -98 -137 8 -5 17 -9 20 -9 13 0 302 -140 298 -144 -2 -2 -103 -11 -224 -21 -121 -9 -226 -19 -233 -21 -8 -2 17 -40 67 -99 l81 -96 -21 -28 -21 -29 -122 58 c-66 31 -154 74 -195 94 -40 21 -75 35 -78 32 -3 -2 -9 -42 -14 -87 -5 -46 -11 -84 -12 -86 -2 -1 -47 27 -100 62 -53 36 -100 65 -105 65 -5 0 -14 -57 -21 -127 -7 -71 -14 -146 -17 -168 l-5 -40 16 28 c9 15 23 27 31 27 8 0 57 -37 107 -81 l92 -81 3 140 c2 99 6 143 15 151 10 7 89 5 278 -9 145 -11 274 -20 286 -20 21 0 20 3 -18 69 -21 37 -39 75 -39 84 0 19 5 21 155 46 274 47 848 151 851 154 2 2 -169 36 -379 76 -210 41 -388 76 -395 79 -7 2 -12 15 -10 27 2 12 129 161 292 339 158 175 286 319 284 322 -4 4 -218 -19 -280 -31 -36 -6 -65 20 -46 42 6 8 106 87 220 176 115 88 207 161 206 162 -2 1 -115 -2 -253 -7 -307 -11 -379 -9 -382 12 -2 8 51 75 117 149 66 73 120 136 120 140 0 4 -25 19 -56 34 -42 21 -55 32 -52 47 2 10 84 106 183 211 99 106 188 203 197 214 16 20 4 19 -185 -26 -469 -111 -477 -113 -488 -102 -8 8 3 79 41 258 28 136 50 248 48 250 -2 1 -99 -98 -216 -221 -117 -123 -220 -224 -227 -224 -8 0 -40 32 -71 70 -31 39 -59 70 -62 70 -3 0 -41 -23 -84 -52 -68 -44 -81 -49 -93 -37 -8 8 -80 217 -161 464 -80 248 -149 453 -153 457 -3 4 -78 -172 -165 -390z"
       id="path836" />
    <path
       d="M1872 2300 c-29 -118 -69 -288 -91 -378 -21 -90 -41 -166 -44 -169 -3 -3 -123 34 -267 82 -144 48 -263 85 -265 83 -2 -1 42 -108 96 -237 55 -128 99 -234 97 -236 -2 -2 -93 14 -203 35 -110 21 -201 37 -202 36 -1 -1 111 -106 249 -235 173 -162 246 -236 237 -241 -8 -4 -90 -15 -183 -25 -246 -26 -239 -19 -102 -100 63 -39 116 -73 116 -78 0 -4 -36 -34 -81 -66 -95 -70 -104 -64 126 -82 83 -7 152 -14 154 -15 2 -2 -4 -13 -14 -24 -23 -25 -10 -25 59 1 30 12 61 19 68 16 7 -2 30 -56 52 -119 l38 -114 58 60 58 60 44 -94 44 -95 12 124 c7 69 14 127 16 129 3 2 51 -28 109 -66 l104 -71 7 82 c4 45 8 83 10 84 2 2 69 -29 150 -68 81 -39 149 -69 151 -67 3 2 -21 35 -51 72 -31 37 -54 69 -52 71 2 3 71 10 154 16 82 7 153 15 157 19 5 4 -26 22 -67 40 -42 19 -76 38 -76 43 0 5 48 64 106 132 58 68 107 127 108 131 0 5 -60 43 -134 85 -74 42 -135 80 -136 85 -2 5 62 63 140 129 l144 120 -144 3 c-79 1 -144 5 -144 9 0 3 14 80 30 171 17 90 30 170 28 177 -2 8 -64 -5 -208 -46 -113 -32 -205 -57 -206 -56 -1 1 -46 182 -101 402 l-99 400 -52 -215z"
       id="path838" />
  </g>
  <path
     style="fill:#ff0000;stroke:#ff0000;stroke-width:1.96676;fill-opacity:1;stroke-opacity:1"
     d="m 247.52909,465.57589 c -3.50708,-4.6189 -7.90269,-10.00185 -9.76803,-11.96213 l -3.39152,-3.56413 -1.89817,1.10373 c -1.044,0.60706 -4.27348,3.33283 -7.17662,6.05726 -3.05233,2.86444 -5.49409,4.73072 -5.78978,4.42522 -0.28123,-0.29057 -4.39982,-6.6351 -9.15242,-14.09896 -4.7526,-7.46387 -9.01824,-13.95597 -9.4792,-14.4269 -0.96288,-0.98371 -12.18204,-0.53265 -50.12098,2.0151 -11.68257,0.78453 -24.45644,1.60679 -28.38637,1.82724 l -7.14532,0.40082 -0.33642,-13.19902 c -0.18502,-7.25947 -0.51909,-13.79815 -0.74237,-14.53041 -0.51012,-1.67303 -3.14437,-2.45929 -16.197102,-4.83449 -18.038173,-3.28239 -54.842203,-8.09342 -86.144211,-11.26081 -3.7319326,-0.37762 -6.8593291,-0.7563 -6.9497702,-0.84151 -0.4318071,-0.40678 14.7072682,-4.33368 35.3061622,-9.15799 27.308787,-6.39579 34.168675,-8.26176 34.949903,-9.50681 1.372484,-2.18733 -0.812045,-5.24932 -13.430223,-18.82474 -3.16715,-3.40741 -6.003104,-6.83473 -6.302118,-7.61627 -0.79835,-2.08663 1.177505,-3.85005 11.072576,-9.88207 4.640954,-2.82912 9.565471,-6.11482 10.943365,-7.30155 l 2.505263,-2.15769 -0.757355,-2.59949 c -0.416543,-1.42973 -2.725108,-7.53113 -5.130142,-13.55867 -2.405034,-6.02754 -4.534377,-11.76711 -4.731872,-12.7546 -0.446988,-2.23492 -0.588034,-2.19396 11.825175,-3.43409 11.661755,-1.16506 14.715449,-1.80748 16.6981,-3.51288 1.476871,-1.27036 1.511182,-1.41866 0.635455,-2.74691 -1.240807,-1.88199 -15.983693,-17.60365 -36.434521,-38.8534 -23.663316,-24.58773 -31.59896,-33.31517 -30.498194,-33.54122 1.144635,-0.23505 10.106705,1.55142 41.28874,8.23038 13.587072,2.91024 28.104329,5.86799 32.260549,6.57276 7.46711,1.2662 7.57171,1.2679 8.8138,0.14383 0.90055,-0.81499 1.15495,-1.54414 0.89715,-2.57133 -0.63355,-2.52424 -11.66827,-25.18978 -34.332172,-70.51892 -12.146304,-24.29333 -21.951897,-44.30199 -21.790207,-44.46368 0.161691,-0.16169 13.651462,5.02209 29.977265,11.51952 33.153164,13.19446 42.320144,16.6359 44.313144,16.6359 3.01335,0 3.44003,-2.55957 1.84535,-11.06981 -0.51185,-2.73155 -0.80406,-5.09304 -0.64936,-5.24774 0.3614,-0.3614 5.91148,2.02594 18.1008,7.78597 6.34862,3.00003 10.6867,4.69231 12.46975,4.86444 2.67136,0.25789 2.74828,0.21827 3.34298,-1.72212 0.33479,-1.09236 0.75788,-2.9154 0.94021,-4.0512 0.40861,-2.54542 1.8598,-25.72907 2.75151,-43.95715 0.93846,-19.183649 0.51353,-18.52241 6.22403,-9.685265 2.6034,4.028829 6.65909,10.518132 9.01263,14.420671 5.74721,9.529754 10.63793,16.270174 12.60361,17.370394 3.20125,1.79177 4.03192,0.38908 13.4405,-22.695829 3.30653,-8.112897 10.60557,-26.035023 16.22009,-39.826947 11.06769,-27.187488 17.79,-43.0903255 18.53408,-43.8457077 0.55973,-0.5682252 6.20222,15.7271377 18.5532,53.5811837 14.2843,43.7794 22.21095,66.53114 23.73411,68.12367 1.38957,1.45286 4.5816,0.0899 14.25991,-6.08875 4.95254,-3.16171 9.25719,-5.59246 9.56588,-5.40168 0.30869,0.19079 2.60586,2.79335 5.10483,5.78348 6.54085,7.82644 10.93411,12.22193 12.21571,12.22193 1.42363,0 12.76533,-11.14563 38.29966,-37.637582 11.03801,-11.451964 20.18602,-20.704837 20.32891,-20.561944 0.14289,0.142893 -2.29676,12.96435 -5.42145,28.492126 -5.96506,29.64266 -7.1369,38.07171 -5.38625,38.7435 1.56594,0.60091 9.35373,-0.98185 38.92537,-7.91102 48.98077,-11.47708 50.53619,-11.81305 50.53619,-10.91556 0,0.45069 -6.57501,7.70963 -23.19147,25.60386 -14.37174,15.47689 -24.7171,27.18457 -26.83343,30.36699 -2.143,3.22249 -1.4431,4.18913 6.07241,8.38676 3.51681,1.96424 6.48738,3.85088 6.60126,4.19252 0.2089,0.62672 -3.39159,4.96453 -15.67988,18.89076 -7.66483,8.68649 -13.6673,16.0713 -14.83228,18.24809 -0.68669,1.2831 -0.66936,1.61972 0.12424,2.41332 1.55162,1.55162 12.03421,2.0046 32.33742,1.3974 10.22225,-0.30571 25.88752,-0.73467 34.8117,-0.95326 l 16.2258,-0.39741 -4.72024,3.80428 c -2.59612,2.09235 -11.15273,8.79914 -19.01467,14.90398 -25.80471,20.03748 -32.89209,25.90378 -33.10398,27.40049 -0.24344,1.71966 1.78326,3.99031 3.9304,4.40348 0.86678,0.1668 5.02764,-0.19944 9.24635,-0.81386 9.26443,-1.34928 29.98814,-3.50485 30.33745,-3.15553 0.13771,0.13769 -0.27809,0.84671 -0.92398,1.57559 -0.64589,0.72888 -4.07648,4.64104 -7.62353,8.69368 -3.54706,4.05263 -14.8164,16.6645 -25.04299,28.02637 -22.06958,24.51958 -33.97183,38.06229 -38.88059,44.23945 -3.71146,4.67049 -4.49129,7.09551 -2.74722,8.54296 0.91293,0.75767 11.12657,2.86219 63.14854,13.01176 38.2689,7.46632 39.77122,7.77666 38.96512,8.04905 -1.02898,0.34771 -67.28987,12.32814 -97.35476,17.6024 -29.74678,5.21847 -33.10655,5.89601 -34.36918,6.93104 -1.46383,1.19996 -0.65803,3.75574 3.97888,12.61998 2.59403,4.95892 4.49295,9.15433 4.21982,9.32314 -0.27314,0.1688 -13.48069,-0.61887 -29.35013,-1.7504 -31.54227,-2.24904 -46.34338,-2.75902 -47.47572,-1.63582 -0.84982,0.84296 -1.64007,10.71445 -2.10461,26.28988 l -0.34716,11.64008 -6.189,-5.44478 c -9.01721,-7.9329 -14.88462,-12.69914 -17.68454,-14.36559 -2.1407,-1.2741 -2.63084,-1.36611 -3.72119,-0.6985 -0.69067,0.42288 -1.80198,1.64576 -2.4696,2.71751 -0.66762,1.07174 -1.29861,1.86388 -1.40219,1.76029 -0.56516,-0.56515 3.98047,-39.93361 4.75571,-41.18797 0.36345,-0.58808 2.80483,0.8542 17.3698,10.26146 5.33883,3.44826 9.89169,6.07088 10.11746,5.82805 0.22576,-0.24284 0.98402,-4.95525 1.68501,-10.47202 1.44016,-11.33405 1.60249,-12.09671 2.57399,-12.09273 0.94457,0.004 8.28938,3.41675 31.58632,14.67713 10.8229,5.23116 19.86551,9.51119 20.09469,9.51119 0.22918,0 1.68076,-1.72157 3.22572,-3.8257 2.46468,-3.35674 2.7137,-3.95661 2.03139,-4.89357 -0.4277,-0.58732 -3.9896,-4.90618 -7.91532,-9.59745 -3.92573,-4.69128 -8.13363,-9.98991 -9.35088,-11.77475 l -2.21318,-3.24516 2.86056,-0.43416 c 1.5733,-0.23879 14.14485,-1.37086 27.93678,-2.51572 29.27709,-2.43025 30.78542,-2.59992 30.28673,-3.40683 -0.49504,-0.80098 -32.35685,-16.36454 -37.8096,-18.46888 -2.93415,-1.13235 -4.27771,-1.95912 -4.27771,-2.63231 0,-1.4199 1.95867,-3.93668 15.54266,-19.97139 6.70379,-7.91323 12.1887,-14.69805 12.1887,-15.07738 0,-0.65504 -11.32445,-7.48317 -27.94062,-16.84695 -7.28402,-4.10479 -7.54125,-4.3147 -6.49032,-5.2965 0.60187,-0.56227 7.99764,-6.82089 16.43506,-13.90805 8.43741,-7.08716 18.7798,-15.82248 22.98308,-19.41183 l 7.64234,-6.52608 -9.41242,-0.36262 c -5.17683,-0.19944 -17.3424,-0.39857 -27.0346,-0.44252 l -17.62217,-0.0799 0.37585,-1.32756 c 0.73624,-2.60049 6.81409,-36.34294 7.89763,-43.84533 l 1.10264,-7.63469 -1.36131,-0.18546 c -1.8234,-0.24842 -12.67593,2.43237 -34.09918,8.42317 -23.11821,6.46478 -24.25688,6.74557 -25.14055,6.19944 -0.83844,-0.51819 -5.06972,-16.71158 -20.06856,-76.80374 l -10.26482,-41.12556 -4.73177,0.34827 c -2.60247,0.19155 -4.83596,0.43761 -4.96333,0.5468 -0.12736,0.10919 -4.14823,16.46762 -8.93526,36.35207 -10.78397,44.79457 -18.22307,74.33446 -18.89958,75.04818 -0.68522,0.72291 -8.08033,-1.47873 -41.55699,-12.3722 -36.16859,-11.76942 -39.78856,-12.89183 -40.2122,-12.46818 -0.45144,0.45144 1.27978,4.78143 13.37116,33.44306 10.40033,24.65314 13.25224,31.78136 12.86874,32.16487 -0.24236,0.24234 -23.39609,-3.63557 -47.3907,-7.93727 -15.87989,-2.8469 -20.356,-3.40672 -20.356,-2.5459 0,0.65416 13.45845,13.6032 34.8117,33.49408 25.83446,24.0652 39.07107,37.04456 38.2482,37.50487 -1.09757,0.61399 -14.76652,2.50644 -36.18309,5.0095 -10.06,1.17576 -19.35295,2.3188 -20.65101,2.54009 -5.00319,0.85292 -3.16834,2.40319 18.14348,15.3294 8.21509,4.98268 16.31312,10.04262 17.9956,11.24432 l 3.05907,2.18489 -4.77738,3.77053 c -2.62756,2.0738 -9.4558,7.18158 -15.17386,11.35061 -5.71807,4.16902 -10.46934,7.78679 -10.55839,8.03948 -0.2829,0.80271 8.53779,1.88993 31.72845,3.91078 13.40855,1.16843 21.24111,2.12086 21.24075,2.58286 -1.6e-4,0.20331 -1.26453,1.4584 -2.80972,2.78907 -1.54519,1.33067 -3.31535,3.35883 -3.93369,4.50702 -1.31384,2.43965 -0.8658,4.07151 2.06357,7.51596 l 1.74496,2.05178 5.45027,-1.98013 c 10.68842,-3.88318 25.54597,-8.83623 27.63985,-9.21428 2.54045,-0.45867 1.95466,-1.63855 8.79349,17.71137 5.95654,16.85357 6.43395,17.99588 7.52106,17.99588 0.50004,0 3.72375,-2.72837 7.16379,-6.06304 3.44005,-3.33467 6.83644,-6.54786 7.54754,-7.14042 l 1.2929,-1.07738 3.65758,7.28793 c 2.01167,4.00836 6.26629,12.82076 9.45472,19.58311 l 5.79713,12.29519 -2.83313,5.64355 -2.83313,5.64355 z"
     id="path965"
     transform="scale(0.75)" />
  <path
     style="fill:#ffe15f;fill-opacity:1;stroke:#ffe15f;stroke-width:1.96676;stroke-opacity:1"
     d="m 249.5822,415.1867 -5.60527,-12.13846 -7.79262,7.7552 c -5.292,5.26659 -7.89128,7.48192 -8.10008,6.90357 -0.1691,-0.4684 -1.8017,-5.2326 -3.62798,-10.58711 -1.82628,-5.35451 -4.25861,-11.7932 -5.40519,-14.3082 -2.01011,-4.40918 -2.15702,-4.57272 -4.10773,-4.57272 -1.11268,0 -5.2034,1.09408 -9.09049,2.4313 -3.88708,1.33722 -7.19887,2.29985 -7.35954,2.13919 -0.16066,-0.16066 0.38259,-1.09394 1.20721,-2.07396 0.82463,-0.98001 1.49933,-2.17395 1.49933,-2.6532 0,-1.08451 -0.76386,-1.18611 -23.30614,-3.09985 -18.21855,-1.54668 -22.3628,-2.1903 -21.9849,-3.41432 0.11962,-0.38749 3.63913,-3.29214 7.82112,-6.45478 8.31371,-6.28726 10.91862,-8.57525 10.91862,-9.59022 0,-0.73753 -7.43401,-5.72535 -18.08467,-12.13385 -7.34753,-4.421 -9.80931,-6.30189 -9.30858,-7.11209 0.61055,-0.98789 5.08665,-1.71287 23.26358,-3.76793 21.11311,-2.38702 26.03615,-3.09071 26.77809,-3.82759 0.30226,-0.3002 -0.24974,-1.49361 -1.31007,-2.8324 -2.54303,-3.21084 -18.02604,-18.20199 -42.15111,-40.81207 -11.24007,-10.53424 -20.36834,-19.22131 -20.28504,-19.30461 0.0833,-0.0833 10.75833,1.79613 23.72228,4.17652 29.75973,5.46438 29.17609,5.37898 29.17609,4.26938 0,-0.83535 -2.58437,-7.21045 -11.51337,-28.401 -7.04476,-16.71883 -13.8872,-33.50411 -13.72279,-33.66355 0.24559,-0.23819 16.43049,4.82808 37.33176,11.68575 23.08686,7.57476 31.79782,10.14613 32.91692,9.71669 0.88946,-0.34132 3.45331,-10.42949 17.6103,-69.29274 3.99764,-16.62174 7.43567,-29.89739 7.64008,-29.50144 0.20441,0.39594 6.15483,24.01866 13.22316,52.49493 10.50118,42.30629 13.02804,51.77503 13.81684,51.77503 0.53094,0 10.11914,-2.54216 21.30712,-5.64925 20.76161,-5.76584 29.27986,-7.88593 31.77585,-7.90864 1.35139,-0.0123 1.38878,0.1024 1.00567,3.08488 -0.21885,1.70371 -1.99367,12.08819 -3.94405,23.07661 -1.95038,10.98843 -3.37649,20.14863 -3.16913,20.35599 0.61787,0.61786 9.88155,1.15368 21.51975,1.24471 6.00354,0.047 11.92447,0.26922 13.15761,0.4939 l 2.24209,0.40852 -6.07728,5.01524 c -17.22389,14.21396 -30.57185,26.16715 -30.55286,27.36031 0.0139,0.87034 3.03672,2.81532 17.98528,11.5721 13.79372,8.08027 17.40585,10.41643 17.40585,11.25728 0,0.31381 -4.72045,6.20872 -10.48989,13.09979 -14.58465,17.42005 -17.24146,20.78487 -17.24146,21.83613 0,0.58897 3.38142,2.64345 9.47159,5.75474 5.20937,2.66131 9.38355,4.92678 9.27595,5.03438 -0.48254,0.48254 -8.92332,1.49682 -21.69769,2.60727 -17.92425,1.55813 -19.47095,1.7716 -19.47095,2.6873 0,0.4138 2.92064,4.52054 6.49032,9.1261 3.56967,4.60555 6.49031,8.49888 6.49031,8.65184 0,0.57307 -3.10207,-0.76289 -20.06098,-8.63959 -9.57321,-4.44636 -17.86779,-8.25006 -18.43239,-8.45266 -1.32514,-0.47553 -1.43125,0.0145 -2.5198,11.63678 -0.4838,5.16541 -0.95719,9.46923 -1.05199,9.56402 -0.0948,0.0948 -4.21767,-2.57887 -9.16193,-5.9415 -9.01749,-6.13284 -16.07178,-10.56876 -17.90048,-11.2563 -0.64396,-0.24211 -1.09332,-2e-5 -1.31241,0.70706 -0.18323,0.59137 -1.01112,7.58028 -1.83975,15.53092 -0.82862,7.95064 -1.56561,14.82006 -1.63774,15.26538 -0.0721,0.44533 -2.65352,-4.65263 -5.73642,-11.32878 z"
     id="path1152"
     transform="scale(0.75)" />
</svg>
