<?xml version="1.0" standalone="no"?>
<!DOCTYPE svg PUBLIC "-//W3C//DTD SVG 20010904//EN"
 "http://www.w3.org/TR/2001/REC-SVG-20010904/DTD/svg10.dtd">
<svg version="1.0" xmlns="http://www.w3.org/2000/svg"
 width="154.000000pt" height="302.000000pt" viewBox="0 0 154.000000 302.000000"
 preserveAspectRatio="xMidYMid meet">

<g transform="translate(0.000000,302.000000) scale(0.100000,-0.100000)"
fill="#000000" stroke="none">
<path d="M620 2980 c0 -5 5 -10 10 -10 6 0 10 5 10 10 0 6 -4 10 -10 10 -5 0
-10 -4 -10 -10z"/>
<path d="M364 2960 c-12 -5 -25 -13 -29 -19 -10 -17 -38 -13 -32 4 5 10 -3 9
-31 -6 -40 -23 -92 -68 -92 -81 0 -25 124 9 176 47 21 17 49 25 94 28 56 5 72
2 120 -21 30 -15 61 -33 69 -40 18 -18 47 -10 43 11 -2 14 5 17 47 17 68 0 73
17 9 25 -29 4 -64 14 -77 22 -34 22 -191 24 -215 3 -16 -13 -20 -12 -31 3 -14
19 -20 20 -51 7z"/>
<path d="M350 2875 c-25 -12 -43 -26 -40 -31 3 -5 -23 -12 -58 -16 -90 -10
-121 -31 -149 -102 -21 -56 -22 -61 -8 -132 8 -41 21 -87 29 -102 8 -15 21
-38 27 -52 21 -42 84 -95 128 -108 22 -7 41 -16 41 -20 0 -4 -12 -16 -27 -27
-71 -53 -109 -118 -92 -160 14 -36 10 -179 -7 -236 -11 -35 -17 -100 -19 -189
-1 -74 -5 -142 -8 -150 -25 -68 -38 -131 -47 -227 -6 -61 -14 -133 -19 -160
-5 -26 -10 -68 -10 -93 0 -25 -11 -76 -24 -115 -14 -38 -28 -89 -32 -112 -6
-41 -6 -42 30 -57 20 -9 71 -17 113 -20 l77 -3 -1 -44 c-1 -24 -13 -75 -28
-112 -30 -77 -31 -95 -27 -332 2 -93 2 -177 0 -185 -2 -8 3 -15 11 -15 8 0 31
-12 50 -27 29 -22 48 -27 117 -31 63 -4 85 -2 94 9 6 8 18 14 25 14 8 0 14 7
14 15 0 8 5 15 10 15 6 0 10 -6 10 -12 0 -9 3 -9 9 1 6 9 6 23 -1 35 -19 34
-8 237 21 391 5 28 16 88 24 135 20 113 23 118 65 127 48 10 204 10 265 0 44
-8 47 -7 47 13 0 18 4 20 38 15 20 -4 59 -2 87 4 30 6 56 6 67 0 24 -13 109
22 119 49 6 17 1 29 -22 54 -23 26 -28 39 -24 63 2 16 2 24 -1 18 -11 -24 -29
-12 -84 58 -67 85 -130 148 -130 130 0 -20 38 -78 64 -98 25 -20 61 -71 54
-78 -2 -2 -16 2 -31 10 -26 13 -27 13 -21 -11 13 -50 -42 -12 -102 73 -56 78
-105 199 -129 314 -23 113 -105 287 -105 222 0 -10 11 -51 24 -93 59 -186 69
-220 63 -227 -4 -3 -7 -1 -7 6 0 7 -9 26 -20 42 -12 15 -34 65 -50 110 -18 49
-39 88 -54 100 -15 12 -29 38 -37 71 -15 67 -53 128 -79 128 -30 0 -32 -15 -5
-51 13 -19 32 -44 41 -57 18 -25 47 -132 35 -132 -4 0 -15 14 -25 31 -10 17
-31 43 -46 58 -32 31 -51 63 -65 111 -8 27 -17 36 -40 40 -65 11 -23 34 80 43
31 3 59 8 63 12 9 8 -18 25 -41 25 -21 0 -77 30 -77 41 0 4 12 9 28 11 26 3
26 4 -15 26 -24 12 -43 27 -43 32 0 13 36 13 61 0 15 -9 19 -7 19 6 0 16 18
15 64 -2 9 -3 16 -2 16 4 0 9 -29 22 -60 27 -8 1 -30 10 -48 19 -27 14 -31 20
-21 32 6 8 18 14 25 14 17 0 19 16 3 25 -6 4 -8 13 -5 21 3 7 1 16 -4 19 -24
15 -7 25 30 19 l41 -7 -3 32 c-2 23 -10 37 -30 49 -15 9 -28 25 -30 36 -2 15
-12 22 -30 24 -32 4 -32 2 -17 -65 13 -54 7 -70 -95 -286 -43 -90 -47 -106
-52 -195 -6 -95 -5 -98 20 -124 15 -16 38 -28 51 -28 24 0 65 -41 65 -66 0
-22 -17 -16 -38 14 l-21 27 -8 -24 -9 -23 -17 26 c-9 14 -17 28 -17 30 0 3
-13 27 -28 53 -45 77 -72 154 -70 203 1 45 19 78 71 134 13 14 28 50 35 87 8
35 20 83 28 106 18 49 11 83 -17 83 -10 0 -19 5 -19 10 0 14 46 31 65 24 20
-8 19 15 -2 38 -15 17 -14 18 20 18 20 0 39 -4 42 -10 3 -5 18 -10 33 -10 26
1 26 1 8 15 -11 8 -28 15 -37 15 -22 0 -69 21 -69 31 0 4 17 3 38 -2 20 -5 58
-9 83 -9 41 0 48 3 58 28 7 17 39 45 87 75 72 45 90 74 38 61 -15 -4 -34 0
-50 11 -22 14 -25 21 -19 53 l6 37 -83 3 c-45 1 -87 7 -92 12 -7 7 1 10 22 10
33 0 43 14 17 24 -8 3 -37 8 -65 12 -43 6 -50 4 -50 -11 0 -18 -3 -17 -52 7
-37 18 -35 28 5 28 21 0 41 8 52 20 18 20 15 23 -15 21 -19 -1 -46 16 -38 24
9 10 48 11 78 2 21 -5 26 -3 26 14 0 14 -9 22 -28 26 -35 7 -26 23 12 23 16 0
32 5 35 10 6 11 -24 14 -86 11 -20 -2 -40 2 -44 8 -4 7 12 11 49 11 58 0 75
10 51 30 -8 7 -15 21 -15 31 0 25 -32 23 -90 -6z"/>
<path d="M512 2868 c5 -15 57 -18 61 -3 1 6 -13 11 -32 13 -24 3 -32 0 -29
-10z"/>
<path d="M670 2779 c17 -24 30 -54 30 -72 0 -24 3 -28 18 -22 9 4 37 14 62 22
87 30 88 32 20 33 l-65 2 50 24 c50 23 68 51 30 46 -29 -4 -53 -3 -118 3 l-58
6 31 -42z"/>
<path d="M1421 2676 c-79 -81 -238 -173 -400 -232 -53 -19 -116 -48 -141 -63
-25 -16 -54 -31 -65 -34 -82 -22 -195 -60 -195 -66 0 -4 23 -31 51 -61 28 -30
67 -77 86 -105 20 -27 32 -41 28 -30 -15 44 -17 81 -3 91 7 6 64 32 127 59 76
33 141 70 200 113 133 100 171 122 211 122 19 0 46 -7 58 -16 42 -29 58 12 21
53 -26 27 -20 38 46 80 63 40 84 94 28 72 -34 -13 -35 -12 -23 12 21 37 5 40
-29 5z"/>
<path d="M600 2671 c-14 -4 -20 -10 -14 -13 13 -9 54 1 54 13 0 10 -4 10 -40
0z"/>
<path d="M715 2600 c-3 -5 1 -10 9 -10 8 0 18 5 21 10 3 6 -1 10 -9 10 -8 0
-18 -4 -21 -10z"/>
<path d="M728 2555 c-8 -9 3 -45 13 -45 5 0 9 6 9 13 0 17 -15 39 -22 32z"/>
<path d="M300 1810 c0 -5 7 -10 16 -10 8 0 12 5 9 10 -3 6 -10 10 -16 10 -5 0
-9 -4 -9 -10z"/>
<path d="M810 1810 c0 -5 5 -10 10 -10 6 0 10 5 10 10 0 6 -4 10 -10 10 -5 0
-10 -4 -10 -10z"/>
<path d="M688 1788 c9 -9 15 -9 24 0 9 9 7 12 -12 12 -19 0 -21 -3 -12 -12z"/>
<path d="M731 1751 c-11 -7 -10 -15 8 -44 11 -19 28 -54 36 -77 8 -24 24 -50
35 -57 11 -8 20 -22 20 -32 0 -10 14 -55 30 -101 17 -46 30 -91 30 -102 0 -23
20 -24 20 0 1 15 2 15 15 -2 23 -30 18 -1 -10 57 -13 29 -29 77 -34 107 -18
100 -23 114 -58 188 -35 73 -55 87 -92 63z"/>
<path d="M670 1708 c0 -32 9 -58 21 -58 10 0 0 61 -12 75 -5 5 -9 -2 -9 -17z"/>
<path d="M220 30 c0 -5 7 -10 16 -10 8 0 12 5 9 10 -3 6 -10 10 -16 10 -5 0
-9 -4 -9 -10z"/>
</g>
</svg>
