<?xml version="1.0" encoding="UTF-8" standalone="no"?>
<svg
   version="1.0"
   width="210.000000pt"
   height="152.000000pt"
   viewBox="0 0 210.000000 152.000000"
   preserveAspectRatio="xMidYMid meet"
   id="svg3151"
   sodipodi:docname="mouton.svg"
   inkscape:version="1.1.1 (3bf5ae0d25, 2021-09-20)"
   xmlns:inkscape="http://www.inkscape.org/namespaces/inkscape"
   xmlns:sodipodi="http://sodipodi.sourceforge.net/DTD/sodipodi-0.dtd"
   xmlns="http://www.w3.org/2000/svg"
   xmlns:svg="http://www.w3.org/2000/svg">
  <defs
     id="defs3155" />
  <sodipodi:namedview
     id="namedview3153"
     pagecolor="#505050"
     bordercolor="#eeeeee"
     borderopacity="1"
     inkscape:pageshadow="0"
     inkscape:pageopacity="0"
     inkscape:pagecheckerboard="0"
     inkscape:document-units="pt"
     showgrid="false"
     inkscape:zoom="3.9917763"
     inkscape:cx="139.91265"
     inkscape:cy="101.33333"
     inkscape:window-width="1920"
     inkscape:window-height="1017"
     inkscape:window-x="-8"
     inkscape:window-y="-8"
     inkscape:window-maximized="1"
     inkscape:current-layer="svg3151" />
  <metadata
     id="metadata3145">
Created by potrace 1.10, written by Peter Selinger 2001-2011
</metadata>
  <g
     transform="translate(0.000000,152.000000) scale(0.100000,-0.100000)"
     fill="#000000"
     stroke="none"
     id="g3149">
    <path
       d="M404 1474 c-19 -19 -34 -42 -34 -50 0 -8 -4 -14 -10 -14 -5 0 -10 -4 -10 -10 0 -22 30 -8 59 27 27 33 30 34 26 12 -6 -30 7 -52 32 -54 11 0 37 -11 58 -24 29 -17 48 -21 82 -17 38 3 46 1 60 -20 8 -13 29 -28 46 -32 32 -8 37 -15 58 -70 14 -39 41 -57 67 -44 28 15 102 25 102 14 0 -15 50 -24 66 -11 17 14 75 14 103 0 22 -12 74 -5 66 9 -3 5 7 6 22 4 16 -3 59 -7 97 -8 57 -2 74 1 101 19 32 23 88 32 220 39 39 2 75 5 81 7 11 5 84 -22 84 -30 0 -3 14 -7 30 -8 35 -3 54 -18 65 -52 9 -29 36 -61 51 -61 7 0 22 -12 33 -27 31 -42 42 -56 64 -80 19 -22 19 -24 3 -67 -13 -34 -15 -50 -7 -65 15 -28 14 -64 -4 -87 -8 -10 -15 -37 -15 -59 0 -53 -10 -66 -47 -63 -43 3 -58 -13 -73 -79 -8 -32 -20 -64 -27 -71 -7 -7 -13 -20 -13 -28 0 -8 -4 -14 -9 -14 -5 0 -15 -14 -24 -32 -13 -27 -13 -34 -1 -53 8 -12 21 -60 29 -106 8 -46 21 -109 28 -139 17 -68 13 -80 -25 -80 -25 0 -28 3 -23 21 10 32 8 144 -3 165 -6 11 -25 48 -43 84 -18 36 -41 74 -51 84 -16 18 -20 18 -33 5 -9 -9 -20 -40 -25 -70 -6 -30 -15 -79 -20 -109 -6 -30 -14 -76 -18 -102 -10 -57 -25 -76 -55 -73 -12 1 -23 3 -24 4 -1 0 11 29 27 64 56 123 72 228 48 311 -24 84 -47 91 -161 50 -39 -14 -88 -30 -107 -35 -140 -34 -170 -41 -205 -46 -62 -9 -162 -5 -184 7 -29 15 -57 12 -105 -10 -75 -34 -73 -23 -35 -210 5 -25 12 -67 16 -93 l6 -48 -33 3 -32 3 0 94 c0 71 -5 107 -21 150 -30 79 -48 104 -69 96 -32 -12 -35 -44 -23 -225 l7 -107 -28 -7 c-34 -9 -45 6 -33 47 13 46 12 176 -1 232 -16 62 -32 81 -75 89 -23 5 -46 20 -70 48 -19 23 -35 46 -35 51 0 5 -6 23 -14 40 -20 46 -43 123 -56 192 -6 33 -16 79 -21 102 -5 23 -9 58 -9 77 0 39 -25 113 -46 135 -21 23 -95 18 -130 -8 -34 -25 -61 -20 -66 12 -3 20 15 71 42 119 6 10 10 25 10 33 0 9 5 13 10 10 6 -3 10 -1 10 4 0 14 74 91 87 91 14 0 50 42 58 68 6 22 25 31 25 11 0 -20 18 1 23 28 11 57 -19 71 -52 24 -12 -16 -21 -35 -21 -43 0 -7 -15 -24 -33 -38 -59 -46 -137 -133 -137 -154 0 -8 -4 -16 -8 -18 -12 -5 -52 -108 -52 -135 0 -35 47 -76 80 -68 14 4 32 12 40 19 22 20 68 28 89 17 19 -11 30 -49 37 -131 5 -58 33 -209 43 -235 5 -11 14 -38 20 -60 28 -92 51 -134 98 -182 31 -31 51 -43 72 -43 36 0 42 -15 56 -135 5 -42 2 -85 -9 -139 -9 -43 -16 -82 -16 -87 0 -5 25 -9 55 -9 36 0 55 4 55 12 0 9 3 9 12 0 7 -7 15 -12 19 -12 9 0 1 209 -11 284 -5 32 -7 63 -4 67 11 19 24 8 24 -21 0 -16 8 -48 17 -72 18 -45 23 -146 10 -216 l-7 -42 81 0 c73 0 80 2 74 17 -3 10 -9 36 -11 58 -3 22 -12 72 -20 110 -8 39 -14 80 -14 91 0 12 -7 27 -15 34 -17 14 -10 34 10 26 7 -2 27 5 45 16 29 17 36 18 58 6 32 -17 219 -16 288 1 79 20 127 33 154 41 43 14 55 17 62 19 4 1 24 9 45 17 20 9 51 17 68 19 16 2 25 1 19 -1 -9 -4 -8 -12 1 -32 22 -45 25 -92 9 -165 -16 -76 -86 -237 -103 -237 -6 0 -11 -4 -11 -10 0 -15 127 -13 134 3 5 9 7 9 12 0 11 -25 21 -12 32 39 12 56 25 126 27 143 1 6 5 28 9 50 5 22 8 64 7 93 -1 31 3 52 9 52 6 0 9 -4 5 -9 -3 -5 -1 -12 5 -16 5 -3 10 -14 10 -23 0 -9 16 -48 35 -86 42 -84 48 -160 15 -214 -11 -18 -20 -35 -20 -37 0 -3 29 -5 65 -5 44 0 65 4 65 12 0 9 3 9 12 0 7 -7 16 -12 21 -12 9 0 7 22 -14 118 -5 23 -14 63 -19 90 -6 26 -12 54 -14 62 -3 8 -5 27 -5 43 -1 15 -10 36 -22 48 -20 20 -20 21 -2 34 27 19 83 136 83 173 0 29 2 30 33 26 49 -7 81 23 82 78 1 24 9 58 18 77 21 41 21 70 2 95 -12 16 -12 21 0 40 27 37 19 84 -22 132 -21 23 -48 56 -61 73 -13 17 -32 31 -43 31 -10 0 -18 3 -18 8 4 26 -5 47 -30 73 -23 23 -39 29 -70 29 -23 0 -41 4 -41 9 0 5 -16 17 -36 26 -30 14 -44 15 -73 7 -20 -6 -57 -8 -82 -5 -29 3 -49 1 -53 -6 -4 -6 -30 -11 -58 -11 -39 0 -57 -5 -75 -22 -19 -18 -33 -21 -95 -18 -106 3 -129 2 -142 -9 -8 -7 -26 -5 -54 4 -41 14 -56 13 -99 -7 -17 -8 -26 -8 -39 2 -20 17 -110 18 -126 2 -22 -22 -38 -13 -38 21 0 38 -29 72 -72 82 -15 4 -35 18 -45 31 -15 20 -26 24 -74 24 -44 0 -60 4 -75 21 -14 16 -26 19 -51 14 -34 -6 -47 10 -18 21 18 7 19 33 1 57 -18 24 -24 22 -62 -19z"
       id="path3147" />
  </g>
  <path
     style="fill:none;stroke:#000000;stroke-width:0.75px;stroke-linecap:butt;stroke-linejoin:miter;stroke-opacity:1"
     d="m 35.134734,12.024722 c -1.824973,-1.917367 -1.06726,0.323153 -0.751545,0.375773 0.276274,0.04604 0.855566,-0.115722 0.751545,-0.375773 -0.156031,-0.390078 -0.74116,-0.398163 -1.127318,-0.563659 -0.441676,-0.18929 0.293926,0.269733 0.187887,0.375772 -0.281478,0.281478 -0.783964,-0.298038 -0.939432,-0.375772"
     id="path3270" />
  <path
     style="fill:#000000;stroke:#000000;stroke-width:0.83505"
     d="m 106.96992,195.51655 c -1.58451,-0.17308 -2.9091,-0.32608 -2.94355,-0.34001 -0.0345,-0.0139 -0.066,-2.7027 -0.0702,-5.97506 -0.01,-7.7106 -0.38258,-15.87825 -0.855,-18.73347 -1.20063,-7.25629 -6.099352,-18.56397 -8.7398,-20.17399 -1.673857,-1.02064 -3.83879,-0.38704 -5.106817,1.49459 -1.863088,2.76463 -1.97372,8.68221 -0.566502,30.30169 0.424773,6.52594 0.719311,11.91834 0.654525,11.98313 -0.23954,0.23954 -4.821913,1.31843 -5.620375,1.32328 -1.34276,0.008 -2.244169,-0.6112 -2.595326,-1.78326 -0.262206,-0.87517 -0.238555,-1.3651 0.154125,-3.19261 0.949286,-4.41791 1.125226,-5.7836 1.380769,-10.71787 0.438686,-8.47066 -0.258216,-18.53229 -1.605674,-23.18209 -1.239558,-4.27745 -2.276971,-6.32953 -4.005187,-7.92255 -1.426345,-1.31475 -2.17282,-1.67944 -4.958822,-2.42261 -3.336417,-0.88998 -5.210811,-1.92985 -7.663461,-4.25149 -3.236834,-3.06393 -7.059521,-8.21337 -7.061463,-9.51229 -4.23e-4,-0.28368 -0.735797,-2.31948 -1.634164,-4.52401 -3.408576,-8.36442 -5.600109,-16.04465 -8.113411,-28.433459 -0.82458,-4.064607 -1.787299,-8.766268 -2.139373,-10.448136 -0.729194,-3.483384 -1.389577,-8.722012 -1.389577,-11.02311 0,-5.309711 -3.664474,-15.660334 -6.395313,-18.064114 -1.435678,-1.263735 -2.462585,-1.570706 -5.780622,-1.728 -4.360267,-0.206697 -8.002338,0.684448 -11.158494,2.730269 -3.420747,2.217331 -5.502075,2.724579 -7.123198,1.736019 -0.857346,-0.522808 -1.602103,-1.881028 -1.786585,-3.258206 -0.290616,-2.169486 1.454839,-7.328382 4.627325,-13.676601 1.684319,-3.370364 2.334019,-5.304122 2.556643,-7.609557 0.0048,-0.04978 0.411846,-0.01488 0.904532,0.07754 0.990327,0.185787 1.609358,-0.147681 1.609358,-0.866953 0,-0.747612 2.185785,-3.472897 5.490923,-6.846207 3.465089,-3.536559 4.895525,-4.692924 6.408542,-5.180666 2.082326,-0.671266 6.119977,-5.584736 7.340902,-8.933239 1.093964,-3.000299 3.055472,-3.913981 3.055472,-1.423257 0,0.820981 1.395957,2.094768 2.29568,2.094768 0.374512,0 0.758564,0.125614 0.853452,0.279144 0.31035,0.502159 2.031354,0.05147 3.483081,-0.912129 0.775965,-0.515057 2.278539,-1.896791 3.339049,-3.070521 1.060511,-1.173729 2.398862,-2.65155 2.974113,-3.284046 0.57525,-0.6324961 1.114135,-1.0817677 1.197519,-0.9983815 0.08339,0.083386 0.02709,0.9542115 -0.125115,1.9351675 -0.38209,2.462624 7.52e-4,4.257612 1.188759,5.57251 0.897919,0.993888 1.470907,1.2346 4.152655,1.744524 0.857215,0.162996 2.644765,0.895234 4.384014,1.795831 7.214945,3.73596 7.321978,3.763807 13.59273,3.536396 5.288327,-0.191783 5.596383,-0.09633 7.440815,2.305693 2.007067,2.613822 3.794371,3.804422 7.278685,4.848644 3.110252,0.93212 4.106211,2.204484 6.563801,8.385432 1.25346,3.152514 2.25069,4.717021 3.72881,5.849972 1.96201,1.50384 3.51071,1.60969 6.19336,0.423301 2.40284,-1.062655 6.19909,-1.87242 9.52615,-2.031993 l 3.0383,-0.145725 0.34365,0.724046 c 0.55649,1.172486 2.40807,1.932491 5.01129,2.056952 2.1065,0.100714 2.25729,0.07072 4.02128,-0.79984 3.25071,-1.604283 8.35681,-1.767401 12.19084,-0.389443 3.46623,1.245769 3.61779,1.274849 6.08514,1.167596 2.79734,-0.121603 4.04658,-0.641056 4.17577,-1.73636 0.10552,-0.894587 0.61913,-0.971858 3.75653,-0.565165 6.57421,0.852203 17.37101,1.175911 20.3698,0.610729 1.36977,-0.258161 3.63761,-1.281801 6.3597,-2.870595 1.71834,-1.002934 4.41178,-1.941667 7.13968,-2.488363 4.23343,-0.848417 8.69035,-1.270019 24.13216,-2.282773 3.2834,-0.215343 6.5077,-0.49354 7.16511,-0.618214 1.39342,-0.26426 2.95597,0.04338 6.40524,1.261088 2.75394,0.972231 4.01455,1.596299 5.05181,2.500909 0.60133,0.524423 1.23726,0.759923 2.63041,0.9741 3.53723,0.543796 4.42393,0.748817 5.57143,1.288206 1.6663,0.783253 3.21552,2.631949 4.13516,4.934518 1.32517,3.317929 2.34494,5.075214 3.96001,6.823949 1.48899,1.612232 2.14288,2.039225 3.60984,2.357269 1.11565,0.24188 3.13643,2.315881 6.22693,6.390944 1.62815,2.146842 3.94289,5.030666 5.14383,6.408498 3.65639,4.194897 3.66616,4.235165 2.0934,8.642769 -2.27893,6.386603 -2.4596,7.950861 -1.23945,10.730874 1.83505,4.181006 1.53526,7.378923 -1.09432,11.673486 -0.90594,1.47956 -1.40702,3.87221 -1.65608,7.90796 -0.23461,3.80152 -0.41633,4.76307 -1.12779,5.96747 -0.81115,1.37317 -1.64604,1.6454 -5.15864,1.68206 -2.91902,0.0305 -3.28234,0.088 -4.58736,0.72648 -2.37552,1.16224 -3.30969,2.95307 -5.14453,9.86214 -1.43023,5.3855 -2.57964,8.29916 -3.89451,9.87227 -0.63369,0.75815 -1.2561,2.33752 -1.49225,3.78664 -0.12848,0.78834 -0.30675,1.02135 -1.00444,1.31286 -1.01227,0.42296 -2.02078,1.81986 -3.42172,4.7395 -1.51064,3.14825 -1.52391,3.8602 -0.12485,6.69817 1.33271,2.70338 2.52925,6.8643 3.65796,12.72036 2.1212,11.00543 2.88794,14.79176 3.93155,19.41491 1.7321,7.67314 1.73511,9.67186 0.0159,10.56089 -1.59839,0.82655 -5.7062,0.73381 -6.17352,-0.13939 -0.15862,-0.29638 -0.11913,-0.95654 0.11805,-1.97324 1.11387,-4.77472 1.11359,-16.29088 -5e-4,-20.59824 -0.38917,-1.50462 -7.13924,-14.85231 -9.59894,-18.98108 -2.62984,-4.41436 -4.75311,-6.82197 -6.01629,-6.82197 -0.7568,0 -2.23446,1.38522 -2.91551,2.73312 -1.40054,2.77186 -2.25468,6.59154 -5.27082,23.57096 -0.77097,4.34018 -1.68173,9.46947 -2.02391,11.39844 -0.34218,1.92896 -0.79842,4.12723 -1.01387,4.88504 -0.57184,2.01133 -1.81811,4.20882 -2.81925,4.97105 -0.81492,0.62044 -1.0485,0.66554 -3.44737,0.66554 -1.54765,0 -2.68375,-0.11055 -2.85055,-0.27738 -0.20279,-0.20282 0.54191,-2.15583 2.77016,-7.26494 6.00697,-13.77326 8.25436,-22.49316 8.25436,-32.02699 0,-4.47803 -0.55459,-8.25093 -1.77339,-12.0645 -2.51224,-7.86071 -5.1479,-9.60388 -12.25545,-8.10549 -1.30894,0.27595 -6.49461,1.89464 -11.5237,3.59709 -9.49161,3.21312 -12.17842,3.96617 -24.55047,6.88097 -12.02518,2.83308 -14.14249,3.19959 -20.48502,3.54596 -4.94938,0.27029 -12.33938,-0.0223 -15.37852,-0.60891 -1.01144,-0.19522 -2.74083,-0.71949 -3.84309,-1.16504 -1.71087,-0.69155 -2.3157,-0.81031 -4.1335,-0.81165 -3.13759,-0.002 -5.9973,0.91338 -12.43014,3.98023 -5.89926,2.81246 -6.04108,4.05906 -2.47705,21.77429 1.93113,9.59884 3.88453,21.27782 3.88453,23.22487 0,0.26047 -1.71739,0.19912 -5.26082,-0.18792 z"
     id="path3342"
     transform="scale(0.75)" />
</svg>
