<?xml version="1.0" standalone="no"?>
<!DOCTYPE svg PUBLIC "-//W3C//DTD SVG 20010904//EN"
 "http://www.w3.org/TR/2001/REC-SVG-20010904/DTD/svg10.dtd">
<svg version="1.0" xmlns="http://www.w3.org/2000/svg"
 width="437.000000pt" height="585.000000pt" viewBox="0 0 437.000000 585.000000"
 preserveAspectRatio="xMidYMid meet">

<g transform="translate(0.000000,585.000000) scale(0.100000,-0.100000)"
fill="#000000" stroke="none">
<path d="M2610 5799 c-179 -29 -249 -41 -285 -50 -22 -5 -69 -14 -105 -19 -36
-5 -103 -15 -150 -24 -218 -38 -279 -48 -338 -56 -35 -5 -80 -14 -100 -20 -20
-5 -50 -10 -67 -10 -16 0 -46 -5 -65 -10 -38 -11 -39 -13 -122 -170 -85 -160
-67 -148 -268 -181 -36 -6 -101 -17 -145 -25 -44 -7 -114 -18 -155 -24 -41 -6
-88 -15 -104 -20 -16 -6 -45 -10 -65 -10 -20 0 -67 -6 -106 -14 -38 -8 -115
-22 -170 -31 -165 -28 -244 -64 -290 -133 -87 -132 -70 -282 46 -386 64 -57
128 -79 212 -73 70 6 180 22 247 36 25 5 90 17 145 26 55 9 125 21 155 27 30
6 80 14 110 18 61 7 153 25 247 46 34 8 77 14 95 14 18 0 62 6 98 14 61 14
132 26 360 62 52 9 112 20 133 25 21 6 70 14 110 20 40 5 110 16 157 24 47 8
126 21 175 30 50 8 126 22 170 30 44 8 114 19 155 25 41 5 95 14 120 19 25 6
77 15 115 21 39 7 104 18 145 26 41 8 107 18 145 23 39 5 93 14 120 19 28 6
95 18 150 27 55 9 132 22 170 30 39 7 115 21 170 30 55 9 130 23 166 31 37 8
79 14 95 14 67 0 173 80 215 163 30 57 31 185 3 237 -53 98 -96 133 -200 164
-52 16 -70 17 -110 7 -27 -6 -78 -15 -114 -21 -36 -5 -105 -17 -155 -25 -49
-9 -128 -23 -175 -31 -128 -22 -245 -43 -340 -61 -47 -8 -108 -17 -137 -20
-56 -5 -65 0 -258 142 -112 82 -104 80 -205 64z"/>
<path d="M80 4450 c0 -27 4 -71 10 -97 5 -26 14 -95 20 -153 5 -58 17 -163 25
-235 9 -71 20 -170 25 -220 5 -49 14 -124 19 -165 6 -41 18 -138 26 -215 17
-148 37 -322 60 -520 25 -208 44 -376 60 -515 17 -150 39 -328 56 -465 6 -49
15 -130 19 -180 8 -88 20 -193 41 -345 5 -41 14 -115 19 -165 5 -49 16 -148
25 -220 8 -71 22 -191 31 -265 8 -74 21 -191 29 -260 8 -69 20 -177 26 -240 6
-63 17 -118 23 -122 17 -12 3174 -10 3181 2 3 5 10 56 15 113 5 57 14 141 19
188 12 99 34 296 56 499 8 80 22 197 30 260 8 63 15 131 15 150 0 19 6 89 14
155 18 138 43 364 51 445 3 30 12 114 19 185 8 72 22 198 31 280 9 83 22 206
30 275 8 69 19 172 24 230 6 58 15 141 21 185 5 44 17 148 25 230 9 83 21 188
26 235 6 47 14 130 19 185 5 55 13 138 19 185 6 47 18 148 26 225 8 77 22 195
30 263 9 68 13 127 10 132 -4 6 -782 10 -2091 10 l-2084 0 0 -50z m900 -437
c39 -7 97 -58 122 -106 15 -29 24 -69 29 -127 3 -47 11 -137 18 -200 46 -461
69 -699 75 -775 4 -59 22 -242 36 -375 6 -52 15 -144 20 -205 5 -60 17 -182
25 -270 9 -88 20 -209 25 -270 5 -60 14 -150 20 -200 13 -115 28 -276 40 -434
6 -68 15 -152 20 -185 28 -176 -11 -274 -128 -320 -71 -27 -132 -16 -204 37
-58 43 -74 106 -98 382 -9 106 -24 264 -56 595 -8 85 -19 207 -24 270 -5 63
-14 153 -19 200 -6 47 -18 162 -26 255 -15 166 -30 326 -60 630 -8 83 -21 224
-30 315 -9 91 -20 208 -26 260 -19 176 -27 325 -19 373 5 38 16 57 51 93 46
46 115 76 158 68 13 -3 36 -7 51 -11z m1243 4 c48 -17 94 -61 117 -113 18 -39
19 -104 21 -1640 2 -1593 2 -1599 -19 -1633 -11 -18 -42 -48 -68 -67 -42 -30
-55 -34 -111 -34 -67 0 -113 21 -160 71 -56 62 -53 -39 -53 1695 l0 1594 24
38 c54 86 154 121 249 89z m1218 -2 c100 -36 145 -118 136 -248 -3 -45 -11
-152 -16 -237 -5 -85 -15 -207 -20 -270 -15 -159 -32 -390 -41 -550 -4 -74
-13 -189 -19 -255 -6 -66 -18 -219 -26 -340 -9 -121 -22 -305 -30 -410 -8
-104 -21 -289 -30 -410 -8 -121 -20 -269 -25 -330 -5 -60 -12 -148 -16 -195
-7 -92 -25 -139 -71 -182 -35 -33 -95 -58 -138 -58 -82 0 -187 83 -201 158 -8
39 1 235 16 382 9 89 20 239 40 545 5 72 13 189 19 260 6 72 16 193 22 270 6
77 15 199 19 270 10 164 27 396 41 545 6 63 15 180 19 260 22 375 48 647 66
686 8 17 30 46 49 64 59 57 128 72 206 45z"/>
</g>
</svg>
