<?xml version="1.0" standalone="no"?>
<!DOCTYPE svg PUBLIC "-//W3C//DTD SVG 20010904//EN"
 "http://www.w3.org/TR/2001/REC-SVG-20010904/DTD/svg10.dtd">
<svg version="1.0" xmlns="http://www.w3.org/2000/svg"
 width="417.000000pt" height="226.000000pt" viewBox="0 0 417.000000 226.000000"
 preserveAspectRatio="xMidYMid meet">

<g transform="translate(0.000000,226.000000) scale(0.100000,-0.100000)"
fill="#000000" stroke="none">
<path d="M684 2196 c-189 -63 -328 -147 -429 -258 -128 -141 -195 -315 -195
-503 0 -94 10 -138 51 -221 62 -128 179 -221 339 -271 80 -25 97 -27 275 -27
106 0 212 5 240 12 28 6 100 23 161 37 68 16 122 23 138 19 15 -3 51 -34 84
-71 99 -114 173 -180 214 -196 10 -3 20 -19 23 -34 4 -15 35 -89 71 -163 60
-127 77 -191 55 -204 -5 -3 -14 -35 -21 -72 -10 -51 -10 -68 -1 -77 16 -15 51
25 51 57 0 30 27 66 49 66 27 0 48 -53 56 -136 13 -130 42 -128 47 3 2 52 7
83 14 83 6 0 25 -26 41 -57 30 -58 63 -82 63 -46 0 10 -14 45 -30 78 -30 59
-37 85 -22 85 8 0 52 -66 52 -78 0 -5 9 -17 20 -27 17 -15 20 -16 25 -2 8 20
-12 94 -37 135 -16 26 -18 35 -8 47 15 18 0 40 -32 50 -24 8 -180 203 -173
216 4 5 18 9 33 9 28 0 179 -27 190 -34 4 -2 48 -9 97 -15 77 -9 106 -8 202 9
111 19 111 19 265 -2 171 -23 358 -27 402 -9 24 10 38 8 95 -16 59 -23 79 -26
186 -27 66 0 157 6 202 14 96 16 133 7 133 -33 0 -20 23 -79 36 -96 10 -12 31
23 26 44 -2 13 -1 36 2 50 9 34 41 32 90 -5 44 -33 61 -37 70 -15 3 9 -8 25
-30 41 -24 19 -34 34 -32 48 3 19 11 22 75 26 116 8 130 50 17 50 -56 0 -65 2
-62 17 2 10 16 20 33 23 59 12 95 46 67 64 -9 5 -86 -12 -127 -29 -46 -19
-298 -5 -345 20 -98 50 -172 143 -155 195 7 23 60 40 130 40 28 0 79 7 115 16
36 8 97 16 135 17 65 1 74 -1 127 -36 62 -40 92 -46 102 -20 6 14 12 12 39
-15 18 -18 36 -32 40 -32 12 0 8 28 -10 64 -16 34 -16 37 3 57 15 16 26 19 54
14 109 -19 132 1 46 41 -31 14 -56 30 -56 35 0 10 29 18 85 21 32 2 40 7 40
23 0 17 -8 20 -56 23 -44 2 -66 -3 -106 -23 -41 -20 -65 -25 -126 -25 -130 0
-212 34 -327 138 -39 36 -43 43 -33 59 77 113 148 309 145 405 -1 37 -43 110
-75 128 -23 13 -38 12 -139 -7 -62 -12 -147 -27 -188 -33 -41 -6 -108 -21
-149 -32 l-74 -20 -56 22 c-30 11 -70 32 -88 46 -42 32 -82 29 -102 -7 -13
-23 -13 -33 -1 -70 7 -24 17 -48 22 -54 4 -5 8 -16 8 -23 0 -18 -109 -121
-130 -123 -90 -8 -242 15 -370 55 -180 57 -364 73 -487 41 -161 -42 -280 -144
-360 -312 -113 -237 -288 -320 -716 -339 -257 -12 -391 36 -482 171 -59 87
-77 151 -83 283 -4 105 -2 119 23 188 32 89 85 173 151 241 76 78 167 133 404
242 8 4 41 16 73 26 31 11 57 23 57 27 0 17 -80 5 -176 -26z"/>
</g>
</svg>
