<?xml version="1.0" encoding="UTF-8" standalone="no"?>
<svg
   version="1.0"
   width="300.000000pt"
   height="62.000000pt"
   viewBox="0 0 300.000000 62.000000"
   preserveAspectRatio="xMidYMid meet"
   id="svg866"
   sodipodi:docname="tag.svg"
   inkscape:version="1.1.1 (3bf5ae0d25, 2021-09-20)"
   xmlns:inkscape="http://www.inkscape.org/namespaces/inkscape"
   xmlns:sodipodi="http://sodipodi.sourceforge.net/DTD/sodipodi-0.dtd"
   xmlns="http://www.w3.org/2000/svg"
   xmlns:svg="http://www.w3.org/2000/svg">
  <defs
     id="defs870" />
  <sodipodi:namedview
     id="namedview868"
     pagecolor="#505050"
     bordercolor="#eeeeee"
     borderopacity="1"
     inkscape:pageshadow="0"
     inkscape:pageopacity="0"
     inkscape:pagecheckerboard="0"
     inkscape:document-units="pt"
     showgrid="false"
     inkscape:zoom="2.8284271"
     inkscape:cx="219.02632"
     inkscape:cy="59.9273"
     inkscape:window-width="1920"
     inkscape:window-height="1001"
     inkscape:window-x="-9"
     inkscape:window-y="-9"
     inkscape:window-maximized="1"
     inkscape:current-layer="svg866"
     showguides="false" />
  <metadata
     id="metadata848">
Created by potrace 1.10, written by Peter Selinger 2001-2011
</metadata>
  <g
     transform="translate(0.000000,62.000000) scale(0.100000,-0.100000)"
     fill="#000000"
     stroke="none"
     id="g864">
    <path
       d="M242 545 l-112 -54 0 -44 c0 -34 6 -49 25 -67 21 -20 24 -30 19 -57 -6 -33 -6 -34 22 -27 43 10 45 13 39 47 -3 18 -7 42 -8 55 -1 22 -4 23 -44 17 l-43 -6 0 36 c0 36 0 36 106 86 58 28 107 49 109 47 2 -2 1 -31 -2 -66 -6 -60 -7 -62 -34 -62 -16 0 -29 -4 -29 -8 0 -5 13 -35 29 -69 23 -46 28 -67 22 -93 -6 -32 -11 -36 -150 -92 -79 -33 -145 -57 -147 -56 -2 2 0 27 4 54 9 54 78 159 110 167 12 3 11 5 -5 6 -15 1 -35 -18 -72 -68 -47 -63 -51 -73 -51 -123 l0 -54 56 -12 c55 -11 59 -11 153 28 111 46 115 46 102 22 -17 -32 8 -49 79 -54 50 -4 76 0 115 16 28 11 53 24 56 29 3 4 23 1 45 -7 59 -22 116 -29 124 -16 4 6 -5 53 -20 103 -15 51 -35 116 -43 145 -28 91 -3 56 58 -82 50 -115 64 -138 95 -159 45 -29 96 -41 103 -24 3 7 30 73 60 148 l56 136 -16 62 c-17 65 -22 71 -89 85 l-32 7 -28 -83 c-18 -52 -30 -76 -32 -63 -2 11 -23 51 -46 89 -33 56 -49 72 -84 87 -24 11 -47 19 -52 19 -11 0 -30 -56 -30 -88 0 -23 -3 -21 -36 21 -20 25 -45 49 -55 52 -10 3 -27 7 -38 10 -16 5 -27 -14 -75 -135 -31 -77 -56 -147 -56 -155 0 -26 -15 -16 -31 19 -16 34 -15 35 5 38 18 3 22 13 29 63 7 48 5 72 -11 120 -10 32 -23 60 -28 62 -5 2 -60 -22 -122 -52z m339 6 c4 -3 17 -42 29 -86 12 -44 35 -123 50 -175 35 -120 41 -146 34 -152 -3 -3 -27 1 -54 10 -54 17 -47 2 -76 155 -5 24 -39 55 -50 44 -2 -2 -9 -42 -15 -88 -5 -46 -15 -89 -22 -96 -7 -6 -35 -21 -64 -32 -51 -20 -52 -20 -58 -1 -6 20 10 60 24 60 5 0 12 19 16 41 4 23 30 98 57 168 28 69 54 136 59 149 7 18 14 21 36 16 16 -4 31 -9 34 -13z m180 -2 c14 -7 48 -106 80 -229 l11 -44 45 119 c24 66 46 121 48 123 8 8 75 -11 75 -22 0 -15 -128 -328 -138 -337 -4 -4 -18 -5 -32 -3 -21 5 -34 25 -80 130 -29 68 -64 134 -77 146 -25 24 -29 58 -12 106 10 28 14 31 37 26 15 -4 34 -10 43 -15z m-396 -167 c-4 -4 -13 1 -20 11 -11 16 -11 21 3 35 16 16 17 15 20 -11 2 -16 0 -32 -3 -35z m618 -132 c-35 -83 -54 -116 -68 -119 -15 -2 -17 0 -9 10 6 8 35 75 65 149 43 108 55 129 57 105 2 -19 -15 -73 -45 -145z m-439 -97 c-27 -20 -47 -17 -35 5 5 10 13 43 17 73 l8 54 13 -60 c13 -54 13 -61 -3 -72z m-184 67 c0 -5 -5 -10 -11 -10 -5 0 -7 5 -4 10 3 6 8 10 11 10 2 0 4 -4 4 -10z"
       id="path850" />
    <path
       d="M530 426 c0 -19 5 -38 10 -41 6 -4 10 10 10 34 0 23 -4 41 -10 41 -5 0 -10 -15 -10 -34z"
       id="path852" />
    <path
       d="M2548 595 c-2 -2 -49 -7 -104 -9 -89 -4 -162 -17 -276 -47 -31 -8 -38 -14 -38 -34 0 -13 5 -27 12 -31 8 -5 9 0 6 14 -4 12 -2 25 3 28 9 5 163 44 175 44 2 0 4 -27 4 -60 0 -47 -3 -60 -15 -60 -8 0 -15 -2 -15 -4 0 -2 -13 -41 -30 -87 -16 -46 -30 -87 -30 -90 0 -4 12 -9 28 -12 49 -11 55 -20 48 -72 -5 -32 -12 -45 -20 -42 -7 3 -38 8 -68 12 -55 7 -56 7 -62 45 -3 21 -9 45 -12 54 -4 12 0 16 15 16 12 0 21 6 22 13 0 6 4 45 8 85 l7 72 -31 0 c-26 0 -33 6 -48 40 -9 22 -17 47 -17 55 0 9 -8 27 -17 41 -16 25 -20 26 -77 19 -123 -14 -116 -8 -116 -89 -1 -68 -1 -70 -14 -40 -14 31 -84 134 -92 134 -12 0 -110 -54 -116 -64 -4 -6 -8 -21 -8 -33 0 -41 -18 -33 -31 13 -10 31 -21 49 -36 55 -13 5 -23 14 -23 20 0 8 -12 9 -37 4 -29 -5 -56 -24 -115 -83 -43 -42 -75 -78 -72 -81 2 -3 37 27 77 67 49 48 82 74 105 78 25 5 32 3 32 -10 0 -9 8 -16 20 -16 16 0 19 -5 16 -22 -3 -13 -8 -40 -11 -60 -4 -28 -11 -38 -25 -38 -10 0 -26 -3 -36 -7 -13 -5 -16 -2 -12 8 24 63 23 63 -42 18 l-62 -44 106 -3 c106 -3 106 -3 106 -28 0 -27 -105 -144 -167 -186 -18 -13 -33 -26 -33 -29 0 -4 19 -18 43 -32 l42 -25 35 26 c19 14 38 30 42 36 3 5 8 -1 10 -14 3 -22 10 -25 86 -36 105 -15 172 -11 188 11 11 15 15 14 47 -4 25 -14 46 -18 76 -14 39 5 41 7 41 39 0 36 13 45 28 19 5 -10 52 -23 142 -39 74 -13 138 -22 141 -20 11 7 21 82 13 96 -4 6 -6 34 -5 61 2 36 -1 47 -9 42 -8 -5 -10 -21 -7 -42 5 -29 4 -33 -8 -23 -19 16 -19 21 2 70 15 34 22 40 47 40 l29 0 -6 88 c-4 48 -10 97 -13 109 -6 23 2 26 107 38 l56 6 -5 -83 c-3 -45 -12 -105 -21 -133 -14 -45 -20 -51 -56 -61 -25 -7 -39 -17 -38 -25 2 -8 7 -36 12 -62 8 -47 8 -49 -18 -58 -67 -24 -67 -24 -26 -43 30 -15 46 -17 74 -9 20 5 35 13 35 18 -1 6 -4 29 -8 52 -6 41 -5 43 25 51 28 7 34 15 50 67 10 33 19 69 19 80 1 18 4 17 24 -9 17 -20 30 -27 45 -23 17 4 21 -1 26 -38 5 -31 2 -52 -10 -76 -17 -33 -17 -33 8 -53 15 -12 54 -36 88 -54 61 -33 62 -33 81 -14 20 19 20 20 -15 118 -19 55 -38 106 -42 115 -5 14 0 16 37 12 41 -5 44 -3 60 29 15 32 15 40 0 101 l-16 66 -55 6 c-59 7 -221 32 -257 40 -12 3 -23 3 -26 0z m-727 -84 c43 -95 43 -95 5 -114 l-34 -16 -27 41 c-14 22 -28 38 -29 36 -2 -1 -6 -56 -10 -121 l-6 -118 59 63 c59 63 59 63 80 44 26 -23 26 -36 3 -78 -10 -18 -31 -57 -47 -87 l-29 -53 -61 7 c-104 11 -115 15 -115 39 0 12 16 38 36 57 32 31 35 37 29 74 -11 66 -9 147 4 196 11 39 19 49 54 67 23 11 47 21 52 21 6 1 22 -25 36 -58z m258 50 c10 -7 12 -23 6 -70 -6 -55 -10 -64 -34 -73 l-26 -11 35 -6 c33 -6 35 -9 47 -66 13 -60 9 -145 -6 -145 -5 0 -22 3 -38 6 -29 6 -30 8 -37 77 -6 68 -21 97 -48 97 -4 0 -8 -42 -8 -94 0 -118 -3 -126 -46 -126 l-34 0 23 38 c41 63 42 77 7 102 -35 25 -38 40 -10 47 23 6 25 16 9 45 -7 13 -8 48 -4 99 l7 78 36 4 c70 7 107 7 121 -2z m644 -6 c55 -8 113 -15 129 -15 33 0 33 1 11 -45 -16 -34 -18 -35 -75 -35 l-58 0 20 -42 c10 -24 33 -83 51 -133 18 -50 34 -95 36 -102 3 -6 -7 -19 -20 -28 -24 -15 -28 -15 -76 11 -54 30 -59 38 -36 68 8 11 13 29 10 40 -2 12 -9 58 -16 104 l-13 83 -35 -3 -36 -3 -8 53 c-8 50 -27 64 -27 19 0 -12 -5 -29 -11 -37 -8 -11 -9 -7 -5 19 3 18 6 39 6 45 0 17 42 18 153 1z m-353 -56 c0 -81 -24 -77 -28 4 -2 46 0 57 13 57 12 0 15 -13 15 -61z m277 -79 c16 0 20 -5 16 -20 -5 -18 -6 -18 -30 -3 -25 16 -26 16 -46 -8 l-20 -24 6 34 c4 18 7 40 7 49 0 12 5 11 23 -6 13 -12 33 -22 44 -22z m-1020 -2 c-3 -7 -5 -2 -5 12 0 14 2 19 5 13 2 -7 2 -19 0 -25z m1250 -12 c-3 -7 -20 -16 -39 -20 -25 -5 -36 -2 -45 11 -20 27 -16 33 26 33 22 0 43 6 48 13 9 15 18 -17 10 -37z m-711 -13 c29 -45 14 -147 -17 -116 -13 13 -21 143 -9 143 4 0 16 -12 26 -27z m204 1 c0 -9 -11 -24 -24 -35 -13 -10 -29 -32 -36 -49 -7 -16 -16 -30 -21 -30 -13 0 -11 13 12 74 18 46 26 56 45 56 15 0 24 -6 24 -16z m-480 -18 c0 -8 -4 -17 -8 -20 -13 -8 -35 11 -28 23 10 16 36 14 36 -3z m-90 -32 c0 0 -9 -9 -20 -19 -20 -18 -20 -17 -20 18 0 36 1 36 20 20 11 -10 20 -18 20 -19z m746 -59 c-4 -14 -12 -25 -20 -25 -7 0 -19 -7 -26 -15 -17 -21 -30 -19 -30 4 0 12 9 21 25 25 14 4 31 15 37 26 16 25 22 18 14 -15z m-896 -6 c0 -24 -56 -91 -107 -128 -26 -19 -36 -22 -45 -13 -10 10 5 29 62 87 41 41 78 75 82 75 5 0 8 -10 8 -21z m235 -87 c-24 -48 -41 -69 -50 -60 -2 1 13 32 33 67 41 75 55 69 17 -7z m255 8 c0 -11 -4 -20 -10 -20 -5 0 -10 9 -10 20 0 11 5 20 10 20 6 0 10 -9 10 -20z m-125 -50 c-4 -11 -14 -20 -24 -20 -17 0 -18 2 -2 34 12 25 18 30 24 20 5 -8 5 -23 2 -34z"
       id="path854" />
    <path
       d="M1963 480 c4 -29 8 -54 10 -57 2 -2 16 1 31 6 22 9 26 16 26 51 0 33 -3 40 -19 40 -11 0 -27 3 -37 7 -15 6 -17 1 -11 -47z"
       id="path856" />
    <path
       d="M1147 528 c-95 -229 -154 -394 -146 -409 6 -12 27 -18 76 -22 59 -4 76 -1 128 24 53 25 62 26 90 15 17 -7 52 -16 78 -20 41 -6 47 -5 47 11 0 19 -33 146 -46 177 -5 14 -4 17 4 12 7 -4 12 -14 12 -23 0 -13 3 -13 15 -3 8 7 29 10 47 8 29 -5 98 23 98 39 0 3 -40 4 -90 1 -99 -5 -98 -5 -115 80 -8 41 -89 149 -118 157 -12 4 -29 9 -38 11 -12 3 -23 -12 -42 -58z m94 23 c11 -10 119 -403 114 -411 -4 -7 -89 14 -103 25 -1 1 -9 38 -17 81 -14 71 -31 104 -56 104 -8 0 -19 -53 -24 -116 -5 -62 -18 -79 -77 -101 -43 -17 -54 -18 -61 -7 -4 8 23 90 69 206 42 106 80 203 85 216 7 18 14 21 36 16 16 -4 31 -9 34 -13z m-33 -331 c9 -47 8 -57 -6 -67 -33 -26 -41 -16 -26 34 8 25 14 57 14 71 0 38 7 23 18 -38z"
       id="path858" />
    <path
       d="M1190 431 c0 -22 5 -43 10 -46 6 -4 10 10 10 34 0 22 -4 43 -10 46 -6 4 -10 -10 -10 -34z"
       id="path860" />
    <path
       d="M2453 503 c-36 -5 -39 -13 -27 -85 6 -35 7 -36 35 -26 21 7 29 17 29 33 0 12 3 37 6 54 4 17 3 30 -2 29 -5 0 -24 -3 -41 -5z m4 -65 c-3 -7 -5 -2 -5 12 0 14 2 19 5 13 2 -7 2 -19 0 -25z"
       id="path862" />
  </g>
  <path
     style="fill:#000000;stroke:#000000;stroke-width:1.56472441;stroke-miterlimit:4;stroke-dasharray:none"
     d="m 67.934948,63.896899 c -0.351486,-0.18205 -0.490425,-0.417013 -0.490048,-0.828738 3.95e-4,-0.432673 0.06073,-0.639061 0.40745,-1.393643 0.361995,-0.787841 0.666091,-1.72394 1.037392,-3.193412 0.616425,-2.439584 0.916782,-4.128737 1.740677,-9.789265 0.287605,-1.97598 0.539675,-3.635395 0.560154,-3.687591 0.02154,-0.0549 0.380193,1.493712 0.850959,3.674343 0.447548,2.073083 0.943844,4.320394 1.102881,4.994023 0.721584,3.056407 0.994874,4.618846 0.995356,5.690599 6.21e-4,1.385013 -0.333207,1.957711 -1.715737,2.943403 -1.509106,1.075935 -2.770756,1.644806 -3.754655,1.692953 -0.434055,0.02124 -0.517791,0.0095 -0.734429,-0.102672 z"
     id="path989"
     transform="scale(0.75)" />
  <path
     style="fill:#000000;stroke:#000000;stroke-width:0.0851753;stroke-miterlimit:4;stroke-dasharray:none"
     d="m 46.229743,54.574509 c -0.269293,-0.121315 -0.408287,-0.382612 -0.373727,-0.702573 0.07367,-0.682023 1.055102,-1.832361 1.563316,-1.832361 0.293487,0 0.537641,0.53676 0.537641,1.181975 0,0.402596 -0.08059,0.625241 -0.328507,0.907608 -0.348398,0.396803 -1.026925,0.612845 -1.398723,0.445351 z"
     id="path1028"
     transform="scale(0.75)" />
  <path
     style="fill:#000000;stroke:#000000;stroke-width:0.0851753;stroke-miterlimit:4;stroke-dasharray:none"
     d="m 47.839621,31.822871 c -0.748085,-0.267223 -1.528557,-1.051676 -2.2737,-2.285299 -0.729854,-1.208309 -0.76889,-1.802879 -0.177692,-2.70648 0.297794,-0.455157 1.169638,-1.390965 1.861093,-1.997634 1.195379,-1.048804 1.396994,-0.854564 1.715896,1.65313 0.235099,1.848699 0.234054,3.257979 -0.0033,4.388461 -0.186575,0.888805 -0.513843,1.165184 -1.122344,0.947822 z"
     id="path1067"
     transform="scale(0.75)" />
  <path
     style="fill:#000000;stroke:#000000;stroke-width:0.0851753;stroke-miterlimit:4;stroke-dasharray:none"
     d="m 120.43132,65.189478 c -0.0928,-0.04041 -0.1848,-0.115253 -0.2044,-0.166325 -0.0514,-0.133935 0.13364,-0.515604 0.47969,-0.989466 0.57585,-0.788515 1.65417,-3.079862 3.85034,-8.181701 1.77685,-4.12771 4.09551,-9.720178 5.86484,-14.145618 3.01913,-7.551416 4.91882,-11.686746 5.78245,-12.587492 0.47898,-0.499569 0.69351,-0.299412 0.8182,0.763396 0.13372,1.139665 -0.18132,2.984127 -0.99059,5.799675 -2.1183,7.369805 -7.98903,21.363283 -11.08212,26.415354 -0.87809,1.434217 -1.89644,2.605124 -2.53043,2.909498 -0.48532,0.233004 -1.63062,0.338247 -1.98798,0.182679 z"
     id="path1106"
     transform="scale(0.75)" />
  <path
     style="fill:#000000;stroke:#000000;stroke-width:0.0851753;stroke-miterlimit:4;stroke-dasharray:none"
     d="m 156.36097,63.961412 c -0.64273,-0.411924 -0.65986,-1.839181 -0.0519,-4.323806 0.1059,-0.4328 0.37293,-1.394702 0.5934,-2.13756 1.13843,-3.83593 1.67906,-6.699061 1.77628,-9.406987 0.0681,-1.897285 0.15678,-2.539002 0.35221,-2.549165 0.14753,-0.0077 0.45851,0.739525 0.75511,1.814297 0.47244,1.711956 1.5839,7.458456 1.88986,9.771029 0.16038,1.212226 0.16291,2.558801 0.006,3.139199 -0.23268,0.860066 -0.5351,1.271187 -1.46668,1.993817 -1.20595,0.93546 -2.2764,1.587033 -2.87165,1.747942 -0.35046,0.09474 -0.79289,0.07278 -0.98254,-0.04877 z"
     id="path1145"
     transform="scale(0.75)" />
  <path
     style="fill:#000000;stroke:#000000;stroke-width:0.0851753;stroke-miterlimit:4;stroke-dasharray:none"
     d="m 200.63783,64.810301 c -0.53146,-0.189842 -1.0633,-0.658921 -1.19314,-1.052337 -0.12239,-0.370867 -0.0379,-0.884231 0.24038,-1.459753 0.65461,-1.354015 2.1554,-3.180779 5.45211,-6.636336 4.9803,-5.220279 12.16039,-12.025861 13.56342,-12.855968 0.21314,-0.126106 0.23843,-0.129449 0.41649,-0.05505 0.10427,0.04356 0.25385,0.173327 0.33242,0.288362 0.32102,0.470026 0.5629,1.682831 0.50684,2.541293 -0.20498,3.138542 -6.68413,11.062563 -13.18613,16.126686 -2.2157,1.725709 -4.02483,2.841601 -5.01585,3.09384 -0.40222,0.102372 -0.84559,0.106052 -1.11654,0.0093 z"
     id="path1184"
     transform="scale(0.75)" />
  <path
     style="fill:#000000;stroke:#000000;stroke-width:0.84283465;stroke-miterlimit:4;stroke-dasharray:none"
     d="m 216.46383,27.103189 c -0.12164,-0.304003 -0.19146,-1.552639 -0.13972,-2.498704 0.0434,-0.793582 0.11322,-1.143164 0.25118,-1.257664 0.0756,-0.06275 0.10496,-0.05114 0.21286,0.08418 0.19671,0.246702 0.27023,0.758448 0.27023,1.881133 0,1.087036 -0.0608,1.505934 -0.26173,1.802399 -0.16908,0.249512 -0.22927,0.247459 -0.33282,-0.01135 z"
     id="path1223"
     transform="scale(0.75)" />
  <path
     style="fill:#000000;stroke:#000000;stroke-width:0.78992126;stroke-miterlimit:4;stroke-dasharray:none"
     d="m 244.97691,65.244203 c -0.0847,-0.04047 -0.19644,-0.107761 -0.24836,-0.149534 l -0.0944,-0.07595 0.1188,-0.359633 c 0.36493,-1.104706 2.06134,-4.483206 3.81408,-7.59596 0.28609,-0.508084 0.69366,-1.235566 0.90572,-1.616629 1.97328,-3.545994 3.72508,-6.036042 4.46842,-6.35148 0.25265,-0.107213 0.35352,0.05363 0.3212,0.512169 -0.0871,1.235513 -1.44507,4.550452 -3.46432,8.456709 -1.72689,3.340699 -3.08668,5.452002 -4.18971,6.505251 -0.68133,0.650579 -1.21801,0.872645 -1.63144,0.675057 z"
     id="path1373"
     transform="scale(0.75)" />
  <path
     style="fill:#000000;stroke:#000000;stroke-width:0.78614173;stroke-miterlimit:4;stroke-dasharray:none"
     d="m 249.71132,35.411797 c -0.68613,-0.103195 -1.32497,-0.447961 -1.88607,-1.017868 -0.32419,-0.32928 -0.50095,-0.592588 -0.66603,-0.992128 -0.0798,-0.193177 -0.10024,-0.307473 -0.10182,-0.569538 -0.002,-0.296719 0.0104,-0.35295 0.12801,-0.59202 0.25829,-0.524899 0.90693,-1.084582 1.53636,-1.325654 0.41676,-0.159621 0.69934,-0.211673 1.14351,-0.210637 0.90547,0.0021 1.60583,0.379504 1.93308,1.041655 0.13319,0.269484 0.14507,0.321369 0.15886,0.693917 0.008,0.22146 -0.006,0.534816 -0.0324,0.696346 -0.10097,0.626338 -0.4029,1.342822 -0.75382,1.788836 -0.20731,0.263475 -0.50037,0.421189 -0.90152,0.485161 -0.27426,0.04374 -0.28003,0.04376 -0.55812,0.0019 z"
     id="path1412"
     transform="scale(0.75)" />
  <path
     style="fill:#000000;stroke:#000000;stroke-width:0.81637795;stroke-miterlimit:4;stroke-dasharray:none"
     d="m 264.2527,65.205087 c -0.85314,-0.268288 -0.69778,-0.983958 0.9163,-4.220831 0.52119,-1.04519 1.08628,-2.108197 1.25575,-2.362239 0.38695,-0.580039 0.83209,-1.013092 1.11216,-1.081955 0.18712,-0.04601 0.2604,-0.0066 0.54988,0.295482 0.72041,0.75187 0.9822,2.275861 0.69506,4.046353 -0.10901,0.672191 -0.36122,1.332721 -0.68876,1.803887 -0.31323,0.450593 -1.03477,1.081277 -1.4985,1.30982 -0.4573,0.225376 -0.57158,0.248274 -1.31144,0.262774 -0.44576,0.0087 -0.90947,-0.01524 -1.03045,-0.05329 z"
     id="path1451"
     transform="scale(0.75)" />
  <path
     style="fill:#000000;stroke:#000000;stroke-width:0.80125984;stroke-miterlimit:4;stroke-dasharray:none"
     d="m 283.68413,58.527953 c -0.36616,-0.230336 -0.66721,-0.731405 -0.8517,-1.417561 -0.15105,-0.561813 -0.16141,-1.613427 -0.0213,-2.15856 0.2077,-0.807884 0.66597,-1.490787 1.05825,-1.576945 0.51125,-0.11229 1.04257,0.457499 1.29893,1.392968 0.12171,0.44414 0.13415,1.865992 0.0208,2.377028 -0.10486,0.472773 -0.42406,1.083562 -0.66849,1.279195 -0.26,0.208082 -0.60313,0.250691 -0.83652,0.103875 z"
     id="path1490"
     transform="scale(0.75)" />
  <path
     style="fill:#000000;stroke:#000000;stroke-width:0.81637795;stroke-miterlimit:4;stroke-dasharray:none"
     d="m 304.51942,45.11042 c -0.59402,-0.467253 -0.4348,-1.711421 0.62881,-4.913646 0.61494,-1.851421 1.80888,-5.064488 2.43596,-6.555511 1.35319,-3.217558 2.37855,-4.751576 3.52766,-5.277653 1.23151,-0.563806 3.30672,-0.36401 4.20495,0.404842 0.84052,0.719457 0.82478,1.763955 -0.0477,3.163763 -0.49319,0.791282 -1.37714,1.830668 -2.0921,2.459978 -2.48949,2.191245 -3.6291,3.708484 -5.24708,6.98579 -1.16168,2.353034 -1.70911,3.222005 -2.34001,3.714396 -0.28935,0.225825 -0.79551,0.234356 -1.07051,0.01804 z"
     id="path1529"
     transform="scale(0.75)" />
  <path
     style="fill:#000000;stroke:#000000;stroke-width:0.88062992;stroke-miterlimit:4;stroke-dasharray:none"
     d="m 329.99927,51.519717 c -0.37577,-0.323223 -0.43318,-0.495145 -0.48773,-1.460441 -0.0777,-1.374391 0.0122,-1.727338 0.61468,-2.413483 0.54248,-0.617851 1.33818,-1.067338 2.50003,-1.412245 1.03029,-0.305852 2.32024,-0.964366 3.25974,-1.664082 0.86374,-0.64329 1.25069,-1.062381 1.98718,-2.152222 0.70603,-1.044777 1.38925,-1.678556 1.68654,-1.564478 0.55349,0.212394 0.10265,3.481381 -0.7123,5.164851 -0.51022,1.053977 -1.3395,1.801822 -2.11306,1.905579 -1.12395,0.150753 -2.2645,0.835089 -3.52745,2.116479 -1.20589,1.223493 -2.0544,1.844786 -2.52087,1.845816 -0.14347,3.23e-4 -0.45251,-0.164282 -0.68676,-0.365774 z"
     id="path1568"
     transform="scale(0.75)" />
  <path
     style="fill:#000000;stroke:#000000;stroke-width:0.77858268;stroke-miterlimit:4;stroke-dasharray:none"
     d="m 327.15647,24.556855 c -0.13866,-0.274124 -0.20134,-0.871854 -0.2005,-1.912019 9.9e-4,-1.234222 0.10219,-1.905296 0.30358,-2.013076 0.071,-0.03801 0.20024,0.07143 0.2874,0.243434 0.13519,0.266785 0.23161,1.005131 0.23161,1.773599 0,0.778569 -0.0903,1.40279 -0.24948,1.724345 -0.15226,0.307594 -0.27847,0.369823 -0.37261,0.183717 z"
     id="path1646"
     transform="scale(0.75)" />
  <path
     style="fill:#000000;stroke:#000000;stroke-width:0.87685039;stroke-miterlimit:4;stroke-dasharray:none"
     d="m 373.97998,30.99893 c -0.92919,-0.479472 -2.046,-1.80065 -2.71204,-3.208322 -0.44322,-0.936759 -0.45547,-1.22048 -0.0693,-1.606631 0.48267,-0.482669 1.30779,-0.631481 4.32101,-0.779302 3.81281,-0.187047 5.89962,-0.731868 6.80893,-1.777668 0.49611,-0.570584 0.86008,-0.486111 1.18918,0.275995 0.66296,1.535217 0.5038,4.026498 -0.31696,4.961283 -1.05376,1.200174 -4.23869,2.362264 -6.83434,2.493664 -1.46556,0.07419 -1.5804,0.05692 -2.38646,-0.359019 z"
     id="path1685"
     transform="scale(0.75)" />
  <path
     style="fill:#000000;stroke:#000000;stroke-width:0.8919685;stroke-miterlimit:4;stroke-dasharray:none"
     d="m 342.48162,33.140878 c 0.48587,-2.315607 1.33526,-7.442568 1.48662,-8.973399 0.10439,-1.055778 0.2434,-1.980343 0.3089,-2.05459 0.24378,-0.276312 0.90458,0.08435 2.16035,1.179116 1.52179,1.32668 2.34378,1.904747 3.601,2.532419 1.26156,0.629838 1.83608,0.799214 3.248,0.957554 1.04308,0.116978 1.26103,0.194558 1.57633,0.561114 0.31756,0.369197 0.35265,0.525125 0.26567,1.180785 -0.1297,0.977769 -0.67122,2.420856 -0.94833,2.527191 -0.38916,0.149335 -0.90869,-0.08104 -2.92395,-1.296539 -2.27432,-1.37175 -2.69883,-1.579009 -3.23415,-1.579009 -0.86146,0 -1.58957,0.658514 -4.12827,3.733641 -0.75152,0.910316 -1.39668,1.655119 -1.4337,1.655119 -0.037,0 -0.0273,-0.190531 0.0215,-0.423402 z"
     id="path1724"
     transform="scale(0.75)" />
  <path
     style="fill:#000000;stroke:#000000;stroke-width:0.8919685;stroke-miterlimit:4;stroke-dasharray:none"
     d="m 234.95538,40.502808 c -0.21847,-0.408203 -0.21024,-6.438765 0.01,-7.069517 0.093,-0.266678 0.26164,-0.484869 0.37483,-0.484869 0.23866,0 1.9897,1.396119 3.51501,2.802553 l 1.05656,0.974209 -1.63856,1.578212 c -1.57114,1.513282 -2.76605,2.49722 -3.03265,2.49722 -0.069,0 -0.19717,-0.134013 -0.28483,-0.297808 z"
     id="path1763"
     transform="scale(0.75)" />
  <path
     style="fill:none;stroke:#000000;stroke-width:0;stroke-linecap:butt;stroke-linejoin:miter;stroke-opacity:1;stroke-miterlimit:4;stroke-dasharray:none"
     d="m 16.498818,26.399129 1.122715,0.321506"
     id="path1932" />
  <path
     style="fill:#00df82;stroke:#000000;stroke-width:0.46771654;stroke-linecap:butt;stroke-linejoin:miter;stroke-opacity:1;stroke-miterlimit:4;stroke-dasharray:none;fill-opacity:1"
     d="m 16.039525,26.409336 1.750416,0.199027 0.0051,-0.0051 z"
     id="path2035" />
  <path
     style="fill:#00df82;fill-opacity:1;stroke:#000000;stroke-width:0.00848667;stroke-miterlimit:4;stroke-dasharray:none"
     d="m 13.962501,42.641146 v -0.198965 l 0.145785,-0.199089 c 1.284039,-1.753526 2.428713,-3.120969 3.555685,-4.24767 0.772272,-0.772086 1.416419,-1.317814 2.048196,-1.735252 0.560624,-0.370425 0.926326,-0.540878 1.459868,-0.68044 l 0.189274,-0.04951 0.971667,0.110459 c 0.534417,0.06075 0.975315,0.114793 0.979773,0.120092 0.01015,0.01206 0.05919,0.240909 0.08733,0.407542 0.08793,0.520602 0.0946,1.171161 0.01954,1.90827 -0.04937,0.484884 -0.11225,0.891138 -0.291797,1.885293 -0.274119,1.517794 -0.350022,2.074052 -0.35235,2.58221 l -0.0014,0.295952 -4.405809,3.6e-5 -4.405809,3.7e-5 z"
     id="path2760"
     transform="scale(0.75)" />
  <path
     style="fill:#00df82;fill-opacity:1;stroke:#000000;stroke-width:0.0480079;stroke-miterlimit:4;stroke-dasharray:none"
     d="m 5.8156584,64.687146 c -0.1207015,-0.885764 0.4191195,-6.047314 0.8042108,-7.689537 0.6194667,-2.641718 2.2529475,-6.323397 4.4879788,-10.115392 1.04125,-1.766603 2.784077,-4.347444 2.812056,-4.164195 l 0.0246,0.161116 h 4.421128 4.421128 v 0.175326 c 0,0.276857 0.210072,0.505959 0.547163,0.596728 0.413743,0.111409 1.034264,0.01329 3.178243,-0.502558 2.834629,-0.68202 3.938231,-1.099823 4.567627,-1.729219 0.750118,-0.750117 0.773588,-1.601152 0.148691,-5.391701 -0.544355,-3.301993 -0.791559,-5.044163 -0.933946,-6.581986 -0.141128,-1.52422 -0.208954,-1.771721 -0.583415,-2.128921 -0.464194,-0.442797 -1.135687,-0.535497 -2.674125,-0.369163 -0.784386,0.08481 -7.748888,1.046605 -8.124137,1.121944 l -0.21724,0.04361 0.02986,-3.529272 c 0.0323,-3.817849 0.04416,-3.936241 0.480675,-4.797654 0.260647,-0.514361 0.970728,-1.257322 1.711291,-1.790532 1.623573,-1.168981 3.98297,-2.359028 14.802337,-7.466093 6.280625,-2.9646421 11.377636,-5.1065372 11.605578,-4.8769622 0.103276,0.1040163 0.0445,4.2002974 -0.0868,6.0486192 -0.153753,2.164532 -0.460533,5.2622 -0.663288,6.697459 -0.525067,3.71685 -0.996366,4.224973 -3.927085,4.233912 -1.676352,0.0051 -3.269606,0.320411 -3.777149,0.747481 -0.222191,0.186961 -0.239119,0.232881 -0.197576,0.535971 0.113828,0.830469 1.887288,4.980877 4.106184,9.609657 1.153869,2.407056 1.725877,3.748538 2.18288,5.119323 0.899033,2.696653 0.97841,4.423178 0.335475,7.296883 -0.443414,1.981917 -1.110516,2.909779 -2.957637,4.113729 -2.353655,1.534107 -6.946918,3.530933 -22.709883,9.872653 -6.337729,2.549781 -11.5175223,4.484672 -13.5990151,5.079856 -0.1488244,0.04255 -0.1706922,0.01002 -0.2158115,-0.321087 z"
     id="path2799"
     transform="scale(0.75)" />
  <path
     style="fill:#00df82;fill-opacity:1;stroke:#000000;stroke-width:0.0480079;stroke-miterlimit:4;stroke-dasharray:none"
     d="m 48.467035,67.091442 c -0.165687,-0.05904 -0.380773,-0.204746 -0.477969,-0.323795 -0.251014,-0.307451 -0.640835,-1.42003 -0.743083,-2.120823 -0.281685,-1.930616 0.8267,-5.329207 2.179067,-6.681574 0.332285,-0.332285 0.840915,-0.608843 1.125097,-0.61175 0.09295,-9.55e-4 0.275522,-0.127301 0.417342,-0.288824 0.53315,-0.607225 1.071616,-2.130193 1.573771,-4.451167 0.582748,-2.693482 1.045554,-4.285285 2.528046,-8.69511 1.821485,-5.418199 4.213025,-11.898184 6.308339,-17.092726 1.477196,-3.662153 3.465277,-8.68176 5.530839,-13.964547 0.801824,-2.050706 1.562175,-3.9242708 1.689671,-4.163476 0.333712,-0.6261093 0.613509,-0.935006 1.081941,-1.1944646 0.400646,-0.2219132 0.44053,-0.2281317 1.413053,-0.2203182 0.907902,0.00729 1.111497,0.037007 2.193995,0.320194 2.527084,0.6610973 3.899062,1.2382566 4.267714,1.7953289 0.659194,0.9961089 2.071378,5.2831439 3.852348,11.6947589 1.05981,3.81539 3.091779,10.931548 5.517418,19.322555 1.058723,3.662433 2.213329,7.663588 2.565793,8.891455 3.325404,11.584602 3.895467,14.55589 2.87384,14.979061 -0.470479,0.194879 -2.698227,-0.134651 -4.688179,-0.693479 -1.522313,-0.427503 -5.422349,-1.636054 -6.008983,-1.862076 -1.227228,-0.472834 -1.958951,-1.126837 -2.551264,-2.280284 -0.861232,-1.677128 -1.354166,-3.754817 -3.091398,-13.030058 -0.475322,-2.537783 -0.896119,-4.577722 -1.010234,-4.897409 -0.732656,-2.052499 -2.97497,-4.52613 -4.76025,-5.25132 -0.850472,-0.345465 -1.62979,-0.226184 -1.827892,0.279776 -0.340497,0.86964 -1.289747,6.648867 -1.994007,12.139931 -0.636918,4.965996 -1.328826,8.435115 -2.139356,10.726399 -0.474186,1.340471 -0.621367,1.511554 -2.014018,2.341088 -1.904206,1.134244 -4.590156,2.37482 -8.083141,3.73341 -2.668642,1.037963 -3.864591,1.44859 -4.6651,1.601753 -0.695808,0.13313 -0.682655,0.133161 -1.0634,-0.0025 z m 24.07352,-35.7614 c 0.460019,-0.361851 0.736771,-1.692299 0.80031,-3.847363 0.06999,-2.373937 -0.168348,-4.420814 -0.636135,-5.463182 -0.116798,-0.26026 -0.283738,-0.523196 -0.370978,-0.584301 -0.905814,-0.634457 -1.681104,1.453344 -1.673952,4.507837 0.0056,2.402722 0.55816,4.763327 1.251479,5.346716 0.281314,0.236711 0.372175,0.242528 0.629276,0.04029 z"
     id="path2838"
     transform="scale(0.75)" />
  <path
     style="fill:#00df82;fill-opacity:1;stroke:#000000;stroke-width:0.0480079;stroke-miterlimit:4;stroke-dasharray:none"
     d="m 113.8541,61.893998 c -2.84782,-0.32896 -4.5331,-2.700035 -9.13386,-12.850739 -0.52636,-1.161313 -1.41906,-3.170551 -1.98378,-4.464973 C 99.965118,38.22594 97.594919,33.349988 95.399237,29.484219 93.930036,26.89751 93.265373,25.92732 92.147554,24.737829 89.696029,22.129119 88.95091,18.928236 89.801913,14.661425 c 0.509734,-2.555736 1.719347,-5.8542798 2.462708,-6.7156583 0.54089,-0.626764 1.193051,-0.8033182 2.358191,-0.6384137 1.494073,0.2114591 4.930099,1.2853055 6.426448,2.0084289 0.54092,0.2614084 0.67463,0.3680473 0.98537,0.7858661 2.24619,3.020245 6.92539,17.291484 10.90623,33.263266 0.34625,1.389194 0.65577,2.497739 0.68783,2.463433 0.0618,-0.06619 5.19173,-13.611426 6.65636,-17.575845 2.0684,-5.598669 4.02343,-10.661015 5.07783,-13.148515 0.44352,-1.046315 0.64849,-1.442398 0.79676,-1.539646 0.87946,-0.576831 5.52981,0.40557 8.29455,1.752249 0.98169,0.478174 1.49654,0.910659 1.49654,1.257131 0,1.565923 -12.28643,32.051442 -17.08968,42.403513 -0.73241,1.5785 -1.19679,2.413792 -1.42514,2.563411 -0.51457,0.337156 -2.24456,0.507823 -3.58181,0.353353 z"
     id="path2877"
     transform="scale(0.75)" />
  <path
     style="fill:#00df82;fill-opacity:1;stroke:#000000;stroke-width:0.0480079;stroke-miterlimit:4;stroke-dasharray:none"
     d="m 136.89965,66.741008 c -0.44502,-0.08907 -0.73089,-0.250484 -1.01336,-0.572206 -0.31607,-0.359984 -0.35144,-0.53302 -0.24716,-1.209041 0.54302,-3.52003 3.90286,-13.121918 9.94868,-28.431662 4.09765,-10.376445 6.4208,-16.277828 8.61545,-21.885415 1.18135,-3.018502 2.22107,-5.6339756 2.31048,-5.8121631 0.30293,-0.603715 0.72407,-1.0875401 1.1538,-1.3255275 0.40091,-0.2220284 0.44962,-0.2300165 1.37788,-0.225922 0.81781,0.00361 1.11252,0.041611 1.96305,0.2531374 1.95539,0.4863079 3.4651,1.0193518 4.14077,1.4620048 0.42126,0.2759795 0.68983,0.8932297 1.66751,3.8322744 3.63861,10.938248 12.83283,44.601197 13.7478,50.335024 0.15145,0.949123 0.13849,0.965389 -0.76787,0.963329 -2.57465,-0.0059 -10.46062,-2.066341 -12.43483,-3.24904 l -0.42105,-0.252244 -0.24861,-1.021956 c -0.29767,-1.223644 -1.06171,-4.924525 -1.75974,-8.523849 -1.08626,-5.601236 -1.97491,-8.746273 -3.15403,-11.162432 -0.64085,-1.313185 -1.14857,-2.057233 -1.88191,-2.757865 -0.80154,-0.765779 -1.75885,-1.206724 -2.61987,-1.206724 -1.12512,0 -2.43743,5.933774 -3.23482,14.626636 -0.28984,3.15975 -0.46558,4.419515 -0.80882,5.797856 -0.81994,3.292639 -2.41442,5.212408 -5.72715,6.895561 -1.13076,0.57452 -1.87147,0.887399 -4.35727,1.840525 -3.66052,1.403544 -5.27506,1.82461 -6.24893,1.629699 z M 160.5255,31.33462 c 0.26623,-0.209417 0.49463,-0.780538 0.65203,-1.630416 0.17024,-0.91922 0.1943,-4.553963 0.0376,-5.685728 -0.23091,-1.668175 -0.68858,-3.049809 -1.10742,-3.343178 -0.22965,-0.160853 -0.54729,-0.153374 -0.70103,0.01651 -0.21144,0.233636 -0.42096,0.793992 -0.56745,1.517588 -0.11679,0.576925 -0.14002,1.066345 -0.13884,2.925327 0.001,1.995558 0.0204,2.338696 0.18064,3.233256 0.28907,1.614183 0.65638,2.640712 1.05789,2.956542 0.25395,0.199759 0.34348,0.201301 0.58655,0.0101 z"
     id="path2916"
     transform="scale(0.75)" />
  <path
     style="fill:#00df82;fill-opacity:1;stroke:#000000;stroke-width:0.0480079;stroke-miterlimit:4;stroke-dasharray:none"
     d="m 235.10393,67.891506 c -1.37606,-0.164171 -4.36532,-0.507526 -6.64279,-0.76301 -7.99707,-0.897099 -10.44111,-1.325003 -12.10915,-2.12008 -1.13995,-0.543357 -1.64837,-1.377119 -1.64837,-2.703172 0,-1.154556 0.86101,-2.978592 2.33471,-4.946047 0.79355,-1.059423 0.97349,-1.258727 2.89103,-3.202153 2.08208,-2.110184 2.74874,-2.911815 3.20105,-3.849115 0.47135,-0.976763 0.54329,-1.341024 0.53209,-2.69438 -0.007,-0.901333 -0.0694,-1.543283 -0.28209,-2.925327 -0.1499,-0.973826 -0.30956,-2.06505 -0.3548,-2.424943 -1.08386,-8.62218 -0.67696,-18.263055 1.0204,-24.176959 1.2543,-4.370191 2.37629,-5.857126 5.91325,-7.836586 2.31674,-1.296562 7.29122,-3.3983098 8.04322,-3.3983098 0.22585,0 0.33735,0.067932 0.66855,0.4073122 0.77705,0.7962546 1.91075,2.6408789 2.9433,4.7889926 0.64472,1.341276 2.94915,6.477273 3.77242,8.407764 1.26875,2.975132 1.72614,4.471677 1.72631,5.648455 1.6e-4,1.213573 -0.48336,1.852271 -2.09466,2.766733 -0.72914,0.413814 -5.93348,2.923006 -6.06263,2.923006 -0.0256,0 -0.11259,-0.112586 -0.19335,-0.250192 -0.0807,-0.137606 -1.19116,-1.826405 -2.46758,-3.752887 -2.33897,-3.530192 -3.28962,-4.842643 -4.16081,-5.744373 -0.48038,-0.497218 -0.67073,-0.59035 -0.75544,-0.369607 -0.1857,0.483941 -0.61405,5.596568 -1.08303,12.926913 -0.24942,3.898497 -0.97764,18.148307 -0.94893,18.568716 l 0.0221,0.323912 5.15781,-5.514592 c 8.63762,-9.235104 9.6575,-10.183271 10.95346,-10.183271 0.38451,0 0.52033,0.04229 0.92719,0.288684 0.64522,0.390741 2.37265,1.969514 2.95264,2.698533 0.91881,1.154911 1.24302,2.185026 1.07082,3.402314 -0.21116,1.492613 -0.81824,2.85534 -3.29228,7.3903 -0.8893,1.6301 -2.43448,4.488068 -3.43373,6.351039 -0.99925,1.862972 -2.65998,4.928792 -3.6905,6.812933 l -1.87368,3.425712 -0.26732,0.01109 c -0.14702,0.0061 -1.39318,-0.123233 -2.76923,-0.287405 z"
     id="path2994"
     transform="scale(0.75)" />
  <path
     style="fill:#00df82;fill-opacity:1;stroke:#000000;stroke-width:0.0480079;stroke-miterlimit:4;stroke-dasharray:none"
     d="m 252.22615,62.365698 c 0.10343,-0.163838 0.82628,-1.350328 1.60633,-2.636643 0.78006,-1.286315 1.70296,-2.78504 2.05089,-3.330498 2.99899,-4.701576 3.88421,-7.081241 3.31715,-8.91717 -0.34247,-1.108794 -1.11695,-1.967669 -3.15741,-3.501479 -2.3093,-1.735897 -3.13706,-2.543593 -3.63165,-3.543643 -0.1971,-0.398527 -0.23107,-0.544715 -0.20051,-0.862806 0.0729,-0.758422 0.6389,-1.215737 2.06157,-1.665633 1.37885,-0.43604 1.87625,-0.642836 2.27441,-0.945592 0.53777,-0.408922 0.68941,-0.749925 0.68941,-1.550379 0,-0.841945 -0.18492,-1.413689 -0.97432,-3.012431 -0.68537,-1.388065 -0.85381,-1.9509 -1.04143,-3.47999 -0.17495,-1.425813 -0.17346,-5.77113 0.003,-8.32667 0.10443,-1.513633 1.05136,-12.3658297 1.0828,-12.4093183 0.0231,-0.031963 5.70862,-0.6412598 7.3581,-0.7885424 3.61151,-0.3224731 5.46076,-0.4063091 8.12163,-0.3681945 2.66539,0.038179 3.34507,0.1076541 4.42648,0.4524622 1.68362,0.5368217 2.16968,1.5086596 2.16943,4.337611 -1.6e-4,1.561689 -0.0629,2.354208 -0.44019,5.555912 -0.64354,5.46163 -1.05776,7.031056 -2.15013,8.146552 -0.55612,0.5679 -1.18931,0.903902 -3.63912,1.93111 -1.19566,0.501345 -2.14832,0.934127 -2.11701,0.961736 0.0313,0.02761 1.23476,0.249584 2.67433,0.493278 1.43957,0.243692 3.00625,0.540311 3.48151,0.65915 2.68107,0.670405 3.24352,1.614207 4.51696,7.579532 0.55296,2.590303 0.83194,4.420927 1.06169,6.966803 0.13788,1.52792 0.13666,7.259067 -0.002,8.506543 -0.26823,2.416301 -0.65624,3.856305 -1.18754,4.407236 -0.28671,0.297301 -0.48647,0.31288 -1.69349,0.132064 -1.29413,-0.193866 -4.16403,-0.722056 -4.76785,-0.877499 -1.30042,-0.33477 -1.93113,-0.700965 -2.35353,-1.366478 -0.69851,-1.100511 -0.94924,-2.435876 -1.55843,-8.299942 -0.29129,-2.803861 -0.4216,-3.811851 -0.66185,-5.119322 -0.98107,-5.339066 -2.71187,-7.972101 -5.35153,-8.141178 l -0.58668,-0.03758 -0.1249,0.336491 c -0.16795,0.452502 -0.32049,1.392432 -0.46689,2.876907 -0.23077,2.340093 -0.27329,3.487645 -0.34938,9.430331 -0.042,3.28137 -0.11232,6.901462 -0.15621,8.044649 -0.23018,5.994883 -0.91652,7.78604 -3.21702,8.395544 -0.61927,0.16407 -2.45586,0.259735 -5.04052,0.262552 l -2.21421,0.0024 z M 264.85758,26.16877 c 1.95837,-0.421899 3.70089,-1.150163 4.48174,-1.873094 1.07193,-0.992423 1.32638,-2.077644 1.32892,-5.66798 0.002,-2.267522 -0.0654,-3.119271 -0.30993,-3.941983 -0.27646,-0.929969 -0.91786,-1.367776 -2.00385,-1.367776 -1.35821,0 -3.34326,-0.35516 -4.93384,-0.882752 -0.57864,-0.191931 -1.16155,-0.348965 -1.29538,-0.348965 -0.36752,0 -0.65522,0.331635 -0.77225,0.890181 -0.23354,1.114659 0.19655,5.308702 1.08661,10.595927 0.33927,2.015413 0.4801,2.58962 0.67255,2.742367 0.15459,0.122692 0.7167,0.0757 1.74543,-0.145925 z"
     id="path3033"
     transform="scale(0.75)" />
  <path
     style="fill:#00df82;fill-opacity:1;stroke:#000000;stroke-width:0.0480079;stroke-miterlimit:4;stroke-dasharray:none"
     d="m 370.92057,63.083641 c -2.1162,-0.625756 -8.86279,-4.347512 -10.51143,-5.798635 -1.06266,-0.935342 -1.40322,-1.519497 -1.40025,-2.401783 0.002,-0.533763 0.0316,-0.643299 0.35614,-1.308699 0.19479,-0.399398 0.63988,-1.124562 0.98909,-1.611475 0.72868,-1.016027 1.21524,-1.971154 1.5098,-2.963819 0.17347,-0.584585 0.2069,-0.849209 0.21395,-1.69361 0.008,-0.923431 -0.0676,-1.488601 -0.97397,-7.313318 -2.27103,-14.59405 -2.92763,-18.785006 -2.94666,-18.808019 -0.0111,-0.01339 -1.66045,0.115934 -3.66528,0.287379 -5.56176,0.475617 -5.76492,0.491751 -5.78868,0.459706 -0.0122,-0.01645 -0.25655,-1.606118 -0.54302,-3.5326 -0.5973,-4.016879 -0.80016,-5.131725 -1.1611,-6.381105 -0.5901,-2.0426199 -1.31917,-3.2416815 -1.97105,-3.2416815 -0.66135,0 -0.94516,0.8967144 -1.07204,3.3872205 -0.0786,1.54227 -0.21206,2.28263 -0.61762,3.425713 -0.31641,0.891813 -0.51405,1.27692 -0.95933,1.869265 -0.40037,0.532613 -0.60834,0.690297 -0.70778,0.536639 -0.10789,-0.166718 -0.0353,-1.356425 0.16332,-2.675342 0.56715,-3.766785 0.66503,-4.460622 0.80186,-5.6845756 0.1476,-1.3202293 0.15206,-1.3379643 0.40104,-1.594849 0.59843,-0.6174208 1.66364,-0.8710629 3.92164,-0.9337935 3.24184,-0.090063 7.48296,0.3226063 15.51193,1.5093412 2.80027,0.4138986 6.10629,0.8624188 9.08391,1.2323936 5.10011,0.6336983 6.62024,0.7739053 9.19939,0.8484953 2.36559,0.06841 2.67225,0.127966 2.89701,0.562608 0.24055,0.465165 -0.0824,1.436187 -1.41013,4.240503 -1.63387,3.450779 -2.08388,4.198566 -2.87889,4.783816 -1.23818,0.911493 -2.49406,1.033525 -10.6832,1.038062 -3.74786,0.0021 -4.71517,0.02249 -4.68352,0.09885 0.0219,0.05293 0.63054,1.334027 1.35247,2.846891 2.13604,4.476263 4.9725,11.742967 9.33831,23.923702 2.66547,7.436762 3.60451,10.164589 3.60451,10.470795 0,0.114982 -0.12738,0.463672 -0.28306,0.774869 -0.35916,0.717913 -1.53739,1.925646 -2.4883,2.550612 -0.75457,0.495922 -1.90045,1.085134 -2.34796,1.20732 -0.5373,0.146703 -1.54844,0.0969 -2.2511,-0.110871 z"
     id="path3111"
     transform="scale(0.75)" />
  <path
     style="fill:#00df82;fill-opacity:1;stroke:#000000;stroke-width:0.0480079;stroke-miterlimit:4;stroke-dasharray:none"
     d="m 314.05998,23.782202 c -0.61759,-0.485798 -1.24307,-2.73054 -1.54692,-5.551625 -0.25934,-2.407793 -0.36613,-6.89249 -0.19306,-8.107405 0.21897,-1.5371268 0.63941,-2.0592767 1.65815,-2.0592767 1.04675,0 1.49124,0.680538 1.77984,2.7250437 0.20257,1.43503 0.20113,8.020965 -0.002,9.568304 -0.23239,1.769447 -0.58679,2.948023 -1.01413,3.372549 -0.25488,0.253192 -0.41125,0.265213 -0.68179,0.05241 z"
     id="path3150"
     transform="scale(0.75)" />
  <path
     style="fill:none;stroke:#000000;stroke-width:0.75px;stroke-linecap:butt;stroke-linejoin:miter;stroke-opacity:1"
     d="m 143.93764,47.748268 -3.26212,-2.886836 z"
     id="path3222" />
  <path
     style="fill:none;stroke:#000000;stroke-width:0.75px;stroke-linecap:butt;stroke-linejoin:miter;stroke-opacity:1"
     d="m 134.09353,21.882217 3.11779,-3.377598 z"
     id="path3226" />
  <path
     style="fill:#00df82;fill-opacity:1;stroke:#000000;stroke-width:0.135787;stroke-miterlimit:4;stroke-dasharray:none"
     d="m 189.5906,60.694717 -1.41602,-1.360892 -0.70865,-2.939474 c -0.98139,-4.070749 -2.62601,-9.862135 -3.69933,-13.02682 -0.49533,-1.460496 -0.86832,-2.751524 -0.82887,-2.868953 0.12226,-0.363885 1.4466,0.597477 1.82134,1.322145 0.19549,0.378038 0.41082,1.223901 0.4785,1.879695 0.0755,0.732008 0.2414,1.237761 0.42957,1.309969 0.16859,0.06469 0.73711,-0.191608 1.26339,-0.569554 1.67296,-1.201429 2.45688,-1.373503 6.5304,-1.433451 4.0397,-0.05945 5.2124,-0.30205 8.8528,-1.831408 2.85093,-1.197696 4.95177,-2.9627 4.30117,-3.61358 -0.27522,-0.275331 -6.79025,-0.28743 -14.56927,-0.02706 -6.25842,0.209475 -7.63503,0.08525 -8.96152,-0.808671 -1.13908,-0.767625 -1.87549,-2.213526 -2.60263,-5.110093 l -0.66542,-2.650724 1.70558,-1.88214 c 0.93806,-1.035177 2.24151,-2.383918 2.89655,-2.997203 0.65504,-0.613284 2.83705,-2.682782 4.84891,-4.598884 9.89757,-9.426462 12.58612,-11.4762535 16.00185,-12.2000621 2.77349,-0.5877144 3.97805,-0.2527568 3.97805,1.1061961 0,1.4203617 0.85944,2.122794 2.93947,2.402465 0.59878,0.08051 1.24817,0.22887 1.44309,0.329689 0.4758,0.246104 0.60864,1.078682 0.37094,2.324971 -0.10792,0.565812 -0.5781,3.164241 -1.04484,5.774288 -1.19839,6.70143 -1.46851,7.146962 -4.49659,7.416472 -0.8525,0.07588 -2.3693,0.375259 -3.37067,0.665294 -1.00136,0.290037 -1.89607,0.480731 -1.98825,0.423765 -0.3195,-0.197462 -0.16321,-0.901392 0.72378,-3.259993 0.49025,-1.30362 0.94488,-2.884627 1.01029,-3.513348 0.11392,-1.095069 0.0969,-1.143128 -0.40468,-1.143128 -0.97925,0 -2.84544,1.175911 -10.83788,6.829095 l -4.65953,3.295759 1.28457,0.137363 c 0.70652,0.07555 4.12607,0.202238 7.59901,0.281532 8.91249,0.203485 15.82856,0.527945 17.10957,0.802672 0.60233,0.129178 1.35388,0.457413 1.6701,0.729412 0.83168,0.715385 0.82791,2.388686 -0.009,4.036838 -2.74697,5.409042 -13.6124,17.027103 -21.03132,22.488126 -1.15172,0.847768 -2.64625,2.013713 -3.32118,2.590987 l -1.22716,1.04959 -1.41602,-1.360889 z"
     id="path3343"
     transform="scale(0.75)" />
  <path
     style="fill:none;stroke:#000000;stroke-width:0.46771654;stroke-linecap:butt;stroke-linejoin:miter;stroke-opacity:1;stroke-miterlimit:4;stroke-dasharray:none"
     d="m 213.375,12.632813 1.96875,6.632812 0.9375,0.07031 -1.85156,-6.703124 z"
     id="path3645" />
  <path
     style="fill:#00df82;fill-opacity:1;stroke:#000000;stroke-width:0.0779528;stroke-miterlimit:4;stroke-dasharray:none"
     d="m 305.4375,64.669069 c -0.98236,-0.27491 -4.57069,-0.871702 -8.1875,-1.3617 -5.39722,-0.731205 -6.35261,-0.99087 -7.17327,-1.949619 -0.53482,-0.624825 -0.8225,-1.633908 -1.32721,-4.655518 -0.21684,-1.298147 -0.65136,-3.351272 -0.96561,-4.5625 -0.31424,-1.211227 -0.596,-2.49301 -0.62612,-2.848403 -0.0503,-0.593453 -0.027,-0.664333 0.28499,-0.86878 0.22134,-0.14503 0.80696,-0.272294 1.68039,-0.365174 1.52234,-0.161884 2.34314,-0.48342 2.77219,-1.085966 0.21798,-0.306133 0.2935,-0.658268 0.37969,-1.770522 0.0592,-0.763613 0.49962,-5.369978 0.97877,-10.236367 0.47915,-4.866389 0.87118,-9.042951 0.87118,-9.28125 V 25.25 h -2.74031 -2.7403 l -0.12845,-0.40625 c -0.0707,-0.223438 -0.61851,-2.178125 -1.21747,-4.34375 -0.88678,-3.206274 -1.08743,-4.091901 -1.08046,-4.768916 0.0112,-1.087551 0.27636,-1.651671 0.8922,-1.898081 1.13952,-0.455945 5.83648,-1.728122 12.51479,-3.389639 6.57901,-1.6368136 9.15178,-2.2166097 9.93298,-2.2384874 l 0.62048,-0.017377 0.0896,0.5 c 0.21709,1.2112026 0.3863,6.1554654 0.308,9.0000004 -0.11036,4.009371 -0.39964,5.52732 -1.14662,6.016761 -0.15574,0.102046 -0.72623,0.230205 -1.26776,0.284796 -0.54152,0.05459 -1.09786,0.159877 -1.2363,0.233968 -0.18275,0.09781 -0.43354,0.693524 -0.91549,2.174592 -0.36508,1.121935 -1.53404,4.486758 -2.59768,7.477383 -2.33698,6.57086 -4.78723,13.845879 -4.78723,14.213744 0,0.603967 1.01165,1.047948 4.0608,1.782155 3.97724,0.95768 5.34509,1.728191 6.02806,3.395598 0.34202,0.835017 0.30696,4.51027 -0.0624,6.546003 -0.63383,3.492966 -1.34109,5.086872 -2.23949,5.046986 -0.19219,-0.0085 -0.63068,-0.09422 -0.97443,-0.190417 z"
     id="path3762"
     transform="scale(0.75)" />
  <path
     style="fill:none;stroke:#000000;stroke-width:0.46771654;stroke-linecap:butt;stroke-linejoin:miter;stroke-opacity:1;stroke-miterlimit:4;stroke-dasharray:none"
     d="M 238.05192,48.856659 236.56036,43.91796 Z"
     id="path3834" />
  <path
     style="fill:none;stroke:#000000;stroke-width:1.60157;stroke-linecap:butt;stroke-linejoin:miter;stroke-miterlimit:4;stroke-dasharray:none;stroke-opacity:1"
     d="m 235.05224,36.791649 -0.0166,-12.263883 z"
     id="path3836"
     sodipodi:nodetypes="ccc" />
  <path
     style="fill:#00df82;fill-opacity:1;stroke:#000000;stroke-width:0.188747;stroke-miterlimit:4;stroke-dasharray:none"
     d="m 316.60853,61.285585 c -0.46102,-1.536632 -0.88434,-2.811575 -0.94072,-2.833209 -0.0564,-0.02163 -0.12854,-0.247772 -0.16037,-0.502531 -0.0318,-0.254758 -0.1545,-0.671754 -0.2726,-0.926658 -0.51938,-1.121034 -0.68286,-3.111994 -0.66151,-8.056043 0.009,-2.114691 -0.0103,-5.417783 -0.0432,-7.340205 l -0.0598,-3.495311 0.47176,-0.229845 c 0.88964,-0.433432 1.03231,-0.450999 3.9852,-0.490732 l 2.80633,-0.03776 v -0.351303 c 0,-0.735054 -0.80718,-12.070084 -1.01876,-14.306183 -0.50148,-5.29994 -1.05591,-9.689827 -1.46643,-11.610852 -0.3602,-1.6855817 -0.14821,-2.2810926 1.00779,-2.8309635 1.45347,-0.6913652 4.19325,-1.1777501 11.24432,-1.9961719 2.84424,-0.3301323 9.35419,-1.0419491 9.38037,-1.025677 0.0149,0.00926 -0.54777,9.3404514 -0.67197,11.1438974 -0.39815,5.781561 -1.4746,12.889517 -2.52823,16.694322 -0.37482,1.353503 -1.07116,3.394064 -1.5044,4.408485 -0.99344,2.326089 -2.22205,3.361395 -5.01709,4.227722 -3.25681,1.009452 -4.28901,1.433888 -5.25737,2.161823 -0.59937,0.450554 -0.98624,1.011801 -0.98624,1.430771 0,0.148371 0.081,0.661949 0.17992,1.141283 0.39406,1.908732 1.50068,7.853293 1.72537,9.268409 0.15113,0.951789 0.24255,1.891411 0.2494,2.563262 0.0123,1.210194 -0.10113,1.542717 -0.70844,2.075938 -0.42591,0.373959 -0.76234,0.519174 -3.43728,1.483649 -2.72742,0.983402 -4.16747,1.549054 -4.85907,1.908645 -0.29168,0.151657 -0.55022,0.2855 -0.57453,0.297428 -0.0243,0.01193 -0.42139,-1.235559 -0.88241,-2.77219 z m 9.51431,-30.222786 c 0.90262,-0.18644 2.70909,-0.835647 3.56649,-1.281715 1.15105,-0.598841 1.90169,-1.456203 2.20044,-2.513279 0.055,-0.194454 0.13852,-1.07378 0.18569,-1.954058 0.0977,-1.823583 0.43805,-4.663645 0.76144,-6.354446 0.23424,-1.224698 0.36199,-2.905743 0.26151,-3.441323 -0.0941,-0.501776 -0.30251,-0.657203 -0.81476,-0.607729 -1.35787,0.131146 -5.99829,0.761956 -6.64712,0.903598 -1.5302,0.334051 -2.35935,0.908979 -2.76356,1.91625 -0.19758,0.492373 -0.20936,0.627771 -0.20679,2.378252 0.003,2.035885 0.10556,2.956245 0.7486,6.717514 0.57909,3.387219 0.8324,4.039149 1.67756,4.317588 0.21959,0.07234 0.33264,0.0635 1.0305,-0.08065 z"
     id="path4504"
     transform="scale(0.75)" />
  <path
     style="fill:#000000;fill-opacity:1;stroke:#000000;stroke-width:0.133465;stroke-miterlimit:4;stroke-dasharray:none"
     d="m 287.51849,25.018439 c -0.14452,-0.0492 -0.27674,-0.136752 -0.29383,-0.194569 -0.0171,-0.05782 -0.36993,-1.247859 -0.78411,-2.644541 -0.41418,-1.396681 -0.75305,-2.555402 -0.75305,-2.574935 0,-0.01953 0.0975,0.0052 0.21674,0.05504 0.11921,0.04981 0.26916,0.09056 0.33322,0.09056 0.10032,0 0.21821,0.369113 0.85024,2.66218 0.40358,1.464198 0.72472,2.669723 0.71366,2.678943 -0.0111,0.0092 -0.13835,-0.02349 -0.28287,-0.07268 z"
     id="path5285"
     transform="scale(0.75)" />
</svg>
