<?xml version="1.0" encoding="UTF-8" standalone="no"?>
<svg
   version="1.0"
   width="300.000000pt"
   height="70.000000pt"
   viewBox="0 0 300.000000 70.000000"
   preserveAspectRatio="xMidYMid meet"
   id="svg7460"
   sodipodi:docname="tag.svg"
   inkscape:version="1.1.1 (3bf5ae0d25, 2021-09-20)"
   xmlns:inkscape="http://www.inkscape.org/namespaces/inkscape"
   xmlns:sodipodi="http://sodipodi.sourceforge.net/DTD/sodipodi-0.dtd"
   xmlns="http://www.w3.org/2000/svg"
   xmlns:svg="http://www.w3.org/2000/svg">
  <defs
     id="defs7464" />
  <sodipodi:namedview
     id="namedview7462"
     pagecolor="#505050"
     bordercolor="#eeeeee"
     borderopacity="1"
     inkscape:pageshadow="0"
     inkscape:pageopacity="0"
     inkscape:pagecheckerboard="0"
     inkscape:document-units="pt"
     showgrid="false"
     inkscape:zoom="3.2825"
     inkscape:cx="200"
     inkscape:cy="46.763138"
     inkscape:window-width="1920"
     inkscape:window-height="1017"
     inkscape:window-x="-8"
     inkscape:window-y="-8"
     inkscape:window-maximized="1"
     inkscape:current-layer="svg7460" />
  <metadata
     id="metadata7448">
Created by potrace 1.10, written by Peter Selinger 2001-2011
</metadata>
  <g
     transform="translate(0.000000,70.000000) scale(0.100000,-0.100000)"
     fill="#3dd6d0"
     stroke="none"
     id="g7458">
    <path
       d="M2753 678 c-18 -9 -23 -22 -29 -79 -4 -38 -8 -69 -10 -69 -2 0 -13 9 -24 20 -15 15 -33 20 -74 20 -67 0 -108 -26 -156 -99 l-34 -54 -14 34 c-8 19 -18 44 -23 57 -9 24 -38 29 -69 10 -15 -10 -22 -9 -38 5 -35 32 -132 15 -195 -34 -42 -34 -57 -31 -57 10 0 33 -24 44 -68 32 -24 -7 -27 -12 -25 -47 1 -21 13 -74 26 -116 23 -72 24 -78 7 -78 -10 0 -34 -7 -53 -15 -20 -8 -57 -15 -81 -15 -36 0 -52 6 -81 31 -46 41 -48 88 -5 147 17 23 33 42 36 42 3 0 19 -11 34 -24 23 -19 36 -22 61 -17 18 4 34 12 36 18 7 19 -32 51 -78 64 -38 12 -45 11 -87 -12 -26 -13 -62 -40 -81 -58 l-34 -35 -80 17 c-128 26 -228 87 -144 87 26 0 41 -7 55 -25 23 -28 39 -31 66 -10 16 12 17 19 9 37 -8 18 -25 27 -71 37 -73 16 -121 9 -161 -25 -20 -17 -31 -20 -33 -12 -7 20 -105 14 -179 -11 -132 -44 -199 -106 -199 -186 0 -67 42 -114 103 -115 51 0 107 30 155 85 23 26 45 44 50 41 5 -3 15 -26 21 -51 12 -48 24 -54 58 -30 20 14 22 14 27 -3 19 -58 165 -52 277 10 l35 20 33 -31 c39 -37 78 -45 180 -39 58 3 89 11 117 27 21 13 40 19 42 13 1 -5 9 -18 17 -28 12 -18 16 -18 56 -4 l43 15 -3 66 c-3 79 18 138 63 176 l31 26 3 -29 c6 -73 25 -163 41 -199 15 -34 23 -41 50 -43 28 -2 32 0 27 18 -3 11 -9 29 -12 41 -10 34 -21 170 -13 161 17 -17 62 -187 81 -302 11 -69 22 -127 24 -128 1 -2 19 1 40 8 l36 12 -6 79 c-5 52 -4 79 3 79 6 0 35 9 66 21 63 24 106 62 140 128 l24 46 1 -62 c0 -72 13 -106 46 -124 21 -11 30 -10 62 5 66 32 170 115 167 134 -2 9 -4 20 -4 25 -2 18 -54 5 -72 -17 -27 -34 -86 -69 -105 -62 -12 5 -14 22 -12 93 l3 87 65 14 c63 14 100 34 100 55 0 10 -91 4 -137 -9 -21 -6 -22 -3 -25 72 -2 42 -7 79 -13 80 -5 1 -20 -2 -32 -8z m-139 -170 c25 -36 20 -108 -11 -168 -36 -68 -72 -97 -102 -81 -17 10 -21 21 -21 67 0 60 17 108 57 167 29 42 55 47 77 15z m-1219 -92 c122 -32 170 -46 184 -55 42 -27 -57 -84 -137 -79 -58 4 -67 26 -26 69 22 23 24 30 12 34 -21 8 -68 -12 -99 -41 l-26 -25 -11 43 c-6 24 -13 62 -17 86 l-7 42 29 -28 c19 -19 50 -34 98 -46z m-235 16 c0 -33 -47 -103 -86 -128 -24 -16 -28 -16 -52 -2 -38 23 -50 60 -29 92 23 34 83 65 130 66 34 0 37 -2 37 -28z"
       id="path7450" />
    <path
       d="M143 634 c-8 -21 7 -34 50 -41 40 -6 46 2 27 38 -13 24 -68 26 -77 3z"
       id="path7452" />
    <path
       d="M2213 634 c-18 -8 -16 -51 2 -58 16 -6 75 12 75 22 -1 25 -50 47 -77 36z"
       id="path7454" />
    <path
       d="M685 550 c-14 -16 -26 -19 -50 -14 -64 12 -255 -56 -300 -106 -19 -21 -19 -21 -50 42 -28 59 -33 63 -66 66 -24 2 -38 -2 -42 -10 -2 -8 17 -64 43 -125 67 -155 82 -204 78 -260 -3 -45 -5 -48 -28 -45 -68 9 -176 100 -168 141 2 9 27 27 55 41 29 14 53 28 53 33 0 22 -137 -8 -171 -39 -12 -10 -19 -30 -19 -51 0 -27 10 -44 49 -83 40 -40 62 -52 122 -70 84 -25 148 -23 181 6 17 16 20 27 15 77 -5 55 -4 57 19 57 38 0 84 27 140 82 29 27 54 46 57 41 3 -4 10 -27 16 -50 13 -48 26 -52 63 -23 l25 19 -17 63 c-21 75 -35 156 -26 147 4 -3 16 -39 27 -80 23 -84 75 -199 90 -199 12 0 61 31 72 45 4 5 18 46 32 90 14 44 36 100 50 123 37 66 18 82 -43 36 -21 -17 -45 -51 -62 -87 l-27 -59 -37 106 c-21 58 -44 106 -51 106 -6 0 -20 -9 -30 -20z m-135 -119 c0 -34 -52 -108 -92 -131 -26 -14 -29 -13 -58 15 -16 16 -30 36 -30 45 0 44 77 99 143 100 34 0 37 -2 37 -29z"
       id="path7456" />
  </g>
  <path
     style="fill:#00ff00;stroke:#000000;stroke-width:2.64566929;stroke-miterlimit:4;stroke-dasharray:none"
     d="m 320.78043,89.687567 c -0.30875,-0.812082 -1.60478,-7.745632 -3.04083,-16.267917 -1.80413,-10.706736 -5.81018,-27.378066 -8.40229,-34.966505 -0.97547,-2.855686 -2.21032,-5.551393 -2.54298,-5.551393 -0.49865,0 -0.58728,1.876106 -0.30405,6.436064 0.30177,4.858495 1.02907,11.292204 1.54539,13.670562 0.16369,0.753998 0.70176,2.762269 1.19571,4.462824 0.49395,1.700557 0.89809,3.383308 0.89809,3.739451 0,0.865615 -1.24113,1.312494 -3.01972,1.087275 -2.95244,-0.373852 -3.38768,-0.502443 -4.30052,-1.270537 -3.31267,-2.787434 -6.79087,-15.810943 -8.26412,-30.943613 -0.20799,-2.136329 -0.46387,-3.884235 -0.56863,-3.884235 -0.31855,0 -5.26982,4.335482 -6.43645,5.635948 -3.8826,4.328015 -6.01736,10.674255 -6.14001,18.25314 -0.0328,2.024749 0.009,5.518964 0.0927,7.764923 l 0.15233,4.083564 -4.72201,1.615235 c -2.59711,0.888381 -5.12007,1.621228 -5.60659,1.628549 -1.09173,0.01642 -2.77643,-1.7022 -4.04095,-4.122331 -0.76167,-1.457736 -0.97346,-1.651269 -1.80774,-1.651905 -0.54498,-3.05e-4 -2.4972,0.772018 -4.61193,1.824807 -5.96259,2.96839 -10.46517,3.748164 -21.70888,3.759625 -6.40389,0.0065 -7.41031,-0.06193 -9.53966,-0.648926 -3.5015,-0.965255 -5.58959,-2.221188 -9.26015,-5.569742 -1.80786,-1.649262 -3.40798,-3.003964 -3.55583,-3.01045 -0.14785,-0.0065 -1.86148,0.873502 -3.80808,1.955525 -8.13082,4.519564 -17.51154,7.179427 -25.27554,7.166772 -6.94353,-0.01133 -10.88637,-1.762531 -12.50595,-5.554498 -0.73868,-1.72948 -1.17673,-1.802928 -3.07688,-0.515902 -4.70144,3.184429 -6.25564,2.790291 -7.62517,-1.933712 -1.89972,-6.552866 -2.74643,-8.441475 -3.78448,-8.441475 -0.86387,0 -3.52232,2.271223 -7.01981,5.997304 -4.85445,5.171744 -9.21278,8.19582 -13.9999,9.713989 -6.33119,2.007851 -11.69922,0.892524 -15.50041,-3.220554 -2.65856,-2.876704 -3.89022,-6.166242 -3.96884,-10.600082 -0.17639,-9.946995 7.40675,-17.805051 22.86684,-23.695835 7.30759,-2.784426 13.98693,-4.155556 20.50169,-4.208573 4.40449,-0.03584 6.15752,0.319664 6.71527,1.361835 0.54594,1.0201 1.65053,0.666434 4.45293,-1.425736 3.30837,-2.469899 4.28916,-2.981226 7.30592,-3.80886 2.07836,-0.57019 2.90258,-0.630696 6.64834,-0.488054 5.90363,0.224814 12.3771,1.718303 14.89019,3.435303 1.20905,0.82605 2.62903,3.310153 2.63479,4.60929 0.004,0.89763 -1.84834,2.650247 -3.82113,3.615441 -2.31947,1.134811 -3.31102,0.789769 -6.2292,-2.167656 -1.25667,-1.273561 -2.66526,-2.516436 -3.13021,-2.761944 -2.26166,-1.194235 -7.32307,-1.241505 -8.48533,-0.07925 -0.53366,0.533659 -0.54364,0.652096 -0.12345,1.46465 0.98824,1.91106 7.8627,5.33084 15.09009,7.506748 1.92689,0.580116 6.92674,1.796345 11.11079,2.702727 l 7.60737,1.647969 3.81685,-3.719552 c 4.25399,-4.145542 8.64671,-7.28799 13.53852,-9.685137 3.53208,-1.730835 4.99962,-1.874546 8.71553,-0.853478 5.11051,1.404277 10.54064,5.007027 11.12789,7.383077 0.3832,1.550417 -1.61436,2.890685 -5.30607,3.56012 -3.08648,0.559686 -4.34342,0.03748 -9.48369,-3.940078 -1.08911,-0.842756 -2.20972,-1.5332 -2.49025,-1.534319 -1.09847,-0.0044 -6.6202,7.513794 -8.09022,11.015323 -0.67829,1.615638 -0.81302,2.401606 -0.82703,4.824226 -0.0144,2.498595 0.0911,3.123924 0.77199,4.575485 1.49935,3.196286 5.76615,7.064871 9.2646,8.399957 1.2263,0.467982 2.29527,0.578282 5.48363,0.565822 4.59748,-0.01797 6.13383,-0.302708 11.72186,-2.172472 2.25814,-0.755577 4.82764,-1.448287 5.71,-1.539354 0.88235,-0.09107 1.75996,-0.353155 1.95023,-0.582416 0.46993,-0.56623 0.0126,-2.7869 -1.71934,-8.348082 -2.46556,-7.916924 -4.10601,-15.394099 -4.10601,-18.715168 0,-3.277066 0.76274,-4.04305 4.88095,-4.901722 4.6872,-0.977309 7.30196,0.689579 7.30658,4.657898 0.003,2.897149 0.79532,4.350988 2.37007,4.350988 0.82451,0 2.99204,-1.205593 5.23675,-2.912709 5.98426,-4.551071 13.29494,-7.070346 19.65729,-6.773943 3.07987,0.143482 4.62629,0.694551 6.97055,2.483963 0.79963,0.610375 1.78953,1.109772 2.19976,1.109772 0.41024,0 1.73637,-0.506133 2.94696,-1.12474 1.81002,-0.924907 2.53522,-1.127881 4.08174,-1.142421 3.23153,-0.03038 3.4185,0.215203 7.11848,9.350177 1.20461,2.974106 2.27732,5.404393 2.3838,5.400637 0.10649,-0.0037 1.28086,-1.751659 2.60972,-3.884234 7.22261,-11.590903 11.62511,-15.189823 19.84367,-16.221609 3.00337,-0.377054 6.77356,-0.182487 9.11874,0.47059 1.0985,0.305907 2.23583,1.027511 4.07886,2.58793 1.5458,1.308759 2.6658,2.053582 2.83444,1.88495 0.15334,-0.153339 0.54275,-2.457987 0.86537,-5.12144 1.47114,-12.145346 1.78003,-13.1007305 4.67901,-14.4721918 2.13873,-1.0117984 3.68312,-1.1428378 4.09671,-0.347602 0.50409,0.9692473 0.94011,4.4204314 1.26051,9.9771518 0.40392,7.005431 0.57057,8.367111 1.13209,9.250536 0.50973,0.801943 0.25117,0.813169 5.27235,-0.22892 5.31891,-1.103878 14.35984,-1.61786 15.11822,-0.85948 0.43518,0.435182 -0.78308,2.307326 -2.08379,3.202242 -2.72624,1.875702 -7.01089,3.296874 -14.90263,4.943044 l -4.76233,0.993394 -0.18025,2.621487 c -0.0991,1.441819 -0.26305,5.706029 -0.36424,9.476021 -0.20478,7.629094 0.0713,10.701082 1.04942,11.679254 1.87143,1.87143 8.47907,-1.281514 13.60253,-6.490666 1.61473,-1.641739 3.04277,-2.772368 4.27719,-3.386388 2.07218,-1.030739 5.02229,-1.50301 5.72836,-0.91703 0.66167,0.549136 1.20823,4.133347 0.75846,4.973755 -2.41558,4.513547 -19.84493,16.900113 -25.58445,18.182163 -2.96444,0.662175 -6.7276,-1.590057 -8.46722,-5.067592 -1.29828,-2.595266 -1.60119,-4.558446 -1.96397,-12.728256 l -0.35173,-7.920792 -2.12419,4.112719 c -5.06846,9.813209 -9.33831,14.334312 -16.95826,17.956134 -3.24197,1.540935 -10.12358,3.978367 -11.23213,3.978367 -1.39747,0 -1.53237,3.067239 -0.62305,14.166032 0.31574,3.85377 0.55134,7.022419 0.52356,7.041441 -0.30395,0.208134 -7.11255,2.279817 -8.21975,2.501057 -1.39069,0.277889 -1.48141,0.255318 -1.7434,-0.433758 z m 17.56599,-30.86527 c 3.77016,-1.71207 9.0976,-9.708893 11.281,-16.933493 0.74861,-2.477096 0.83009,-3.212417 0.84393,-7.616146 0.0138,-4.38463 -0.0544,-5.0478 -0.67844,-6.600952 -1.41002,-3.509212 -3.99793,-5.372454 -6.5702,-4.730404 -3.5554,0.887441 -9.51515,10.277787 -11.6748,18.395125 -0.70896,2.664731 -0.79861,3.58534 -0.82511,8.473169 -0.0286,5.275178 -9.1e-4,5.540735 0.73188,6.986002 1.26842,2.502111 4.04606,3.318949 6.89174,2.026699 z M 196.09006,55.729173 c 8.04117,-0.896643 15.94345,-5.109289 15.94345,-8.499327 0,-0.37398 -0.44554,-1.120701 -0.9901,-1.659384 -1.20653,-1.193527 -4.48433,-2.318794 -15.15613,-5.20309 -13.55367,-3.663186 -15.05541,-4.124286 -17.85546,-5.482388 -2.1659,-1.050522 -3.43721,-1.955083 -5.78827,-4.118446 -2.01692,-1.855894 -3.04459,-2.619618 -3.10901,-2.310491 -0.25885,1.242047 3.82971,21.465254 4.48586,22.188395 0.11257,0.124058 1.47718,-0.934523 3.03247,-2.352396 3.18782,-2.906145 5.43715,-4.377792 8.39006,-5.489265 2.24136,-0.843643 4.90779,-1.007698 5.79804,-0.356728 0.72881,0.532917 0.43154,1.080981 -2.12746,3.922233 -2.01926,2.241993 -3.48883,4.726029 -3.48883,5.89721 0,1.696109 2.27017,3.059046 5.78827,3.475089 1.08911,0.128795 2.01987,0.252192 2.06836,0.274212 0.0485,0.02203 1.40243,-0.106511 3.00875,-0.285624 z m -53.6502,-2.281143 c 3.78857,-2.268134 8.31501,-7.574818 10.76501,-12.620645 1.32452,-2.727872 1.4029,-3.031321 1.4029,-5.431425 0,-3.437664 -0.0752,-3.489238 -4.87434,-3.340837 -3.12476,0.09663 -4.0417,0.249124 -6.31296,1.049928 -3.63271,1.280823 -6.97173,3.25016 -9.21109,5.432649 -2.28948,2.231327 -2.99184,3.639001 -3.15533,6.323915 -0.10748,1.765026 -0.01,2.295594 0.6861,3.717477 0.94091,1.923147 3.03519,3.92029 5.3635,5.114739 2.16079,1.108509 3.15016,1.062937 5.33621,-0.245801 z"
     id="path7583"
     transform="scale(0.75)" />
  <path
     style="fill:#00ff00;stroke:#000000;stroke-width:2.64566929;stroke-miterlimit:4;stroke-dasharray:none"
     d="M 34.577304,85.892043 C 31.736104,85.509179 25.507079,83.946062 22.265641,82.802541 16.656412,80.823704 13.72288,78.898577 8.8894504,74.02443 5.0986839,70.201727 3.5187127,67.926017 3.0338123,65.590264 c -0.604415,-2.911452 0.092204,-6.06507 1.7736769,-8.02949 1.8900788,-2.208134 7.8634668,-4.684497 14.6220538,-6.06181 3.324957,-0.677584 7.821299,-0.835598 8.160485,-0.286781 0.368472,0.596198 -1.14791,1.716749 -5.257322,3.884972 -4.816261,2.541169 -7.11994,4.034309 -8.194409,5.311241 -0.667154,0.792868 -0.774761,1.165733 -0.651649,2.257983 0.563667,5.000838 11.082202,14.173712 19.468819,16.97813 2.297413,0.768237 4.902388,1.010812 5.66396,0.527427 0.651373,-0.413438 0.999991,-2.170394 1.192256,-6.008673 C 40.1891,66.628707 38.701941,61.37472 31.064321,43.259711 27.369717,34.4968 24.97891,28.231541 24.185575,25.233529 c -0.445166,-1.682284 -0.469338,-2.114743 -0.140356,-2.511142 1.0334,-1.245171 5.784967,-1.366541 8.389796,-0.214301 1.608589,0.711556 2.5249,2.080558 5.680568,8.486986 2.534842,5.146072 3.619454,6.781013 4.498489,6.781013 0.285328,0 1.129958,-0.62317 1.876953,-1.384823 4.49533,-4.583531 16.175619,-10.030293 27.710041,-12.921769 5.586014,-1.400315 7.626462,-1.638876 12.053548,-1.409254 2.463586,0.12778 4.288551,0.08936 4.788758,-0.10082 0.444515,-0.169004 1.62354,-1.056838 2.620055,-1.972964 0.996515,-0.916126 2.225554,-1.879619 2.731193,-2.141096 0.891068,-0.460789 0.939619,-0.449722 1.578468,0.359797 1.661276,2.105095 4.475192,8.84787 8.230972,19.723252 1.38876,4.021325 2.63443,7.437243 2.76816,7.590927 0.13777,0.158327 0.33528,0.0263 0.45575,-0.304646 0.62321,-1.712123 5.35174,-11.229076 6.21222,-12.503131 3.09533,-4.583064 5.64846,-7.036564 9.34667,-8.981933 2.92356,-1.537882 4.28349,-1.059853 3.91802,1.377226 -0.24585,1.639486 -4.0859,9.380782 -5.90674,11.90762 -2.68769,3.72981 -4.31878,8.364214 -4.31878,12.270958 0,1.319442 -0.32211,2.695707 -1.22011,5.21309 -0.67106,1.881201 -1.43098,3.828141 -1.68871,4.326532 -0.70443,1.362218 -5.68374,4.854111 -8.64217,6.060591 -1.03019,0.420125 -1.05128,0.412286 -2.08824,-0.77593 -0.57615,-0.660189 -1.98449,-3.119613 -3.129641,-5.465386 -3.388094,-6.94028 -5.697213,-13.158917 -8.540689,-23.000762 -1.385026,-4.79386 -2.498851,-7.616146 -3.005739,-7.616146 -1.113612,0 0.985219,10.768998 4.824926,24.756475 l 0.900104,3.27894 -2.350526,1.789304 c -2.780234,2.116411 -4.486839,3.077033 -5.46655,3.077033 -1.273867,0 -2.377008,-1.505511 -3.257139,-4.445176 -1.647574,-5.502955 -2.434846,-7.583799 -2.902587,-7.671857 -0.703284,-0.132396 -2.837492,1.401347 -6.340502,4.556585 -5.811817,5.234833 -7.193779,6.381791 -9.736232,8.080579 -3.278903,2.190864 -6.512895,3.445359 -9.455589,3.667915 -3.481108,0.263274 -3.552651,0.38619 -3.21798,5.528591 0.483961,7.436301 0.396966,9.117084 -0.55578,10.737776 -1.671336,2.843064 -5.498063,4.48676 -10.8976,4.680844 -1.75933,0.06324 -4.158416,-0.01435 -5.331302,-0.172384 z M 60.631305,53.709557 c 2.988814,-1.489389 7.661335,-6.477993 10.358419,-11.059138 2.163007,-3.673988 3.003632,-7.546914 2.078687,-9.576946 -0.456606,-1.002137 -1.587948,-1.207179 -5.539171,-1.003906 -3.481529,0.17911 -6.244131,0.995373 -9.617176,2.841573 -6.359287,3.480692 -10.083811,9.106285 -8.098078,12.231496 1.3863,2.181806 3.21448,4.288325 5.00538,5.767451 2.332777,1.926665 3.286645,2.057876 5.811939,0.79947 z"
     id="path7622"
     transform="scale(0.75)" />
  <path
     style="fill:#00ffc2;stroke:#000000;stroke-width:2.64566929;stroke-miterlimit:4;stroke-dasharray:none;fill-opacity:1"
     d="m 294.58329,15.679419 c -0.94874,-1.009886 -1.2215,-4.129793 -0.48548,-5.553096 0.89065,-1.7223235 3.89893,-2.0307 6.96961,-0.7144502 2.55723,1.0961562 4.65183,3.5232172 3.86197,4.4749442 -0.89705,1.080881 -5.62303,2.551143 -8.22739,2.559556 -1.10122,0.0036 -1.54616,-0.157507 -2.11871,-0.766954 z"
     id="path7661"
     transform="scale(0.75)" />
  <path
     style="fill:#00ff00;stroke:#000000;stroke-width:2.64566929;stroke-miterlimit:4;stroke-dasharray:none"
     d="m 24.376946,13.841841 c -2.594182,-0.562303 -4.624115,-1.627507 -5.141891,-2.698196 -0.88321,-1.8263587 0.669989,-3.8432996 3.30208,-4.2879885 1.701203,-0.2874165 4.401811,0.3483182 5.536863,1.3034016 1.718086,1.4456746 2.9237,4.8950329 2.025012,5.7937219 -0.48024,0.48024 -3.241663,0.426702 -5.722064,-0.110939 z"
     id="path7700"
     transform="scale(0.75)" />
  <path
     style="fill:#00ffc2;fill-opacity:1;stroke:#000000;stroke-width:0.805992;stroke-miterlimit:4;stroke-dasharray:none"
     d="m 321.7168,87.052551 c -0.18938,-0.879664 -1.0259,-5.410233 -1.85892,-10.06793 -3.70719,-20.728222 -7.99765,-37.657395 -11.09066,-43.761151 -0.97765,-1.929292 -2.09053,-2.294556 -3.16944,-1.040252 -0.7257,0.843678 -0.73131,0.900895 -0.56186,5.73585 0.29365,8.378982 1.49662,16.211454 3.45821,22.516195 0.16521,0.531019 0.0506,0.556429 -1.5868,0.351847 -0.97068,-0.121279 -2.08338,-0.341605 -2.47268,-0.489617 -2.91117,-1.106824 -6.57459,-13.744137 -8.17029,-28.184255 -0.2761,-2.498534 -0.62739,-5.03454 -0.78065,-5.63557 -0.31112,-1.220204 -1.28608,-1.854521 -2.28335,-1.485581 -0.9427,0.348748 -6.51174,5.440828 -7.8374,7.166159 -1.69291,2.20332 -3.46967,6.037925 -4.38557,9.464968 -0.7695,2.879229 -0.80486,3.355226 -0.82964,11.168512 l -0.0259,8.161106 -4.23565,1.364758 c -2.32961,0.750617 -4.48222,1.286501 -4.78359,1.190855 -0.30135,-0.09565 -1.096,-1.023568 -1.76587,-2.062044 -2.13698,-3.31289 -2.24975,-3.414642 -3.75007,-3.383531 -0.92899,0.01925 -2.54779,0.563052 -5.25673,1.765843 -6.90639,3.066498 -9.90036,3.572399 -21.18295,3.579357 -7.16878,0.0044 -7.56017,-0.02614 -9.90099,-0.77285 -2.8181,-0.898967 -4.39427,-1.908542 -8.30772,-5.321304 -1.55326,-1.354528 -3.07475,-2.59692 -3.38109,-2.760871 -0.78055,-0.417737 -1.40638,-0.182376 -6.70598,2.521992 -4.97234,2.537371 -10.82824,4.657822 -15.26858,5.528832 -1.42422,0.279372 -4.37167,0.578864 -6.54989,0.665538 -6.5707,0.261457 -10.32291,-0.924846 -11.98839,-3.790269 -0.4437,-0.763379 -1.18401,-1.788424 -1.64514,-2.277877 -0.71557,-0.759525 -0.98251,-0.858263 -1.82193,-0.673895 -0.54093,0.118809 -1.80873,0.731169 -2.81734,1.360799 -2.25076,1.405063 -3.09681,1.681949 -3.67446,1.202543 -0.24226,-0.201066 -1.0056,-2.165934 -1.6963,-4.366373 -2.14486,-6.833139 -3.16016,-8.226309 -5.48703,-7.529161 -0.94857,0.284195 -2.41924,1.524332 -6.46498,5.45155 -7.14039,6.931201 -10.34999,9.076094 -15.58482,10.414939 -2.96563,0.75848 -5.06038,0.771595 -7.39085,0.04627 -7.7412,-2.409337 -11.03957,-11.871391 -7.02506,-20.152871 2.19526,-4.528585 6.88007,-8.634968 13.82374,-12.116936 8.07101,-4.047285 17.35568,-6.598923 24.81141,-6.818737 4.90395,-0.144582 6.34248,-0.0075 7.01902,0.669088 1.67541,1.675407 3.04058,1.381341 7.15532,-1.541294 5.09079,-3.615912 8.50967,-4.266349 16.74836,-3.186352 6.68725,0.876623 10.38537,2.514889 11.44352,5.069481 0.33793,0.815832 0.295,0.972289 -0.49214,1.793895 -0.4743,0.495061 -1.44603,1.182656 -2.15939,1.527988 -1.6307,0.789409 -1.86,0.679899 -5.22488,-2.49527 -2.95476,-2.788185 -4.2498,-3.313135 -8.1734,-3.313135 -3.82304,0 -5.60049,0.953151 -5.60049,3.003245 0,2.136449 4.14201,5.013137 11.19657,7.776177 3.84693,1.506716 7.72135,2.561254 16.93288,4.608791 l 7.83391,1.741319 3.57201,-3.464207 c 4.18391,-4.057633 7.91057,-6.927295 11.7679,-9.061707 4.83575,-2.675806 6.42932,-2.963994 10.12694,-1.831394 4.69544,1.438239 10.50217,5.374917 9.57537,6.491639 -0.42356,0.510363 -2.59229,1.259656 -4.49614,1.55341 -1.67605,0.258606 -3.19845,-0.422689 -6.7195,-3.007071 -3.45714,-2.537468 -4.07988,-2.785329 -5.41102,-2.153665 -1.73906,0.825239 -6.19109,6.841803 -8.16163,11.029787 -0.8552,1.817554 -0.9774,2.418352 -1.08023,5.310833 -0.086,2.417892 0.008,3.625228 0.3633,4.667976 1.14942,3.373347 5.32106,7.702504 9.32816,9.680387 1.89738,0.936536 2.13995,0.977624 6.37218,1.079403 5.08651,0.122324 6.45477,-0.09071 12.41222,-1.932521 2.36829,-0.732183 4.83592,-1.420518 5.48362,-1.529633 2.03159,-0.342245 3.15183,-0.785203 3.46482,-1.370032 0.62782,-1.1731 0.25453,-3.464302 -1.64561,-10.100457 -2.5099,-8.765697 -3.55008,-13.440194 -3.75749,-16.885818 -0.15926,-2.645903 -0.13481,-2.79371 0.54032,-3.266591 0.38892,-0.272411 1.69293,-0.714612 2.8978,-0.982671 1.73768,-0.386597 2.45015,-0.417507 3.44553,-0.14948 1.55408,0.418469 2.02203,1.252081 2.27109,4.045737 0.26672,2.991736 1.2957,4.633686 3.11809,4.975568 1.33926,0.251246 2.95623,-0.506498 7.07463,-3.315303 3.98516,-2.717932 6.83898,-4.139245 10.5773,-5.267892 2.31458,-0.698802 3.33519,-0.832185 6.54988,-0.856002 4.15802,-0.03081 4.34391,0.02271 7.88276,2.269429 2.08589,1.324276 3.21819,1.330444 5.97863,0.03256 1.17288,-0.551458 2.7722,-1.079175 3.55403,-1.172705 1.99632,-0.23882 2.49313,0.367793 4.79357,5.853079 3.28215,7.826133 3.38528,8.02677 4.38155,8.523772 0.73112,0.364735 1.01077,0.38213 1.36863,0.08514 0.24736,-0.205295 1.84728,-2.501301 3.55538,-5.102239 5.22088,-7.949908 7.87841,-10.842871 11.76952,-12.812173 3.4178,-1.729756 8.62916,-2.486526 12.72385,-1.847697 2.6569,0.414514 3.23732,0.690769 5.83519,2.777303 2.39688,1.925109 3.07691,2.261802 4.06658,2.013411 1.0312,-0.258814 1.25537,-1.079019 2.17551,-7.959594 1.34,-10.0202609 1.6092,-10.7807658 4.19536,-11.852573 0.78969,-0.3272825 1.51083,-0.5200364 1.60253,-0.4283421 0.3317,0.3317065 0.74266,3.8815025 1.21012,10.4530401 0.40607,5.708395 0.57709,6.903837 1.15332,8.061975 0.46745,0.939513 0.92801,1.423686 1.49017,1.566583 0.46698,0.118704 2.45716,-0.102249 4.6713,-0.518614 4.49152,-0.844623 10.00837,-1.427471 12.18454,-1.28728 l 1.52323,0.09813 -1.67556,0.990578 c -0.92155,0.544818 -2.42955,1.277889 -3.3511,1.629046 -1.99776,0.761246 -8.31666,2.39916 -12.86467,3.334636 -3.23751,0.66592 -3.26991,0.681233 -3.43583,1.624041 -0.34365,1.95264 -0.67558,17.51185 -0.43426,20.35588 0.13782,1.624275 0.46603,3.369859 0.72936,3.87908 1.94196,3.755351 8.52564,1.543187 16.10247,-5.410543 3.08804,-2.834096 4.76596,-3.856095 6.88808,-4.195437 1.34527,-0.215116 1.35703,-0.202608 1.68973,1.796408 0.1842,1.106757 0.10572,1.244905 -1.8696,3.29098 -5.9004,6.111753 -19.92246,15.203427 -23.4482,15.203427 -3.22687,0 -6.18502,-3.018184 -7.07515,-7.218763 -0.38222,-1.803723 -0.83401,-8.337414 -1.13867,-16.467452 -0.1146,-3.057882 -0.29224,-5.55734 -0.39477,-5.554349 -0.10253,0.003 -1.55428,2.641987 -3.22611,5.864433 -7.43755,14.335823 -11.99265,18.501088 -24.72072,22.605066 -5.02022,1.618693 -4.89422,1.561545 -5.50603,2.497457 -0.47988,0.734074 -0.54045,1.457297 -0.47959,5.72598 0.0383,2.687183 0.24903,7.054915 0.46826,9.706074 0.21922,2.651156 0.32497,4.865274 0.23498,4.920262 -0.20104,0.122846 -6.59017,1.988314 -6.80987,1.988314 -0.0868,0 -0.31273,-0.719726 -0.50213,-1.599391 z M 338.11152,60.45745 c 4.02594,-1.195573 9.67694,-8.890827 12.62915,-17.197739 0.86977,-2.44737 0.92741,-2.899129 1.05019,-8.231245 0.11707,-5.084673 0.0691,-5.814898 -0.48639,-7.395213 -1.26838,-3.60877 -4.25174,-6.308044 -6.97194,-6.308044 -3.49744,0 -7.58116,4.416003 -11.37806,12.303878 -0.97693,2.029515 -2.14735,4.923845 -2.60094,6.431842 -0.75215,2.500555 -0.83645,3.293645 -0.95803,9.013185 -0.1259,5.922316 -0.0965,6.356945 0.52807,7.808814 1.47942,3.439003 4.38012,4.705328 8.18795,3.574522 z M 200.75361,56.349834 c 8.93067,-2.343756 14.24039,-6.946489 12.20049,-10.575997 -1.31501,-2.339738 -3.3506,-3.163717 -17.12597,-6.932338 -16.71667,-4.573298 -17.70802,-4.977737 -22.63417,-9.234001 -2.99086,-2.584149 -4.14359,-3.075235 -5.06221,-2.156613 -0.5074,0.507399 -0.57543,0.847704 -0.40781,2.039833 0.79541,5.657084 3.84519,20.336319 4.47339,21.531442 0.86219,1.640256 1.87947,1.426251 4.68922,-0.986468 2.97494,-2.554559 4.52117,-3.740911 5.92332,-4.544676 1.64178,-0.941133 4.45362,-1.92666 5.49703,-1.92666 h 0.92684 l -1.70835,1.904037 c -1.71357,1.909861 -3.82394,5.594653 -3.82394,6.676765 0,2.054361 2.06434,3.893249 5.29581,4.717447 2.35306,0.600155 8.54468,0.330099 11.75635,-0.512771 z m -58.2895,-1.23936 c 3.1613,-1.505268 8.11518,-6.743214 10.91949,-11.545651 2.1065,-3.607419 2.59507,-5.126852 2.59507,-8.070526 0,-4.485416 -0.5146,-4.899634 -5.99901,-4.828721 -4.50688,0.05827 -6.70555,0.631257 -11.13596,2.902071 -3.67918,1.88577 -7.11411,4.950029 -8.32641,7.427887 -0.666,1.361249 -0.81982,2.117145 -0.84898,4.172 -0.0312,2.200195 0.0699,2.710666 0.82067,4.141154 1.89815,3.616768 6.87856,7.008607 9.64811,6.570697 0.58644,-0.09273 1.6336,-0.438736 2.32702,-0.768911 z"
     id="path9184"
     transform="scale(0.75)" />
  <path
     style="fill:#00db8c;fill-opacity:1;stroke:#000000;stroke-width:0.805992;stroke-miterlimit:4;stroke-dasharray:none"
     d="M 34.399442,84.388137 C 31.793088,83.972423 25.677183,82.374306 22.660441,81.320676 19.455654,80.201371 16.674186,78.736369 14.339736,76.938145 11.734832,74.931592 6.3534192,69.185797 5.3313024,67.319738 4.5376633,65.870806 4.4197329,65.350434 4.435356,63.366337 c 0.035006,-4.445709 1.7002399,-6.111586 8.512093,-8.515376 3.853169,-1.35972 10.814927,-2.875308 10.814927,-2.354431 0,0.08504 -1.336633,0.869971 -2.970297,1.744296 -4.178857,2.23649 -6.955727,4.124944 -7.915171,5.382842 -1.692363,2.218803 -0.738649,5.661694 2.693878,9.724856 4.649933,5.504238 13.389223,11.080497 19.141909,12.213837 4.098019,0.807354 5.530522,0.07796 6.158108,-3.135549 C 41.406577,75.68343 41.309209,68.541185 40.696637,65.651181 39.993578,62.33427 37.653149,55.472481 35.03359,49.047982 27.389302,30.300258 24.990664,23.955769 25.394421,23.552012 c 0.07243,-0.07243 0.884069,-0.209337 1.803649,-0.304246 2.253587,-0.232591 4.513206,0.34495 5.539096,1.415748 0.451971,0.471756 1.96305,3.03244 3.357954,5.69041 3.473529,6.618758 4.320511,7.962922 5.354513,8.497625 1.254742,0.648852 2.13394,0.329212 4.223921,-1.53564 2.409179,-2.14967 3.912429,-3.157962 7.679582,-5.15101 5.71933,-3.025864 13.414651,-5.862552 20.828128,-7.677768 2.874075,-0.703726 4.153383,-0.836996 8.987053,-0.936205 3.099771,-0.06362 5.931205,-0.178463 6.292076,-0.255203 0.580497,-0.123443 1.401078,-0.720831 4.714291,-3.432028 l 0.855311,-0.699899 1.501886,3.137066 c 1.566361,3.271733 3.812269,9.100425 7.059099,18.320085 1.05258,2.988893 2.11472,5.635291 2.36031,5.880884 0.55285,0.552847 2.19888,0.425979 2.53857,-0.195662 0.13734,-0.251333 1.41273,-2.869086 2.8342,-5.817229 2.97441,-6.168967 4.84199,-9.108201 7.47769,-11.768552 2.45023,-2.47313 6.71234,-5.054285 6.71234,-4.06502 0,0.985489 -4.24618,9.365353 -6.14763,12.132405 -2.30923,3.36044 -3.68877,7.352958 -4.18367,12.107886 -0.3728,3.581779 -2.18889,8.765819 -3.51255,10.026614 -1.14732,1.092831 -4.89979,3.574848 -6.25061,4.134376 -0.93554,0.387519 -1.03317,0.367339 -1.56736,-0.323982 -0.92551,-1.197748 -4.372163,-8.359927 -5.999061,-12.466102 -1.470227,-3.71076 -2.942217,-8.073358 -5.549148,-16.446231 -1.609526,-5.169442 -2.311022,-6.675355 -3.281438,-7.044305 -0.946355,-0.359804 -2.105185,0.316327 -2.373343,1.384752 -0.415675,1.656182 1.48817,11.359399 4.325891,22.047527 1.350623,5.087049 1.38001,5.288636 0.833134,5.715064 -1.658629,1.29332 -5.091291,3.482569 -5.460537,3.482569 -0.610373,0 -1.388825,-1.720095 -2.856959,-6.312847 -1.537164,-4.808701 -2.037164,-5.568342 -3.665118,-5.568342 -1.415467,0 -2.579376,0.831015 -8.668993,6.18953 -8.688399,7.645298 -11.83108,9.419564 -17.897414,10.104371 -2.041797,0.230492 -3.125212,1.110614 -3.392167,2.755662 -0.09563,0.589292 -0.03758,3.158837 0.12899,5.710099 0.166571,2.551266 0.212953,5.392043 0.10307,6.312838 -0.174973,1.46623 -0.375643,1.849782 -1.615591,3.087964 -1.104473,1.102897 -1.87547,1.555518 -3.506197,2.058333 -2.404539,0.741417 -7.879269,1.075028 -10.577947,0.644588 z m 26.655446,-29.26672 c 2.787957,-1.310495 7.182133,-5.671729 10.209487,-10.132947 2.461727,-3.627691 3.952115,-8.28631 3.536859,-11.055433 -0.451699,-3.012159 -2.661237,-3.85931 -8.372104,-3.209919 -5.653715,0.642893 -10.434885,2.888737 -14.366473,6.748321 -3.012226,2.957058 -4.046368,4.904396 -4.066301,7.657036 -0.01319,1.822407 0.08806,2.166806 1.030072,3.503427 2.255327,3.200092 5.709849,6.487187 7.418739,7.059178 1.255461,0.420222 2.949084,0.210928 4.609721,-0.569663 z"
     id="path9223"
     transform="scale(0.75)" />
  <path
     style="fill:#00db8c;fill-opacity:1;stroke:#000000;stroke-width:0.805992;stroke-miterlimit:4;stroke-dasharray:none"
     d="m 322.50385,87.795781 c -0.0711,-0.115556 -0.62882,-2.951912 -1.23929,-6.303016 -2.68327,-14.729569 -5.4312,-27.653999 -7.48787,-35.217996 -2.09154,-7.692219 -4.42667,-13.914506 -5.57605,-14.858166 -1.28855,-1.057915 -3.37491,0.06419 -3.74025,2.0116 -0.277,1.476528 0.3876,11.385628 1.07965,16.097433 0.3216,2.189593 0.94755,5.458218 1.391,7.26361 0.44345,1.805392 0.7459,3.3429 0.67212,3.416685 -0.0738,0.07379 -0.73509,0.03996 -1.46957,-0.07516 -1.81975,-0.285234 -3.03318,-1.630531 -4.20015,-4.656579 -2.15942,-5.599552 -3.76283,-12.853096 -5.05087,-22.849241 -0.96469,-7.486777 -1.2744,-8.253281 -3.33472,-8.253281 -0.81848,0 -4.27328,2.883249 -7.34432,6.129301 -2.3662,2.501046 -4.01677,5.505535 -5.50298,10.016929 -0.83945,2.548155 -0.85491,2.728618 -0.96844,11.305694 l -0.11537,8.716201 -3.55552,1.081084 c -5.26017,1.599403 -4.6988,1.64461 -6.17258,-0.497078 -0.70783,-1.0286 -1.63375,-2.247181 -2.05759,-2.707957 -1.17121,-1.273262 -2.7932,-1.140381 -6.90188,0.565434 -8.39934,3.48719 -9.1898,3.623446 -21.02056,3.623446 -9.11054,0 -9.50432,-0.0244 -11.15165,-0.690845 -2.24366,-0.907708 -3.70969,-1.90751 -7.67319,-5.232957 -2.52721,-2.120381 -3.49763,-2.758605 -4.19441,-2.758605 -0.49859,0 -2.24067,0.668314 -3.87129,1.48514 -9.90396,4.961197 -16.12178,6.864298 -23.68683,7.249879 -6.34686,0.323492 -9.90177,-0.728225 -11.75051,-3.476371 -2.48819,-3.698684 -3.24846,-3.880518 -7.20574,-1.7234 -1.71007,0.932158 -2.67522,1.300856 -2.87702,1.099055 -0.16702,-0.167022 -0.95874,-2.210242 -1.75938,-4.540487 -2.23814,-6.514029 -2.84811,-7.405316 -5.06799,-7.405316 -1.55457,0 -2.38719,0.623305 -8.34768,6.2491 -6.79244,6.411043 -10.09634,8.537023 -15.15773,9.753642 -5.71749,1.37433 -10.82434,-0.944226 -13.31577,-6.04549 -3.52972,-7.227162 -0.7942,-15.388018 7.09808,-21.175683 5.41115,-3.968174 13.31955,-7.455953 21.2231,-9.359862 4.33291,-1.043767 6.95565,-1.359036 11.61762,-1.396505 3.93768,-0.03165 4.12741,-0.0039 5.23746,0.765344 2.00621,1.390302 3.40105,1.034332 7.94231,-2.026908 3.52282,-2.374709 5.40593,-3.030391 9.17062,-3.193126 5.82266,-0.251693 13.59996,1.280497 16.07634,3.167167 0.548,0.417504 1.21829,1.097794 1.48953,1.511757 0.46772,0.713829 0.45561,0.792896 -0.23475,1.532592 -0.40036,0.428963 -1.21938,1.032018 -1.82007,1.340122 -1.30828,0.671046 -1.4241,0.613715 -4.87578,-2.413561 -1.2206,-1.070521 -2.82184,-2.212947 -3.55832,-2.538726 -2.71935,-1.2029 -8.18093,-0.981298 -9.94124,0.403363 -1.00032,0.786846 -1.298,2.35069 -0.67631,3.552902 1.48371,2.869188 8.51902,6.611186 16.96325,9.02256 2.63765,0.753219 18.61888,4.453749 19.23411,4.453749 0.18333,0 1.71863,-1.349931 3.41178,-2.999851 5.43895,-5.300071 8.9562,-7.943145 13.83638,-10.397488 4.24004,-2.1324 6.59982,-1.976829 11.96694,0.788933 2.47883,1.277378 5.15023,3.227911 5.15023,3.760456 0,0.304315 -1.23128,0.799945 -3.13086,1.260268 -1.9459,0.471549 -3.11028,0.0097 -7.37058,-2.923462 -3.50456,-2.412858 -4.32498,-2.667053 -5.92968,-1.837228 -1.67776,0.867605 -5.88845,6.455315 -7.96632,10.571547 -1.7608,3.488124 -1.94004,9.123865 -0.39081,12.287805 1.54806,3.161547 6.11308,7.427412 9.59788,8.968904 1.72034,0.76099 7.97605,1.136335 11.22997,0.673807 1.25667,-0.178632 4.40975,-0.935647 7.00686,-1.682258 2.59711,-0.74661 5.6072,-1.579646 6.68911,-1.851192 4.10728,-1.030873 4.1583,-1.676134 1.03292,-13.063568 -2.36591,-8.620301 -3.13097,-12.118873 -3.35257,-15.331153 l -0.1923,-2.787428 0.88172,-0.452746 c 1.55933,-0.80069 4.26645,-1.217998 5.4237,-0.836074 1.19481,0.394324 1.50425,1.029221 2.0089,4.121765 0.3625,2.221441 1.1779,3.907102 2.13872,4.421316 0.80208,0.42926 2.89068,0.371535 4.03914,-0.111635 0.53917,-0.226836 2.58335,-1.45475 4.54261,-2.728698 6.04575,-3.931058 9.67503,-5.456281 14.33699,-6.025201 4.35355,-0.531283 6.30837,-0.222661 9.20926,1.453934 3.17231,1.833467 4.25443,1.950832 7.18289,0.779045 2.70879,-1.083887 4.03176,-1.40123 4.8108,-1.153975 0.73007,0.231718 1.8734,2.401213 4.46692,8.476088 2.15132,5.039104 2.86568,6.008797 4.42661,6.008797 0.75302,0 1.22078,-0.553523 4.2638,-5.045556 4.53225,-6.690392 6.94296,-9.623431 9.38792,-11.42198 3.54404,-2.607059 8.37468,-3.894106 13.30874,-3.545904 3.07712,0.217156 4.54135,0.809457 7.2359,2.927014 1.09326,0.859162 2.38827,1.701735 2.8778,1.872386 1.20516,0.420121 2.43817,-0.07995 2.84836,-1.155211 0.17693,-0.463781 0.78674,-3.927778 1.35513,-7.697771 1.17721,-7.8080448 1.42948,-8.8597825 2.36301,-9.8514554 0.77038,-0.8183642 2.25395,-1.5125235 2.47347,-1.1573301 0.0816,0.1320739 0.36377,2.6973537 0.62699,5.7006215 1.03283,11.784531 1.26333,12.853161 2.98235,13.82654 0.83409,0.472297 0.65393,0.487722 8.67601,-0.742812 1.54861,-0.237547 4.01624,-0.521662 5.48363,-0.631367 2.38171,-0.178063 2.60259,-0.151895 2.05867,0.243888 -1.53067,1.113799 -9.46351,3.441186 -16.33465,4.792369 -2.80574,0.551739 -2.74755,0.437266 -3.03499,5.970151 -0.36346,6.995967 -0.33429,16.065124 0.0589,18.323174 0.7894,4.533091 4.09086,5.443053 9.5681,2.637198 2.56712,-1.315074 4.29527,-2.561143 7.90954,-5.703126 3.12202,-2.71405 4.7035,-3.724006 6.28335,-4.012624 1.04798,-0.191455 1.10817,-0.155873 1.29212,0.763859 0.25662,1.283111 0.0383,1.623351 -2.74978,4.285737 -4.41162,4.212719 -12.01564,9.550952 -17.61563,12.366656 -2.98614,1.501454 -3.51,1.669965 -4.81016,1.547327 -2.5684,-0.242266 -5.0032,-2.836253 -5.82724,-6.208219 -0.52833,-2.161929 -0.69522,-4.085255 -1.22549,-14.123169 -0.41307,-7.819363 -0.56846,-8.953879 -1.19825,-8.748581 -0.1888,0.06154 -1.07397,1.472514 -1.96705,3.135494 -5.49764,10.237033 -7.44701,13.280234 -10.6639,16.647704 -3.62687,3.796631 -7.79594,6.145877 -15.28277,8.61176 -1.92689,0.634644 -4.00584,1.405925 -4.6199,1.713962 -1.7816,0.893721 -1.91274,1.69313 -1.61747,9.859576 0.13947,3.857228 0.2633,8.034775 0.27518,9.283443 l 0.0216,2.270303 -1.21858,0.357435 c -0.67023,0.196591 -1.93534,0.57186 -2.81136,0.833931 -0.87603,0.262075 -1.65098,0.381953 -1.72212,0.266398 z m 16.76887,-27.327964 c 3.99314,-1.775113 9.45573,-9.613325 12.00723,-17.22906 0.88205,-2.632731 0.91835,-2.956841 0.97949,-8.744222 0.0631,-5.972871 0.0583,-6.021175 -0.76942,-7.788029 -2.32073,-4.953753 -6.18768,-7.013604 -9.8297,-5.236097 -2.80116,1.367122 -6.48475,6.182821 -9.30875,12.169701 -2.57037,5.449173 -3.06102,7.300481 -3.39729,12.818382 -0.16337,2.680883 -0.23288,5.977673 -0.15445,7.3262 0.36815,6.330364 4.84293,9.185873 10.47289,6.683125 z M 202.12279,56.537325 c 8.86368,-2.669953 13.53479,-7.433864 11.14006,-11.361386 -1.2757,-2.092235 -4.41544,-3.335787 -17.52789,-6.942263 -14.76055,-4.05977 -17.19213,-4.999171 -20.96224,-8.0984 -4.43889,-3.648993 -5.74179,-4.233922 -6.96503,-3.126902 -0.39293,0.355592 -0.55712,0.936917 -0.55712,1.972474 0,2.53881 3.44595,19.73294 4.43373,22.122811 0.95958,2.32166 2.48914,1.967214 6.68513,-1.549152 1.50761,-1.263418 3.42688,-2.711598 4.26505,-3.218178 1.7776,-1.074367 4.31276,-2.064902 4.58587,-1.791787 0.10427,0.104277 -0.36393,0.889853 -1.04046,1.745725 -1.95027,2.467275 -3.20208,5.251445 -2.95451,6.571137 0.27511,1.466431 2.11397,3.261688 4.17402,4.075047 1.48551,0.586513 2.10211,0.634882 6.81233,0.534364 4.55616,-0.09723 5.50753,-0.20949 7.91106,-0.93349 z M 142.9768,55.471893 c 1.93692,-0.937651 6.1632,-4.976396 8.58714,-8.206117 3.77436,-5.029036 5.26156,-8.92226 4.92834,-12.901433 -0.20955,-2.502312 -0.56963,-3.217675 -1.89925,-3.773226 -1.37563,-0.574777 -6.95082,-0.558413 -9.72165,0.02854 -4.51226,0.955837 -11.14764,4.9904 -13.64212,8.294921 -1.54275,2.043741 -2.05942,3.666267 -2.05942,6.4673 0,2.010601 0.13433,2.619016 0.92959,4.210473 1.13411,2.269563 3.67799,4.686313 6.22959,5.918276 2.21791,1.070848 4.38173,1.058242 6.64778,-0.03873 z"
     id="path10409"
     transform="scale(0.75)" />
  <path
     style="fill:#00db8c;fill-opacity:1;stroke:#000000;stroke-width:0.805992;stroke-miterlimit:4;stroke-dasharray:none"
     d="m 295.51719,14.338383 c -0.17345,-0.324095 -0.31536,-1.212024 -0.31536,-1.973175 0,-1.143856 0.1335,-1.471388 0.76965,-1.88821 1.39683,-0.915235 5.22739,0.137696 6.87282,1.889178 l 0.64455,0.6861 -0.88207,0.456141 c -1.22141,0.631614 -4.37718,1.41923 -5.68649,1.41923 -0.76362,0 -1.1817,-0.175585 -1.4031,-0.589264 z"
     id="path10448"
     transform="scale(0.75)" />
  <path
     style="fill:#00db8c;fill-opacity:1;stroke:#000000;stroke-width:0.805992;stroke-miterlimit:4;stroke-dasharray:none"
     d="m 25.063123,12.474012 c -1.621316,-0.319996 -3.770506,-1.262642 -4.2763,-1.875607 -0.962753,-1.1667482 1.231169,-2.5696098 3.52656,-2.2549915 2.357097,0.323076 3.798835,1.5394056 4.464218,3.7662595 0.191141,0.639697 0.117015,0.683224 -1.110461,0.652074 -0.723401,-0.01836 -1.895209,-0.147839 -2.604017,-0.287735 z"
     id="path10487"
     transform="scale(0.75)" />
</svg>
