<?xml version="1.0" standalone="no"?>
<!DOCTYPE svg PUBLIC "-//W3C//DTD SVG 20010904//EN"
 "http://www.w3.org/TR/2001/REC-SVG-20010904/DTD/svg10.dtd">
<svg version="1.0" xmlns="http://www.w3.org/2000/svg"
 width="423.000000pt" height="272.000000pt" viewBox="0 0 423.000000 272.000000"
 preserveAspectRatio="xMidYMid meet">

<g transform="translate(0.000000,272.000000) scale(0.100000,-0.100000)"
fill="#000000" stroke="none">
<path d="M2839 1986 c-2 -2 -33 -6 -69 -9 -147 -12 -373 -121 -480 -231 -24
-25 -48 -46 -53 -46 -5 0 -61 50 -124 110 l-115 110 -930 0 c-998 0 -971 1
-998 -49 -6 -13 -10 -168 -10 -430 l0 -411 191 0 c112 0 198 -4 210 -10 12 -7
19 -21 19 -40 0 -25 -7 -33 -43 -51 -299 -150 -360 -536 -119 -761 243 -228
639 -128 754 190 29 80 29 215 -1 296 -41 114 -122 211 -216 258 -22 11 -48
27 -57 36 -24 20 -23 59 1 72 13 6 196 10 525 10 l506 0 0 48 c0 58 21 92 58
92 57 0 68 -26 70 -180 12 -614 605 -1068 1202 -920 406 100 709 456 738 867
l7 98 143 3 142 3 -2 212 -3 212 -80 0 -80 0 -3 -137 -3 -137 -55 -7 c-68 -8
-74 -3 -98 91 -36 144 -126 301 -237 415 -150 154 -327 247 -543 285 -81 14
-237 21 -247 11z m222 -556 c160 -54 270 -183 299 -349 32 -184 -70 -372 -250
-459 -72 -35 -79 -37 -180 -36 -96 0 -111 3 -173 31 -180 84 -290 282 -258
466 46 263 317 429 562 347z"/>
</g>
</svg>
