<?xml version="1.0" standalone="no"?>
<!DOCTYPE svg PUBLIC "-//W3C//DTD SVG 20010904//EN"
 "http://www.w3.org/TR/2001/REC-SVG-20010904/DTD/svg10.dtd">
<svg version="1.0" xmlns="http://www.w3.org/2000/svg"
 width="423.000000pt" height="272.000000pt" viewBox="0 0 423.000000 272.000000"
 preserveAspectRatio="xMidYMid meet">

<g transform="translate(0.000000,272.000000) scale(0.100000,-0.100000)"
fill="#000000" stroke="none">
<path d="M2445 2616 c-101 -46 -132 -173 -65 -265 42 -58 79 -74 158 -69 63 4
67 6 108 52 46 50 60 93 50 150 -8 41 -41 92 -78 119 -35 26 -130 33 -173 13z"/>
<path d="M2425 2233 c-29 -10 -86 -60 -212 -185 l-172 -172 -24 22 -23 22
-928 0 c-996 0 -969 1 -996 -49 -6 -13 -10 -168 -10 -430 l0 -411 191 0 c112
0 198 -4 210 -10 12 -7 19 -21 19 -40 0 -25 -7 -33 -43 -51 -299 -150 -360
-536 -119 -761 243 -228 639 -128 754 190 29 80 29 215 -1 296 -41 114 -122
211 -216 258 -22 11 -48 27 -57 36 -24 20 -23 59 1 72 13 6 196 10 525 10
l506 0 0 48 c0 58 21 92 58 92 57 0 68 -26 70 -180 9 -440 309 -808 752 -922
122 -31 320 -30 445 1 416 106 714 454 743 868 l7 98 143 3 142 3 -2 212 -3
212 -80 0 -80 0 -3 -137 -3 -137 -55 -7 c-68 -8 -74 -3 -98 91 -36 144 -126
301 -237 415 -220 226 -491 319 -844 290 l-60 -5 -3 106 c-3 120 -5 124 -82
152 -55 20 -159 20 -215 0z m-88 -364 l3 -74 -50 -53 -49 -53 -41 37 c-22 20
-40 41 -40 48 0 18 151 177 164 173 6 -2 12 -34 13 -78z m724 -439 c160 -54
270 -183 299 -349 32 -184 -70 -372 -250 -459 -72 -35 -79 -37 -180 -36 -96 0
-111 3 -173 31 -180 84 -290 282 -258 466 46 263 317 429 562 347z"/>
</g>
</svg>
