<?xml version="1.0" standalone="no"?>
<!DOCTYPE svg PUBLIC "-//W3C//DTD SVG 20010904//EN"
 "http://www.w3.org/TR/2001/REC-SVG-20010904/DTD/svg10.dtd">
<svg version="1.0" xmlns="http://www.w3.org/2000/svg"
 width="317.000000pt" height="170.000000pt" viewBox="0 0 317.000000 170.000000"
 preserveAspectRatio="xMidYMid meet">

<g transform="translate(0.000000,170.000000) scale(0.100000,-0.100000)"
fill="#000000" stroke="none">
<path d="M168 1532 l-138 -147 0 -330 0 -330 108 -96 109 -97 6 -153 c4 -83 7
-201 7 -261 l0 -108 165 0 165 0 0 250 0 250 873 0 c479 0 923 3 985 7 l112 6
0 -261 0 -262 171 0 171 0 -7 263 -8 262 127 105 127 105 -7 325 -7 325 -79
144 c-43 80 -80 146 -82 148 -3 3 -459 -77 -464 -82 -2 -1 18 -37 43 -79 26
-42 44 -83 41 -91 -7 -19 -9 -19 -321 5 -143 11 -268 20 -277 20 -16 0 -18
-14 -18 -158 0 -167 -6 -190 -42 -171 -11 6 -62 49 -115 96 l-96 85 -43 -79
c-61 -112 -68 -121 -88 -104 -9 7 -44 51 -78 97 -34 46 -65 84 -68 84 -4 0
-27 -23 -52 -50 -27 -29 -51 -48 -59 -45 -8 3 -47 59 -88 125 -56 92 -79 120
-95 120 -11 0 -155 -9 -319 -21 -164 -11 -305 -18 -313 -15 -11 4 -14 29 -14
115 0 106 -1 111 -22 116 -29 6 -169 35 -171 35 -1 0 -64 -67 -139 -148z
m2496 -376 c124 -52 87 -226 -49 -226 -26 0 -45 9 -73 34 -32 30 -37 40 -37
79 0 56 28 97 76 114 44 15 44 15 83 -1z m-2063 -12 c37 -19 63 -75 55 -119
-4 -17 -19 -44 -35 -59 -77 -73 -191 -20 -191 90 0 51 53 104 104 104 21 0 51
-7 67 -16z"/>
</g>
</svg>
