<?xml version="1.0" encoding="UTF-8" standalone="no"?>
<svg
   version="1.0"
   width="300.000000pt"
   height="301.000000pt"
   viewBox="0 0 300.000000 301.000000"
   preserveAspectRatio="xMidYMid meet"
   id="svg882"
   sodipodi:docname="whire.svg"
   inkscape:version="1.1.1 (3bf5ae0d25, 2021-09-20)"
   xmlns:inkscape="http://www.inkscape.org/namespaces/inkscape"
   xmlns:sodipodi="http://sodipodi.sourceforge.net/DTD/sodipodi-0.dtd"
   xmlns="http://www.w3.org/2000/svg"
   xmlns:svg="http://www.w3.org/2000/svg">
  <defs
     id="defs886" />
  <sodipodi:namedview
     id="namedview884"
     pagecolor="#505050"
     bordercolor="#eeeeee"
     borderopacity="1"
     inkscape:pageshadow="0"
     inkscape:pageopacity="0"
     inkscape:pagecheckerboard="0"
     inkscape:document-units="pt"
     showgrid="false"
     inkscape:zoom="5.7014889"
     inkscape:cx="348.41776"
     inkscape:cy="370.69265"
     inkscape:window-width="1920"
     inkscape:window-height="1017"
     inkscape:window-x="-8"
     inkscape:window-y="-8"
     inkscape:window-maximized="1"
     inkscape:current-layer="svg882" />
  <metadata
     id="metadata856">
Created by potrace 1.10, written by Peter Selinger 2001-2011
</metadata>
  <g
     transform="translate(0.000000,301.000000) scale(0.100000,-0.100000)"
     fill="#000000"
     stroke="none"
     id="g880">
    <path
       d="M495 2989 c-87 -21 -146 -88 -152 -172 -4 -50 11 -85 331 -811 185 -418 346 -770 358 -783 53 -57 178 -87 265 -63 80 23 108 62 206 289 49 111 86 205 84 208 -7 7 -23 -25 -112 -227 -42 -96 -89 -188 -103 -203 -30 -32 -81 -62 -90 -53 -3 3 0 6 6 6 7 0 29 16 50 34 32 29 55 73 138 265 87 204 114 255 114 222 0 -6 43 -108 96 -228 62 -142 106 -229 127 -250 46 -49 101 -66 195 -62 67 3 85 8 120 33 49 34 82 96 82 155 0 34 -65 191 -331 794 -183 414 -341 763 -351 777 -28 36 -70 61 -92 54 -13 -4 -16 -3 -11 7 6 9 4 11 -8 6 -9 -3 -19 -1 -23 5 -10 15 -116 2 -169 -21 -76 -34 -125 -127 -105 -202 6 -20 60 -148 120 -285 61 -137 110 -253 110 -259 0 -6 -36 -91 -80 -190 -70 -159 -80 -176 -89 -154 -5 13 -109 249 -230 524 -200 454 -224 503 -262 538 -23 20 -37 37 -31 37 19 0 82 -62 101 -99 11 -20 110 -243 221 -496 111 -253 206 -464 211 -470 26 -28 5 22 -340 805 -96 217 -130 261 -206 265 -16 1 -48 5 -70 8 -22 3 -58 1 -80 -4z m173 -48 c20 -14 46 -52 72 -104 22 -46 40 -86 40 -90 0 -5 18 -47 41 -95 23 -48 48 -105 57 -127 8 -22 18 -44 22 -50 5 -5 24 -48 43 -95 19 -47 47 -112 62 -145 15 -33 41 -88 56 -123 16 -34 29 -65 29 -67 0 -3 9 -25 21 -50 12 -25 18 -52 15 -60 -3 -9 -2 -13 4 -10 5 3 18 -12 30 -35 22 -43 45 -52 55 -20 4 11 10 18 14 16 4 -3 8 0 8 7 1 7 33 83 72 169 81 180 81 153 2 325 -120 263 -171 394 -167 434 5 47 43 102 89 126 50 27 142 23 195 -7 36 -20 49 -37 79 -100 19 -41 39 -84 43 -95 4 -11 19 -45 33 -75 72 -152 107 -232 107 -239 0 -5 17 -44 38 -87 21 -44 44 -95 52 -114 7 -19 28 -68 46 -107 19 -40 34 -75 34 -78 0 -2 15 -37 34 -77 18 -40 39 -90 47 -110 7 -21 17 -38 21 -38 4 0 8 -6 8 -14 0 -7 12 -40 26 -72 14 -33 29 -68 34 -79 5 -11 22 -49 38 -85 29 -63 48 -106 71 -163 13 -33 14 -87 2 -119 -32 -82 -161 -127 -249 -88 -71 32 -83 50 -168 252 -48 115 -113 245 -128 257 -19 16 -56 -2 -56 -27 0 -9 -14 -44 -30 -77 -17 -33 -30 -63 -30 -67 0 -7 -53 -124 -112 -245 -29 -60 -50 -78 -113 -97 -65 -19 -95 -17 -150 10 -55 27 -58 31 -106 130 -27 55 -49 104 -49 107 0 3 -13 34 -29 69 -16 35 -36 79 -44 98 -18 41 -205 466 -319 725 -178 402 -188 428 -188 472 0 104 82 166 211 160 38 -2 65 -10 87 -26z m829 -8 c29 -30 73 -122 218 -453 100 -228 248 -564 328 -745 80 -182 149 -343 152 -358 12 -45 -14 -116 -57 -159 -21 -21 -42 -38 -48 -38 -5 0 7 17 28 38 43 43 67 108 56 155 -3 18 -58 149 -121 292 -64 143 -207 468 -319 723 -238 541 -235 534 -271 561 -15 11 -22 21 -15 21 6 0 28 -17 49 -37z"
       id="path858" />
    <path
       d="M628 2933 c7 -3 16 -2 19 1 4 3 -2 6 -13 5 -11 0 -14 -3 -6 -6z"
       id="path860" />
    <path
       d="M2324 2986 c-89 -28 -144 -100 -144 -187 0 -61 27 -106 95 -159 32 -25 67 -63 78 -84 25 -48 25 -114 -1 -166 -24 -50 -11 -57 57 -31 147 56 240 176 249 323 9 156 -53 257 -183 297 -77 24 -94 25 -151 7z m136 -22 c118 -29 164 -97 165 -244 0 -97 -20 -152 -81 -227 -37 -45 -120 -106 -162 -118 -23 -7 -23 -6 -8 18 45 67 14 189 -61 244 -73 52 -106 99 -108 151 -1 26 3 61 10 77 16 40 76 87 128 102 23 6 44 11 46 12 2 1 34 -6 71 -15z"
       id="path862" />
    <path
       d="M1770 717 c-23 -8 -38 -21 -45 -41 -8 -25 -6 -31 18 -52 39 -34 108 -34 142 1 31 30 31 37 3 69 -28 30 -72 39 -118 23z m93 -35 c26 -29 1 -55 -52 -55 -62 0 -85 43 -33 61 42 16 67 14 85 -6z"
       id="path866" />
    <path
       d="M49 671 c-16 -16 -29 -36 -29 -44 0 -24 141 -530 156 -559 22 -43 52 -58 119 -58 68 0 96 14 121 62 18 36 63 183 64 213 1 20 1 20 10 0 4 -11 22 -66 39 -122 40 -131 63 -153 156 -153 59 0 65 2 94 35 17 19 37 59 45 88 70 244 126 463 126 491 0 38 -19 63 -56 72 -31 8 -82 -13 -96 -39 -9 -17 -116 -459 -119 -492 0 -5 -27 82 -60 195 -47 165 -64 209 -84 228 -15 12 -35 22 -45 22 -10 0 -30 -10 -45 -22 -21 -19 -37 -62 -84 -228 -52 -183 -59 -201 -66 -170 -35 166 -107 453 -117 469 -29 47 -88 53 -129 12z m100 -20 c11 -11 25 -45 32 -78 7 -32 13 -60 14 -63 7 -23 16 -59 20 -80 2 -14 11 -52 19 -85 7 -33 20 -85 27 -115 15 -65 36 -95 55 -79 12 10 48 117 74 219 46 180 70 221 119 205 19 -6 54 -96 75 -190 17 -75 69 -225 81 -235 19 -16 51 36 60 97 3 24 17 86 30 136 13 51 30 126 39 168 19 85 41 119 77 119 32 0 49 -12 54 -39 5 -25 -123 -500 -148 -547 -20 -38 -77 -68 -115 -59 -57 13 -93 66 -121 179 -16 63 -38 106 -55 106 -15 0 -27 -28 -67 -155 -35 -110 -95 -155 -165 -122 -18 9 -41 28 -50 42 -18 28 -153 504 -154 542 0 49 63 70 99 34z"
       id="path868" />
    <path
       d="M1096 685 c-25 -25 -27 -65 -24 -356 3 -256 4 -279 22 -298 29 -32 98 -29 125 5 19 24 21 40 21 156 0 172 18 208 105 208 81 0 95 -32 95 -214 0 -159 7 -176 76 -176 31 0 50 6 64 20 18 18 20 33 20 189 0 158 -1 170 -23 202 -36 55 -96 79 -195 79 -55 0 -93 -5 -112 -15 l-30 -16 0 86 c0 82 -10 121 -34 137 -20 14 -94 9 -110 -7z m89 -15 c19 0 31 -54 29 -127 -2 -48 2 -65 15 -77 16 -14 22 -15 52 -2 53 21 157 18 209 -8 78 -38 85 -55 86 -229 0 -84 -3 -160 -8 -169 -4 -9 -22 -19 -39 -23 -53 -12 -59 3 -67 180 l-8 157 -32 29 c-38 34 -81 38 -132 10 -64 -34 -70 -52 -75 -205 -5 -148 -12 -170 -57 -173 -12 -1 -30 5 -40 14 -16 15 -18 41 -18 307 1 160 4 296 8 302 9 15 34 23 50 18 8 -2 20 -4 27 -4z"
       id="path870" />
    <path
       d="M2302 520 c-40 -25 -72 -75 -72 -116 0 -42 7 -46 36 -17 22 22 31 24 68 19 75 -12 128 32 106 88 -18 48 -82 60 -138 26z m104 -27 c28 -34 -10 -69 -66 -60 -14 2 -37 1 -52 -4 -27 -7 -27 -7 -15 24 22 55 102 79 133 40z"
       id="path872" />
    <path
       d="M2637 490 c-131 -33 -201 -119 -202 -246 0 -61 4 -77 30 -120 19 -30 49 -60 80 -79 48 -30 51 -30 184 -30 119 0 140 3 171 21 43 25 61 67 39 90 -14 13 -24 13 -99 -7 -84 -21 -133 -21 -183 2 -28 12 -57 58 -57 88 0 20 5 21 188 23 l187 3 -1 50 c-1 53 -28 118 -60 146 -61 54 -189 81 -277 59z m198 -39 c60 -24 115 -100 115 -160 0 -32 -11 -40 -55 -36 -16 2 -39 3 -49 4 -18 1 -18 2 -1 21 40 45 -20 141 -99 155 -70 14 -146 -35 -166 -105 -16 -57 3 -66 134 -62 61 2 108 0 104 -3 -3 -4 -54 -7 -113 -8 -124 -3 -139 -11 -125 -73 9 -41 33 -70 73 -91 35 -18 146 -16 210 5 51 16 61 14 51 -11 -11 -31 -91 -58 -172 -59 -93 -1 -145 12 -200 52 -55 40 -82 94 -82 166 0 104 61 182 164 210 50 14 170 11 211 -5z m-54 -57 c27 -14 59 -65 59 -94 0 -6 -45 -10 -121 -10 l-121 0 6 33 c9 48 57 87 107 87 22 0 54 -7 70 -16z"
       id="path874" />
    <path
       d="M1750 463 c-20 -26 -21 -36 -18 -226 3 -183 5 -200 22 -213 28 -20 89 -18 117 5 23 19 24 24 27 197 2 97 1 188 -3 201 -16 66 -104 87 -145 36z m108 -16 c9 -7 11 -57 10 -201 l-3 -191 -29 -13 c-21 -11 -34 -12 -52 -3 l-24 11 0 192 c0 106 4 198 8 204 16 24 60 25 90 1z"
       id="path876" />
    <path
       d="M2044 465 l-25 -25 3 -194 c3 -225 7 -236 84 -236 34 0 47 5 63 26 20 25 21 40 21 216 0 187 0 189 -25 213 -33 34 -87 34 -121 0z m106 -20 c15 -18 17 -382 2 -397 -18 -18 -64 -19 -83 -2 -16 15 -18 35 -19 202 0 122 4 190 11 199 15 18 74 17 89 -2z"
       id="path878" />
  </g>
  <path
     style="fill:#000000;stroke:#000000;stroke-width:1.05936"
     d="m 152.54635,242.38385 c -4.36107,-1.38847 -10.02821,-4.69386 -12.15097,-7.08711 -2.27305,-2.56269 -9.57991,-16.95702 -13.54976,-26.6927 -1.22383,-3.00132 -4.17287,-9.8101 -6.55342,-15.13062 C 112.56283,176.19836 59.550494,55.588645 56.086443,47.397294 50.38921,33.925187 49.869007,32.192421 49.899404,26.788628 c 0.03622,-6.438501 1.274625,-9.59243 5.370739,-13.677986 5.237046,-5.2235473 12.398674,-7.5262443 21.8509,-7.0257768 8.717227,0.4615516 12.529203,2.656489 17.165335,9.8838078 2.864979,4.466249 7.116982,13.16914 9.649092,19.749498 0.89241,2.3192 3.66882,8.653871 6.16978,14.077047 2.50097,5.423174 5.34279,11.785473 6.31517,14.138442 0.97238,2.352969 2.62958,5.99462 3.68265,8.092562 1.05308,2.097941 3.91091,8.57748 6.35073,14.398977 2.43982,5.821496 7.2663,16.829601 10.72551,24.462451 3.45921,7.63284 6.91389,15.44057 7.67708,17.3505 0.76318,1.90993 2.18764,5.37013 3.16547,7.68933 1.16464,2.76229 1.781,5.00955 1.78694,6.51528 0.007,1.87007 0.19237,2.34648 0.99229,2.55566 0.54077,0.14142 1.82439,1.66458 2.8525,3.38481 1.0281,1.72023 2.5888,3.87926 3.4682,4.79785 2.08227,2.17505 3.4663,2.00154 4.93276,-0.6184 0.60585,-1.0824 1.45739,-2.09283 1.89231,-2.24539 0.44339,-0.15554 1.84779,-2.88685 3.1969,-6.21741 1.32338,-3.267 4.96255,-11.6326 8.08706,-18.5902 7.84458,-17.46818 8.40412,-19.42324 7.1306,-24.91455 -0.41458,-1.787657 -3.57783,-9.460501 -7.02944,-17.050766 -10.97772,-24.140572 -17.03477,-38.514417 -20.57175,-48.818365 -2.29055,-6.672801 -2.32721,-10.936406 -0.13234,-15.387786 2.42011,-4.908153 5.94692,-8.543417 10.44614,-10.7673512 3.619,-1.7888461 4.05023,-1.8813239 9.5219,-2.0419359 9.37153,-0.2750867 16.18291,1.9983892 20.46052,6.8292381 2.03836,2.301993 7.28712,12.541884 11.46126,22.360007 1.218,2.864895 4.50228,10.120148 7.29839,16.122785 6.35476,13.642282 10.59089,23.219306 11.41037,25.796456 0.34703,1.091389 2.84342,6.752645 5.54752,12.580565 2.70411,5.827921 5.71269,12.525073 6.68573,14.882573 0.97304,2.35749 3.50425,8.19302 5.6249,12.96785 2.12065,4.77482 4.91381,11.13712 6.20702,14.13844 9.37362,21.75454 11.22528,25.85893 11.88405,26.34225 0.40916,0.30019 1.20397,2.03522 1.76624,3.85563 1.13039,3.65978 6.26437,15.75777 13.60556,32.06088 2.64153,5.86621 5.84268,13.12146 7.11368,16.12278 l 2.31091,5.45694 0.0107,5.95303 c 0.01,5.3188 -0.11851,6.21729 -1.20183,8.43346 -2.34742,4.80222 -8.43221,9.47035 -14.76964,11.33098 -6.76079,1.98492 -12.68894,1.51816 -19.13455,-1.50657 -7.382,-3.46416 -9.78192,-7.1396 -19.69588,-30.16392 -8.40869,-19.52845 -15.67911,-34.20655 -18.18414,-36.71158 -0.40859,-0.40859 -1.61638,-0.7429 -2.68398,-0.7429 -2.83177,0 -4.57989,1.85085 -5.85692,6.20108 -0.56066,1.90993 -2.0576,5.59336 -3.32651,8.18541 -1.26892,2.59205 -3.03704,6.61034 -3.92916,8.92954 -1.87144,4.86511 -8.99487,20.42281 -13.94518,30.45654 -4.05092,8.21075 -6.40869,11.07212 -10.88302,13.20752 -6.51587,3.10974 -15.01946,4.29611 -19.82559,2.76594 z M 86.030296,10.612767 c 1.4446,-0.554345 0.805143,-1.1871387 -1.199641,-1.1871387 -2.6742,0 -2.618107,0.9617217 0.08345,1.4307107 0.18232,0.03165 0.684606,-0.07796 1.116193,-0.243572 z"
     id="path1005"
     transform="scale(0.75)" />
  <path
     style="fill:#000000;stroke:#000000;stroke-width:1.05936"
     d="m 35.470128,397.25191 c -0.818542,-0.29177 -2.402394,-1.154 -3.519671,-1.91607 -3.796624,-2.58957 -4.807972,-4.24287 -7.273226,-11.88985 -6.77802,-21.02479 -17.7347389,-61.00651 -17.7301767,-64.69848 0.00834,-6.74749 10.2351507,-8.56161 13.7620647,-2.44123 1.959917,3.40111 2.466164,5.34333 10.977563,42.11564 3.737807,16.14867 4.915582,19.89573 6.979782,22.20597 2.030064,2.27203 3.492058,1.68505 5.181958,-2.08055 1.99684,-4.44955 4.85608,-13.47343 8.498795,-26.82254 3.188851,-11.68588 5.583742,-19.19489 6.999084,-21.94513 2.096463,-4.07378 5.32166,-6.00321 8.106586,-4.84965 2.747987,1.13825 5.895081,8.86624 10.002606,24.56236 4.549165,17.38375 9.980336,32.03901 12.013003,32.41541 1.355599,0.25102 3.525582,-2.10243 5.030492,-5.45582 0.729539,-1.62563 2.068648,-6.57066 2.9758,-10.98896 0.907148,-4.41829 2.214576,-10.26565 2.905392,-12.99412 0.69082,-2.72847 2.52363,-10.4302 4.07291,-17.11496 3.14973,-13.59032 4.55014,-17.85882 6.72458,-20.49679 2.71995,-3.29977 7.72857,-3.43617 10.54989,-0.28732 1.31938,1.47255 1.40463,1.80421 1.13264,4.40649 -0.61361,5.87067 -11.31088,46.16311 -16.78825,63.23474 -2.26472,7.0586 -2.77133,8.16245 -4.68511,10.20844 -4.568363,4.88394 -10.489597,6.58473 -15.468185,4.44299 -3.236562,-1.39232 -6.764411,-5.15012 -8.891701,-9.47125 -1.531476,-3.11088 -2.2667,-5.24483 -5.793452,-16.81521 -1.858883,-6.09854 -4.020046,-10.11672 -5.733774,-10.66063 -2.285139,-0.72528 -3.477476,1.50992 -8.037561,15.06748 -1.87061,5.56152 -4.112844,11.4472 -4.982739,13.07928 -2.076697,3.89628 -5.351695,7.48578 -7.999291,8.76746 -2.343509,1.13447 -6.469538,1.32786 -9.010009,0.4223 z"
     id="path1044"
     transform="scale(0.75)" />
  <path
     style="fill:#000000;stroke:#000000;stroke-width:1.05936"
     d="m 152.05027,396.33734 c -3.58714,-1.13904 -4.22956,-2.57063 -4.74625,-10.57668 -0.83157,-12.88512 -0.23174,-69.39791 0.76234,-71.82412 0.18701,-0.4564 1.12346,-1.2016 2.081,-1.65599 2.08706,-0.99037 7.32159,-0.60897 8.72903,0.63602 1.68848,1.49359 2.42999,5.4318 2.68343,14.25195 0.27294,9.4988 0.6306,11.21613 2.63282,12.64184 1.74808,1.24474 3.27775,1.26158 6.31846,0.0696 3.92485,-1.53863 9.29991,-2.21007 15.02495,-1.8769 6.24792,0.36361 9.77464,1.2295 14.30987,3.5134 6.00685,3.025 7.74624,5.12477 9.07277,10.95247 0.89207,3.91908 0.93725,38.47054 0.053,40.53473 -0.71098,1.65972 -3.86932,3.33248 -6.97471,3.69405 -5.17111,0.60207 -5.78666,-2.09874 -7.25089,-31.81458 l -0.65941,-13.38226 -2.91108,-2.61213 c -4.20806,-3.77594 -6.61772,-4.8536 -10.84845,-4.85173 -2.97877,10e-4 -4.01973,0.26258 -7.32002,1.83718 -5.22815,2.4944 -7.069,4.00777 -8.53463,7.01634 -1.59166,3.26729 -2.11279,7.31968 -2.75275,21.40617 -0.85668,18.85657 -1.63683,21.52514 -6.50787,22.2606 -0.92035,0.13896 -2.34307,0.04 -3.16161,-0.21992 z"
     id="path1083"
     transform="scale(0.75)" />
  <path
     style="fill:#000000;stroke:#000000;stroke-width:1.05936"
     d="m 237.7077,395.77275 -2.64582,-1.05284 0.19067,-25.83833 c 0.10487,-14.21107 0.37378,-26.23724 0.59758,-26.72481 1.07894,-2.35067 6.31182,-3.08068 9.6984,-1.35298 1.062,0.54179 2.0902,1.24281 2.28488,1.5578 0.82933,1.34189 1.17229,13.8919 0.87515,32.02475 l -0.31851,19.43703 -2.77805,1.23996 c -4.03294,1.80006 -4.95544,1.88285 -7.9043,0.70942 z"
     id="path1122"
     transform="scale(0.75)" />
  <path
     style="fill:#000000;stroke:#000000;stroke-width:1.05936"
     d="m 237.37701,316.89646 c -5.41164,-1.89107 -4.69519,-5.77844 1.39848,-7.58807 4.87726,-1.44839 8.52574,-0.6397 10.00309,2.21719 1.01499,1.96277 0.95063,2.64057 -0.36366,3.82973 -2.23495,2.02218 -7.54121,2.76305 -11.03791,1.54115 z"
     id="path1161"
     transform="scale(0.75)" />
  <path
     style="fill:#000000;stroke:#000000;stroke-width:1.05936"
     d="m 277.55995,395.9035 c -1.71278,-0.70103 -2.70237,-2.2358 -3.23836,-5.02245 -0.53939,-2.80432 -0.76634,-40.61772 -0.26309,-43.83511 0.15229,-0.97366 0.40181,-2.56857 0.55448,-3.54425 0.22442,-1.43421 0.60141,-1.90926 1.96841,-2.48043 3.99281,-1.6683 9.487,-0.32068 10.26614,2.51809 0.85773,3.12513 1.48556,28.52045 0.96889,39.19077 -0.27745,5.72979 -0.66075,10.81672 -0.85178,11.3043 -0.19104,0.48757 -0.97891,1.2131 -1.75084,1.61228 -1.50024,0.7758 -6.01565,0.9273 -7.65385,0.2568 z"
     id="path1200"
     transform="scale(0.75)" />
  <path
     style="fill:#000000;stroke:#000000;stroke-width:1.05936"
     d="m 302.88566,342.20195 c 2.86649,-8.41267 14.53609,-11.8894 18.26004,-5.44022 0.90505,1.56737 0.9123,1.74776 0.13585,3.37601 -1.16199,2.43672 -3.14642,3.09812 -10.07758,3.35882 -3.22477,0.1213 -6.58357,0.37255 -7.464,0.55834 l -1.60077,0.33781 z"
     id="path1239"
     transform="scale(0.75)" />
  <path
     style="fill:#000000;stroke:#000000;stroke-width:3.32598;stroke-miterlimit:4;stroke-dasharray:none"
     d="m 354.70467,396.81165 c -12.64685,-1.91901 -22.72424,-10.13201 -25.57524,-20.84366 -0.94505,-3.55067 -0.91495,-11.19627 0.0589,-14.95437 2.38624,-9.2088 9.36539,-16.43544 19.06386,-19.7399 2.69597,-0.91857 4.65206,-1.13662 11.93282,-1.33014 10.26558,-0.27286 14.87958,0.29493 19.10405,2.35092 7.37421,3.58895 13.61085,12.79151 13.61085,20.08371 0,2.13856 -0.23312,2.97399 -1.06085,3.80171 -1.01211,1.01212 -1.34774,1.04491 -7.3062,0.71385 -3.43495,-0.19085 -6.33393,-0.43556 -6.44217,-0.54381 -0.10825,-0.10824 0.38913,-0.89316 1.10528,-1.74425 1.62271,-1.92848 1.97627,-3.29854 1.69773,-6.57877 -0.28556,-3.36291 -1.48134,-5.78143 -4.48158,-9.06417 -9.11208,-9.97007 -25.00321,-7.26745 -31.44934,5.34863 -1.01683,1.99009 -1.3499,3.38419 -1.38162,5.78277 -0.0379,2.86372 0.0818,3.25379 1.27472,4.15393 1.86884,1.41022 7.24349,1.85236 18.77497,1.54452 6.9206,-0.18475 47.50904,-0.48353 8.92954,0.27064 -0.50201,0.01 -2.75327,0.53838 -5.2089,0.54999 -9.70868,0.0459 -18.9493,0.87348 -21.28389,1.90617 -2.60051,1.15034 -3.05099,2.2279 -2.63131,6.29422 0.59057,5.72207 4.53785,11.44486 9.71627,14.08669 5.54803,2.8304 18.33764,2.44362 30.70644,-0.92859 1.98511,-0.54122 3.9451,-0.85517 4.35554,-0.69767 0.82795,0.31771 0.58269,1.62863 -0.66051,3.53029 -0.99469,1.52155 -6.95276,4.2834 -11.52104,5.34057 -4.40292,1.0189 -16.51256,1.39745 -21.32829,0.66672 z"
     id="path1278"
     transform="scale(0.75)"
     sodipodi:nodetypes="ssssssssssssssssssssssssssss" />
  <path
     style="fill:#000000;stroke:#000000;stroke-width:0.0468174;fill-opacity:0;stroke-opacity:0"
     d="m 319.0614,6.4452413 c -0.61615,-0.1090701 -1.24968,-0.4246546 -1.24968,-0.6225076 0,-0.1152517 0.21992,-0.2261535 0.56833,-0.2866038 0.22217,-0.038548 0.91365,-0.075869 1.4158,-0.076414 0.49776,-5.404e-4 0.88711,0.071116 1.11634,0.2054519 0.19613,0.1149411 0.22045,0.2403313 0.0768,0.3961265 -0.1784,0.1935441 -0.4687,0.3274604 -0.85175,0.3929213 -0.2821,0.048211 -0.77613,0.04409 -1.07589,-0.00897 z"
     id="path1317"
     transform="scale(0.75)" />
  <path
     style="fill:#000000;fill-opacity:0;stroke:#000000;stroke-width:0.0515617;stroke-miterlimit:4;stroke-dasharray:none;stroke-opacity:0"
     d="m 357.60028,366.64197 v -3.96915 l 4.25936,-0.008 c 2.34265,-0.004 4.58724,-0.0153 4.98799,-0.0243 2.39421,-0.0539 3.31798,-0.0841 4.82908,-0.1576 3.7896,-0.18441 6.25429,-0.51849 6.83906,-0.92703 0.1391,-0.0972 0.1527,-0.1291 0.15233,-0.35748 -9.6e-4,-0.59516 -0.15369,-1.44714 -0.41225,-2.29972 -0.25527,-0.84176 -0.60531,-1.6999 -1.08613,-2.66272 -0.64172,-1.285 -1.35991,-2.43889 -2.25544,-3.62375 l -0.26071,-0.34493 h 7.99921 7.99921 v 8.91404 8.91404 h -0.20767 c -0.11421,0 -1.49376,0.0208 -3.06565,0.0463 -3.31106,0.0536 -7.66838,0.1235 -11.12092,0.17839 -1.33013,0.0212 -2.84745,0.0453 -3.37183,0.0537 -1.46762,0.0234 -2.06184,0.0311 -4.27874,0.0555 -4.58384,0.0505 -9.10273,0.12313 -10.67747,0.17171 l -0.32943,0.0102 z m 16.85444,-0.28207 c 0.68631,-0.10113 1.11977,-0.21408 1.2574,-0.32765 0.10764,-0.0888 0.0577,-0.14737 -0.17618,-0.20655 -0.0815,-0.0206 -0.24546,-0.0519 -0.36432,-0.0694 -0.21301,-0.0314 -0.79673,-0.0946 -0.87403,-0.0947 l -0.0397,-1e-5 0.005,0.27268 c 0.004,0.21085 -8.6e-4,0.29137 -0.0194,0.35509 -0.0132,0.0453 -0.024,0.0866 -0.024,0.0917 0,0.0132 0.007,0.0125 0.23557,-0.0211 z"
     id="path1084"
     transform="scale(0.75)" />
  <path
     style="fill:#000000;fill-opacity:0;stroke:#000000;stroke-width:0.0515617;stroke-miterlimit:4;stroke-dasharray:none;stroke-opacity:0"
     d="m 374.25913,366.29341 c 0.0145,-0.0546 0.0217,-0.16952 0.0218,-0.34881 1.8e-4,-0.25803 10e-4,-0.26742 0.0315,-0.26742 0.0587,0 0.64237,0.0626 0.80579,0.0865 0.38389,0.056 0.63561,0.12771 0.63561,0.18105 0,0.0296 -0.0735,0.0953 -0.14728,0.13169 -0.13255,0.0654 -0.38767,0.13451 -0.72863,0.19751 -0.17099,0.0316 -0.60718,0.10089 -0.63505,0.10089 -0.003,0 0.004,-0.0366 0.0162,-0.0814 z"
     id="path1123"
     transform="scale(0.75)" />
  <path
     style="fill:#000000;fill-opacity:0;stroke:#000000;stroke-width:0.0515617;stroke-miterlimit:4;stroke-dasharray:none;stroke-opacity:0"
     d="m 374.25913,366.29341 c 0.0145,-0.0546 0.0217,-0.16952 0.0218,-0.34881 1.8e-4,-0.25803 10e-4,-0.26742 0.0315,-0.26742 0.0587,0 0.64237,0.0626 0.80579,0.0865 0.38389,0.056 0.63561,0.12771 0.63561,0.18105 0,0.0296 -0.0735,0.0953 -0.14728,0.13169 -0.13255,0.0654 -0.38767,0.13451 -0.72863,0.19751 -0.17099,0.0316 -0.60718,0.10089 -0.63505,0.10089 -0.003,0 0.004,-0.0366 0.0162,-0.0814 z"
     id="path1162"
     transform="scale(0.75)" />
  <path
     style="fill:#000000;fill-opacity:0;stroke:#000000;stroke-width:0.0515617;stroke-miterlimit:4;stroke-dasharray:none;stroke-opacity:0"
     d="m 374.25913,366.29341 c 0.0145,-0.0546 0.0217,-0.16952 0.0218,-0.34881 1.8e-4,-0.25803 10e-4,-0.26742 0.0315,-0.26742 0.0587,0 0.64237,0.0626 0.80579,0.0865 0.38389,0.056 0.63561,0.12771 0.63561,0.18105 0,0.0296 -0.0735,0.0953 -0.14728,0.13169 -0.13255,0.0654 -0.38767,0.13451 -0.72863,0.19751 -0.17099,0.0316 -0.60718,0.10089 -0.63505,0.10089 -0.003,0 0.004,-0.0366 0.0162,-0.0814 z"
     id="path1201"
     transform="scale(0.75)" />
  <path
     style="fill:#000000;fill-opacity:0;stroke:#000000;stroke-width:0.0515617;stroke-miterlimit:4;stroke-dasharray:none;stroke-opacity:0"
     d="m 374.25913,366.29341 c 0.0145,-0.0546 0.0217,-0.16952 0.0218,-0.34881 1.8e-4,-0.25803 10e-4,-0.26742 0.0315,-0.26742 0.0587,0 0.64237,0.0626 0.80579,0.0865 0.38389,0.056 0.63561,0.12771 0.63561,0.18105 0,0.0296 -0.0735,0.0953 -0.14728,0.13169 -0.13255,0.0654 -0.38767,0.13451 -0.72863,0.19751 -0.17099,0.0316 -0.60718,0.10089 -0.63505,0.10089 -0.003,0 0.004,-0.0366 0.0162,-0.0814 z"
     id="path1240"
     transform="scale(0.75)" />
  <path
     style="fill:#000000;fill-opacity:0;stroke:#000000;stroke-width:0.0515617;stroke-miterlimit:4;stroke-dasharray:none;stroke-opacity:0"
     d="m 374.25913,366.29341 c 0.0145,-0.0546 0.0217,-0.16952 0.0218,-0.34881 1.8e-4,-0.25803 10e-4,-0.26742 0.0315,-0.26742 0.0587,0 0.64237,0.0626 0.80579,0.0865 0.38389,0.056 0.63561,0.12771 0.63561,0.18105 0,0.0296 -0.0735,0.0953 -0.14728,0.13169 -0.13255,0.0654 -0.38767,0.13451 -0.72863,0.19751 -0.17099,0.0316 -0.60718,0.10089 -0.63505,0.10089 -0.003,0 0.004,-0.0366 0.0162,-0.0814 z"
     id="path1279"
     transform="scale(0.75)" />
  <path
     style="fill:#000000;fill-opacity:0;stroke:#000000;stroke-width:0.0515617;stroke-miterlimit:4;stroke-dasharray:none;stroke-opacity:0"
     d="m 374.25913,366.29341 c 0.0145,-0.0546 0.0217,-0.16952 0.0218,-0.34881 1.8e-4,-0.25803 10e-4,-0.26742 0.0315,-0.26742 0.0587,0 0.64237,0.0626 0.80579,0.0865 0.38389,0.056 0.63561,0.12771 0.63561,0.18105 0,0.0296 -0.0735,0.0953 -0.14728,0.13169 -0.13255,0.0654 -0.38767,0.13451 -0.72863,0.19751 -0.17099,0.0316 -0.60718,0.10089 -0.63505,0.10089 -0.003,0 0.004,-0.0366 0.0162,-0.0814 z"
     id="path1318"
     transform="scale(0.75)" />
  <path
     style="fill:#000000;fill-opacity:0;stroke:#000000;stroke-width:0.0515617;stroke-miterlimit:4;stroke-dasharray:none;stroke-opacity:0"
     d="m 374.25913,366.29341 c 0.0145,-0.0546 0.0217,-0.16952 0.0218,-0.34881 1.8e-4,-0.25803 10e-4,-0.26742 0.0315,-0.26742 0.0587,0 0.64237,0.0626 0.80579,0.0865 0.38389,0.056 0.63561,0.12771 0.63561,0.18105 0,0.0296 -0.0735,0.0953 -0.14728,0.13169 -0.13255,0.0654 -0.38767,0.13451 -0.72863,0.19751 -0.17099,0.0316 -0.60718,0.10089 -0.63505,0.10089 -0.003,0 0.004,-0.0366 0.0162,-0.0814 z"
     id="path1357"
     transform="scale(0.75)" />
  <path
     style="fill:#000000;fill-opacity:0;stroke:#000000;stroke-width:0.0515617;stroke-miterlimit:4;stroke-dasharray:none;stroke-opacity:0"
     d="m 374.25913,366.29341 c 0.0145,-0.0546 0.0217,-0.16952 0.0218,-0.34881 1.8e-4,-0.25803 10e-4,-0.26742 0.0315,-0.26742 0.0587,0 0.64237,0.0626 0.80579,0.0865 0.38389,0.056 0.63561,0.12771 0.63561,0.18105 0,0.0296 -0.0735,0.0953 -0.14728,0.13169 -0.13255,0.0654 -0.38767,0.13451 -0.72863,0.19751 -0.17099,0.0316 -0.60718,0.10089 -0.63505,0.10089 -0.003,0 0.004,-0.0366 0.0162,-0.0814 z"
     id="path1396"
     transform="scale(0.75)" />
  <path
     style="fill:#000000;fill-opacity:0;stroke:#000000;stroke-width:0.0515617;stroke-miterlimit:4;stroke-dasharray:none;stroke-opacity:0"
     d="m 374.25913,366.29341 c 0.0145,-0.0546 0.0217,-0.16952 0.0218,-0.34881 1.8e-4,-0.25803 10e-4,-0.26742 0.0315,-0.26742 0.0587,0 0.64237,0.0626 0.80579,0.0865 0.38389,0.056 0.63561,0.12771 0.63561,0.18105 0,0.0296 -0.0735,0.0953 -0.14728,0.13169 -0.13255,0.0654 -0.38767,0.13451 -0.72863,0.19751 -0.17099,0.0316 -0.60718,0.10089 -0.63505,0.10089 -0.003,0 0.004,-0.0366 0.0162,-0.0814 z"
     id="path1435"
     transform="scale(0.75)" />
  <path
     style="fill:#000000;fill-opacity:0;stroke:#000000;stroke-width:0.0515617;stroke-miterlimit:4;stroke-dasharray:none;stroke-opacity:0"
     d="m 374.25913,366.29341 c 0.0145,-0.0546 0.0217,-0.16952 0.0218,-0.34881 1.8e-4,-0.25803 10e-4,-0.26742 0.0315,-0.26742 0.0587,0 0.64237,0.0626 0.80579,0.0865 0.38389,0.056 0.63561,0.12771 0.63561,0.18105 0,0.0296 -0.0735,0.0953 -0.14728,0.13169 -0.13255,0.0654 -0.38767,0.13451 -0.72863,0.19751 -0.17099,0.0316 -0.60718,0.10089 -0.63505,0.10089 -0.003,0 0.004,-0.0366 0.0162,-0.0814 z"
     id="path1474"
     transform="scale(0.75)" />
  <path
     style="fill:#000000;fill-opacity:0;stroke:#000000;stroke-width:0.0515617;stroke-miterlimit:4;stroke-dasharray:none;stroke-opacity:0"
     d="m 374.25913,366.29341 c 0.0145,-0.0546 0.0217,-0.16952 0.0218,-0.34881 1.8e-4,-0.25803 10e-4,-0.26742 0.0315,-0.26742 0.0587,0 0.64237,0.0626 0.80579,0.0865 0.38389,0.056 0.63561,0.12771 0.63561,0.18105 0,0.0296 -0.0735,0.0953 -0.14728,0.13169 -0.13255,0.0654 -0.38767,0.13451 -0.72863,0.19751 -0.17099,0.0316 -0.60718,0.10089 -0.63505,0.10089 -0.003,0 0.004,-0.0366 0.0162,-0.0814 z"
     id="path1513"
     transform="scale(0.75)" />
  <path
     style="fill:#000000;fill-opacity:0;stroke:#000000;stroke-width:0.0515617;stroke-miterlimit:4;stroke-dasharray:none;stroke-opacity:0"
     d="m 374.25913,366.29341 c 0.0145,-0.0546 0.0217,-0.16952 0.0218,-0.34881 1.8e-4,-0.25803 10e-4,-0.26742 0.0315,-0.26742 0.0587,0 0.64237,0.0626 0.80579,0.0865 0.38389,0.056 0.63561,0.12771 0.63561,0.18105 0,0.0296 -0.0735,0.0953 -0.14728,0.13169 -0.13255,0.0654 -0.38767,0.13451 -0.72863,0.19751 -0.17099,0.0316 -0.60718,0.10089 -0.63505,0.10089 -0.003,0 0.004,-0.0366 0.0162,-0.0814 z"
     id="path1552"
     transform="scale(0.75)" />
  <path
     style="fill:#000000;fill-opacity:0;stroke:#000000;stroke-width:0.0515617;stroke-miterlimit:4;stroke-dasharray:none;stroke-opacity:0"
     d="m 374.25913,366.29341 c 0.0145,-0.0546 0.0217,-0.16952 0.0218,-0.34881 1.8e-4,-0.25803 10e-4,-0.26742 0.0315,-0.26742 0.0587,0 0.64237,0.0626 0.80579,0.0865 0.38389,0.056 0.63561,0.12771 0.63561,0.18105 0,0.0296 -0.0735,0.0953 -0.14728,0.13169 -0.13255,0.0654 -0.38767,0.13451 -0.72863,0.19751 -0.17099,0.0316 -0.60718,0.10089 -0.63505,0.10089 -0.003,0 0.004,-0.0366 0.0162,-0.0814 z"
     id="path1591"
     transform="scale(0.75)" />
  <path
     style="fill:#000000;fill-opacity:0;stroke:#000000;stroke-width:0.0515617;stroke-miterlimit:4;stroke-dasharray:none;stroke-opacity:0"
     d="m 374.25913,366.29341 c 0.0145,-0.0546 0.0217,-0.16952 0.0218,-0.34881 1.8e-4,-0.25803 10e-4,-0.26742 0.0315,-0.26742 0.0587,0 0.64237,0.0626 0.80579,0.0865 0.38389,0.056 0.63561,0.12771 0.63561,0.18105 0,0.0296 -0.0735,0.0953 -0.14728,0.13169 -0.13255,0.0654 -0.38767,0.13451 -0.72863,0.19751 -0.17099,0.0316 -0.60718,0.10089 -0.63505,0.10089 -0.003,0 0.004,-0.0366 0.0162,-0.0814 z"
     id="path1630"
     transform="scale(0.75)" />
  <path
     style="fill:#000000;fill-opacity:0;stroke:#000000;stroke-width:0.0515617;stroke-miterlimit:4;stroke-dasharray:none;stroke-opacity:0"
     d="m 374.25913,366.29341 c 0.0145,-0.0546 0.0217,-0.16952 0.0218,-0.34881 1.8e-4,-0.25803 10e-4,-0.26742 0.0315,-0.26742 0.0587,0 0.64237,0.0626 0.80579,0.0865 0.38389,0.056 0.63561,0.12771 0.63561,0.18105 0,0.0296 -0.0735,0.0953 -0.14728,0.13169 -0.13255,0.0654 -0.38767,0.13451 -0.72863,0.19751 -0.17099,0.0316 -0.60718,0.10089 -0.63505,0.10089 -0.003,0 0.004,-0.0366 0.0162,-0.0814 z"
     id="path1669"
     transform="scale(0.75)" />
  <path
     style="fill:#000000;fill-opacity:0;stroke:#000000;stroke-width:0.0515617;stroke-miterlimit:4;stroke-dasharray:none;stroke-opacity:0"
     d="m 374.25913,366.29341 c 0.0145,-0.0546 0.0217,-0.16952 0.0218,-0.34881 1.8e-4,-0.25803 10e-4,-0.26742 0.0315,-0.26742 0.0587,0 0.64237,0.0626 0.80579,0.0865 0.38389,0.056 0.63561,0.12771 0.63561,0.18105 0,0.0296 -0.0735,0.0953 -0.14728,0.13169 -0.13255,0.0654 -0.38767,0.13451 -0.72863,0.19751 -0.17099,0.0316 -0.60718,0.10089 -0.63505,0.10089 -0.003,0 0.004,-0.0366 0.0162,-0.0814 z"
     id="path1708"
     transform="scale(0.75)" />
  <path
     style="fill:#000000;fill-opacity:0;stroke:#000000;stroke-width:0.0515617;stroke-miterlimit:4;stroke-dasharray:none;stroke-opacity:0"
     d="m 374.25913,366.29341 c 0.0145,-0.0546 0.0217,-0.16952 0.0218,-0.34881 1.8e-4,-0.25803 10e-4,-0.26742 0.0315,-0.26742 0.0587,0 0.64237,0.0626 0.80579,0.0865 0.38389,0.056 0.63561,0.12771 0.63561,0.18105 0,0.0296 -0.0735,0.0953 -0.14728,0.13169 -0.13255,0.0654 -0.38767,0.13451 -0.72863,0.19751 -0.17099,0.0316 -0.60718,0.10089 -0.63505,0.10089 -0.003,0 0.004,-0.0366 0.0162,-0.0814 z"
     id="path1747"
     transform="scale(0.75)" />
  <path
     style="fill:#000000;fill-opacity:0;stroke:#000000;stroke-width:0.0515617;stroke-miterlimit:4;stroke-dasharray:none;stroke-opacity:0"
     d="m 374.25913,366.29341 c 0.0145,-0.0546 0.0217,-0.16952 0.0218,-0.34881 1.8e-4,-0.25803 10e-4,-0.26742 0.0315,-0.26742 0.0587,0 0.64237,0.0626 0.80579,0.0865 0.38389,0.056 0.63561,0.12771 0.63561,0.18105 0,0.0296 -0.0735,0.0953 -0.14728,0.13169 -0.13255,0.0654 -0.38767,0.13451 -0.72863,0.19751 -0.17099,0.0316 -0.60718,0.10089 -0.63505,0.10089 -0.003,0 0.004,-0.0366 0.0162,-0.0814 z"
     id="path1786"
     transform="scale(0.75)" />
  <path
     style="fill:#000000;fill-opacity:0;stroke:#000000;stroke-width:0.0515617;stroke-miterlimit:4;stroke-dasharray:none;stroke-opacity:0"
     d="m 374.25913,366.29341 c 0.0145,-0.0546 0.0217,-0.16952 0.0218,-0.34881 1.8e-4,-0.25803 10e-4,-0.26742 0.0315,-0.26742 0.0587,0 0.64237,0.0626 0.80579,0.0865 0.38389,0.056 0.63561,0.12771 0.63561,0.18105 0,0.0296 -0.0735,0.0953 -0.14728,0.13169 -0.13255,0.0654 -0.38767,0.13451 -0.72863,0.19751 -0.17099,0.0316 -0.60718,0.10089 -0.63505,0.10089 -0.003,0 0.004,-0.0366 0.0162,-0.0814 z"
     id="path1825"
     transform="scale(0.75)" />
  <path
     style="fill:#000000;fill-opacity:0;stroke:#000000;stroke-width:0.103123;stroke-miterlimit:4;stroke-dasharray:none;stroke-opacity:0"
     d="m 346.43546,362.55339 c 0.01,-0.0469 0.19969,-1.08984 0.42232,-2.31766 0.22263,-1.22781 0.46172,-2.45562 0.5313,-2.72847 0.69893,-2.74069 2.40457,-5.35333 4.78137,-7.32394 2.89481,-2.40009 6.49484,-3.65891 9.96164,-3.48329 2.0877,0.10576 4.32794,0.51263 6.31628,1.14717 1.97765,0.63113 3.21133,1.34213 4.53342,2.61274 2.2077,2.12173 4.28124,5.42837 5.20384,8.29845 0.27675,0.86094 0.46204,1.856 0.44542,2.392 l -0.009,0.29455 -0.1513,0.10112 c -0.6099,0.4076 -3.09427,0.73672 -6.94893,0.92056 -3.23273,0.15418 -4.76656,0.17127 -15.40437,0.17167 l -9.69939,3.6e-4 z"
     id="path1864"
     transform="scale(0.75)" />
</svg>
