<?xml version="1.0" encoding="UTF-8" standalone="no"?>
<svg
   version="1.0"
   width="300.000000pt"
   height="237.000000pt"
   viewBox="0 0 300.000000 237.000000"
   preserveAspectRatio="xMidYMid meet"
   id="svg870"
   sodipodi:docname="whire_transparent.svg"
   inkscape:version="1.1.1 (3bf5ae0d25, 2021-09-20)"
   xmlns:inkscape="http://www.inkscape.org/namespaces/inkscape"
   xmlns:sodipodi="http://sodipodi.sourceforge.net/DTD/sodipodi-0.dtd"
   xmlns="http://www.w3.org/2000/svg"
   xmlns:svg="http://www.w3.org/2000/svg">
  <defs
     id="defs874" />
  <sodipodi:namedview
     id="namedview872"
     pagecolor="#505050"
     bordercolor="#eeeeee"
     borderopacity="1"
     inkscape:pageshadow="0"
     inkscape:pageopacity="0"
     inkscape:pagecheckerboard="0"
     inkscape:document-units="pt"
     showgrid="false"
     inkscape:zoom="2.5601266"
     inkscape:cx="200.18541"
     inkscape:cy="158"
     inkscape:window-width="1920"
     inkscape:window-height="1017"
     inkscape:window-x="-8"
     inkscape:window-y="-8"
     inkscape:window-maximized="1"
     inkscape:current-layer="svg870" />
  <metadata
     id="metadata850">
Created by potrace 1.10, written by Peter Selinger 2001-2011
</metadata>
  <g
     transform="translate(0.000000,237.000000) scale(0.100000,-0.100000)"
     fill="#000000"
     stroke="none"
     id="g868">
    <path
       d="M219 2354 c-15 -3 -51 -19 -80 -37 -71 -43 -111 -107 -117 -187 -4 -57 -1 -66 136 -377 77 -175 267 -606 422 -958 155 -352 294 -656 309 -675 41 -52 116 -89 208 -102 109 -16 179 5 244 70 39 40 61 82 149 282 138 314 133 303 119 298 -6 -2 -36 -60 -66 -128 -134 -305 -177 -397 -195 -423 -21 -29 -113 -87 -138 -86 -8 0 2 9 22 20 78 41 97 72 225 362 68 153 126 290 129 305 6 26 6 26 -9 7 -9 -11 -17 -26 -17 -32 0 -7 -4 -13 -10 -13 -5 0 -10 -7 -10 -16 0 -16 -43 -114 -81 -185 -10 -20 -19 -45 -19 -55 0 -11 -9 -30 -20 -44 -11 -14 -20 -30 -20 -36 0 -13 -41 -108 -72 -169 -41 -81 -122 -125 -230 -126 -69 -1 -162 43 -195 93 -22 33 -62 122 -233 513 -50 116 -127 289 -170 385 -43 96 -83 186 -88 200 -5 14 -79 183 -165 375 -85 193 -164 373 -176 400 -24 54 -29 132 -12 176 37 100 184 167 303 139 78 -19 132 -79 192 -215 93 -208 124 -280 176 -400 29 -66 66 -149 82 -184 16 -36 54 -123 84 -195 30 -72 59 -139 64 -148 5 -9 35 -74 66 -145 31 -70 61 -131 67 -135 6 -4 17 -2 24 3 26 22 213 433 213 468 0 15 -138 336 -259 605 -37 81 -44 173 -17 224 20 39 87 96 128 109 46 14 165 16 173 3 3 -5 15 -10 26 -10 23 0 119 -94 119 -116 0 -8 4 -22 10 -32 22 -39 100 -213 100 -223 0 -5 9 -27 20 -47 11 -20 31 -64 45 -97 15 -33 30 -68 36 -77 5 -10 9 -25 9 -33 0 -8 3 -15 8 -15 4 0 18 -28 31 -62 13 -35 40 -97 59 -138 19 -41 41 -91 49 -110 9 -19 24 -53 34 -75 42 -92 72 -163 89 -205 10 -25 39 -89 64 -142 25 -54 46 -101 46 -106 0 -5 11 -31 25 -58 14 -27 25 -52 25 -55 0 -4 12 -33 27 -65 14 -33 26 -62 25 -66 -1 -5 2 -8 6 -8 4 0 14 -17 21 -37 7 -21 28 -70 47 -109 19 -39 34 -79 34 -87 0 -9 4 -18 10 -22 14 -9 5 -127 -13 -161 -52 -100 -206 -144 -322 -93 -70 31 -103 72 -159 201 -27 62 -62 140 -77 173 -48 105 -79 187 -73 197 3 4 0 7 -7 6 -6 -2 -16 10 -21 26 -10 28 -48 74 -48 57 0 -10 217 -507 249 -568 28 -56 95 -111 157 -129 50 -14 207 -18 184 -4 -8 5 -4 9 12 13 36 9 106 74 130 121 14 27 21 60 21 96 0 50 -25 111 -293 720 -161 366 -350 796 -421 955 -136 309 -168 362 -242 395 -24 11 -34 20 -25 23 7 3 -30 4 -82 3 -81 -2 -103 -6 -146 -29 -90 -46 -134 -116 -134 -212 0 -50 16 -91 150 -395 l150 -340 -103 -235 -104 -234 -289 656 c-159 361 -301 673 -315 692 -38 53 -118 93 -193 96 -33 2 -73 1 -87 -1z"
       id="path852"
       style="stroke-width:69.02362208;stroke-miterlimit:4;stroke-dasharray:none" />
    <path
       d="M432 2335 c88 -47 103 -71 258 -422 201 -457 389 -884 400 -911 5 -12 15 -22 21 -22 6 0 9 6 6 13 -19 45 -162 370 -179 407 -11 25 -51 115 -88 200 -288 661 -304 691 -380 730 -56 28 -90 33 -38 5z"
       id="path854" />
    <path
       d="M2544 2350 c-64 -20 -128 -72 -157 -130 -24 -47 -28 -64 -25 -121 4 -82 33 -130 115 -190 76 -56 99 -84 119 -143 20 -58 14 -117 -17 -177 -27 -54 -16 -67 43 -50 157 47 298 189 338 341 19 71 15 181 -11 257 -42 128 -160 212 -309 219 -36 2 -79 -1 -96 -6z m140 -19 c3 -5 20 -11 38 -14 70 -10 84 -18 124 -61 102 -111 112 -324 21 -479 -14 -24 -54 -70 -89 -103 -83 -77 -241 -156 -178 -89 21 22 24 36 25 103 0 84 -16 131 -64 180 -34 34 -79 72 -87 72 -12 0 -54 51 -74 90 -36 70 -21 162 37 225 30 34 80 65 107 67 14 1 26 6 26 10 0 11 108 10 114 -1z m227 -514 c-10 -9 -11 -8 -5 6 3 10 9 15 12 12 3 -3 0 -11 -7 -18z"
       id="path856" />
    <path
       d="M1428 2329 c69 -34 104 -87 193 -287 45 -103 92 -209 104 -237 34 -76 131 -296 190 -430 29 -66 61 -140 72 -165 11 -25 62 -139 113 -255 51 -116 109 -248 130 -295 145 -321 152 -341 148 -412 -5 -84 -39 -138 -118 -186 -30 -19 -44 -31 -30 -27 68 19 137 87 160 159 27 85 25 90 -394 1041 -219 495 -409 925 -422 955 -14 30 -39 70 -57 88 -32 34 -95 72 -119 72 -7 0 6 -10 30 -21z"
       id="path858"
       style="stroke-width:26.50393703;stroke-miterlimit:4;stroke-dasharray:none" />
    <path
       d="M378 2293 c6 -2 18 -2 25 0 6 3 1 5 -13 5 -14 0 -19 -2 -12 -5z"
       id="path860" />
    <path
       d="M581 1994 c0 -11 3 -14 6 -6 3 7 2 16 -1 19 -3 4 -6 -2 -5 -13z"
       id="path862" />
    <path
       d="M641 1854 c0 -11 3 -14 6 -6 3 7 2 16 -1 19 -3 4 -6 -2 -5 -13z"
       id="path864" />
    <path
       d="M1041 934 c0 -11 3 -14 6 -6 3 7 2 16 -1 19 -3 4 -6 -2 -5 -13z"
       id="path866" />
  </g>
</svg>
